%TF.GenerationSoftware,KiCad,Pcbnew,9.0.3*%
%TF.CreationDate,2025-11-19T11:08:36-08:00*%
%TF.ProjectId,pcb,7063622e-6b69-4636-9164-5f7063625858,rev?*%
%TF.SameCoordinates,Original*%
%TF.FileFunction,Drillmap*%
%TF.FilePolarity,Positive*%
%FSLAX45Y45*%
G04 Gerber Fmt 4.5, Leading zero omitted, Abs format (unit mm)*
G04 Created by KiCad (PCBNEW 9.0.3) date 2025-11-19 11:08:36*
%MOMM*%
%LPD*%
G01*
G04 APERTURE LIST*
%ADD10C,0.100000*%
%ADD11C,0.200000*%
%ADD12C,0.102000*%
G04 APERTURE END LIST*
D10*
X7410000Y-12112000D02*
G75*
G02*
X7210000Y-11912000I0J200000D01*
G01*
X12544000Y-11912000D02*
G75*
G02*
X12344000Y-12112000I-200000J0D01*
G01*
X7210000Y-5200000D02*
G75*
G02*
X7410000Y-5000000I200000J0D01*
G01*
X7410000Y-5000000D02*
X12344000Y-5000000D01*
X12344000Y-5000000D02*
G75*
G02*
X12544000Y-5200000I0J-200000D01*
G01*
X12544000Y-5200000D02*
X12544000Y-11912000D01*
X12344000Y-12112000D02*
X7410000Y-12112000D01*
X7210000Y-11912000D02*
X7210000Y-5200000D01*
D11*
D10*
X11190000Y-11730000D02*
X11230000Y-11770000D01*
X11230000Y-11730000D02*
X11190000Y-11770000D01*
X7736000Y-7250000D02*
G75*
G02*
X7666000Y-7250000I-35000J0D01*
G01*
X7666000Y-7250000D02*
G75*
G02*
X7736000Y-7250000I35000J0D01*
G01*
X8129000Y-8937000D02*
G75*
G02*
X8059000Y-8937000I-35000J0D01*
G01*
X8059000Y-8937000D02*
G75*
G02*
X8129000Y-8937000I35000J0D01*
G01*
X8129000Y-9572000D02*
G75*
G02*
X8059000Y-9572000I-35000J0D01*
G01*
X8059000Y-9572000D02*
G75*
G02*
X8129000Y-9572000I35000J0D01*
G01*
X8129000Y-10207000D02*
G75*
G02*
X8059000Y-10207000I-35000J0D01*
G01*
X8059000Y-10207000D02*
G75*
G02*
X8129000Y-10207000I35000J0D01*
G01*
X8136000Y-9250000D02*
G75*
G02*
X8066000Y-9250000I-35000J0D01*
G01*
X8066000Y-9250000D02*
G75*
G02*
X8136000Y-9250000I35000J0D01*
G01*
X8145000Y-9900000D02*
G75*
G02*
X8075000Y-9900000I-35000J0D01*
G01*
X8075000Y-9900000D02*
G75*
G02*
X8145000Y-9900000I35000J0D01*
G01*
X8244000Y-7250000D02*
G75*
G02*
X8174000Y-7250000I-35000J0D01*
G01*
X8174000Y-7250000D02*
G75*
G02*
X8244000Y-7250000I35000J0D01*
G01*
X8256000Y-10842000D02*
G75*
G02*
X8186000Y-10842000I-35000J0D01*
G01*
X8186000Y-10842000D02*
G75*
G02*
X8256000Y-10842000I35000J0D01*
G01*
X8637000Y-8937000D02*
G75*
G02*
X8567000Y-8937000I-35000J0D01*
G01*
X8567000Y-8937000D02*
G75*
G02*
X8637000Y-8937000I35000J0D01*
G01*
X8637000Y-9572000D02*
G75*
G02*
X8567000Y-9572000I-35000J0D01*
G01*
X8567000Y-9572000D02*
G75*
G02*
X8637000Y-9572000I35000J0D01*
G01*
X8637000Y-10207000D02*
G75*
G02*
X8567000Y-10207000I-35000J0D01*
G01*
X8567000Y-10207000D02*
G75*
G02*
X8637000Y-10207000I35000J0D01*
G01*
X8644000Y-9250000D02*
G75*
G02*
X8574000Y-9250000I-35000J0D01*
G01*
X8574000Y-9250000D02*
G75*
G02*
X8644000Y-9250000I35000J0D01*
G01*
X8653000Y-9900000D02*
G75*
G02*
X8583000Y-9900000I-35000J0D01*
G01*
X8583000Y-9900000D02*
G75*
G02*
X8653000Y-9900000I35000J0D01*
G01*
X8764000Y-10842000D02*
G75*
G02*
X8694000Y-10842000I-35000J0D01*
G01*
X8694000Y-10842000D02*
G75*
G02*
X8764000Y-10842000I35000J0D01*
G01*
X8821000Y-10555000D02*
G75*
G02*
X8751000Y-10555000I-35000J0D01*
G01*
X8751000Y-10555000D02*
G75*
G02*
X8821000Y-10555000I35000J0D01*
G01*
X9329000Y-10555000D02*
G75*
G02*
X9259000Y-10555000I-35000J0D01*
G01*
X9259000Y-10555000D02*
G75*
G02*
X9329000Y-10555000I35000J0D01*
G01*
X11944000Y-7291000D02*
G75*
G02*
X11874000Y-7291000I-35000J0D01*
G01*
X11874000Y-7291000D02*
G75*
G02*
X11944000Y-7291000I35000J0D01*
G01*
X11944000Y-7799000D02*
G75*
G02*
X11874000Y-7799000I-35000J0D01*
G01*
X11874000Y-7799000D02*
G75*
G02*
X11944000Y-7799000I35000J0D01*
G01*
X11944000Y-8048000D02*
G75*
G02*
X11874000Y-8048000I-35000J0D01*
G01*
X11874000Y-8048000D02*
G75*
G02*
X11944000Y-8048000I35000J0D01*
G01*
X11944000Y-8556000D02*
G75*
G02*
X11874000Y-8556000I-35000J0D01*
G01*
X11874000Y-8556000D02*
G75*
G02*
X11944000Y-8556000I35000J0D01*
G01*
X12110000Y-5985500D02*
X12110000Y-6060500D01*
X12072500Y-6023000D02*
X12147500Y-6023000D01*
X12110000Y-6112500D02*
X12110000Y-6187500D01*
X12072500Y-6150000D02*
X12147500Y-6150000D01*
X12110000Y-6239500D02*
X12110000Y-6314500D01*
X12072500Y-6277000D02*
X12147500Y-6277000D01*
X8163284Y-8628285D02*
X8163284Y-8571716D01*
X8106715Y-8571716D01*
X8106715Y-8628285D01*
X8163284Y-8628285D01*
X8413285Y-8628285D02*
X8413285Y-8571716D01*
X8356715Y-8571716D01*
X8356715Y-8628285D01*
X8413285Y-8628285D01*
X8638285Y-6178284D02*
X8638285Y-6121715D01*
X8581716Y-6121715D01*
X8581716Y-6178284D01*
X8638285Y-6178284D01*
X8638285Y-6428284D02*
X8638285Y-6371715D01*
X8581716Y-6371715D01*
X8581716Y-6428284D01*
X8638285Y-6428284D01*
X8688285Y-7778284D02*
X8688285Y-7721715D01*
X8631716Y-7721715D01*
X8631716Y-7778284D01*
X8688285Y-7778284D01*
X8688285Y-8028284D02*
X8688285Y-7971715D01*
X8631716Y-7971715D01*
X8631716Y-8028284D01*
X8688285Y-8028284D01*
X9778285Y-11124285D02*
X9778285Y-11067716D01*
X9721716Y-11067716D01*
X9721716Y-11124285D01*
X9778285Y-11124285D01*
X9778285Y-11886284D02*
X9778285Y-11829715D01*
X9721716Y-11829715D01*
X9721716Y-11886284D01*
X9778285Y-11886284D01*
X10032285Y-11124285D02*
X10032285Y-11067716D01*
X9975716Y-11067716D01*
X9975716Y-11124285D01*
X10032285Y-11124285D01*
X10032285Y-11886284D02*
X10032285Y-11829715D01*
X9975716Y-11829715D01*
X9975716Y-11886284D01*
X10032285Y-11886284D01*
X10286285Y-11124285D02*
X10286285Y-11067716D01*
X10229716Y-11067716D01*
X10229716Y-11124285D01*
X10286285Y-11124285D01*
X10286285Y-11886284D02*
X10286285Y-11829715D01*
X10229716Y-11829715D01*
X10229716Y-11886284D01*
X10286285Y-11886284D01*
X10540285Y-11124285D02*
X10540285Y-11067716D01*
X10483716Y-11067716D01*
X10483716Y-11124285D01*
X10540285Y-11124285D01*
X10540285Y-11886284D02*
X10540285Y-11829715D01*
X10483716Y-11829715D01*
X10483716Y-11886284D01*
X10540285Y-11886284D01*
X12238284Y-8697285D02*
X12238284Y-8640716D01*
X12181715Y-8640716D01*
X12181715Y-8697285D01*
X12238284Y-8697285D01*
X12238284Y-9459285D02*
X12238284Y-9402716D01*
X12181715Y-9402716D01*
X12181715Y-9459285D01*
X12238284Y-9459285D01*
X12288284Y-7314284D02*
X12288284Y-7257715D01*
X12231715Y-7257715D01*
X12231715Y-7314284D01*
X12288284Y-7314284D01*
X12288284Y-8076284D02*
X12288284Y-8019715D01*
X12231715Y-8019715D01*
X12231715Y-8076284D01*
X12288284Y-8076284D01*
X7672000Y-6569000D02*
X7717000Y-6524000D01*
X7672000Y-6479000D01*
X7627000Y-6524000D01*
X7672000Y-6569000D01*
X7717000Y-6564000D02*
X7717000Y-6484000D01*
X7627000Y-6484000D02*
G75*
G02*
X7717000Y-6484000I45000J0D01*
G01*
X7627000Y-6484000D02*
X7627000Y-6564000D01*
X7627000Y-6564000D02*
G75*
G03*
X7717000Y-6564000I45000J0D01*
G01*
X7718000Y-8728000D02*
X7763000Y-8683000D01*
X7718000Y-8638000D01*
X7673000Y-8683000D01*
X7718000Y-8728000D01*
X7718000Y-8982000D02*
X7763000Y-8937000D01*
X7718000Y-8892000D01*
X7673000Y-8937000D01*
X7718000Y-8982000D01*
X7718000Y-9363000D02*
X7763000Y-9318000D01*
X7718000Y-9273000D01*
X7673000Y-9318000D01*
X7718000Y-9363000D01*
X7718000Y-9617000D02*
X7763000Y-9572000D01*
X7718000Y-9527000D01*
X7673000Y-9572000D01*
X7718000Y-9617000D01*
X7718000Y-10633000D02*
X7763000Y-10588000D01*
X7718000Y-10543000D01*
X7673000Y-10588000D01*
X7718000Y-10633000D01*
X7718000Y-10887000D02*
X7763000Y-10842000D01*
X7718000Y-10797000D01*
X7673000Y-10842000D01*
X7718000Y-10887000D01*
X7747500Y-9998000D02*
X7792500Y-9953000D01*
X7747500Y-9908000D01*
X7702500Y-9953000D01*
X7747500Y-9998000D01*
X7747500Y-10252000D02*
X7792500Y-10207000D01*
X7747500Y-10162000D01*
X7702500Y-10207000D01*
X7747500Y-10252000D01*
X8172000Y-6069000D02*
X8217000Y-6024000D01*
X8172000Y-5979000D01*
X8127000Y-6024000D01*
X8172000Y-6069000D01*
X8132000Y-6069000D02*
X8212000Y-6069000D01*
X8212000Y-5979000D02*
G75*
G02*
X8212000Y-6069000I0J-45000D01*
G01*
X8212000Y-5979000D02*
X8132000Y-5979000D01*
X8132000Y-5979000D02*
G75*
G03*
X8132000Y-6069000I0J-45000D01*
G01*
X8172000Y-6319000D02*
X8217000Y-6274000D01*
X8172000Y-6229000D01*
X8127000Y-6274000D01*
X8172000Y-6319000D01*
X8132000Y-6319000D02*
X8212000Y-6319000D01*
X8212000Y-6229000D02*
G75*
G02*
X8212000Y-6319000I0J-45000D01*
G01*
X8212000Y-6229000D02*
X8132000Y-6229000D01*
X8132000Y-6229000D02*
G75*
G03*
X8132000Y-6319000I0J-45000D01*
G01*
X8172000Y-6819000D02*
X8217000Y-6774000D01*
X8172000Y-6729000D01*
X8127000Y-6774000D01*
X8172000Y-6819000D01*
X8132000Y-6819000D02*
X8212000Y-6819000D01*
X8212000Y-6729000D02*
G75*
G02*
X8212000Y-6819000I0J-45000D01*
G01*
X8212000Y-6729000D02*
X8132000Y-6729000D01*
X8132000Y-6729000D02*
G75*
G03*
X8132000Y-6819000I0J-45000D01*
G01*
X8172000Y-7069000D02*
X8217000Y-7024000D01*
X8172000Y-6979000D01*
X8127000Y-7024000D01*
X8172000Y-7069000D01*
X8132000Y-7069000D02*
X8212000Y-7069000D01*
X8212000Y-6979000D02*
G75*
G02*
X8212000Y-7069000I0J-45000D01*
G01*
X8212000Y-6979000D02*
X8132000Y-6979000D01*
X8132000Y-6979000D02*
G75*
G03*
X8132000Y-7069000I0J-45000D01*
G01*
X8303000Y-5204000D02*
X8403000Y-5304000D01*
X8403000Y-5204000D02*
X8303000Y-5304000D01*
X8403000Y-5254000D02*
G75*
G02*
X8303000Y-5254000I-50000J0D01*
G01*
X8303000Y-5254000D02*
G75*
G02*
X8403000Y-5254000I50000J0D01*
G01*
X8553000Y-5454000D02*
X8653000Y-5554000D01*
X8653000Y-5454000D02*
X8553000Y-5554000D01*
X8653000Y-5504000D02*
G75*
G02*
X8553000Y-5504000I-50000J0D01*
G01*
X8553000Y-5504000D02*
G75*
G02*
X8653000Y-5504000I50000J0D01*
G01*
X8803000Y-5204000D02*
X8903000Y-5304000D01*
X8903000Y-5204000D02*
X8803000Y-5304000D01*
X8903000Y-5254000D02*
G75*
G02*
X8803000Y-5254000I-50000J0D01*
G01*
X8803000Y-5254000D02*
G75*
G02*
X8903000Y-5254000I50000J0D01*
G01*
D12*
X9318000Y-5136000D02*
X9420000Y-5238000D01*
X9420000Y-5136000D02*
X9318000Y-5238000D01*
X9369000Y-5136000D02*
X9369000Y-5238000D01*
X9318000Y-5187000D02*
X9420000Y-5187000D01*
X9318000Y-5390000D02*
X9420000Y-5492000D01*
X9420000Y-5390000D02*
X9318000Y-5492000D01*
X9369000Y-5390000D02*
X9369000Y-5492000D01*
X9318000Y-5441000D02*
X9420000Y-5441000D01*
X9318000Y-5644000D02*
X9420000Y-5746000D01*
X9420000Y-5644000D02*
X9318000Y-5746000D01*
X9369000Y-5644000D02*
X9369000Y-5746000D01*
X9318000Y-5695000D02*
X9420000Y-5695000D01*
X9318000Y-5898000D02*
X9420000Y-6000000D01*
X9420000Y-5898000D02*
X9318000Y-6000000D01*
X9369000Y-5898000D02*
X9369000Y-6000000D01*
X9318000Y-5949000D02*
X9420000Y-5949000D01*
X9318000Y-6152000D02*
X9420000Y-6254000D01*
X9420000Y-6152000D02*
X9318000Y-6254000D01*
X9369000Y-6152000D02*
X9369000Y-6254000D01*
X9318000Y-6203000D02*
X9420000Y-6203000D01*
X9318000Y-6406000D02*
X9420000Y-6508000D01*
X9420000Y-6406000D02*
X9318000Y-6508000D01*
X9369000Y-6406000D02*
X9369000Y-6508000D01*
X9318000Y-6457000D02*
X9420000Y-6457000D01*
X9318000Y-6660000D02*
X9420000Y-6762000D01*
X9420000Y-6660000D02*
X9318000Y-6762000D01*
X9369000Y-6660000D02*
X9369000Y-6762000D01*
X9318000Y-6711000D02*
X9420000Y-6711000D01*
X9318000Y-6914000D02*
X9420000Y-7016000D01*
X9420000Y-6914000D02*
X9318000Y-7016000D01*
X9369000Y-6914000D02*
X9369000Y-7016000D01*
X9318000Y-6965000D02*
X9420000Y-6965000D01*
X9318000Y-7168000D02*
X9420000Y-7270000D01*
X9420000Y-7168000D02*
X9318000Y-7270000D01*
X9369000Y-7168000D02*
X9369000Y-7270000D01*
X9318000Y-7219000D02*
X9420000Y-7219000D01*
X9318000Y-7422000D02*
X9420000Y-7524000D01*
X9420000Y-7422000D02*
X9318000Y-7524000D01*
X9369000Y-7422000D02*
X9369000Y-7524000D01*
X9318000Y-7473000D02*
X9420000Y-7473000D01*
X9318000Y-7676000D02*
X9420000Y-7778000D01*
X9420000Y-7676000D02*
X9318000Y-7778000D01*
X9369000Y-7676000D02*
X9369000Y-7778000D01*
X9318000Y-7727000D02*
X9420000Y-7727000D01*
X9318000Y-7930000D02*
X9420000Y-8032000D01*
X9420000Y-7930000D02*
X9318000Y-8032000D01*
X9369000Y-7930000D02*
X9369000Y-8032000D01*
X9318000Y-7981000D02*
X9420000Y-7981000D01*
X9318000Y-8184000D02*
X9420000Y-8286000D01*
X9420000Y-8184000D02*
X9318000Y-8286000D01*
X9369000Y-8184000D02*
X9369000Y-8286000D01*
X9318000Y-8235000D02*
X9420000Y-8235000D01*
X9318000Y-8438000D02*
X9420000Y-8540000D01*
X9420000Y-8438000D02*
X9318000Y-8540000D01*
X9369000Y-8438000D02*
X9369000Y-8540000D01*
X9318000Y-8489000D02*
X9420000Y-8489000D01*
X9318000Y-8692000D02*
X9420000Y-8794000D01*
X9420000Y-8692000D02*
X9318000Y-8794000D01*
X9369000Y-8692000D02*
X9369000Y-8794000D01*
X9318000Y-8743000D02*
X9420000Y-8743000D01*
X9318000Y-8946000D02*
X9420000Y-9048000D01*
X9420000Y-8946000D02*
X9318000Y-9048000D01*
X9369000Y-8946000D02*
X9369000Y-9048000D01*
X9318000Y-8997000D02*
X9420000Y-8997000D01*
X9318000Y-9200000D02*
X9420000Y-9302000D01*
X9420000Y-9200000D02*
X9318000Y-9302000D01*
X9369000Y-9200000D02*
X9369000Y-9302000D01*
X9318000Y-9251000D02*
X9420000Y-9251000D01*
X9318000Y-9454000D02*
X9420000Y-9556000D01*
X9420000Y-9454000D02*
X9318000Y-9556000D01*
X9369000Y-9454000D02*
X9369000Y-9556000D01*
X9318000Y-9505000D02*
X9420000Y-9505000D01*
X9318000Y-9708000D02*
X9420000Y-9810000D01*
X9420000Y-9708000D02*
X9318000Y-9810000D01*
X9369000Y-9708000D02*
X9369000Y-9810000D01*
X9318000Y-9759000D02*
X9420000Y-9759000D01*
X9318000Y-9962000D02*
X9420000Y-10064000D01*
X9420000Y-9962000D02*
X9318000Y-10064000D01*
X9369000Y-9962000D02*
X9369000Y-10064000D01*
X9318000Y-10013000D02*
X9420000Y-10013000D01*
X9953000Y-9939000D02*
X10055000Y-10041000D01*
X10055000Y-9939000D02*
X9953000Y-10041000D01*
X10004000Y-9939000D02*
X10004000Y-10041000D01*
X9953000Y-9990000D02*
X10055000Y-9990000D01*
X10207000Y-9939000D02*
X10309000Y-10041000D01*
X10309000Y-9939000D02*
X10207000Y-10041000D01*
X10258000Y-9939000D02*
X10258000Y-10041000D01*
X10207000Y-9990000D02*
X10309000Y-9990000D01*
X10461000Y-9939000D02*
X10563000Y-10041000D01*
X10563000Y-9939000D02*
X10461000Y-10041000D01*
X10512000Y-9939000D02*
X10512000Y-10041000D01*
X10461000Y-9990000D02*
X10563000Y-9990000D01*
X11096000Y-5136000D02*
X11198000Y-5238000D01*
X11198000Y-5136000D02*
X11096000Y-5238000D01*
X11147000Y-5136000D02*
X11147000Y-5238000D01*
X11096000Y-5187000D02*
X11198000Y-5187000D01*
X11096000Y-5390000D02*
X11198000Y-5492000D01*
X11198000Y-5390000D02*
X11096000Y-5492000D01*
X11147000Y-5390000D02*
X11147000Y-5492000D01*
X11096000Y-5441000D02*
X11198000Y-5441000D01*
X11096000Y-5644000D02*
X11198000Y-5746000D01*
X11198000Y-5644000D02*
X11096000Y-5746000D01*
X11147000Y-5644000D02*
X11147000Y-5746000D01*
X11096000Y-5695000D02*
X11198000Y-5695000D01*
X11096000Y-5898000D02*
X11198000Y-6000000D01*
X11198000Y-5898000D02*
X11096000Y-6000000D01*
X11147000Y-5898000D02*
X11147000Y-6000000D01*
X11096000Y-5949000D02*
X11198000Y-5949000D01*
X11096000Y-6152000D02*
X11198000Y-6254000D01*
X11198000Y-6152000D02*
X11096000Y-6254000D01*
X11147000Y-6152000D02*
X11147000Y-6254000D01*
X11096000Y-6203000D02*
X11198000Y-6203000D01*
X11096000Y-6406000D02*
X11198000Y-6508000D01*
X11198000Y-6406000D02*
X11096000Y-6508000D01*
X11147000Y-6406000D02*
X11147000Y-6508000D01*
X11096000Y-6457000D02*
X11198000Y-6457000D01*
X11096000Y-6660000D02*
X11198000Y-6762000D01*
X11198000Y-6660000D02*
X11096000Y-6762000D01*
X11147000Y-6660000D02*
X11147000Y-6762000D01*
X11096000Y-6711000D02*
X11198000Y-6711000D01*
X11096000Y-6914000D02*
X11198000Y-7016000D01*
X11198000Y-6914000D02*
X11096000Y-7016000D01*
X11147000Y-6914000D02*
X11147000Y-7016000D01*
X11096000Y-6965000D02*
X11198000Y-6965000D01*
X11096000Y-7168000D02*
X11198000Y-7270000D01*
X11198000Y-7168000D02*
X11096000Y-7270000D01*
X11147000Y-7168000D02*
X11147000Y-7270000D01*
X11096000Y-7219000D02*
X11198000Y-7219000D01*
X11096000Y-7422000D02*
X11198000Y-7524000D01*
X11198000Y-7422000D02*
X11096000Y-7524000D01*
X11147000Y-7422000D02*
X11147000Y-7524000D01*
X11096000Y-7473000D02*
X11198000Y-7473000D01*
X11096000Y-7676000D02*
X11198000Y-7778000D01*
X11198000Y-7676000D02*
X11096000Y-7778000D01*
X11147000Y-7676000D02*
X11147000Y-7778000D01*
X11096000Y-7727000D02*
X11198000Y-7727000D01*
X11096000Y-7930000D02*
X11198000Y-8032000D01*
X11198000Y-7930000D02*
X11096000Y-8032000D01*
X11147000Y-7930000D02*
X11147000Y-8032000D01*
X11096000Y-7981000D02*
X11198000Y-7981000D01*
X11096000Y-8184000D02*
X11198000Y-8286000D01*
X11198000Y-8184000D02*
X11096000Y-8286000D01*
X11147000Y-8184000D02*
X11147000Y-8286000D01*
X11096000Y-8235000D02*
X11198000Y-8235000D01*
X11096000Y-8438000D02*
X11198000Y-8540000D01*
X11198000Y-8438000D02*
X11096000Y-8540000D01*
X11147000Y-8438000D02*
X11147000Y-8540000D01*
X11096000Y-8489000D02*
X11198000Y-8489000D01*
X11096000Y-8692000D02*
X11198000Y-8794000D01*
X11198000Y-8692000D02*
X11096000Y-8794000D01*
X11147000Y-8692000D02*
X11147000Y-8794000D01*
X11096000Y-8743000D02*
X11198000Y-8743000D01*
X11096000Y-8946000D02*
X11198000Y-9048000D01*
X11198000Y-8946000D02*
X11096000Y-9048000D01*
X11147000Y-8946000D02*
X11147000Y-9048000D01*
X11096000Y-8997000D02*
X11198000Y-8997000D01*
X11096000Y-9200000D02*
X11198000Y-9302000D01*
X11198000Y-9200000D02*
X11096000Y-9302000D01*
X11147000Y-9200000D02*
X11147000Y-9302000D01*
X11096000Y-9251000D02*
X11198000Y-9251000D01*
X11096000Y-9454000D02*
X11198000Y-9556000D01*
X11198000Y-9454000D02*
X11096000Y-9556000D01*
X11147000Y-9454000D02*
X11147000Y-9556000D01*
X11096000Y-9505000D02*
X11198000Y-9505000D01*
X11096000Y-9708000D02*
X11198000Y-9810000D01*
X11198000Y-9708000D02*
X11096000Y-9810000D01*
X11147000Y-9708000D02*
X11147000Y-9810000D01*
X11096000Y-9759000D02*
X11198000Y-9759000D01*
X11096000Y-9962000D02*
X11198000Y-10064000D01*
X11198000Y-9962000D02*
X11096000Y-10064000D01*
X11147000Y-9962000D02*
X11147000Y-10064000D01*
X11096000Y-10013000D02*
X11198000Y-10013000D01*
D11*
X7465777Y-12428484D02*
X7465777Y-12228484D01*
X7465777Y-12228484D02*
X7513396Y-12228484D01*
X7513396Y-12228484D02*
X7541967Y-12238008D01*
X7541967Y-12238008D02*
X7561015Y-12257055D01*
X7561015Y-12257055D02*
X7570539Y-12276103D01*
X7570539Y-12276103D02*
X7580062Y-12314198D01*
X7580062Y-12314198D02*
X7580062Y-12342769D01*
X7580062Y-12342769D02*
X7570539Y-12380865D01*
X7570539Y-12380865D02*
X7561015Y-12399912D01*
X7561015Y-12399912D02*
X7541967Y-12418960D01*
X7541967Y-12418960D02*
X7513396Y-12428484D01*
X7513396Y-12428484D02*
X7465777Y-12428484D01*
X7665777Y-12428484D02*
X7665777Y-12295150D01*
X7665777Y-12333246D02*
X7675301Y-12314198D01*
X7675301Y-12314198D02*
X7684824Y-12304674D01*
X7684824Y-12304674D02*
X7703872Y-12295150D01*
X7703872Y-12295150D02*
X7722920Y-12295150D01*
X7789586Y-12428484D02*
X7789586Y-12295150D01*
X7789586Y-12228484D02*
X7780062Y-12238008D01*
X7780062Y-12238008D02*
X7789586Y-12247531D01*
X7789586Y-12247531D02*
X7799110Y-12238008D01*
X7799110Y-12238008D02*
X7789586Y-12228484D01*
X7789586Y-12228484D02*
X7789586Y-12247531D01*
X7913396Y-12428484D02*
X7894348Y-12418960D01*
X7894348Y-12418960D02*
X7884824Y-12399912D01*
X7884824Y-12399912D02*
X7884824Y-12228484D01*
X8018158Y-12428484D02*
X7999110Y-12418960D01*
X7999110Y-12418960D02*
X7989586Y-12399912D01*
X7989586Y-12399912D02*
X7989586Y-12228484D01*
X8246729Y-12428484D02*
X8246729Y-12228484D01*
X8246729Y-12228484D02*
X8313396Y-12371341D01*
X8313396Y-12371341D02*
X8380062Y-12228484D01*
X8380062Y-12228484D02*
X8380062Y-12428484D01*
X8561015Y-12428484D02*
X8561015Y-12323722D01*
X8561015Y-12323722D02*
X8551491Y-12304674D01*
X8551491Y-12304674D02*
X8532444Y-12295150D01*
X8532444Y-12295150D02*
X8494348Y-12295150D01*
X8494348Y-12295150D02*
X8475301Y-12304674D01*
X8561015Y-12418960D02*
X8541967Y-12428484D01*
X8541967Y-12428484D02*
X8494348Y-12428484D01*
X8494348Y-12428484D02*
X8475301Y-12418960D01*
X8475301Y-12418960D02*
X8465777Y-12399912D01*
X8465777Y-12399912D02*
X8465777Y-12380865D01*
X8465777Y-12380865D02*
X8475301Y-12361817D01*
X8475301Y-12361817D02*
X8494348Y-12352293D01*
X8494348Y-12352293D02*
X8541967Y-12352293D01*
X8541967Y-12352293D02*
X8561015Y-12342769D01*
X8656253Y-12295150D02*
X8656253Y-12495150D01*
X8656253Y-12304674D02*
X8675301Y-12295150D01*
X8675301Y-12295150D02*
X8713396Y-12295150D01*
X8713396Y-12295150D02*
X8732444Y-12304674D01*
X8732444Y-12304674D02*
X8741967Y-12314198D01*
X8741967Y-12314198D02*
X8751491Y-12333246D01*
X8751491Y-12333246D02*
X8751491Y-12390388D01*
X8751491Y-12390388D02*
X8741967Y-12409436D01*
X8741967Y-12409436D02*
X8732444Y-12418960D01*
X8732444Y-12418960D02*
X8713396Y-12428484D01*
X8713396Y-12428484D02*
X8675301Y-12428484D01*
X8675301Y-12428484D02*
X8656253Y-12418960D01*
X8837205Y-12409436D02*
X8846729Y-12418960D01*
X8846729Y-12418960D02*
X8837205Y-12428484D01*
X8837205Y-12428484D02*
X8827682Y-12418960D01*
X8827682Y-12418960D02*
X8837205Y-12409436D01*
X8837205Y-12409436D02*
X8837205Y-12428484D01*
X8837205Y-12304674D02*
X8846729Y-12314198D01*
X8846729Y-12314198D02*
X8837205Y-12323722D01*
X8837205Y-12323722D02*
X8827682Y-12314198D01*
X8827682Y-12314198D02*
X8837205Y-12304674D01*
X8837205Y-12304674D02*
X8837205Y-12323722D01*
D10*
X7165000Y-12737000D02*
X7205000Y-12777000D01*
X7205000Y-12737000D02*
X7165000Y-12777000D01*
D11*
X7503872Y-12648484D02*
X7522920Y-12648484D01*
X7522920Y-12648484D02*
X7541967Y-12658008D01*
X7541967Y-12658008D02*
X7551491Y-12667531D01*
X7551491Y-12667531D02*
X7561015Y-12686579D01*
X7561015Y-12686579D02*
X7570539Y-12724674D01*
X7570539Y-12724674D02*
X7570539Y-12772293D01*
X7570539Y-12772293D02*
X7561015Y-12810388D01*
X7561015Y-12810388D02*
X7551491Y-12829436D01*
X7551491Y-12829436D02*
X7541967Y-12838960D01*
X7541967Y-12838960D02*
X7522920Y-12848484D01*
X7522920Y-12848484D02*
X7503872Y-12848484D01*
X7503872Y-12848484D02*
X7484824Y-12838960D01*
X7484824Y-12838960D02*
X7475301Y-12829436D01*
X7475301Y-12829436D02*
X7465777Y-12810388D01*
X7465777Y-12810388D02*
X7456253Y-12772293D01*
X7456253Y-12772293D02*
X7456253Y-12724674D01*
X7456253Y-12724674D02*
X7465777Y-12686579D01*
X7465777Y-12686579D02*
X7475301Y-12667531D01*
X7475301Y-12667531D02*
X7484824Y-12658008D01*
X7484824Y-12658008D02*
X7503872Y-12648484D01*
X7656253Y-12829436D02*
X7665777Y-12838960D01*
X7665777Y-12838960D02*
X7656253Y-12848484D01*
X7656253Y-12848484D02*
X7646729Y-12838960D01*
X7646729Y-12838960D02*
X7656253Y-12829436D01*
X7656253Y-12829436D02*
X7656253Y-12848484D01*
X7837205Y-12715150D02*
X7837205Y-12848484D01*
X7789586Y-12638960D02*
X7741967Y-12781817D01*
X7741967Y-12781817D02*
X7865777Y-12781817D01*
X7980062Y-12648484D02*
X7999110Y-12648484D01*
X7999110Y-12648484D02*
X8018158Y-12658008D01*
X8018158Y-12658008D02*
X8027682Y-12667531D01*
X8027682Y-12667531D02*
X8037205Y-12686579D01*
X8037205Y-12686579D02*
X8046729Y-12724674D01*
X8046729Y-12724674D02*
X8046729Y-12772293D01*
X8046729Y-12772293D02*
X8037205Y-12810388D01*
X8037205Y-12810388D02*
X8027682Y-12829436D01*
X8027682Y-12829436D02*
X8018158Y-12838960D01*
X8018158Y-12838960D02*
X7999110Y-12848484D01*
X7999110Y-12848484D02*
X7980062Y-12848484D01*
X7980062Y-12848484D02*
X7961015Y-12838960D01*
X7961015Y-12838960D02*
X7951491Y-12829436D01*
X7951491Y-12829436D02*
X7941967Y-12810388D01*
X7941967Y-12810388D02*
X7932443Y-12772293D01*
X7932443Y-12772293D02*
X7932443Y-12724674D01*
X7932443Y-12724674D02*
X7941967Y-12686579D01*
X7941967Y-12686579D02*
X7951491Y-12667531D01*
X7951491Y-12667531D02*
X7961015Y-12658008D01*
X7961015Y-12658008D02*
X7980062Y-12648484D01*
X8170539Y-12648484D02*
X8189586Y-12648484D01*
X8189586Y-12648484D02*
X8208634Y-12658008D01*
X8208634Y-12658008D02*
X8218158Y-12667531D01*
X8218158Y-12667531D02*
X8227682Y-12686579D01*
X8227682Y-12686579D02*
X8237205Y-12724674D01*
X8237205Y-12724674D02*
X8237205Y-12772293D01*
X8237205Y-12772293D02*
X8227682Y-12810388D01*
X8227682Y-12810388D02*
X8218158Y-12829436D01*
X8218158Y-12829436D02*
X8208634Y-12838960D01*
X8208634Y-12838960D02*
X8189586Y-12848484D01*
X8189586Y-12848484D02*
X8170539Y-12848484D01*
X8170539Y-12848484D02*
X8151491Y-12838960D01*
X8151491Y-12838960D02*
X8141967Y-12829436D01*
X8141967Y-12829436D02*
X8132443Y-12810388D01*
X8132443Y-12810388D02*
X8122920Y-12772293D01*
X8122920Y-12772293D02*
X8122920Y-12724674D01*
X8122920Y-12724674D02*
X8132443Y-12686579D01*
X8132443Y-12686579D02*
X8141967Y-12667531D01*
X8141967Y-12667531D02*
X8151491Y-12658008D01*
X8151491Y-12658008D02*
X8170539Y-12648484D01*
X8322920Y-12848484D02*
X8322920Y-12715150D01*
X8322920Y-12734198D02*
X8332443Y-12724674D01*
X8332443Y-12724674D02*
X8351491Y-12715150D01*
X8351491Y-12715150D02*
X8380063Y-12715150D01*
X8380063Y-12715150D02*
X8399110Y-12724674D01*
X8399110Y-12724674D02*
X8408634Y-12743722D01*
X8408634Y-12743722D02*
X8408634Y-12848484D01*
X8408634Y-12743722D02*
X8418158Y-12724674D01*
X8418158Y-12724674D02*
X8437205Y-12715150D01*
X8437205Y-12715150D02*
X8465777Y-12715150D01*
X8465777Y-12715150D02*
X8484825Y-12724674D01*
X8484825Y-12724674D02*
X8494348Y-12743722D01*
X8494348Y-12743722D02*
X8494348Y-12848484D01*
X8589586Y-12848484D02*
X8589586Y-12715150D01*
X8589586Y-12734198D02*
X8599110Y-12724674D01*
X8599110Y-12724674D02*
X8618158Y-12715150D01*
X8618158Y-12715150D02*
X8646729Y-12715150D01*
X8646729Y-12715150D02*
X8665777Y-12724674D01*
X8665777Y-12724674D02*
X8675301Y-12743722D01*
X8675301Y-12743722D02*
X8675301Y-12848484D01*
X8675301Y-12743722D02*
X8684825Y-12724674D01*
X8684825Y-12724674D02*
X8703872Y-12715150D01*
X8703872Y-12715150D02*
X8732444Y-12715150D01*
X8732444Y-12715150D02*
X8751491Y-12724674D01*
X8751491Y-12724674D02*
X8761015Y-12743722D01*
X8761015Y-12743722D02*
X8761015Y-12848484D01*
X9151491Y-12638960D02*
X8980063Y-12896103D01*
X9408634Y-12648484D02*
X9427682Y-12648484D01*
X9427682Y-12648484D02*
X9446729Y-12658008D01*
X9446729Y-12658008D02*
X9456253Y-12667531D01*
X9456253Y-12667531D02*
X9465777Y-12686579D01*
X9465777Y-12686579D02*
X9475301Y-12724674D01*
X9475301Y-12724674D02*
X9475301Y-12772293D01*
X9475301Y-12772293D02*
X9465777Y-12810388D01*
X9465777Y-12810388D02*
X9456253Y-12829436D01*
X9456253Y-12829436D02*
X9446729Y-12838960D01*
X9446729Y-12838960D02*
X9427682Y-12848484D01*
X9427682Y-12848484D02*
X9408634Y-12848484D01*
X9408634Y-12848484D02*
X9389587Y-12838960D01*
X9389587Y-12838960D02*
X9380063Y-12829436D01*
X9380063Y-12829436D02*
X9370539Y-12810388D01*
X9370539Y-12810388D02*
X9361015Y-12772293D01*
X9361015Y-12772293D02*
X9361015Y-12724674D01*
X9361015Y-12724674D02*
X9370539Y-12686579D01*
X9370539Y-12686579D02*
X9380063Y-12667531D01*
X9380063Y-12667531D02*
X9389587Y-12658008D01*
X9389587Y-12658008D02*
X9408634Y-12648484D01*
X9561015Y-12829436D02*
X9570539Y-12838960D01*
X9570539Y-12838960D02*
X9561015Y-12848484D01*
X9561015Y-12848484D02*
X9551491Y-12838960D01*
X9551491Y-12838960D02*
X9561015Y-12829436D01*
X9561015Y-12829436D02*
X9561015Y-12848484D01*
X9694348Y-12648484D02*
X9713396Y-12648484D01*
X9713396Y-12648484D02*
X9732444Y-12658008D01*
X9732444Y-12658008D02*
X9741968Y-12667531D01*
X9741968Y-12667531D02*
X9751491Y-12686579D01*
X9751491Y-12686579D02*
X9761015Y-12724674D01*
X9761015Y-12724674D02*
X9761015Y-12772293D01*
X9761015Y-12772293D02*
X9751491Y-12810388D01*
X9751491Y-12810388D02*
X9741968Y-12829436D01*
X9741968Y-12829436D02*
X9732444Y-12838960D01*
X9732444Y-12838960D02*
X9713396Y-12848484D01*
X9713396Y-12848484D02*
X9694348Y-12848484D01*
X9694348Y-12848484D02*
X9675301Y-12838960D01*
X9675301Y-12838960D02*
X9665777Y-12829436D01*
X9665777Y-12829436D02*
X9656253Y-12810388D01*
X9656253Y-12810388D02*
X9646729Y-12772293D01*
X9646729Y-12772293D02*
X9646729Y-12724674D01*
X9646729Y-12724674D02*
X9656253Y-12686579D01*
X9656253Y-12686579D02*
X9665777Y-12667531D01*
X9665777Y-12667531D02*
X9675301Y-12658008D01*
X9675301Y-12658008D02*
X9694348Y-12648484D01*
X9951491Y-12848484D02*
X9837206Y-12848484D01*
X9894348Y-12848484D02*
X9894348Y-12648484D01*
X9894348Y-12648484D02*
X9875301Y-12677055D01*
X9875301Y-12677055D02*
X9856253Y-12696103D01*
X9856253Y-12696103D02*
X9837206Y-12705627D01*
X10132444Y-12648484D02*
X10037206Y-12648484D01*
X10037206Y-12648484D02*
X10027682Y-12743722D01*
X10027682Y-12743722D02*
X10037206Y-12734198D01*
X10037206Y-12734198D02*
X10056253Y-12724674D01*
X10056253Y-12724674D02*
X10103872Y-12724674D01*
X10103872Y-12724674D02*
X10122920Y-12734198D01*
X10122920Y-12734198D02*
X10132444Y-12743722D01*
X10132444Y-12743722D02*
X10141968Y-12762769D01*
X10141968Y-12762769D02*
X10141968Y-12810388D01*
X10141968Y-12810388D02*
X10132444Y-12829436D01*
X10132444Y-12829436D02*
X10122920Y-12838960D01*
X10122920Y-12838960D02*
X10103872Y-12848484D01*
X10103872Y-12848484D02*
X10056253Y-12848484D01*
X10056253Y-12848484D02*
X10037206Y-12838960D01*
X10037206Y-12838960D02*
X10027682Y-12829436D01*
X10208634Y-12648484D02*
X10341968Y-12648484D01*
X10341968Y-12648484D02*
X10256253Y-12848484D01*
X10408634Y-12648484D02*
X10408634Y-12686579D01*
X10484825Y-12648484D02*
X10484825Y-12686579D01*
X10780063Y-12924674D02*
X10770539Y-12915150D01*
X10770539Y-12915150D02*
X10751491Y-12886579D01*
X10751491Y-12886579D02*
X10741968Y-12867531D01*
X10741968Y-12867531D02*
X10732444Y-12838960D01*
X10732444Y-12838960D02*
X10722920Y-12791341D01*
X10722920Y-12791341D02*
X10722920Y-12753246D01*
X10722920Y-12753246D02*
X10732444Y-12705627D01*
X10732444Y-12705627D02*
X10741968Y-12677055D01*
X10741968Y-12677055D02*
X10751491Y-12658008D01*
X10751491Y-12658008D02*
X10770539Y-12629436D01*
X10770539Y-12629436D02*
X10780063Y-12619912D01*
X10961015Y-12848484D02*
X10846730Y-12848484D01*
X10903872Y-12848484D02*
X10903872Y-12648484D01*
X10903872Y-12648484D02*
X10884825Y-12677055D01*
X10884825Y-12677055D02*
X10865777Y-12696103D01*
X10865777Y-12696103D02*
X10846730Y-12705627D01*
X11199110Y-12848484D02*
X11199110Y-12648484D01*
X11284825Y-12848484D02*
X11284825Y-12743722D01*
X11284825Y-12743722D02*
X11275301Y-12724674D01*
X11275301Y-12724674D02*
X11256253Y-12715150D01*
X11256253Y-12715150D02*
X11227682Y-12715150D01*
X11227682Y-12715150D02*
X11208634Y-12724674D01*
X11208634Y-12724674D02*
X11199110Y-12734198D01*
X11408634Y-12848484D02*
X11389587Y-12838960D01*
X11389587Y-12838960D02*
X11380063Y-12829436D01*
X11380063Y-12829436D02*
X11370539Y-12810388D01*
X11370539Y-12810388D02*
X11370539Y-12753246D01*
X11370539Y-12753246D02*
X11380063Y-12734198D01*
X11380063Y-12734198D02*
X11389587Y-12724674D01*
X11389587Y-12724674D02*
X11408634Y-12715150D01*
X11408634Y-12715150D02*
X11437206Y-12715150D01*
X11437206Y-12715150D02*
X11456253Y-12724674D01*
X11456253Y-12724674D02*
X11465777Y-12734198D01*
X11465777Y-12734198D02*
X11475301Y-12753246D01*
X11475301Y-12753246D02*
X11475301Y-12810388D01*
X11475301Y-12810388D02*
X11465777Y-12829436D01*
X11465777Y-12829436D02*
X11456253Y-12838960D01*
X11456253Y-12838960D02*
X11437206Y-12848484D01*
X11437206Y-12848484D02*
X11408634Y-12848484D01*
X11589587Y-12848484D02*
X11570539Y-12838960D01*
X11570539Y-12838960D02*
X11561015Y-12819912D01*
X11561015Y-12819912D02*
X11561015Y-12648484D01*
X11741968Y-12838960D02*
X11722920Y-12848484D01*
X11722920Y-12848484D02*
X11684825Y-12848484D01*
X11684825Y-12848484D02*
X11665777Y-12838960D01*
X11665777Y-12838960D02*
X11656253Y-12819912D01*
X11656253Y-12819912D02*
X11656253Y-12743722D01*
X11656253Y-12743722D02*
X11665777Y-12724674D01*
X11665777Y-12724674D02*
X11684825Y-12715150D01*
X11684825Y-12715150D02*
X11722920Y-12715150D01*
X11722920Y-12715150D02*
X11741968Y-12724674D01*
X11741968Y-12724674D02*
X11751491Y-12743722D01*
X11751491Y-12743722D02*
X11751491Y-12762769D01*
X11751491Y-12762769D02*
X11656253Y-12781817D01*
X11818158Y-12924674D02*
X11827682Y-12915150D01*
X11827682Y-12915150D02*
X11846730Y-12886579D01*
X11846730Y-12886579D02*
X11856253Y-12867531D01*
X11856253Y-12867531D02*
X11865777Y-12838960D01*
X11865777Y-12838960D02*
X11875301Y-12791341D01*
X11875301Y-12791341D02*
X11875301Y-12753246D01*
X11875301Y-12753246D02*
X11865777Y-12705627D01*
X11865777Y-12705627D02*
X11856253Y-12677055D01*
X11856253Y-12677055D02*
X11846730Y-12658008D01*
X11846730Y-12658008D02*
X11827682Y-12629436D01*
X11827682Y-12629436D02*
X11818158Y-12619912D01*
D10*
X7205000Y-13021000D02*
G75*
G02*
X7135000Y-13021000I-35000J0D01*
G01*
X7135000Y-13021000D02*
G75*
G02*
X7205000Y-13021000I35000J0D01*
G01*
D11*
X7503872Y-12912484D02*
X7522920Y-12912484D01*
X7522920Y-12912484D02*
X7541967Y-12922008D01*
X7541967Y-12922008D02*
X7551491Y-12931531D01*
X7551491Y-12931531D02*
X7561015Y-12950579D01*
X7561015Y-12950579D02*
X7570539Y-12988674D01*
X7570539Y-12988674D02*
X7570539Y-13036293D01*
X7570539Y-13036293D02*
X7561015Y-13074388D01*
X7561015Y-13074388D02*
X7551491Y-13093436D01*
X7551491Y-13093436D02*
X7541967Y-13102960D01*
X7541967Y-13102960D02*
X7522920Y-13112484D01*
X7522920Y-13112484D02*
X7503872Y-13112484D01*
X7503872Y-13112484D02*
X7484824Y-13102960D01*
X7484824Y-13102960D02*
X7475301Y-13093436D01*
X7475301Y-13093436D02*
X7465777Y-13074388D01*
X7465777Y-13074388D02*
X7456253Y-13036293D01*
X7456253Y-13036293D02*
X7456253Y-12988674D01*
X7456253Y-12988674D02*
X7465777Y-12950579D01*
X7465777Y-12950579D02*
X7475301Y-12931531D01*
X7475301Y-12931531D02*
X7484824Y-12922008D01*
X7484824Y-12922008D02*
X7503872Y-12912484D01*
X7656253Y-13093436D02*
X7665777Y-13102960D01*
X7665777Y-13102960D02*
X7656253Y-13112484D01*
X7656253Y-13112484D02*
X7646729Y-13102960D01*
X7646729Y-13102960D02*
X7656253Y-13093436D01*
X7656253Y-13093436D02*
X7656253Y-13112484D01*
X7732443Y-12912484D02*
X7865777Y-12912484D01*
X7865777Y-12912484D02*
X7780062Y-13112484D01*
X7980062Y-12912484D02*
X7999110Y-12912484D01*
X7999110Y-12912484D02*
X8018158Y-12922008D01*
X8018158Y-12922008D02*
X8027682Y-12931531D01*
X8027682Y-12931531D02*
X8037205Y-12950579D01*
X8037205Y-12950579D02*
X8046729Y-12988674D01*
X8046729Y-12988674D02*
X8046729Y-13036293D01*
X8046729Y-13036293D02*
X8037205Y-13074388D01*
X8037205Y-13074388D02*
X8027682Y-13093436D01*
X8027682Y-13093436D02*
X8018158Y-13102960D01*
X8018158Y-13102960D02*
X7999110Y-13112484D01*
X7999110Y-13112484D02*
X7980062Y-13112484D01*
X7980062Y-13112484D02*
X7961015Y-13102960D01*
X7961015Y-13102960D02*
X7951491Y-13093436D01*
X7951491Y-13093436D02*
X7941967Y-13074388D01*
X7941967Y-13074388D02*
X7932443Y-13036293D01*
X7932443Y-13036293D02*
X7932443Y-12988674D01*
X7932443Y-12988674D02*
X7941967Y-12950579D01*
X7941967Y-12950579D02*
X7951491Y-12931531D01*
X7951491Y-12931531D02*
X7961015Y-12922008D01*
X7961015Y-12922008D02*
X7980062Y-12912484D01*
X8170539Y-12912484D02*
X8189586Y-12912484D01*
X8189586Y-12912484D02*
X8208634Y-12922008D01*
X8208634Y-12922008D02*
X8218158Y-12931531D01*
X8218158Y-12931531D02*
X8227682Y-12950579D01*
X8227682Y-12950579D02*
X8237205Y-12988674D01*
X8237205Y-12988674D02*
X8237205Y-13036293D01*
X8237205Y-13036293D02*
X8227682Y-13074388D01*
X8227682Y-13074388D02*
X8218158Y-13093436D01*
X8218158Y-13093436D02*
X8208634Y-13102960D01*
X8208634Y-13102960D02*
X8189586Y-13112484D01*
X8189586Y-13112484D02*
X8170539Y-13112484D01*
X8170539Y-13112484D02*
X8151491Y-13102960D01*
X8151491Y-13102960D02*
X8141967Y-13093436D01*
X8141967Y-13093436D02*
X8132443Y-13074388D01*
X8132443Y-13074388D02*
X8122920Y-13036293D01*
X8122920Y-13036293D02*
X8122920Y-12988674D01*
X8122920Y-12988674D02*
X8132443Y-12950579D01*
X8132443Y-12950579D02*
X8141967Y-12931531D01*
X8141967Y-12931531D02*
X8151491Y-12922008D01*
X8151491Y-12922008D02*
X8170539Y-12912484D01*
X8322920Y-13112484D02*
X8322920Y-12979150D01*
X8322920Y-12998198D02*
X8332443Y-12988674D01*
X8332443Y-12988674D02*
X8351491Y-12979150D01*
X8351491Y-12979150D02*
X8380063Y-12979150D01*
X8380063Y-12979150D02*
X8399110Y-12988674D01*
X8399110Y-12988674D02*
X8408634Y-13007722D01*
X8408634Y-13007722D02*
X8408634Y-13112484D01*
X8408634Y-13007722D02*
X8418158Y-12988674D01*
X8418158Y-12988674D02*
X8437205Y-12979150D01*
X8437205Y-12979150D02*
X8465777Y-12979150D01*
X8465777Y-12979150D02*
X8484825Y-12988674D01*
X8484825Y-12988674D02*
X8494348Y-13007722D01*
X8494348Y-13007722D02*
X8494348Y-13112484D01*
X8589586Y-13112484D02*
X8589586Y-12979150D01*
X8589586Y-12998198D02*
X8599110Y-12988674D01*
X8599110Y-12988674D02*
X8618158Y-12979150D01*
X8618158Y-12979150D02*
X8646729Y-12979150D01*
X8646729Y-12979150D02*
X8665777Y-12988674D01*
X8665777Y-12988674D02*
X8675301Y-13007722D01*
X8675301Y-13007722D02*
X8675301Y-13112484D01*
X8675301Y-13007722D02*
X8684825Y-12988674D01*
X8684825Y-12988674D02*
X8703872Y-12979150D01*
X8703872Y-12979150D02*
X8732444Y-12979150D01*
X8732444Y-12979150D02*
X8751491Y-12988674D01*
X8751491Y-12988674D02*
X8761015Y-13007722D01*
X8761015Y-13007722D02*
X8761015Y-13112484D01*
X9151491Y-12902960D02*
X8980063Y-13160103D01*
X9408634Y-12912484D02*
X9427682Y-12912484D01*
X9427682Y-12912484D02*
X9446729Y-12922008D01*
X9446729Y-12922008D02*
X9456253Y-12931531D01*
X9456253Y-12931531D02*
X9465777Y-12950579D01*
X9465777Y-12950579D02*
X9475301Y-12988674D01*
X9475301Y-12988674D02*
X9475301Y-13036293D01*
X9475301Y-13036293D02*
X9465777Y-13074388D01*
X9465777Y-13074388D02*
X9456253Y-13093436D01*
X9456253Y-13093436D02*
X9446729Y-13102960D01*
X9446729Y-13102960D02*
X9427682Y-13112484D01*
X9427682Y-13112484D02*
X9408634Y-13112484D01*
X9408634Y-13112484D02*
X9389587Y-13102960D01*
X9389587Y-13102960D02*
X9380063Y-13093436D01*
X9380063Y-13093436D02*
X9370539Y-13074388D01*
X9370539Y-13074388D02*
X9361015Y-13036293D01*
X9361015Y-13036293D02*
X9361015Y-12988674D01*
X9361015Y-12988674D02*
X9370539Y-12950579D01*
X9370539Y-12950579D02*
X9380063Y-12931531D01*
X9380063Y-12931531D02*
X9389587Y-12922008D01*
X9389587Y-12922008D02*
X9408634Y-12912484D01*
X9561015Y-13093436D02*
X9570539Y-13102960D01*
X9570539Y-13102960D02*
X9561015Y-13112484D01*
X9561015Y-13112484D02*
X9551491Y-13102960D01*
X9551491Y-13102960D02*
X9561015Y-13093436D01*
X9561015Y-13093436D02*
X9561015Y-13112484D01*
X9694348Y-12912484D02*
X9713396Y-12912484D01*
X9713396Y-12912484D02*
X9732444Y-12922008D01*
X9732444Y-12922008D02*
X9741968Y-12931531D01*
X9741968Y-12931531D02*
X9751491Y-12950579D01*
X9751491Y-12950579D02*
X9761015Y-12988674D01*
X9761015Y-12988674D02*
X9761015Y-13036293D01*
X9761015Y-13036293D02*
X9751491Y-13074388D01*
X9751491Y-13074388D02*
X9741968Y-13093436D01*
X9741968Y-13093436D02*
X9732444Y-13102960D01*
X9732444Y-13102960D02*
X9713396Y-13112484D01*
X9713396Y-13112484D02*
X9694348Y-13112484D01*
X9694348Y-13112484D02*
X9675301Y-13102960D01*
X9675301Y-13102960D02*
X9665777Y-13093436D01*
X9665777Y-13093436D02*
X9656253Y-13074388D01*
X9656253Y-13074388D02*
X9646729Y-13036293D01*
X9646729Y-13036293D02*
X9646729Y-12988674D01*
X9646729Y-12988674D02*
X9656253Y-12950579D01*
X9656253Y-12950579D02*
X9665777Y-12931531D01*
X9665777Y-12931531D02*
X9675301Y-12922008D01*
X9675301Y-12922008D02*
X9694348Y-12912484D01*
X9837206Y-12931531D02*
X9846729Y-12922008D01*
X9846729Y-12922008D02*
X9865777Y-12912484D01*
X9865777Y-12912484D02*
X9913396Y-12912484D01*
X9913396Y-12912484D02*
X9932444Y-12922008D01*
X9932444Y-12922008D02*
X9941968Y-12931531D01*
X9941968Y-12931531D02*
X9951491Y-12950579D01*
X9951491Y-12950579D02*
X9951491Y-12969627D01*
X9951491Y-12969627D02*
X9941968Y-12998198D01*
X9941968Y-12998198D02*
X9827682Y-13112484D01*
X9827682Y-13112484D02*
X9951491Y-13112484D01*
X10018158Y-12912484D02*
X10151491Y-12912484D01*
X10151491Y-12912484D02*
X10065777Y-13112484D01*
X10313396Y-12912484D02*
X10275301Y-12912484D01*
X10275301Y-12912484D02*
X10256253Y-12922008D01*
X10256253Y-12922008D02*
X10246729Y-12931531D01*
X10246729Y-12931531D02*
X10227682Y-12960103D01*
X10227682Y-12960103D02*
X10218158Y-12998198D01*
X10218158Y-12998198D02*
X10218158Y-13074388D01*
X10218158Y-13074388D02*
X10227682Y-13093436D01*
X10227682Y-13093436D02*
X10237206Y-13102960D01*
X10237206Y-13102960D02*
X10256253Y-13112484D01*
X10256253Y-13112484D02*
X10294349Y-13112484D01*
X10294349Y-13112484D02*
X10313396Y-13102960D01*
X10313396Y-13102960D02*
X10322920Y-13093436D01*
X10322920Y-13093436D02*
X10332444Y-13074388D01*
X10332444Y-13074388D02*
X10332444Y-13026769D01*
X10332444Y-13026769D02*
X10322920Y-13007722D01*
X10322920Y-13007722D02*
X10313396Y-12998198D01*
X10313396Y-12998198D02*
X10294349Y-12988674D01*
X10294349Y-12988674D02*
X10256253Y-12988674D01*
X10256253Y-12988674D02*
X10237206Y-12998198D01*
X10237206Y-12998198D02*
X10227682Y-13007722D01*
X10227682Y-13007722D02*
X10218158Y-13026769D01*
X10408634Y-12912484D02*
X10408634Y-12950579D01*
X10484825Y-12912484D02*
X10484825Y-12950579D01*
X10780063Y-13188674D02*
X10770539Y-13179150D01*
X10770539Y-13179150D02*
X10751491Y-13150579D01*
X10751491Y-13150579D02*
X10741968Y-13131531D01*
X10741968Y-13131531D02*
X10732444Y-13102960D01*
X10732444Y-13102960D02*
X10722920Y-13055341D01*
X10722920Y-13055341D02*
X10722920Y-13017246D01*
X10722920Y-13017246D02*
X10732444Y-12969627D01*
X10732444Y-12969627D02*
X10741968Y-12941055D01*
X10741968Y-12941055D02*
X10751491Y-12922008D01*
X10751491Y-12922008D02*
X10770539Y-12893436D01*
X10770539Y-12893436D02*
X10780063Y-12883912D01*
X10846730Y-12931531D02*
X10856253Y-12922008D01*
X10856253Y-12922008D02*
X10875301Y-12912484D01*
X10875301Y-12912484D02*
X10922920Y-12912484D01*
X10922920Y-12912484D02*
X10941968Y-12922008D01*
X10941968Y-12922008D02*
X10951491Y-12931531D01*
X10951491Y-12931531D02*
X10961015Y-12950579D01*
X10961015Y-12950579D02*
X10961015Y-12969627D01*
X10961015Y-12969627D02*
X10951491Y-12998198D01*
X10951491Y-12998198D02*
X10837206Y-13112484D01*
X10837206Y-13112484D02*
X10961015Y-13112484D01*
X11084825Y-12912484D02*
X11103872Y-12912484D01*
X11103872Y-12912484D02*
X11122920Y-12922008D01*
X11122920Y-12922008D02*
X11132444Y-12931531D01*
X11132444Y-12931531D02*
X11141968Y-12950579D01*
X11141968Y-12950579D02*
X11151491Y-12988674D01*
X11151491Y-12988674D02*
X11151491Y-13036293D01*
X11151491Y-13036293D02*
X11141968Y-13074388D01*
X11141968Y-13074388D02*
X11132444Y-13093436D01*
X11132444Y-13093436D02*
X11122920Y-13102960D01*
X11122920Y-13102960D02*
X11103872Y-13112484D01*
X11103872Y-13112484D02*
X11084825Y-13112484D01*
X11084825Y-13112484D02*
X11065777Y-13102960D01*
X11065777Y-13102960D02*
X11056253Y-13093436D01*
X11056253Y-13093436D02*
X11046730Y-13074388D01*
X11046730Y-13074388D02*
X11037206Y-13036293D01*
X11037206Y-13036293D02*
X11037206Y-12988674D01*
X11037206Y-12988674D02*
X11046730Y-12950579D01*
X11046730Y-12950579D02*
X11056253Y-12931531D01*
X11056253Y-12931531D02*
X11065777Y-12922008D01*
X11065777Y-12922008D02*
X11084825Y-12912484D01*
X11389587Y-13112484D02*
X11389587Y-12912484D01*
X11475301Y-13112484D02*
X11475301Y-13007722D01*
X11475301Y-13007722D02*
X11465777Y-12988674D01*
X11465777Y-12988674D02*
X11446730Y-12979150D01*
X11446730Y-12979150D02*
X11418158Y-12979150D01*
X11418158Y-12979150D02*
X11399110Y-12988674D01*
X11399110Y-12988674D02*
X11389587Y-12998198D01*
X11599110Y-13112484D02*
X11580063Y-13102960D01*
X11580063Y-13102960D02*
X11570539Y-13093436D01*
X11570539Y-13093436D02*
X11561015Y-13074388D01*
X11561015Y-13074388D02*
X11561015Y-13017246D01*
X11561015Y-13017246D02*
X11570539Y-12998198D01*
X11570539Y-12998198D02*
X11580063Y-12988674D01*
X11580063Y-12988674D02*
X11599110Y-12979150D01*
X11599110Y-12979150D02*
X11627682Y-12979150D01*
X11627682Y-12979150D02*
X11646730Y-12988674D01*
X11646730Y-12988674D02*
X11656253Y-12998198D01*
X11656253Y-12998198D02*
X11665777Y-13017246D01*
X11665777Y-13017246D02*
X11665777Y-13074388D01*
X11665777Y-13074388D02*
X11656253Y-13093436D01*
X11656253Y-13093436D02*
X11646730Y-13102960D01*
X11646730Y-13102960D02*
X11627682Y-13112484D01*
X11627682Y-13112484D02*
X11599110Y-13112484D01*
X11780063Y-13112484D02*
X11761015Y-13102960D01*
X11761015Y-13102960D02*
X11751491Y-13083912D01*
X11751491Y-13083912D02*
X11751491Y-12912484D01*
X11932444Y-13102960D02*
X11913396Y-13112484D01*
X11913396Y-13112484D02*
X11875301Y-13112484D01*
X11875301Y-13112484D02*
X11856253Y-13102960D01*
X11856253Y-13102960D02*
X11846730Y-13083912D01*
X11846730Y-13083912D02*
X11846730Y-13007722D01*
X11846730Y-13007722D02*
X11856253Y-12988674D01*
X11856253Y-12988674D02*
X11875301Y-12979150D01*
X11875301Y-12979150D02*
X11913396Y-12979150D01*
X11913396Y-12979150D02*
X11932444Y-12988674D01*
X11932444Y-12988674D02*
X11941968Y-13007722D01*
X11941968Y-13007722D02*
X11941968Y-13026769D01*
X11941968Y-13026769D02*
X11846730Y-13045817D01*
X12018158Y-13102960D02*
X12037206Y-13112484D01*
X12037206Y-13112484D02*
X12075301Y-13112484D01*
X12075301Y-13112484D02*
X12094349Y-13102960D01*
X12094349Y-13102960D02*
X12103872Y-13083912D01*
X12103872Y-13083912D02*
X12103872Y-13074388D01*
X12103872Y-13074388D02*
X12094349Y-13055341D01*
X12094349Y-13055341D02*
X12075301Y-13045817D01*
X12075301Y-13045817D02*
X12046730Y-13045817D01*
X12046730Y-13045817D02*
X12027682Y-13036293D01*
X12027682Y-13036293D02*
X12018158Y-13017246D01*
X12018158Y-13017246D02*
X12018158Y-13007722D01*
X12018158Y-13007722D02*
X12027682Y-12988674D01*
X12027682Y-12988674D02*
X12046730Y-12979150D01*
X12046730Y-12979150D02*
X12075301Y-12979150D01*
X12075301Y-12979150D02*
X12094349Y-12988674D01*
X12170539Y-13188674D02*
X12180063Y-13179150D01*
X12180063Y-13179150D02*
X12199111Y-13150579D01*
X12199111Y-13150579D02*
X12208634Y-13131531D01*
X12208634Y-13131531D02*
X12218158Y-13102960D01*
X12218158Y-13102960D02*
X12227682Y-13055341D01*
X12227682Y-13055341D02*
X12227682Y-13017246D01*
X12227682Y-13017246D02*
X12218158Y-12969627D01*
X12218158Y-12969627D02*
X12208634Y-12941055D01*
X12208634Y-12941055D02*
X12199111Y-12922008D01*
X12199111Y-12922008D02*
X12180063Y-12893436D01*
X12180063Y-12893436D02*
X12170539Y-12883912D01*
D10*
X7167500Y-13247500D02*
X7167500Y-13322500D01*
X7130000Y-13285000D02*
X7205000Y-13285000D01*
D11*
X7503872Y-13176484D02*
X7522920Y-13176484D01*
X7522920Y-13176484D02*
X7541967Y-13186008D01*
X7541967Y-13186008D02*
X7551491Y-13195531D01*
X7551491Y-13195531D02*
X7561015Y-13214579D01*
X7561015Y-13214579D02*
X7570539Y-13252674D01*
X7570539Y-13252674D02*
X7570539Y-13300293D01*
X7570539Y-13300293D02*
X7561015Y-13338388D01*
X7561015Y-13338388D02*
X7551491Y-13357436D01*
X7551491Y-13357436D02*
X7541967Y-13366960D01*
X7541967Y-13366960D02*
X7522920Y-13376484D01*
X7522920Y-13376484D02*
X7503872Y-13376484D01*
X7503872Y-13376484D02*
X7484824Y-13366960D01*
X7484824Y-13366960D02*
X7475301Y-13357436D01*
X7475301Y-13357436D02*
X7465777Y-13338388D01*
X7465777Y-13338388D02*
X7456253Y-13300293D01*
X7456253Y-13300293D02*
X7456253Y-13252674D01*
X7456253Y-13252674D02*
X7465777Y-13214579D01*
X7465777Y-13214579D02*
X7475301Y-13195531D01*
X7475301Y-13195531D02*
X7484824Y-13186008D01*
X7484824Y-13186008D02*
X7503872Y-13176484D01*
X7656253Y-13357436D02*
X7665777Y-13366960D01*
X7665777Y-13366960D02*
X7656253Y-13376484D01*
X7656253Y-13376484D02*
X7646729Y-13366960D01*
X7646729Y-13366960D02*
X7656253Y-13357436D01*
X7656253Y-13357436D02*
X7656253Y-13376484D01*
X7732443Y-13176484D02*
X7865777Y-13176484D01*
X7865777Y-13176484D02*
X7780062Y-13376484D01*
X8037205Y-13176484D02*
X7941967Y-13176484D01*
X7941967Y-13176484D02*
X7932443Y-13271722D01*
X7932443Y-13271722D02*
X7941967Y-13262198D01*
X7941967Y-13262198D02*
X7961015Y-13252674D01*
X7961015Y-13252674D02*
X8008634Y-13252674D01*
X8008634Y-13252674D02*
X8027682Y-13262198D01*
X8027682Y-13262198D02*
X8037205Y-13271722D01*
X8037205Y-13271722D02*
X8046729Y-13290769D01*
X8046729Y-13290769D02*
X8046729Y-13338388D01*
X8046729Y-13338388D02*
X8037205Y-13357436D01*
X8037205Y-13357436D02*
X8027682Y-13366960D01*
X8027682Y-13366960D02*
X8008634Y-13376484D01*
X8008634Y-13376484D02*
X7961015Y-13376484D01*
X7961015Y-13376484D02*
X7941967Y-13366960D01*
X7941967Y-13366960D02*
X7932443Y-13357436D01*
X8170539Y-13176484D02*
X8189586Y-13176484D01*
X8189586Y-13176484D02*
X8208634Y-13186008D01*
X8208634Y-13186008D02*
X8218158Y-13195531D01*
X8218158Y-13195531D02*
X8227682Y-13214579D01*
X8227682Y-13214579D02*
X8237205Y-13252674D01*
X8237205Y-13252674D02*
X8237205Y-13300293D01*
X8237205Y-13300293D02*
X8227682Y-13338388D01*
X8227682Y-13338388D02*
X8218158Y-13357436D01*
X8218158Y-13357436D02*
X8208634Y-13366960D01*
X8208634Y-13366960D02*
X8189586Y-13376484D01*
X8189586Y-13376484D02*
X8170539Y-13376484D01*
X8170539Y-13376484D02*
X8151491Y-13366960D01*
X8151491Y-13366960D02*
X8141967Y-13357436D01*
X8141967Y-13357436D02*
X8132443Y-13338388D01*
X8132443Y-13338388D02*
X8122920Y-13300293D01*
X8122920Y-13300293D02*
X8122920Y-13252674D01*
X8122920Y-13252674D02*
X8132443Y-13214579D01*
X8132443Y-13214579D02*
X8141967Y-13195531D01*
X8141967Y-13195531D02*
X8151491Y-13186008D01*
X8151491Y-13186008D02*
X8170539Y-13176484D01*
X8322920Y-13376484D02*
X8322920Y-13243150D01*
X8322920Y-13262198D02*
X8332443Y-13252674D01*
X8332443Y-13252674D02*
X8351491Y-13243150D01*
X8351491Y-13243150D02*
X8380063Y-13243150D01*
X8380063Y-13243150D02*
X8399110Y-13252674D01*
X8399110Y-13252674D02*
X8408634Y-13271722D01*
X8408634Y-13271722D02*
X8408634Y-13376484D01*
X8408634Y-13271722D02*
X8418158Y-13252674D01*
X8418158Y-13252674D02*
X8437205Y-13243150D01*
X8437205Y-13243150D02*
X8465777Y-13243150D01*
X8465777Y-13243150D02*
X8484825Y-13252674D01*
X8484825Y-13252674D02*
X8494348Y-13271722D01*
X8494348Y-13271722D02*
X8494348Y-13376484D01*
X8589586Y-13376484D02*
X8589586Y-13243150D01*
X8589586Y-13262198D02*
X8599110Y-13252674D01*
X8599110Y-13252674D02*
X8618158Y-13243150D01*
X8618158Y-13243150D02*
X8646729Y-13243150D01*
X8646729Y-13243150D02*
X8665777Y-13252674D01*
X8665777Y-13252674D02*
X8675301Y-13271722D01*
X8675301Y-13271722D02*
X8675301Y-13376484D01*
X8675301Y-13271722D02*
X8684825Y-13252674D01*
X8684825Y-13252674D02*
X8703872Y-13243150D01*
X8703872Y-13243150D02*
X8732444Y-13243150D01*
X8732444Y-13243150D02*
X8751491Y-13252674D01*
X8751491Y-13252674D02*
X8761015Y-13271722D01*
X8761015Y-13271722D02*
X8761015Y-13376484D01*
X9151491Y-13166960D02*
X8980063Y-13424103D01*
X9408634Y-13176484D02*
X9427682Y-13176484D01*
X9427682Y-13176484D02*
X9446729Y-13186008D01*
X9446729Y-13186008D02*
X9456253Y-13195531D01*
X9456253Y-13195531D02*
X9465777Y-13214579D01*
X9465777Y-13214579D02*
X9475301Y-13252674D01*
X9475301Y-13252674D02*
X9475301Y-13300293D01*
X9475301Y-13300293D02*
X9465777Y-13338388D01*
X9465777Y-13338388D02*
X9456253Y-13357436D01*
X9456253Y-13357436D02*
X9446729Y-13366960D01*
X9446729Y-13366960D02*
X9427682Y-13376484D01*
X9427682Y-13376484D02*
X9408634Y-13376484D01*
X9408634Y-13376484D02*
X9389587Y-13366960D01*
X9389587Y-13366960D02*
X9380063Y-13357436D01*
X9380063Y-13357436D02*
X9370539Y-13338388D01*
X9370539Y-13338388D02*
X9361015Y-13300293D01*
X9361015Y-13300293D02*
X9361015Y-13252674D01*
X9361015Y-13252674D02*
X9370539Y-13214579D01*
X9370539Y-13214579D02*
X9380063Y-13195531D01*
X9380063Y-13195531D02*
X9389587Y-13186008D01*
X9389587Y-13186008D02*
X9408634Y-13176484D01*
X9561015Y-13357436D02*
X9570539Y-13366960D01*
X9570539Y-13366960D02*
X9561015Y-13376484D01*
X9561015Y-13376484D02*
X9551491Y-13366960D01*
X9551491Y-13366960D02*
X9561015Y-13357436D01*
X9561015Y-13357436D02*
X9561015Y-13376484D01*
X9694348Y-13176484D02*
X9713396Y-13176484D01*
X9713396Y-13176484D02*
X9732444Y-13186008D01*
X9732444Y-13186008D02*
X9741968Y-13195531D01*
X9741968Y-13195531D02*
X9751491Y-13214579D01*
X9751491Y-13214579D02*
X9761015Y-13252674D01*
X9761015Y-13252674D02*
X9761015Y-13300293D01*
X9761015Y-13300293D02*
X9751491Y-13338388D01*
X9751491Y-13338388D02*
X9741968Y-13357436D01*
X9741968Y-13357436D02*
X9732444Y-13366960D01*
X9732444Y-13366960D02*
X9713396Y-13376484D01*
X9713396Y-13376484D02*
X9694348Y-13376484D01*
X9694348Y-13376484D02*
X9675301Y-13366960D01*
X9675301Y-13366960D02*
X9665777Y-13357436D01*
X9665777Y-13357436D02*
X9656253Y-13338388D01*
X9656253Y-13338388D02*
X9646729Y-13300293D01*
X9646729Y-13300293D02*
X9646729Y-13252674D01*
X9646729Y-13252674D02*
X9656253Y-13214579D01*
X9656253Y-13214579D02*
X9665777Y-13195531D01*
X9665777Y-13195531D02*
X9675301Y-13186008D01*
X9675301Y-13186008D02*
X9694348Y-13176484D01*
X9837206Y-13195531D02*
X9846729Y-13186008D01*
X9846729Y-13186008D02*
X9865777Y-13176484D01*
X9865777Y-13176484D02*
X9913396Y-13176484D01*
X9913396Y-13176484D02*
X9932444Y-13186008D01*
X9932444Y-13186008D02*
X9941968Y-13195531D01*
X9941968Y-13195531D02*
X9951491Y-13214579D01*
X9951491Y-13214579D02*
X9951491Y-13233627D01*
X9951491Y-13233627D02*
X9941968Y-13262198D01*
X9941968Y-13262198D02*
X9827682Y-13376484D01*
X9827682Y-13376484D02*
X9951491Y-13376484D01*
X10046729Y-13376484D02*
X10084825Y-13376484D01*
X10084825Y-13376484D02*
X10103872Y-13366960D01*
X10103872Y-13366960D02*
X10113396Y-13357436D01*
X10113396Y-13357436D02*
X10132444Y-13328865D01*
X10132444Y-13328865D02*
X10141968Y-13290769D01*
X10141968Y-13290769D02*
X10141968Y-13214579D01*
X10141968Y-13214579D02*
X10132444Y-13195531D01*
X10132444Y-13195531D02*
X10122920Y-13186008D01*
X10122920Y-13186008D02*
X10103872Y-13176484D01*
X10103872Y-13176484D02*
X10065777Y-13176484D01*
X10065777Y-13176484D02*
X10046729Y-13186008D01*
X10046729Y-13186008D02*
X10037206Y-13195531D01*
X10037206Y-13195531D02*
X10027682Y-13214579D01*
X10027682Y-13214579D02*
X10027682Y-13262198D01*
X10027682Y-13262198D02*
X10037206Y-13281246D01*
X10037206Y-13281246D02*
X10046729Y-13290769D01*
X10046729Y-13290769D02*
X10065777Y-13300293D01*
X10065777Y-13300293D02*
X10103872Y-13300293D01*
X10103872Y-13300293D02*
X10122920Y-13290769D01*
X10122920Y-13290769D02*
X10132444Y-13281246D01*
X10132444Y-13281246D02*
X10141968Y-13262198D01*
X10322920Y-13176484D02*
X10227682Y-13176484D01*
X10227682Y-13176484D02*
X10218158Y-13271722D01*
X10218158Y-13271722D02*
X10227682Y-13262198D01*
X10227682Y-13262198D02*
X10246729Y-13252674D01*
X10246729Y-13252674D02*
X10294349Y-13252674D01*
X10294349Y-13252674D02*
X10313396Y-13262198D01*
X10313396Y-13262198D02*
X10322920Y-13271722D01*
X10322920Y-13271722D02*
X10332444Y-13290769D01*
X10332444Y-13290769D02*
X10332444Y-13338388D01*
X10332444Y-13338388D02*
X10322920Y-13357436D01*
X10322920Y-13357436D02*
X10313396Y-13366960D01*
X10313396Y-13366960D02*
X10294349Y-13376484D01*
X10294349Y-13376484D02*
X10246729Y-13376484D01*
X10246729Y-13376484D02*
X10227682Y-13366960D01*
X10227682Y-13366960D02*
X10218158Y-13357436D01*
X10408634Y-13176484D02*
X10408634Y-13214579D01*
X10484825Y-13176484D02*
X10484825Y-13214579D01*
X10780063Y-13452674D02*
X10770539Y-13443150D01*
X10770539Y-13443150D02*
X10751491Y-13414579D01*
X10751491Y-13414579D02*
X10741968Y-13395531D01*
X10741968Y-13395531D02*
X10732444Y-13366960D01*
X10732444Y-13366960D02*
X10722920Y-13319341D01*
X10722920Y-13319341D02*
X10722920Y-13281246D01*
X10722920Y-13281246D02*
X10732444Y-13233627D01*
X10732444Y-13233627D02*
X10741968Y-13205055D01*
X10741968Y-13205055D02*
X10751491Y-13186008D01*
X10751491Y-13186008D02*
X10770539Y-13157436D01*
X10770539Y-13157436D02*
X10780063Y-13147912D01*
X10837206Y-13176484D02*
X10961015Y-13176484D01*
X10961015Y-13176484D02*
X10894349Y-13252674D01*
X10894349Y-13252674D02*
X10922920Y-13252674D01*
X10922920Y-13252674D02*
X10941968Y-13262198D01*
X10941968Y-13262198D02*
X10951491Y-13271722D01*
X10951491Y-13271722D02*
X10961015Y-13290769D01*
X10961015Y-13290769D02*
X10961015Y-13338388D01*
X10961015Y-13338388D02*
X10951491Y-13357436D01*
X10951491Y-13357436D02*
X10941968Y-13366960D01*
X10941968Y-13366960D02*
X10922920Y-13376484D01*
X10922920Y-13376484D02*
X10865777Y-13376484D01*
X10865777Y-13376484D02*
X10846730Y-13366960D01*
X10846730Y-13366960D02*
X10837206Y-13357436D01*
X11199110Y-13376484D02*
X11199110Y-13176484D01*
X11284825Y-13376484D02*
X11284825Y-13271722D01*
X11284825Y-13271722D02*
X11275301Y-13252674D01*
X11275301Y-13252674D02*
X11256253Y-13243150D01*
X11256253Y-13243150D02*
X11227682Y-13243150D01*
X11227682Y-13243150D02*
X11208634Y-13252674D01*
X11208634Y-13252674D02*
X11199110Y-13262198D01*
X11408634Y-13376484D02*
X11389587Y-13366960D01*
X11389587Y-13366960D02*
X11380063Y-13357436D01*
X11380063Y-13357436D02*
X11370539Y-13338388D01*
X11370539Y-13338388D02*
X11370539Y-13281246D01*
X11370539Y-13281246D02*
X11380063Y-13262198D01*
X11380063Y-13262198D02*
X11389587Y-13252674D01*
X11389587Y-13252674D02*
X11408634Y-13243150D01*
X11408634Y-13243150D02*
X11437206Y-13243150D01*
X11437206Y-13243150D02*
X11456253Y-13252674D01*
X11456253Y-13252674D02*
X11465777Y-13262198D01*
X11465777Y-13262198D02*
X11475301Y-13281246D01*
X11475301Y-13281246D02*
X11475301Y-13338388D01*
X11475301Y-13338388D02*
X11465777Y-13357436D01*
X11465777Y-13357436D02*
X11456253Y-13366960D01*
X11456253Y-13366960D02*
X11437206Y-13376484D01*
X11437206Y-13376484D02*
X11408634Y-13376484D01*
X11589587Y-13376484D02*
X11570539Y-13366960D01*
X11570539Y-13366960D02*
X11561015Y-13347912D01*
X11561015Y-13347912D02*
X11561015Y-13176484D01*
X11741968Y-13366960D02*
X11722920Y-13376484D01*
X11722920Y-13376484D02*
X11684825Y-13376484D01*
X11684825Y-13376484D02*
X11665777Y-13366960D01*
X11665777Y-13366960D02*
X11656253Y-13347912D01*
X11656253Y-13347912D02*
X11656253Y-13271722D01*
X11656253Y-13271722D02*
X11665777Y-13252674D01*
X11665777Y-13252674D02*
X11684825Y-13243150D01*
X11684825Y-13243150D02*
X11722920Y-13243150D01*
X11722920Y-13243150D02*
X11741968Y-13252674D01*
X11741968Y-13252674D02*
X11751491Y-13271722D01*
X11751491Y-13271722D02*
X11751491Y-13290769D01*
X11751491Y-13290769D02*
X11656253Y-13309817D01*
X11827682Y-13366960D02*
X11846730Y-13376484D01*
X11846730Y-13376484D02*
X11884825Y-13376484D01*
X11884825Y-13376484D02*
X11903872Y-13366960D01*
X11903872Y-13366960D02*
X11913396Y-13347912D01*
X11913396Y-13347912D02*
X11913396Y-13338388D01*
X11913396Y-13338388D02*
X11903872Y-13319341D01*
X11903872Y-13319341D02*
X11884825Y-13309817D01*
X11884825Y-13309817D02*
X11856253Y-13309817D01*
X11856253Y-13309817D02*
X11837206Y-13300293D01*
X11837206Y-13300293D02*
X11827682Y-13281246D01*
X11827682Y-13281246D02*
X11827682Y-13271722D01*
X11827682Y-13271722D02*
X11837206Y-13252674D01*
X11837206Y-13252674D02*
X11856253Y-13243150D01*
X11856253Y-13243150D02*
X11884825Y-13243150D01*
X11884825Y-13243150D02*
X11903872Y-13252674D01*
X11980063Y-13452674D02*
X11989587Y-13443150D01*
X11989587Y-13443150D02*
X12008634Y-13414579D01*
X12008634Y-13414579D02*
X12018158Y-13395531D01*
X12018158Y-13395531D02*
X12027682Y-13366960D01*
X12027682Y-13366960D02*
X12037206Y-13319341D01*
X12037206Y-13319341D02*
X12037206Y-13281246D01*
X12037206Y-13281246D02*
X12027682Y-13233627D01*
X12027682Y-13233627D02*
X12018158Y-13205055D01*
X12018158Y-13205055D02*
X12008634Y-13186008D01*
X12008634Y-13186008D02*
X11989587Y-13157436D01*
X11989587Y-13157436D02*
X11980063Y-13147912D01*
D10*
X7193284Y-13577284D02*
X7193284Y-13520715D01*
X7136715Y-13520715D01*
X7136715Y-13577284D01*
X7193284Y-13577284D01*
D11*
X7503872Y-13440484D02*
X7522920Y-13440484D01*
X7522920Y-13440484D02*
X7541967Y-13450008D01*
X7541967Y-13450008D02*
X7551491Y-13459531D01*
X7551491Y-13459531D02*
X7561015Y-13478579D01*
X7561015Y-13478579D02*
X7570539Y-13516674D01*
X7570539Y-13516674D02*
X7570539Y-13564293D01*
X7570539Y-13564293D02*
X7561015Y-13602388D01*
X7561015Y-13602388D02*
X7551491Y-13621436D01*
X7551491Y-13621436D02*
X7541967Y-13630960D01*
X7541967Y-13630960D02*
X7522920Y-13640484D01*
X7522920Y-13640484D02*
X7503872Y-13640484D01*
X7503872Y-13640484D02*
X7484824Y-13630960D01*
X7484824Y-13630960D02*
X7475301Y-13621436D01*
X7475301Y-13621436D02*
X7465777Y-13602388D01*
X7465777Y-13602388D02*
X7456253Y-13564293D01*
X7456253Y-13564293D02*
X7456253Y-13516674D01*
X7456253Y-13516674D02*
X7465777Y-13478579D01*
X7465777Y-13478579D02*
X7475301Y-13459531D01*
X7475301Y-13459531D02*
X7484824Y-13450008D01*
X7484824Y-13450008D02*
X7503872Y-13440484D01*
X7656253Y-13621436D02*
X7665777Y-13630960D01*
X7665777Y-13630960D02*
X7656253Y-13640484D01*
X7656253Y-13640484D02*
X7646729Y-13630960D01*
X7646729Y-13630960D02*
X7656253Y-13621436D01*
X7656253Y-13621436D02*
X7656253Y-13640484D01*
X7780062Y-13526198D02*
X7761015Y-13516674D01*
X7761015Y-13516674D02*
X7751491Y-13507150D01*
X7751491Y-13507150D02*
X7741967Y-13488103D01*
X7741967Y-13488103D02*
X7741967Y-13478579D01*
X7741967Y-13478579D02*
X7751491Y-13459531D01*
X7751491Y-13459531D02*
X7761015Y-13450008D01*
X7761015Y-13450008D02*
X7780062Y-13440484D01*
X7780062Y-13440484D02*
X7818158Y-13440484D01*
X7818158Y-13440484D02*
X7837205Y-13450008D01*
X7837205Y-13450008D02*
X7846729Y-13459531D01*
X7846729Y-13459531D02*
X7856253Y-13478579D01*
X7856253Y-13478579D02*
X7856253Y-13488103D01*
X7856253Y-13488103D02*
X7846729Y-13507150D01*
X7846729Y-13507150D02*
X7837205Y-13516674D01*
X7837205Y-13516674D02*
X7818158Y-13526198D01*
X7818158Y-13526198D02*
X7780062Y-13526198D01*
X7780062Y-13526198D02*
X7761015Y-13535722D01*
X7761015Y-13535722D02*
X7751491Y-13545246D01*
X7751491Y-13545246D02*
X7741967Y-13564293D01*
X7741967Y-13564293D02*
X7741967Y-13602388D01*
X7741967Y-13602388D02*
X7751491Y-13621436D01*
X7751491Y-13621436D02*
X7761015Y-13630960D01*
X7761015Y-13630960D02*
X7780062Y-13640484D01*
X7780062Y-13640484D02*
X7818158Y-13640484D01*
X7818158Y-13640484D02*
X7837205Y-13630960D01*
X7837205Y-13630960D02*
X7846729Y-13621436D01*
X7846729Y-13621436D02*
X7856253Y-13602388D01*
X7856253Y-13602388D02*
X7856253Y-13564293D01*
X7856253Y-13564293D02*
X7846729Y-13545246D01*
X7846729Y-13545246D02*
X7837205Y-13535722D01*
X7837205Y-13535722D02*
X7818158Y-13526198D01*
X7980062Y-13440484D02*
X7999110Y-13440484D01*
X7999110Y-13440484D02*
X8018158Y-13450008D01*
X8018158Y-13450008D02*
X8027682Y-13459531D01*
X8027682Y-13459531D02*
X8037205Y-13478579D01*
X8037205Y-13478579D02*
X8046729Y-13516674D01*
X8046729Y-13516674D02*
X8046729Y-13564293D01*
X8046729Y-13564293D02*
X8037205Y-13602388D01*
X8037205Y-13602388D02*
X8027682Y-13621436D01*
X8027682Y-13621436D02*
X8018158Y-13630960D01*
X8018158Y-13630960D02*
X7999110Y-13640484D01*
X7999110Y-13640484D02*
X7980062Y-13640484D01*
X7980062Y-13640484D02*
X7961015Y-13630960D01*
X7961015Y-13630960D02*
X7951491Y-13621436D01*
X7951491Y-13621436D02*
X7941967Y-13602388D01*
X7941967Y-13602388D02*
X7932443Y-13564293D01*
X7932443Y-13564293D02*
X7932443Y-13516674D01*
X7932443Y-13516674D02*
X7941967Y-13478579D01*
X7941967Y-13478579D02*
X7951491Y-13459531D01*
X7951491Y-13459531D02*
X7961015Y-13450008D01*
X7961015Y-13450008D02*
X7980062Y-13440484D01*
X8170539Y-13440484D02*
X8189586Y-13440484D01*
X8189586Y-13440484D02*
X8208634Y-13450008D01*
X8208634Y-13450008D02*
X8218158Y-13459531D01*
X8218158Y-13459531D02*
X8227682Y-13478579D01*
X8227682Y-13478579D02*
X8237205Y-13516674D01*
X8237205Y-13516674D02*
X8237205Y-13564293D01*
X8237205Y-13564293D02*
X8227682Y-13602388D01*
X8227682Y-13602388D02*
X8218158Y-13621436D01*
X8218158Y-13621436D02*
X8208634Y-13630960D01*
X8208634Y-13630960D02*
X8189586Y-13640484D01*
X8189586Y-13640484D02*
X8170539Y-13640484D01*
X8170539Y-13640484D02*
X8151491Y-13630960D01*
X8151491Y-13630960D02*
X8141967Y-13621436D01*
X8141967Y-13621436D02*
X8132443Y-13602388D01*
X8132443Y-13602388D02*
X8122920Y-13564293D01*
X8122920Y-13564293D02*
X8122920Y-13516674D01*
X8122920Y-13516674D02*
X8132443Y-13478579D01*
X8132443Y-13478579D02*
X8141967Y-13459531D01*
X8141967Y-13459531D02*
X8151491Y-13450008D01*
X8151491Y-13450008D02*
X8170539Y-13440484D01*
X8322920Y-13640484D02*
X8322920Y-13507150D01*
X8322920Y-13526198D02*
X8332443Y-13516674D01*
X8332443Y-13516674D02*
X8351491Y-13507150D01*
X8351491Y-13507150D02*
X8380063Y-13507150D01*
X8380063Y-13507150D02*
X8399110Y-13516674D01*
X8399110Y-13516674D02*
X8408634Y-13535722D01*
X8408634Y-13535722D02*
X8408634Y-13640484D01*
X8408634Y-13535722D02*
X8418158Y-13516674D01*
X8418158Y-13516674D02*
X8437205Y-13507150D01*
X8437205Y-13507150D02*
X8465777Y-13507150D01*
X8465777Y-13507150D02*
X8484825Y-13516674D01*
X8484825Y-13516674D02*
X8494348Y-13535722D01*
X8494348Y-13535722D02*
X8494348Y-13640484D01*
X8589586Y-13640484D02*
X8589586Y-13507150D01*
X8589586Y-13526198D02*
X8599110Y-13516674D01*
X8599110Y-13516674D02*
X8618158Y-13507150D01*
X8618158Y-13507150D02*
X8646729Y-13507150D01*
X8646729Y-13507150D02*
X8665777Y-13516674D01*
X8665777Y-13516674D02*
X8675301Y-13535722D01*
X8675301Y-13535722D02*
X8675301Y-13640484D01*
X8675301Y-13535722D02*
X8684825Y-13516674D01*
X8684825Y-13516674D02*
X8703872Y-13507150D01*
X8703872Y-13507150D02*
X8732444Y-13507150D01*
X8732444Y-13507150D02*
X8751491Y-13516674D01*
X8751491Y-13516674D02*
X8761015Y-13535722D01*
X8761015Y-13535722D02*
X8761015Y-13640484D01*
X9151491Y-13430960D02*
X8980063Y-13688103D01*
X9408634Y-13440484D02*
X9427682Y-13440484D01*
X9427682Y-13440484D02*
X9446729Y-13450008D01*
X9446729Y-13450008D02*
X9456253Y-13459531D01*
X9456253Y-13459531D02*
X9465777Y-13478579D01*
X9465777Y-13478579D02*
X9475301Y-13516674D01*
X9475301Y-13516674D02*
X9475301Y-13564293D01*
X9475301Y-13564293D02*
X9465777Y-13602388D01*
X9465777Y-13602388D02*
X9456253Y-13621436D01*
X9456253Y-13621436D02*
X9446729Y-13630960D01*
X9446729Y-13630960D02*
X9427682Y-13640484D01*
X9427682Y-13640484D02*
X9408634Y-13640484D01*
X9408634Y-13640484D02*
X9389587Y-13630960D01*
X9389587Y-13630960D02*
X9380063Y-13621436D01*
X9380063Y-13621436D02*
X9370539Y-13602388D01*
X9370539Y-13602388D02*
X9361015Y-13564293D01*
X9361015Y-13564293D02*
X9361015Y-13516674D01*
X9361015Y-13516674D02*
X9370539Y-13478579D01*
X9370539Y-13478579D02*
X9380063Y-13459531D01*
X9380063Y-13459531D02*
X9389587Y-13450008D01*
X9389587Y-13450008D02*
X9408634Y-13440484D01*
X9561015Y-13621436D02*
X9570539Y-13630960D01*
X9570539Y-13630960D02*
X9561015Y-13640484D01*
X9561015Y-13640484D02*
X9551491Y-13630960D01*
X9551491Y-13630960D02*
X9561015Y-13621436D01*
X9561015Y-13621436D02*
X9561015Y-13640484D01*
X9694348Y-13440484D02*
X9713396Y-13440484D01*
X9713396Y-13440484D02*
X9732444Y-13450008D01*
X9732444Y-13450008D02*
X9741968Y-13459531D01*
X9741968Y-13459531D02*
X9751491Y-13478579D01*
X9751491Y-13478579D02*
X9761015Y-13516674D01*
X9761015Y-13516674D02*
X9761015Y-13564293D01*
X9761015Y-13564293D02*
X9751491Y-13602388D01*
X9751491Y-13602388D02*
X9741968Y-13621436D01*
X9741968Y-13621436D02*
X9732444Y-13630960D01*
X9732444Y-13630960D02*
X9713396Y-13640484D01*
X9713396Y-13640484D02*
X9694348Y-13640484D01*
X9694348Y-13640484D02*
X9675301Y-13630960D01*
X9675301Y-13630960D02*
X9665777Y-13621436D01*
X9665777Y-13621436D02*
X9656253Y-13602388D01*
X9656253Y-13602388D02*
X9646729Y-13564293D01*
X9646729Y-13564293D02*
X9646729Y-13516674D01*
X9646729Y-13516674D02*
X9656253Y-13478579D01*
X9656253Y-13478579D02*
X9665777Y-13459531D01*
X9665777Y-13459531D02*
X9675301Y-13450008D01*
X9675301Y-13450008D02*
X9694348Y-13440484D01*
X9827682Y-13440484D02*
X9951491Y-13440484D01*
X9951491Y-13440484D02*
X9884825Y-13516674D01*
X9884825Y-13516674D02*
X9913396Y-13516674D01*
X9913396Y-13516674D02*
X9932444Y-13526198D01*
X9932444Y-13526198D02*
X9941968Y-13535722D01*
X9941968Y-13535722D02*
X9951491Y-13554769D01*
X9951491Y-13554769D02*
X9951491Y-13602388D01*
X9951491Y-13602388D02*
X9941968Y-13621436D01*
X9941968Y-13621436D02*
X9932444Y-13630960D01*
X9932444Y-13630960D02*
X9913396Y-13640484D01*
X9913396Y-13640484D02*
X9856253Y-13640484D01*
X9856253Y-13640484D02*
X9837206Y-13630960D01*
X9837206Y-13630960D02*
X9827682Y-13621436D01*
X10141968Y-13640484D02*
X10027682Y-13640484D01*
X10084825Y-13640484D02*
X10084825Y-13440484D01*
X10084825Y-13440484D02*
X10065777Y-13469055D01*
X10065777Y-13469055D02*
X10046729Y-13488103D01*
X10046729Y-13488103D02*
X10027682Y-13497627D01*
X10322920Y-13440484D02*
X10227682Y-13440484D01*
X10227682Y-13440484D02*
X10218158Y-13535722D01*
X10218158Y-13535722D02*
X10227682Y-13526198D01*
X10227682Y-13526198D02*
X10246729Y-13516674D01*
X10246729Y-13516674D02*
X10294349Y-13516674D01*
X10294349Y-13516674D02*
X10313396Y-13526198D01*
X10313396Y-13526198D02*
X10322920Y-13535722D01*
X10322920Y-13535722D02*
X10332444Y-13554769D01*
X10332444Y-13554769D02*
X10332444Y-13602388D01*
X10332444Y-13602388D02*
X10322920Y-13621436D01*
X10322920Y-13621436D02*
X10313396Y-13630960D01*
X10313396Y-13630960D02*
X10294349Y-13640484D01*
X10294349Y-13640484D02*
X10246729Y-13640484D01*
X10246729Y-13640484D02*
X10227682Y-13630960D01*
X10227682Y-13630960D02*
X10218158Y-13621436D01*
X10408634Y-13440484D02*
X10408634Y-13478579D01*
X10484825Y-13440484D02*
X10484825Y-13478579D01*
X10780063Y-13716674D02*
X10770539Y-13707150D01*
X10770539Y-13707150D02*
X10751491Y-13678579D01*
X10751491Y-13678579D02*
X10741968Y-13659531D01*
X10741968Y-13659531D02*
X10732444Y-13630960D01*
X10732444Y-13630960D02*
X10722920Y-13583341D01*
X10722920Y-13583341D02*
X10722920Y-13545246D01*
X10722920Y-13545246D02*
X10732444Y-13497627D01*
X10732444Y-13497627D02*
X10741968Y-13469055D01*
X10741968Y-13469055D02*
X10751491Y-13450008D01*
X10751491Y-13450008D02*
X10770539Y-13421436D01*
X10770539Y-13421436D02*
X10780063Y-13411912D01*
X10961015Y-13640484D02*
X10846730Y-13640484D01*
X10903872Y-13640484D02*
X10903872Y-13440484D01*
X10903872Y-13440484D02*
X10884825Y-13469055D01*
X10884825Y-13469055D02*
X10865777Y-13488103D01*
X10865777Y-13488103D02*
X10846730Y-13497627D01*
X11075301Y-13526198D02*
X11056253Y-13516674D01*
X11056253Y-13516674D02*
X11046730Y-13507150D01*
X11046730Y-13507150D02*
X11037206Y-13488103D01*
X11037206Y-13488103D02*
X11037206Y-13478579D01*
X11037206Y-13478579D02*
X11046730Y-13459531D01*
X11046730Y-13459531D02*
X11056253Y-13450008D01*
X11056253Y-13450008D02*
X11075301Y-13440484D01*
X11075301Y-13440484D02*
X11113396Y-13440484D01*
X11113396Y-13440484D02*
X11132444Y-13450008D01*
X11132444Y-13450008D02*
X11141968Y-13459531D01*
X11141968Y-13459531D02*
X11151491Y-13478579D01*
X11151491Y-13478579D02*
X11151491Y-13488103D01*
X11151491Y-13488103D02*
X11141968Y-13507150D01*
X11141968Y-13507150D02*
X11132444Y-13516674D01*
X11132444Y-13516674D02*
X11113396Y-13526198D01*
X11113396Y-13526198D02*
X11075301Y-13526198D01*
X11075301Y-13526198D02*
X11056253Y-13535722D01*
X11056253Y-13535722D02*
X11046730Y-13545246D01*
X11046730Y-13545246D02*
X11037206Y-13564293D01*
X11037206Y-13564293D02*
X11037206Y-13602388D01*
X11037206Y-13602388D02*
X11046730Y-13621436D01*
X11046730Y-13621436D02*
X11056253Y-13630960D01*
X11056253Y-13630960D02*
X11075301Y-13640484D01*
X11075301Y-13640484D02*
X11113396Y-13640484D01*
X11113396Y-13640484D02*
X11132444Y-13630960D01*
X11132444Y-13630960D02*
X11141968Y-13621436D01*
X11141968Y-13621436D02*
X11151491Y-13602388D01*
X11151491Y-13602388D02*
X11151491Y-13564293D01*
X11151491Y-13564293D02*
X11141968Y-13545246D01*
X11141968Y-13545246D02*
X11132444Y-13535722D01*
X11132444Y-13535722D02*
X11113396Y-13526198D01*
X11389587Y-13640484D02*
X11389587Y-13440484D01*
X11475301Y-13640484D02*
X11475301Y-13535722D01*
X11475301Y-13535722D02*
X11465777Y-13516674D01*
X11465777Y-13516674D02*
X11446730Y-13507150D01*
X11446730Y-13507150D02*
X11418158Y-13507150D01*
X11418158Y-13507150D02*
X11399110Y-13516674D01*
X11399110Y-13516674D02*
X11389587Y-13526198D01*
X11599110Y-13640484D02*
X11580063Y-13630960D01*
X11580063Y-13630960D02*
X11570539Y-13621436D01*
X11570539Y-13621436D02*
X11561015Y-13602388D01*
X11561015Y-13602388D02*
X11561015Y-13545246D01*
X11561015Y-13545246D02*
X11570539Y-13526198D01*
X11570539Y-13526198D02*
X11580063Y-13516674D01*
X11580063Y-13516674D02*
X11599110Y-13507150D01*
X11599110Y-13507150D02*
X11627682Y-13507150D01*
X11627682Y-13507150D02*
X11646730Y-13516674D01*
X11646730Y-13516674D02*
X11656253Y-13526198D01*
X11656253Y-13526198D02*
X11665777Y-13545246D01*
X11665777Y-13545246D02*
X11665777Y-13602388D01*
X11665777Y-13602388D02*
X11656253Y-13621436D01*
X11656253Y-13621436D02*
X11646730Y-13630960D01*
X11646730Y-13630960D02*
X11627682Y-13640484D01*
X11627682Y-13640484D02*
X11599110Y-13640484D01*
X11780063Y-13640484D02*
X11761015Y-13630960D01*
X11761015Y-13630960D02*
X11751491Y-13611912D01*
X11751491Y-13611912D02*
X11751491Y-13440484D01*
X11932444Y-13630960D02*
X11913396Y-13640484D01*
X11913396Y-13640484D02*
X11875301Y-13640484D01*
X11875301Y-13640484D02*
X11856253Y-13630960D01*
X11856253Y-13630960D02*
X11846730Y-13611912D01*
X11846730Y-13611912D02*
X11846730Y-13535722D01*
X11846730Y-13535722D02*
X11856253Y-13516674D01*
X11856253Y-13516674D02*
X11875301Y-13507150D01*
X11875301Y-13507150D02*
X11913396Y-13507150D01*
X11913396Y-13507150D02*
X11932444Y-13516674D01*
X11932444Y-13516674D02*
X11941968Y-13535722D01*
X11941968Y-13535722D02*
X11941968Y-13554769D01*
X11941968Y-13554769D02*
X11846730Y-13573817D01*
X12018158Y-13630960D02*
X12037206Y-13640484D01*
X12037206Y-13640484D02*
X12075301Y-13640484D01*
X12075301Y-13640484D02*
X12094349Y-13630960D01*
X12094349Y-13630960D02*
X12103872Y-13611912D01*
X12103872Y-13611912D02*
X12103872Y-13602388D01*
X12103872Y-13602388D02*
X12094349Y-13583341D01*
X12094349Y-13583341D02*
X12075301Y-13573817D01*
X12075301Y-13573817D02*
X12046730Y-13573817D01*
X12046730Y-13573817D02*
X12027682Y-13564293D01*
X12027682Y-13564293D02*
X12018158Y-13545246D01*
X12018158Y-13545246D02*
X12018158Y-13535722D01*
X12018158Y-13535722D02*
X12027682Y-13516674D01*
X12027682Y-13516674D02*
X12046730Y-13507150D01*
X12046730Y-13507150D02*
X12075301Y-13507150D01*
X12075301Y-13507150D02*
X12094349Y-13516674D01*
X12170539Y-13716674D02*
X12180063Y-13707150D01*
X12180063Y-13707150D02*
X12199111Y-13678579D01*
X12199111Y-13678579D02*
X12208634Y-13659531D01*
X12208634Y-13659531D02*
X12218158Y-13630960D01*
X12218158Y-13630960D02*
X12227682Y-13583341D01*
X12227682Y-13583341D02*
X12227682Y-13545246D01*
X12227682Y-13545246D02*
X12218158Y-13497627D01*
X12218158Y-13497627D02*
X12208634Y-13469055D01*
X12208634Y-13469055D02*
X12199111Y-13450008D01*
X12199111Y-13450008D02*
X12180063Y-13421436D01*
X12180063Y-13421436D02*
X12170539Y-13411912D01*
D10*
X7160000Y-13858000D02*
X7205000Y-13813000D01*
X7160000Y-13768000D01*
X7115000Y-13813000D01*
X7160000Y-13858000D01*
D11*
X7503872Y-13704484D02*
X7522920Y-13704484D01*
X7522920Y-13704484D02*
X7541967Y-13714008D01*
X7541967Y-13714008D02*
X7551491Y-13723531D01*
X7551491Y-13723531D02*
X7561015Y-13742579D01*
X7561015Y-13742579D02*
X7570539Y-13780674D01*
X7570539Y-13780674D02*
X7570539Y-13828293D01*
X7570539Y-13828293D02*
X7561015Y-13866388D01*
X7561015Y-13866388D02*
X7551491Y-13885436D01*
X7551491Y-13885436D02*
X7541967Y-13894960D01*
X7541967Y-13894960D02*
X7522920Y-13904484D01*
X7522920Y-13904484D02*
X7503872Y-13904484D01*
X7503872Y-13904484D02*
X7484824Y-13894960D01*
X7484824Y-13894960D02*
X7475301Y-13885436D01*
X7475301Y-13885436D02*
X7465777Y-13866388D01*
X7465777Y-13866388D02*
X7456253Y-13828293D01*
X7456253Y-13828293D02*
X7456253Y-13780674D01*
X7456253Y-13780674D02*
X7465777Y-13742579D01*
X7465777Y-13742579D02*
X7475301Y-13723531D01*
X7475301Y-13723531D02*
X7484824Y-13714008D01*
X7484824Y-13714008D02*
X7503872Y-13704484D01*
X7656253Y-13885436D02*
X7665777Y-13894960D01*
X7665777Y-13894960D02*
X7656253Y-13904484D01*
X7656253Y-13904484D02*
X7646729Y-13894960D01*
X7646729Y-13894960D02*
X7656253Y-13885436D01*
X7656253Y-13885436D02*
X7656253Y-13904484D01*
X7761015Y-13904484D02*
X7799110Y-13904484D01*
X7799110Y-13904484D02*
X7818158Y-13894960D01*
X7818158Y-13894960D02*
X7827682Y-13885436D01*
X7827682Y-13885436D02*
X7846729Y-13856865D01*
X7846729Y-13856865D02*
X7856253Y-13818769D01*
X7856253Y-13818769D02*
X7856253Y-13742579D01*
X7856253Y-13742579D02*
X7846729Y-13723531D01*
X7846729Y-13723531D02*
X7837205Y-13714008D01*
X7837205Y-13714008D02*
X7818158Y-13704484D01*
X7818158Y-13704484D02*
X7780062Y-13704484D01*
X7780062Y-13704484D02*
X7761015Y-13714008D01*
X7761015Y-13714008D02*
X7751491Y-13723531D01*
X7751491Y-13723531D02*
X7741967Y-13742579D01*
X7741967Y-13742579D02*
X7741967Y-13790198D01*
X7741967Y-13790198D02*
X7751491Y-13809246D01*
X7751491Y-13809246D02*
X7761015Y-13818769D01*
X7761015Y-13818769D02*
X7780062Y-13828293D01*
X7780062Y-13828293D02*
X7818158Y-13828293D01*
X7818158Y-13828293D02*
X7837205Y-13818769D01*
X7837205Y-13818769D02*
X7846729Y-13809246D01*
X7846729Y-13809246D02*
X7856253Y-13790198D01*
X7980062Y-13704484D02*
X7999110Y-13704484D01*
X7999110Y-13704484D02*
X8018158Y-13714008D01*
X8018158Y-13714008D02*
X8027682Y-13723531D01*
X8027682Y-13723531D02*
X8037205Y-13742579D01*
X8037205Y-13742579D02*
X8046729Y-13780674D01*
X8046729Y-13780674D02*
X8046729Y-13828293D01*
X8046729Y-13828293D02*
X8037205Y-13866388D01*
X8037205Y-13866388D02*
X8027682Y-13885436D01*
X8027682Y-13885436D02*
X8018158Y-13894960D01*
X8018158Y-13894960D02*
X7999110Y-13904484D01*
X7999110Y-13904484D02*
X7980062Y-13904484D01*
X7980062Y-13904484D02*
X7961015Y-13894960D01*
X7961015Y-13894960D02*
X7951491Y-13885436D01*
X7951491Y-13885436D02*
X7941967Y-13866388D01*
X7941967Y-13866388D02*
X7932443Y-13828293D01*
X7932443Y-13828293D02*
X7932443Y-13780674D01*
X7932443Y-13780674D02*
X7941967Y-13742579D01*
X7941967Y-13742579D02*
X7951491Y-13723531D01*
X7951491Y-13723531D02*
X7961015Y-13714008D01*
X7961015Y-13714008D02*
X7980062Y-13704484D01*
X8170539Y-13704484D02*
X8189586Y-13704484D01*
X8189586Y-13704484D02*
X8208634Y-13714008D01*
X8208634Y-13714008D02*
X8218158Y-13723531D01*
X8218158Y-13723531D02*
X8227682Y-13742579D01*
X8227682Y-13742579D02*
X8237205Y-13780674D01*
X8237205Y-13780674D02*
X8237205Y-13828293D01*
X8237205Y-13828293D02*
X8227682Y-13866388D01*
X8227682Y-13866388D02*
X8218158Y-13885436D01*
X8218158Y-13885436D02*
X8208634Y-13894960D01*
X8208634Y-13894960D02*
X8189586Y-13904484D01*
X8189586Y-13904484D02*
X8170539Y-13904484D01*
X8170539Y-13904484D02*
X8151491Y-13894960D01*
X8151491Y-13894960D02*
X8141967Y-13885436D01*
X8141967Y-13885436D02*
X8132443Y-13866388D01*
X8132443Y-13866388D02*
X8122920Y-13828293D01*
X8122920Y-13828293D02*
X8122920Y-13780674D01*
X8122920Y-13780674D02*
X8132443Y-13742579D01*
X8132443Y-13742579D02*
X8141967Y-13723531D01*
X8141967Y-13723531D02*
X8151491Y-13714008D01*
X8151491Y-13714008D02*
X8170539Y-13704484D01*
X8322920Y-13904484D02*
X8322920Y-13771150D01*
X8322920Y-13790198D02*
X8332443Y-13780674D01*
X8332443Y-13780674D02*
X8351491Y-13771150D01*
X8351491Y-13771150D02*
X8380063Y-13771150D01*
X8380063Y-13771150D02*
X8399110Y-13780674D01*
X8399110Y-13780674D02*
X8408634Y-13799722D01*
X8408634Y-13799722D02*
X8408634Y-13904484D01*
X8408634Y-13799722D02*
X8418158Y-13780674D01*
X8418158Y-13780674D02*
X8437205Y-13771150D01*
X8437205Y-13771150D02*
X8465777Y-13771150D01*
X8465777Y-13771150D02*
X8484825Y-13780674D01*
X8484825Y-13780674D02*
X8494348Y-13799722D01*
X8494348Y-13799722D02*
X8494348Y-13904484D01*
X8589586Y-13904484D02*
X8589586Y-13771150D01*
X8589586Y-13790198D02*
X8599110Y-13780674D01*
X8599110Y-13780674D02*
X8618158Y-13771150D01*
X8618158Y-13771150D02*
X8646729Y-13771150D01*
X8646729Y-13771150D02*
X8665777Y-13780674D01*
X8665777Y-13780674D02*
X8675301Y-13799722D01*
X8675301Y-13799722D02*
X8675301Y-13904484D01*
X8675301Y-13799722D02*
X8684825Y-13780674D01*
X8684825Y-13780674D02*
X8703872Y-13771150D01*
X8703872Y-13771150D02*
X8732444Y-13771150D01*
X8732444Y-13771150D02*
X8751491Y-13780674D01*
X8751491Y-13780674D02*
X8761015Y-13799722D01*
X8761015Y-13799722D02*
X8761015Y-13904484D01*
X9151491Y-13694960D02*
X8980063Y-13952103D01*
X9408634Y-13704484D02*
X9427682Y-13704484D01*
X9427682Y-13704484D02*
X9446729Y-13714008D01*
X9446729Y-13714008D02*
X9456253Y-13723531D01*
X9456253Y-13723531D02*
X9465777Y-13742579D01*
X9465777Y-13742579D02*
X9475301Y-13780674D01*
X9475301Y-13780674D02*
X9475301Y-13828293D01*
X9475301Y-13828293D02*
X9465777Y-13866388D01*
X9465777Y-13866388D02*
X9456253Y-13885436D01*
X9456253Y-13885436D02*
X9446729Y-13894960D01*
X9446729Y-13894960D02*
X9427682Y-13904484D01*
X9427682Y-13904484D02*
X9408634Y-13904484D01*
X9408634Y-13904484D02*
X9389587Y-13894960D01*
X9389587Y-13894960D02*
X9380063Y-13885436D01*
X9380063Y-13885436D02*
X9370539Y-13866388D01*
X9370539Y-13866388D02*
X9361015Y-13828293D01*
X9361015Y-13828293D02*
X9361015Y-13780674D01*
X9361015Y-13780674D02*
X9370539Y-13742579D01*
X9370539Y-13742579D02*
X9380063Y-13723531D01*
X9380063Y-13723531D02*
X9389587Y-13714008D01*
X9389587Y-13714008D02*
X9408634Y-13704484D01*
X9561015Y-13885436D02*
X9570539Y-13894960D01*
X9570539Y-13894960D02*
X9561015Y-13904484D01*
X9561015Y-13904484D02*
X9551491Y-13894960D01*
X9551491Y-13894960D02*
X9561015Y-13885436D01*
X9561015Y-13885436D02*
X9561015Y-13904484D01*
X9694348Y-13704484D02*
X9713396Y-13704484D01*
X9713396Y-13704484D02*
X9732444Y-13714008D01*
X9732444Y-13714008D02*
X9741968Y-13723531D01*
X9741968Y-13723531D02*
X9751491Y-13742579D01*
X9751491Y-13742579D02*
X9761015Y-13780674D01*
X9761015Y-13780674D02*
X9761015Y-13828293D01*
X9761015Y-13828293D02*
X9751491Y-13866388D01*
X9751491Y-13866388D02*
X9741968Y-13885436D01*
X9741968Y-13885436D02*
X9732444Y-13894960D01*
X9732444Y-13894960D02*
X9713396Y-13904484D01*
X9713396Y-13904484D02*
X9694348Y-13904484D01*
X9694348Y-13904484D02*
X9675301Y-13894960D01*
X9675301Y-13894960D02*
X9665777Y-13885436D01*
X9665777Y-13885436D02*
X9656253Y-13866388D01*
X9656253Y-13866388D02*
X9646729Y-13828293D01*
X9646729Y-13828293D02*
X9646729Y-13780674D01*
X9646729Y-13780674D02*
X9656253Y-13742579D01*
X9656253Y-13742579D02*
X9665777Y-13723531D01*
X9665777Y-13723531D02*
X9675301Y-13714008D01*
X9675301Y-13714008D02*
X9694348Y-13704484D01*
X9827682Y-13704484D02*
X9951491Y-13704484D01*
X9951491Y-13704484D02*
X9884825Y-13780674D01*
X9884825Y-13780674D02*
X9913396Y-13780674D01*
X9913396Y-13780674D02*
X9932444Y-13790198D01*
X9932444Y-13790198D02*
X9941968Y-13799722D01*
X9941968Y-13799722D02*
X9951491Y-13818769D01*
X9951491Y-13818769D02*
X9951491Y-13866388D01*
X9951491Y-13866388D02*
X9941968Y-13885436D01*
X9941968Y-13885436D02*
X9932444Y-13894960D01*
X9932444Y-13894960D02*
X9913396Y-13904484D01*
X9913396Y-13904484D02*
X9856253Y-13904484D01*
X9856253Y-13904484D02*
X9837206Y-13894960D01*
X9837206Y-13894960D02*
X9827682Y-13885436D01*
X10132444Y-13704484D02*
X10037206Y-13704484D01*
X10037206Y-13704484D02*
X10027682Y-13799722D01*
X10027682Y-13799722D02*
X10037206Y-13790198D01*
X10037206Y-13790198D02*
X10056253Y-13780674D01*
X10056253Y-13780674D02*
X10103872Y-13780674D01*
X10103872Y-13780674D02*
X10122920Y-13790198D01*
X10122920Y-13790198D02*
X10132444Y-13799722D01*
X10132444Y-13799722D02*
X10141968Y-13818769D01*
X10141968Y-13818769D02*
X10141968Y-13866388D01*
X10141968Y-13866388D02*
X10132444Y-13885436D01*
X10132444Y-13885436D02*
X10122920Y-13894960D01*
X10122920Y-13894960D02*
X10103872Y-13904484D01*
X10103872Y-13904484D02*
X10056253Y-13904484D01*
X10056253Y-13904484D02*
X10037206Y-13894960D01*
X10037206Y-13894960D02*
X10027682Y-13885436D01*
X10313396Y-13771150D02*
X10313396Y-13904484D01*
X10265777Y-13694960D02*
X10218158Y-13837817D01*
X10218158Y-13837817D02*
X10341968Y-13837817D01*
X10408634Y-13704484D02*
X10408634Y-13742579D01*
X10484825Y-13704484D02*
X10484825Y-13742579D01*
X10780063Y-13980674D02*
X10770539Y-13971150D01*
X10770539Y-13971150D02*
X10751491Y-13942579D01*
X10751491Y-13942579D02*
X10741968Y-13923531D01*
X10741968Y-13923531D02*
X10732444Y-13894960D01*
X10732444Y-13894960D02*
X10722920Y-13847341D01*
X10722920Y-13847341D02*
X10722920Y-13809246D01*
X10722920Y-13809246D02*
X10732444Y-13761627D01*
X10732444Y-13761627D02*
X10741968Y-13733055D01*
X10741968Y-13733055D02*
X10751491Y-13714008D01*
X10751491Y-13714008D02*
X10770539Y-13685436D01*
X10770539Y-13685436D02*
X10780063Y-13675912D01*
X10884825Y-13790198D02*
X10865777Y-13780674D01*
X10865777Y-13780674D02*
X10856253Y-13771150D01*
X10856253Y-13771150D02*
X10846730Y-13752103D01*
X10846730Y-13752103D02*
X10846730Y-13742579D01*
X10846730Y-13742579D02*
X10856253Y-13723531D01*
X10856253Y-13723531D02*
X10865777Y-13714008D01*
X10865777Y-13714008D02*
X10884825Y-13704484D01*
X10884825Y-13704484D02*
X10922920Y-13704484D01*
X10922920Y-13704484D02*
X10941968Y-13714008D01*
X10941968Y-13714008D02*
X10951491Y-13723531D01*
X10951491Y-13723531D02*
X10961015Y-13742579D01*
X10961015Y-13742579D02*
X10961015Y-13752103D01*
X10961015Y-13752103D02*
X10951491Y-13771150D01*
X10951491Y-13771150D02*
X10941968Y-13780674D01*
X10941968Y-13780674D02*
X10922920Y-13790198D01*
X10922920Y-13790198D02*
X10884825Y-13790198D01*
X10884825Y-13790198D02*
X10865777Y-13799722D01*
X10865777Y-13799722D02*
X10856253Y-13809246D01*
X10856253Y-13809246D02*
X10846730Y-13828293D01*
X10846730Y-13828293D02*
X10846730Y-13866388D01*
X10846730Y-13866388D02*
X10856253Y-13885436D01*
X10856253Y-13885436D02*
X10865777Y-13894960D01*
X10865777Y-13894960D02*
X10884825Y-13904484D01*
X10884825Y-13904484D02*
X10922920Y-13904484D01*
X10922920Y-13904484D02*
X10941968Y-13894960D01*
X10941968Y-13894960D02*
X10951491Y-13885436D01*
X10951491Y-13885436D02*
X10961015Y-13866388D01*
X10961015Y-13866388D02*
X10961015Y-13828293D01*
X10961015Y-13828293D02*
X10951491Y-13809246D01*
X10951491Y-13809246D02*
X10941968Y-13799722D01*
X10941968Y-13799722D02*
X10922920Y-13790198D01*
X11199110Y-13904484D02*
X11199110Y-13704484D01*
X11284825Y-13904484D02*
X11284825Y-13799722D01*
X11284825Y-13799722D02*
X11275301Y-13780674D01*
X11275301Y-13780674D02*
X11256253Y-13771150D01*
X11256253Y-13771150D02*
X11227682Y-13771150D01*
X11227682Y-13771150D02*
X11208634Y-13780674D01*
X11208634Y-13780674D02*
X11199110Y-13790198D01*
X11408634Y-13904484D02*
X11389587Y-13894960D01*
X11389587Y-13894960D02*
X11380063Y-13885436D01*
X11380063Y-13885436D02*
X11370539Y-13866388D01*
X11370539Y-13866388D02*
X11370539Y-13809246D01*
X11370539Y-13809246D02*
X11380063Y-13790198D01*
X11380063Y-13790198D02*
X11389587Y-13780674D01*
X11389587Y-13780674D02*
X11408634Y-13771150D01*
X11408634Y-13771150D02*
X11437206Y-13771150D01*
X11437206Y-13771150D02*
X11456253Y-13780674D01*
X11456253Y-13780674D02*
X11465777Y-13790198D01*
X11465777Y-13790198D02*
X11475301Y-13809246D01*
X11475301Y-13809246D02*
X11475301Y-13866388D01*
X11475301Y-13866388D02*
X11465777Y-13885436D01*
X11465777Y-13885436D02*
X11456253Y-13894960D01*
X11456253Y-13894960D02*
X11437206Y-13904484D01*
X11437206Y-13904484D02*
X11408634Y-13904484D01*
X11589587Y-13904484D02*
X11570539Y-13894960D01*
X11570539Y-13894960D02*
X11561015Y-13875912D01*
X11561015Y-13875912D02*
X11561015Y-13704484D01*
X11741968Y-13894960D02*
X11722920Y-13904484D01*
X11722920Y-13904484D02*
X11684825Y-13904484D01*
X11684825Y-13904484D02*
X11665777Y-13894960D01*
X11665777Y-13894960D02*
X11656253Y-13875912D01*
X11656253Y-13875912D02*
X11656253Y-13799722D01*
X11656253Y-13799722D02*
X11665777Y-13780674D01*
X11665777Y-13780674D02*
X11684825Y-13771150D01*
X11684825Y-13771150D02*
X11722920Y-13771150D01*
X11722920Y-13771150D02*
X11741968Y-13780674D01*
X11741968Y-13780674D02*
X11751491Y-13799722D01*
X11751491Y-13799722D02*
X11751491Y-13818769D01*
X11751491Y-13818769D02*
X11656253Y-13837817D01*
X11827682Y-13894960D02*
X11846730Y-13904484D01*
X11846730Y-13904484D02*
X11884825Y-13904484D01*
X11884825Y-13904484D02*
X11903872Y-13894960D01*
X11903872Y-13894960D02*
X11913396Y-13875912D01*
X11913396Y-13875912D02*
X11913396Y-13866388D01*
X11913396Y-13866388D02*
X11903872Y-13847341D01*
X11903872Y-13847341D02*
X11884825Y-13837817D01*
X11884825Y-13837817D02*
X11856253Y-13837817D01*
X11856253Y-13837817D02*
X11837206Y-13828293D01*
X11837206Y-13828293D02*
X11827682Y-13809246D01*
X11827682Y-13809246D02*
X11827682Y-13799722D01*
X11827682Y-13799722D02*
X11837206Y-13780674D01*
X11837206Y-13780674D02*
X11856253Y-13771150D01*
X11856253Y-13771150D02*
X11884825Y-13771150D01*
X11884825Y-13771150D02*
X11903872Y-13780674D01*
X12151492Y-13828293D02*
X12303873Y-13828293D01*
X12227682Y-13904484D02*
X12227682Y-13752103D01*
X12646730Y-13704484D02*
X12551492Y-13704484D01*
X12551492Y-13704484D02*
X12541968Y-13799722D01*
X12541968Y-13799722D02*
X12551492Y-13790198D01*
X12551492Y-13790198D02*
X12570539Y-13780674D01*
X12570539Y-13780674D02*
X12618158Y-13780674D01*
X12618158Y-13780674D02*
X12637206Y-13790198D01*
X12637206Y-13790198D02*
X12646730Y-13799722D01*
X12646730Y-13799722D02*
X12656253Y-13818769D01*
X12656253Y-13818769D02*
X12656253Y-13866388D01*
X12656253Y-13866388D02*
X12646730Y-13885436D01*
X12646730Y-13885436D02*
X12637206Y-13894960D01*
X12637206Y-13894960D02*
X12618158Y-13904484D01*
X12618158Y-13904484D02*
X12570539Y-13904484D01*
X12570539Y-13904484D02*
X12551492Y-13894960D01*
X12551492Y-13894960D02*
X12541968Y-13885436D01*
X12884825Y-13894960D02*
X12903873Y-13904484D01*
X12903873Y-13904484D02*
X12941968Y-13904484D01*
X12941968Y-13904484D02*
X12961015Y-13894960D01*
X12961015Y-13894960D02*
X12970539Y-13875912D01*
X12970539Y-13875912D02*
X12970539Y-13866388D01*
X12970539Y-13866388D02*
X12961015Y-13847341D01*
X12961015Y-13847341D02*
X12941968Y-13837817D01*
X12941968Y-13837817D02*
X12913396Y-13837817D01*
X12913396Y-13837817D02*
X12894349Y-13828293D01*
X12894349Y-13828293D02*
X12884825Y-13809246D01*
X12884825Y-13809246D02*
X12884825Y-13799722D01*
X12884825Y-13799722D02*
X12894349Y-13780674D01*
X12894349Y-13780674D02*
X12913396Y-13771150D01*
X12913396Y-13771150D02*
X12941968Y-13771150D01*
X12941968Y-13771150D02*
X12961015Y-13780674D01*
X13084825Y-13904484D02*
X13065777Y-13894960D01*
X13065777Y-13894960D02*
X13056254Y-13875912D01*
X13056254Y-13875912D02*
X13056254Y-13704484D01*
X13189587Y-13904484D02*
X13170539Y-13894960D01*
X13170539Y-13894960D02*
X13161015Y-13885436D01*
X13161015Y-13885436D02*
X13151492Y-13866388D01*
X13151492Y-13866388D02*
X13151492Y-13809246D01*
X13151492Y-13809246D02*
X13161015Y-13790198D01*
X13161015Y-13790198D02*
X13170539Y-13780674D01*
X13170539Y-13780674D02*
X13189587Y-13771150D01*
X13189587Y-13771150D02*
X13218158Y-13771150D01*
X13218158Y-13771150D02*
X13237206Y-13780674D01*
X13237206Y-13780674D02*
X13246730Y-13790198D01*
X13246730Y-13790198D02*
X13256254Y-13809246D01*
X13256254Y-13809246D02*
X13256254Y-13866388D01*
X13256254Y-13866388D02*
X13246730Y-13885436D01*
X13246730Y-13885436D02*
X13237206Y-13894960D01*
X13237206Y-13894960D02*
X13218158Y-13904484D01*
X13218158Y-13904484D02*
X13189587Y-13904484D01*
X13313396Y-13771150D02*
X13389587Y-13771150D01*
X13341968Y-13704484D02*
X13341968Y-13875912D01*
X13341968Y-13875912D02*
X13351492Y-13894960D01*
X13351492Y-13894960D02*
X13370539Y-13904484D01*
X13370539Y-13904484D02*
X13389587Y-13904484D01*
X13446730Y-13894960D02*
X13465777Y-13904484D01*
X13465777Y-13904484D02*
X13503873Y-13904484D01*
X13503873Y-13904484D02*
X13522920Y-13894960D01*
X13522920Y-13894960D02*
X13532444Y-13875912D01*
X13532444Y-13875912D02*
X13532444Y-13866388D01*
X13532444Y-13866388D02*
X13522920Y-13847341D01*
X13522920Y-13847341D02*
X13503873Y-13837817D01*
X13503873Y-13837817D02*
X13475301Y-13837817D01*
X13475301Y-13837817D02*
X13456254Y-13828293D01*
X13456254Y-13828293D02*
X13446730Y-13809246D01*
X13446730Y-13809246D02*
X13446730Y-13799722D01*
X13446730Y-13799722D02*
X13456254Y-13780674D01*
X13456254Y-13780674D02*
X13475301Y-13771150D01*
X13475301Y-13771150D02*
X13503873Y-13771150D01*
X13503873Y-13771150D02*
X13522920Y-13780674D01*
X13599111Y-13980674D02*
X13608635Y-13971150D01*
X13608635Y-13971150D02*
X13627682Y-13942579D01*
X13627682Y-13942579D02*
X13637206Y-13923531D01*
X13637206Y-13923531D02*
X13646730Y-13894960D01*
X13646730Y-13894960D02*
X13656254Y-13847341D01*
X13656254Y-13847341D02*
X13656254Y-13809246D01*
X13656254Y-13809246D02*
X13646730Y-13761627D01*
X13646730Y-13761627D02*
X13637206Y-13733055D01*
X13637206Y-13733055D02*
X13627682Y-13714008D01*
X13627682Y-13714008D02*
X13608635Y-13685436D01*
X13608635Y-13685436D02*
X13599111Y-13675912D01*
D10*
X7105000Y-14027000D02*
X7205000Y-14127000D01*
X7205000Y-14027000D02*
X7105000Y-14127000D01*
X7205000Y-14077000D02*
G75*
G02*
X7105000Y-14077000I-50000J0D01*
G01*
X7105000Y-14077000D02*
G75*
G02*
X7205000Y-14077000I50000J0D01*
G01*
D11*
X7570539Y-14168484D02*
X7456253Y-14168484D01*
X7513396Y-14168484D02*
X7513396Y-13968484D01*
X7513396Y-13968484D02*
X7494348Y-13997055D01*
X7494348Y-13997055D02*
X7475301Y-14016103D01*
X7475301Y-14016103D02*
X7456253Y-14025627D01*
X7656253Y-14149436D02*
X7665777Y-14158960D01*
X7665777Y-14158960D02*
X7656253Y-14168484D01*
X7656253Y-14168484D02*
X7646729Y-14158960D01*
X7646729Y-14158960D02*
X7656253Y-14149436D01*
X7656253Y-14149436D02*
X7656253Y-14168484D01*
X7789586Y-13968484D02*
X7808634Y-13968484D01*
X7808634Y-13968484D02*
X7827682Y-13978008D01*
X7827682Y-13978008D02*
X7837205Y-13987531D01*
X7837205Y-13987531D02*
X7846729Y-14006579D01*
X7846729Y-14006579D02*
X7856253Y-14044674D01*
X7856253Y-14044674D02*
X7856253Y-14092293D01*
X7856253Y-14092293D02*
X7846729Y-14130388D01*
X7846729Y-14130388D02*
X7837205Y-14149436D01*
X7837205Y-14149436D02*
X7827682Y-14158960D01*
X7827682Y-14158960D02*
X7808634Y-14168484D01*
X7808634Y-14168484D02*
X7789586Y-14168484D01*
X7789586Y-14168484D02*
X7770539Y-14158960D01*
X7770539Y-14158960D02*
X7761015Y-14149436D01*
X7761015Y-14149436D02*
X7751491Y-14130388D01*
X7751491Y-14130388D02*
X7741967Y-14092293D01*
X7741967Y-14092293D02*
X7741967Y-14044674D01*
X7741967Y-14044674D02*
X7751491Y-14006579D01*
X7751491Y-14006579D02*
X7761015Y-13987531D01*
X7761015Y-13987531D02*
X7770539Y-13978008D01*
X7770539Y-13978008D02*
X7789586Y-13968484D01*
X7980062Y-13968484D02*
X7999110Y-13968484D01*
X7999110Y-13968484D02*
X8018158Y-13978008D01*
X8018158Y-13978008D02*
X8027682Y-13987531D01*
X8027682Y-13987531D02*
X8037205Y-14006579D01*
X8037205Y-14006579D02*
X8046729Y-14044674D01*
X8046729Y-14044674D02*
X8046729Y-14092293D01*
X8046729Y-14092293D02*
X8037205Y-14130388D01*
X8037205Y-14130388D02*
X8027682Y-14149436D01*
X8027682Y-14149436D02*
X8018158Y-14158960D01*
X8018158Y-14158960D02*
X7999110Y-14168484D01*
X7999110Y-14168484D02*
X7980062Y-14168484D01*
X7980062Y-14168484D02*
X7961015Y-14158960D01*
X7961015Y-14158960D02*
X7951491Y-14149436D01*
X7951491Y-14149436D02*
X7941967Y-14130388D01*
X7941967Y-14130388D02*
X7932443Y-14092293D01*
X7932443Y-14092293D02*
X7932443Y-14044674D01*
X7932443Y-14044674D02*
X7941967Y-14006579D01*
X7941967Y-14006579D02*
X7951491Y-13987531D01*
X7951491Y-13987531D02*
X7961015Y-13978008D01*
X7961015Y-13978008D02*
X7980062Y-13968484D01*
X8170539Y-13968484D02*
X8189586Y-13968484D01*
X8189586Y-13968484D02*
X8208634Y-13978008D01*
X8208634Y-13978008D02*
X8218158Y-13987531D01*
X8218158Y-13987531D02*
X8227682Y-14006579D01*
X8227682Y-14006579D02*
X8237205Y-14044674D01*
X8237205Y-14044674D02*
X8237205Y-14092293D01*
X8237205Y-14092293D02*
X8227682Y-14130388D01*
X8227682Y-14130388D02*
X8218158Y-14149436D01*
X8218158Y-14149436D02*
X8208634Y-14158960D01*
X8208634Y-14158960D02*
X8189586Y-14168484D01*
X8189586Y-14168484D02*
X8170539Y-14168484D01*
X8170539Y-14168484D02*
X8151491Y-14158960D01*
X8151491Y-14158960D02*
X8141967Y-14149436D01*
X8141967Y-14149436D02*
X8132443Y-14130388D01*
X8132443Y-14130388D02*
X8122920Y-14092293D01*
X8122920Y-14092293D02*
X8122920Y-14044674D01*
X8122920Y-14044674D02*
X8132443Y-14006579D01*
X8132443Y-14006579D02*
X8141967Y-13987531D01*
X8141967Y-13987531D02*
X8151491Y-13978008D01*
X8151491Y-13978008D02*
X8170539Y-13968484D01*
X8322920Y-14168484D02*
X8322920Y-14035150D01*
X8322920Y-14054198D02*
X8332443Y-14044674D01*
X8332443Y-14044674D02*
X8351491Y-14035150D01*
X8351491Y-14035150D02*
X8380063Y-14035150D01*
X8380063Y-14035150D02*
X8399110Y-14044674D01*
X8399110Y-14044674D02*
X8408634Y-14063722D01*
X8408634Y-14063722D02*
X8408634Y-14168484D01*
X8408634Y-14063722D02*
X8418158Y-14044674D01*
X8418158Y-14044674D02*
X8437205Y-14035150D01*
X8437205Y-14035150D02*
X8465777Y-14035150D01*
X8465777Y-14035150D02*
X8484825Y-14044674D01*
X8484825Y-14044674D02*
X8494348Y-14063722D01*
X8494348Y-14063722D02*
X8494348Y-14168484D01*
X8589586Y-14168484D02*
X8589586Y-14035150D01*
X8589586Y-14054198D02*
X8599110Y-14044674D01*
X8599110Y-14044674D02*
X8618158Y-14035150D01*
X8618158Y-14035150D02*
X8646729Y-14035150D01*
X8646729Y-14035150D02*
X8665777Y-14044674D01*
X8665777Y-14044674D02*
X8675301Y-14063722D01*
X8675301Y-14063722D02*
X8675301Y-14168484D01*
X8675301Y-14063722D02*
X8684825Y-14044674D01*
X8684825Y-14044674D02*
X8703872Y-14035150D01*
X8703872Y-14035150D02*
X8732444Y-14035150D01*
X8732444Y-14035150D02*
X8751491Y-14044674D01*
X8751491Y-14044674D02*
X8761015Y-14063722D01*
X8761015Y-14063722D02*
X8761015Y-14168484D01*
X9151491Y-13958960D02*
X8980063Y-14216103D01*
X9408634Y-13968484D02*
X9427682Y-13968484D01*
X9427682Y-13968484D02*
X9446729Y-13978008D01*
X9446729Y-13978008D02*
X9456253Y-13987531D01*
X9456253Y-13987531D02*
X9465777Y-14006579D01*
X9465777Y-14006579D02*
X9475301Y-14044674D01*
X9475301Y-14044674D02*
X9475301Y-14092293D01*
X9475301Y-14092293D02*
X9465777Y-14130388D01*
X9465777Y-14130388D02*
X9456253Y-14149436D01*
X9456253Y-14149436D02*
X9446729Y-14158960D01*
X9446729Y-14158960D02*
X9427682Y-14168484D01*
X9427682Y-14168484D02*
X9408634Y-14168484D01*
X9408634Y-14168484D02*
X9389587Y-14158960D01*
X9389587Y-14158960D02*
X9380063Y-14149436D01*
X9380063Y-14149436D02*
X9370539Y-14130388D01*
X9370539Y-14130388D02*
X9361015Y-14092293D01*
X9361015Y-14092293D02*
X9361015Y-14044674D01*
X9361015Y-14044674D02*
X9370539Y-14006579D01*
X9370539Y-14006579D02*
X9380063Y-13987531D01*
X9380063Y-13987531D02*
X9389587Y-13978008D01*
X9389587Y-13978008D02*
X9408634Y-13968484D01*
X9561015Y-14149436D02*
X9570539Y-14158960D01*
X9570539Y-14158960D02*
X9561015Y-14168484D01*
X9561015Y-14168484D02*
X9551491Y-14158960D01*
X9551491Y-14158960D02*
X9561015Y-14149436D01*
X9561015Y-14149436D02*
X9561015Y-14168484D01*
X9694348Y-13968484D02*
X9713396Y-13968484D01*
X9713396Y-13968484D02*
X9732444Y-13978008D01*
X9732444Y-13978008D02*
X9741968Y-13987531D01*
X9741968Y-13987531D02*
X9751491Y-14006579D01*
X9751491Y-14006579D02*
X9761015Y-14044674D01*
X9761015Y-14044674D02*
X9761015Y-14092293D01*
X9761015Y-14092293D02*
X9751491Y-14130388D01*
X9751491Y-14130388D02*
X9741968Y-14149436D01*
X9741968Y-14149436D02*
X9732444Y-14158960D01*
X9732444Y-14158960D02*
X9713396Y-14168484D01*
X9713396Y-14168484D02*
X9694348Y-14168484D01*
X9694348Y-14168484D02*
X9675301Y-14158960D01*
X9675301Y-14158960D02*
X9665777Y-14149436D01*
X9665777Y-14149436D02*
X9656253Y-14130388D01*
X9656253Y-14130388D02*
X9646729Y-14092293D01*
X9646729Y-14092293D02*
X9646729Y-14044674D01*
X9646729Y-14044674D02*
X9656253Y-14006579D01*
X9656253Y-14006579D02*
X9665777Y-13987531D01*
X9665777Y-13987531D02*
X9675301Y-13978008D01*
X9675301Y-13978008D02*
X9694348Y-13968484D01*
X9827682Y-13968484D02*
X9951491Y-13968484D01*
X9951491Y-13968484D02*
X9884825Y-14044674D01*
X9884825Y-14044674D02*
X9913396Y-14044674D01*
X9913396Y-14044674D02*
X9932444Y-14054198D01*
X9932444Y-14054198D02*
X9941968Y-14063722D01*
X9941968Y-14063722D02*
X9951491Y-14082769D01*
X9951491Y-14082769D02*
X9951491Y-14130388D01*
X9951491Y-14130388D02*
X9941968Y-14149436D01*
X9941968Y-14149436D02*
X9932444Y-14158960D01*
X9932444Y-14158960D02*
X9913396Y-14168484D01*
X9913396Y-14168484D02*
X9856253Y-14168484D01*
X9856253Y-14168484D02*
X9837206Y-14158960D01*
X9837206Y-14158960D02*
X9827682Y-14149436D01*
X10046729Y-14168484D02*
X10084825Y-14168484D01*
X10084825Y-14168484D02*
X10103872Y-14158960D01*
X10103872Y-14158960D02*
X10113396Y-14149436D01*
X10113396Y-14149436D02*
X10132444Y-14120865D01*
X10132444Y-14120865D02*
X10141968Y-14082769D01*
X10141968Y-14082769D02*
X10141968Y-14006579D01*
X10141968Y-14006579D02*
X10132444Y-13987531D01*
X10132444Y-13987531D02*
X10122920Y-13978008D01*
X10122920Y-13978008D02*
X10103872Y-13968484D01*
X10103872Y-13968484D02*
X10065777Y-13968484D01*
X10065777Y-13968484D02*
X10046729Y-13978008D01*
X10046729Y-13978008D02*
X10037206Y-13987531D01*
X10037206Y-13987531D02*
X10027682Y-14006579D01*
X10027682Y-14006579D02*
X10027682Y-14054198D01*
X10027682Y-14054198D02*
X10037206Y-14073246D01*
X10037206Y-14073246D02*
X10046729Y-14082769D01*
X10046729Y-14082769D02*
X10065777Y-14092293D01*
X10065777Y-14092293D02*
X10103872Y-14092293D01*
X10103872Y-14092293D02*
X10122920Y-14082769D01*
X10122920Y-14082769D02*
X10132444Y-14073246D01*
X10132444Y-14073246D02*
X10141968Y-14054198D01*
X10313396Y-14035150D02*
X10313396Y-14168484D01*
X10265777Y-13958960D02*
X10218158Y-14101817D01*
X10218158Y-14101817D02*
X10341968Y-14101817D01*
X10408634Y-13968484D02*
X10408634Y-14006579D01*
X10484825Y-13968484D02*
X10484825Y-14006579D01*
X10780063Y-14244674D02*
X10770539Y-14235150D01*
X10770539Y-14235150D02*
X10751491Y-14206579D01*
X10751491Y-14206579D02*
X10741968Y-14187531D01*
X10741968Y-14187531D02*
X10732444Y-14158960D01*
X10732444Y-14158960D02*
X10722920Y-14111341D01*
X10722920Y-14111341D02*
X10722920Y-14073246D01*
X10722920Y-14073246D02*
X10732444Y-14025627D01*
X10732444Y-14025627D02*
X10741968Y-13997055D01*
X10741968Y-13997055D02*
X10751491Y-13978008D01*
X10751491Y-13978008D02*
X10770539Y-13949436D01*
X10770539Y-13949436D02*
X10780063Y-13939912D01*
X10837206Y-13968484D02*
X10961015Y-13968484D01*
X10961015Y-13968484D02*
X10894349Y-14044674D01*
X10894349Y-14044674D02*
X10922920Y-14044674D01*
X10922920Y-14044674D02*
X10941968Y-14054198D01*
X10941968Y-14054198D02*
X10951491Y-14063722D01*
X10951491Y-14063722D02*
X10961015Y-14082769D01*
X10961015Y-14082769D02*
X10961015Y-14130388D01*
X10961015Y-14130388D02*
X10951491Y-14149436D01*
X10951491Y-14149436D02*
X10941968Y-14158960D01*
X10941968Y-14158960D02*
X10922920Y-14168484D01*
X10922920Y-14168484D02*
X10865777Y-14168484D01*
X10865777Y-14168484D02*
X10846730Y-14158960D01*
X10846730Y-14158960D02*
X10837206Y-14149436D01*
X11199110Y-14168484D02*
X11199110Y-13968484D01*
X11284825Y-14168484D02*
X11284825Y-14063722D01*
X11284825Y-14063722D02*
X11275301Y-14044674D01*
X11275301Y-14044674D02*
X11256253Y-14035150D01*
X11256253Y-14035150D02*
X11227682Y-14035150D01*
X11227682Y-14035150D02*
X11208634Y-14044674D01*
X11208634Y-14044674D02*
X11199110Y-14054198D01*
X11408634Y-14168484D02*
X11389587Y-14158960D01*
X11389587Y-14158960D02*
X11380063Y-14149436D01*
X11380063Y-14149436D02*
X11370539Y-14130388D01*
X11370539Y-14130388D02*
X11370539Y-14073246D01*
X11370539Y-14073246D02*
X11380063Y-14054198D01*
X11380063Y-14054198D02*
X11389587Y-14044674D01*
X11389587Y-14044674D02*
X11408634Y-14035150D01*
X11408634Y-14035150D02*
X11437206Y-14035150D01*
X11437206Y-14035150D02*
X11456253Y-14044674D01*
X11456253Y-14044674D02*
X11465777Y-14054198D01*
X11465777Y-14054198D02*
X11475301Y-14073246D01*
X11475301Y-14073246D02*
X11475301Y-14130388D01*
X11475301Y-14130388D02*
X11465777Y-14149436D01*
X11465777Y-14149436D02*
X11456253Y-14158960D01*
X11456253Y-14158960D02*
X11437206Y-14168484D01*
X11437206Y-14168484D02*
X11408634Y-14168484D01*
X11589587Y-14168484D02*
X11570539Y-14158960D01*
X11570539Y-14158960D02*
X11561015Y-14139912D01*
X11561015Y-14139912D02*
X11561015Y-13968484D01*
X11741968Y-14158960D02*
X11722920Y-14168484D01*
X11722920Y-14168484D02*
X11684825Y-14168484D01*
X11684825Y-14168484D02*
X11665777Y-14158960D01*
X11665777Y-14158960D02*
X11656253Y-14139912D01*
X11656253Y-14139912D02*
X11656253Y-14063722D01*
X11656253Y-14063722D02*
X11665777Y-14044674D01*
X11665777Y-14044674D02*
X11684825Y-14035150D01*
X11684825Y-14035150D02*
X11722920Y-14035150D01*
X11722920Y-14035150D02*
X11741968Y-14044674D01*
X11741968Y-14044674D02*
X11751491Y-14063722D01*
X11751491Y-14063722D02*
X11751491Y-14082769D01*
X11751491Y-14082769D02*
X11656253Y-14101817D01*
X11827682Y-14158960D02*
X11846730Y-14168484D01*
X11846730Y-14168484D02*
X11884825Y-14168484D01*
X11884825Y-14168484D02*
X11903872Y-14158960D01*
X11903872Y-14158960D02*
X11913396Y-14139912D01*
X11913396Y-14139912D02*
X11913396Y-14130388D01*
X11913396Y-14130388D02*
X11903872Y-14111341D01*
X11903872Y-14111341D02*
X11884825Y-14101817D01*
X11884825Y-14101817D02*
X11856253Y-14101817D01*
X11856253Y-14101817D02*
X11837206Y-14092293D01*
X11837206Y-14092293D02*
X11827682Y-14073246D01*
X11827682Y-14073246D02*
X11827682Y-14063722D01*
X11827682Y-14063722D02*
X11837206Y-14044674D01*
X11837206Y-14044674D02*
X11856253Y-14035150D01*
X11856253Y-14035150D02*
X11884825Y-14035150D01*
X11884825Y-14035150D02*
X11903872Y-14044674D01*
X11980063Y-14244674D02*
X11989587Y-14235150D01*
X11989587Y-14235150D02*
X12008634Y-14206579D01*
X12008634Y-14206579D02*
X12018158Y-14187531D01*
X12018158Y-14187531D02*
X12027682Y-14158960D01*
X12027682Y-14158960D02*
X12037206Y-14111341D01*
X12037206Y-14111341D02*
X12037206Y-14073246D01*
X12037206Y-14073246D02*
X12027682Y-14025627D01*
X12027682Y-14025627D02*
X12018158Y-13997055D01*
X12018158Y-13997055D02*
X12008634Y-13978008D01*
X12008634Y-13978008D02*
X11989587Y-13949436D01*
X11989587Y-13949436D02*
X11980063Y-13939912D01*
D12*
X7103000Y-14290000D02*
X7205000Y-14392000D01*
X7205000Y-14290000D02*
X7103000Y-14392000D01*
X7154000Y-14290000D02*
X7154000Y-14392000D01*
X7103000Y-14341000D02*
X7205000Y-14341000D01*
D11*
X7570539Y-14432484D02*
X7456253Y-14432484D01*
X7513396Y-14432484D02*
X7513396Y-14232484D01*
X7513396Y-14232484D02*
X7494348Y-14261055D01*
X7494348Y-14261055D02*
X7475301Y-14280103D01*
X7475301Y-14280103D02*
X7456253Y-14289627D01*
X7656253Y-14413436D02*
X7665777Y-14422960D01*
X7665777Y-14422960D02*
X7656253Y-14432484D01*
X7656253Y-14432484D02*
X7646729Y-14422960D01*
X7646729Y-14422960D02*
X7656253Y-14413436D01*
X7656253Y-14413436D02*
X7656253Y-14432484D01*
X7789586Y-14232484D02*
X7808634Y-14232484D01*
X7808634Y-14232484D02*
X7827682Y-14242008D01*
X7827682Y-14242008D02*
X7837205Y-14251531D01*
X7837205Y-14251531D02*
X7846729Y-14270579D01*
X7846729Y-14270579D02*
X7856253Y-14308674D01*
X7856253Y-14308674D02*
X7856253Y-14356293D01*
X7856253Y-14356293D02*
X7846729Y-14394388D01*
X7846729Y-14394388D02*
X7837205Y-14413436D01*
X7837205Y-14413436D02*
X7827682Y-14422960D01*
X7827682Y-14422960D02*
X7808634Y-14432484D01*
X7808634Y-14432484D02*
X7789586Y-14432484D01*
X7789586Y-14432484D02*
X7770539Y-14422960D01*
X7770539Y-14422960D02*
X7761015Y-14413436D01*
X7761015Y-14413436D02*
X7751491Y-14394388D01*
X7751491Y-14394388D02*
X7741967Y-14356293D01*
X7741967Y-14356293D02*
X7741967Y-14308674D01*
X7741967Y-14308674D02*
X7751491Y-14270579D01*
X7751491Y-14270579D02*
X7761015Y-14251531D01*
X7761015Y-14251531D02*
X7770539Y-14242008D01*
X7770539Y-14242008D02*
X7789586Y-14232484D01*
X7932443Y-14251531D02*
X7941967Y-14242008D01*
X7941967Y-14242008D02*
X7961015Y-14232484D01*
X7961015Y-14232484D02*
X8008634Y-14232484D01*
X8008634Y-14232484D02*
X8027682Y-14242008D01*
X8027682Y-14242008D02*
X8037205Y-14251531D01*
X8037205Y-14251531D02*
X8046729Y-14270579D01*
X8046729Y-14270579D02*
X8046729Y-14289627D01*
X8046729Y-14289627D02*
X8037205Y-14318198D01*
X8037205Y-14318198D02*
X7922920Y-14432484D01*
X7922920Y-14432484D02*
X8046729Y-14432484D01*
X8170539Y-14232484D02*
X8189586Y-14232484D01*
X8189586Y-14232484D02*
X8208634Y-14242008D01*
X8208634Y-14242008D02*
X8218158Y-14251531D01*
X8218158Y-14251531D02*
X8227682Y-14270579D01*
X8227682Y-14270579D02*
X8237205Y-14308674D01*
X8237205Y-14308674D02*
X8237205Y-14356293D01*
X8237205Y-14356293D02*
X8227682Y-14394388D01*
X8227682Y-14394388D02*
X8218158Y-14413436D01*
X8218158Y-14413436D02*
X8208634Y-14422960D01*
X8208634Y-14422960D02*
X8189586Y-14432484D01*
X8189586Y-14432484D02*
X8170539Y-14432484D01*
X8170539Y-14432484D02*
X8151491Y-14422960D01*
X8151491Y-14422960D02*
X8141967Y-14413436D01*
X8141967Y-14413436D02*
X8132443Y-14394388D01*
X8132443Y-14394388D02*
X8122920Y-14356293D01*
X8122920Y-14356293D02*
X8122920Y-14308674D01*
X8122920Y-14308674D02*
X8132443Y-14270579D01*
X8132443Y-14270579D02*
X8141967Y-14251531D01*
X8141967Y-14251531D02*
X8151491Y-14242008D01*
X8151491Y-14242008D02*
X8170539Y-14232484D01*
X8322920Y-14432484D02*
X8322920Y-14299150D01*
X8322920Y-14318198D02*
X8332443Y-14308674D01*
X8332443Y-14308674D02*
X8351491Y-14299150D01*
X8351491Y-14299150D02*
X8380063Y-14299150D01*
X8380063Y-14299150D02*
X8399110Y-14308674D01*
X8399110Y-14308674D02*
X8408634Y-14327722D01*
X8408634Y-14327722D02*
X8408634Y-14432484D01*
X8408634Y-14327722D02*
X8418158Y-14308674D01*
X8418158Y-14308674D02*
X8437205Y-14299150D01*
X8437205Y-14299150D02*
X8465777Y-14299150D01*
X8465777Y-14299150D02*
X8484825Y-14308674D01*
X8484825Y-14308674D02*
X8494348Y-14327722D01*
X8494348Y-14327722D02*
X8494348Y-14432484D01*
X8589586Y-14432484D02*
X8589586Y-14299150D01*
X8589586Y-14318198D02*
X8599110Y-14308674D01*
X8599110Y-14308674D02*
X8618158Y-14299150D01*
X8618158Y-14299150D02*
X8646729Y-14299150D01*
X8646729Y-14299150D02*
X8665777Y-14308674D01*
X8665777Y-14308674D02*
X8675301Y-14327722D01*
X8675301Y-14327722D02*
X8675301Y-14432484D01*
X8675301Y-14327722D02*
X8684825Y-14308674D01*
X8684825Y-14308674D02*
X8703872Y-14299150D01*
X8703872Y-14299150D02*
X8732444Y-14299150D01*
X8732444Y-14299150D02*
X8751491Y-14308674D01*
X8751491Y-14308674D02*
X8761015Y-14327722D01*
X8761015Y-14327722D02*
X8761015Y-14432484D01*
X9151491Y-14222960D02*
X8980063Y-14480103D01*
X9408634Y-14232484D02*
X9427682Y-14232484D01*
X9427682Y-14232484D02*
X9446729Y-14242008D01*
X9446729Y-14242008D02*
X9456253Y-14251531D01*
X9456253Y-14251531D02*
X9465777Y-14270579D01*
X9465777Y-14270579D02*
X9475301Y-14308674D01*
X9475301Y-14308674D02*
X9475301Y-14356293D01*
X9475301Y-14356293D02*
X9465777Y-14394388D01*
X9465777Y-14394388D02*
X9456253Y-14413436D01*
X9456253Y-14413436D02*
X9446729Y-14422960D01*
X9446729Y-14422960D02*
X9427682Y-14432484D01*
X9427682Y-14432484D02*
X9408634Y-14432484D01*
X9408634Y-14432484D02*
X9389587Y-14422960D01*
X9389587Y-14422960D02*
X9380063Y-14413436D01*
X9380063Y-14413436D02*
X9370539Y-14394388D01*
X9370539Y-14394388D02*
X9361015Y-14356293D01*
X9361015Y-14356293D02*
X9361015Y-14308674D01*
X9361015Y-14308674D02*
X9370539Y-14270579D01*
X9370539Y-14270579D02*
X9380063Y-14251531D01*
X9380063Y-14251531D02*
X9389587Y-14242008D01*
X9389587Y-14242008D02*
X9408634Y-14232484D01*
X9561015Y-14413436D02*
X9570539Y-14422960D01*
X9570539Y-14422960D02*
X9561015Y-14432484D01*
X9561015Y-14432484D02*
X9551491Y-14422960D01*
X9551491Y-14422960D02*
X9561015Y-14413436D01*
X9561015Y-14413436D02*
X9561015Y-14432484D01*
X9694348Y-14232484D02*
X9713396Y-14232484D01*
X9713396Y-14232484D02*
X9732444Y-14242008D01*
X9732444Y-14242008D02*
X9741968Y-14251531D01*
X9741968Y-14251531D02*
X9751491Y-14270579D01*
X9751491Y-14270579D02*
X9761015Y-14308674D01*
X9761015Y-14308674D02*
X9761015Y-14356293D01*
X9761015Y-14356293D02*
X9751491Y-14394388D01*
X9751491Y-14394388D02*
X9741968Y-14413436D01*
X9741968Y-14413436D02*
X9732444Y-14422960D01*
X9732444Y-14422960D02*
X9713396Y-14432484D01*
X9713396Y-14432484D02*
X9694348Y-14432484D01*
X9694348Y-14432484D02*
X9675301Y-14422960D01*
X9675301Y-14422960D02*
X9665777Y-14413436D01*
X9665777Y-14413436D02*
X9656253Y-14394388D01*
X9656253Y-14394388D02*
X9646729Y-14356293D01*
X9646729Y-14356293D02*
X9646729Y-14308674D01*
X9646729Y-14308674D02*
X9656253Y-14270579D01*
X9656253Y-14270579D02*
X9665777Y-14251531D01*
X9665777Y-14251531D02*
X9675301Y-14242008D01*
X9675301Y-14242008D02*
X9694348Y-14232484D01*
X9932444Y-14299150D02*
X9932444Y-14432484D01*
X9884825Y-14222960D02*
X9837206Y-14365817D01*
X9837206Y-14365817D02*
X9961015Y-14365817D01*
X10075301Y-14232484D02*
X10094349Y-14232484D01*
X10094349Y-14232484D02*
X10113396Y-14242008D01*
X10113396Y-14242008D02*
X10122920Y-14251531D01*
X10122920Y-14251531D02*
X10132444Y-14270579D01*
X10132444Y-14270579D02*
X10141968Y-14308674D01*
X10141968Y-14308674D02*
X10141968Y-14356293D01*
X10141968Y-14356293D02*
X10132444Y-14394388D01*
X10132444Y-14394388D02*
X10122920Y-14413436D01*
X10122920Y-14413436D02*
X10113396Y-14422960D01*
X10113396Y-14422960D02*
X10094349Y-14432484D01*
X10094349Y-14432484D02*
X10075301Y-14432484D01*
X10075301Y-14432484D02*
X10056253Y-14422960D01*
X10056253Y-14422960D02*
X10046729Y-14413436D01*
X10046729Y-14413436D02*
X10037206Y-14394388D01*
X10037206Y-14394388D02*
X10027682Y-14356293D01*
X10027682Y-14356293D02*
X10027682Y-14308674D01*
X10027682Y-14308674D02*
X10037206Y-14270579D01*
X10037206Y-14270579D02*
X10046729Y-14251531D01*
X10046729Y-14251531D02*
X10056253Y-14242008D01*
X10056253Y-14242008D02*
X10075301Y-14232484D01*
X10218158Y-14251531D02*
X10227682Y-14242008D01*
X10227682Y-14242008D02*
X10246729Y-14232484D01*
X10246729Y-14232484D02*
X10294349Y-14232484D01*
X10294349Y-14232484D02*
X10313396Y-14242008D01*
X10313396Y-14242008D02*
X10322920Y-14251531D01*
X10322920Y-14251531D02*
X10332444Y-14270579D01*
X10332444Y-14270579D02*
X10332444Y-14289627D01*
X10332444Y-14289627D02*
X10322920Y-14318198D01*
X10322920Y-14318198D02*
X10208634Y-14432484D01*
X10208634Y-14432484D02*
X10332444Y-14432484D01*
X10408634Y-14232484D02*
X10408634Y-14270579D01*
X10484825Y-14232484D02*
X10484825Y-14270579D01*
X10780063Y-14508674D02*
X10770539Y-14499150D01*
X10770539Y-14499150D02*
X10751491Y-14470579D01*
X10751491Y-14470579D02*
X10741968Y-14451531D01*
X10741968Y-14451531D02*
X10732444Y-14422960D01*
X10732444Y-14422960D02*
X10722920Y-14375341D01*
X10722920Y-14375341D02*
X10722920Y-14337246D01*
X10722920Y-14337246D02*
X10732444Y-14289627D01*
X10732444Y-14289627D02*
X10741968Y-14261055D01*
X10741968Y-14261055D02*
X10751491Y-14242008D01*
X10751491Y-14242008D02*
X10770539Y-14213436D01*
X10770539Y-14213436D02*
X10780063Y-14203912D01*
X10941968Y-14299150D02*
X10941968Y-14432484D01*
X10894349Y-14222960D02*
X10846730Y-14365817D01*
X10846730Y-14365817D02*
X10970539Y-14365817D01*
X11027682Y-14232484D02*
X11151491Y-14232484D01*
X11151491Y-14232484D02*
X11084825Y-14308674D01*
X11084825Y-14308674D02*
X11113396Y-14308674D01*
X11113396Y-14308674D02*
X11132444Y-14318198D01*
X11132444Y-14318198D02*
X11141968Y-14327722D01*
X11141968Y-14327722D02*
X11151491Y-14346769D01*
X11151491Y-14346769D02*
X11151491Y-14394388D01*
X11151491Y-14394388D02*
X11141968Y-14413436D01*
X11141968Y-14413436D02*
X11132444Y-14422960D01*
X11132444Y-14422960D02*
X11113396Y-14432484D01*
X11113396Y-14432484D02*
X11056253Y-14432484D01*
X11056253Y-14432484D02*
X11037206Y-14422960D01*
X11037206Y-14422960D02*
X11027682Y-14413436D01*
X11389587Y-14432484D02*
X11389587Y-14232484D01*
X11475301Y-14432484D02*
X11475301Y-14327722D01*
X11475301Y-14327722D02*
X11465777Y-14308674D01*
X11465777Y-14308674D02*
X11446730Y-14299150D01*
X11446730Y-14299150D02*
X11418158Y-14299150D01*
X11418158Y-14299150D02*
X11399110Y-14308674D01*
X11399110Y-14308674D02*
X11389587Y-14318198D01*
X11599110Y-14432484D02*
X11580063Y-14422960D01*
X11580063Y-14422960D02*
X11570539Y-14413436D01*
X11570539Y-14413436D02*
X11561015Y-14394388D01*
X11561015Y-14394388D02*
X11561015Y-14337246D01*
X11561015Y-14337246D02*
X11570539Y-14318198D01*
X11570539Y-14318198D02*
X11580063Y-14308674D01*
X11580063Y-14308674D02*
X11599110Y-14299150D01*
X11599110Y-14299150D02*
X11627682Y-14299150D01*
X11627682Y-14299150D02*
X11646730Y-14308674D01*
X11646730Y-14308674D02*
X11656253Y-14318198D01*
X11656253Y-14318198D02*
X11665777Y-14337246D01*
X11665777Y-14337246D02*
X11665777Y-14394388D01*
X11665777Y-14394388D02*
X11656253Y-14413436D01*
X11656253Y-14413436D02*
X11646730Y-14422960D01*
X11646730Y-14422960D02*
X11627682Y-14432484D01*
X11627682Y-14432484D02*
X11599110Y-14432484D01*
X11780063Y-14432484D02*
X11761015Y-14422960D01*
X11761015Y-14422960D02*
X11751491Y-14403912D01*
X11751491Y-14403912D02*
X11751491Y-14232484D01*
X11932444Y-14422960D02*
X11913396Y-14432484D01*
X11913396Y-14432484D02*
X11875301Y-14432484D01*
X11875301Y-14432484D02*
X11856253Y-14422960D01*
X11856253Y-14422960D02*
X11846730Y-14403912D01*
X11846730Y-14403912D02*
X11846730Y-14327722D01*
X11846730Y-14327722D02*
X11856253Y-14308674D01*
X11856253Y-14308674D02*
X11875301Y-14299150D01*
X11875301Y-14299150D02*
X11913396Y-14299150D01*
X11913396Y-14299150D02*
X11932444Y-14308674D01*
X11932444Y-14308674D02*
X11941968Y-14327722D01*
X11941968Y-14327722D02*
X11941968Y-14346769D01*
X11941968Y-14346769D02*
X11846730Y-14365817D01*
X12018158Y-14422960D02*
X12037206Y-14432484D01*
X12037206Y-14432484D02*
X12075301Y-14432484D01*
X12075301Y-14432484D02*
X12094349Y-14422960D01*
X12094349Y-14422960D02*
X12103872Y-14403912D01*
X12103872Y-14403912D02*
X12103872Y-14394388D01*
X12103872Y-14394388D02*
X12094349Y-14375341D01*
X12094349Y-14375341D02*
X12075301Y-14365817D01*
X12075301Y-14365817D02*
X12046730Y-14365817D01*
X12046730Y-14365817D02*
X12027682Y-14356293D01*
X12027682Y-14356293D02*
X12018158Y-14337246D01*
X12018158Y-14337246D02*
X12018158Y-14327722D01*
X12018158Y-14327722D02*
X12027682Y-14308674D01*
X12027682Y-14308674D02*
X12046730Y-14299150D01*
X12046730Y-14299150D02*
X12075301Y-14299150D01*
X12075301Y-14299150D02*
X12094349Y-14308674D01*
X12170539Y-14508674D02*
X12180063Y-14499150D01*
X12180063Y-14499150D02*
X12199111Y-14470579D01*
X12199111Y-14470579D02*
X12208634Y-14451531D01*
X12208634Y-14451531D02*
X12218158Y-14422960D01*
X12218158Y-14422960D02*
X12227682Y-14375341D01*
X12227682Y-14375341D02*
X12227682Y-14337246D01*
X12227682Y-14337246D02*
X12218158Y-14289627D01*
X12218158Y-14289627D02*
X12208634Y-14261055D01*
X12208634Y-14261055D02*
X12199111Y-14242008D01*
X12199111Y-14242008D02*
X12180063Y-14213436D01*
X12180063Y-14213436D02*
X12170539Y-14203912D01*
M02*
