%TF.GenerationSoftware,KiCad,Pcbnew,9.0.3*%
%TF.CreationDate,2025-09-18T11:30:50-07:00*%
%TF.ProjectId,pcb,7063622e-6b69-4636-9164-5f7063625858,rev?*%
%TF.SameCoordinates,Original*%
%TF.FileFunction,Soldermask,Bot*%
%TF.FilePolarity,Negative*%
%FSLAX46Y46*%
G04 Gerber Fmt 4.6, Leading zero omitted, Abs format (unit mm)*
G04 Created by KiCad (PCBNEW 9.0.3) date 2025-09-18 11:30:50*
%MOMM*%
%LPD*%
G01*
G04 APERTURE LIST*
G04 Aperture macros list*
%AMRoundRect*
0 Rectangle with rounded corners*
0 $1 Rounding radius*
0 $2 $3 $4 $5 $6 $7 $8 $9 X,Y pos of 4 corners*
0 Add a 4 corners polygon primitive as box body*
4,1,4,$2,$3,$4,$5,$6,$7,$8,$9,$2,$3,0*
0 Add four circle primitives for the rounded corners*
1,1,$1+$1,$2,$3*
1,1,$1+$1,$4,$5*
1,1,$1+$1,$6,$7*
1,1,$1+$1,$8,$9*
0 Add four rect primitives between the rounded corners*
20,1,$1+$1,$2,$3,$4,$5,0*
20,1,$1+$1,$4,$5,$6,$7,0*
20,1,$1+$1,$6,$7,$8,$9,0*
20,1,$1+$1,$8,$9,$2,$3,0*%
G04 Aperture macros list end*
%ADD10R,1.800000X1.800000*%
%ADD11C,1.800000*%
%ADD12C,3.200000*%
%ADD13RoundRect,0.250000X0.550000X-0.550000X0.550000X0.550000X-0.550000X0.550000X-0.550000X-0.550000X0*%
%ADD14C,1.600000*%
%ADD15C,1.400000*%
%ADD16C,1.200000*%
%ADD17O,2.500000X1.800000*%
%ADD18O,1.800000X2.500000*%
%ADD19C,1.500000*%
%ADD20O,1.800000X1.800000*%
%ADD21O,1.500000X1.500000*%
%ADD22O,1.700000X1.700000*%
%ADD23R,1.700000X1.700000*%
%ADD24RoundRect,0.250000X-0.550000X0.550000X-0.550000X-0.550000X0.550000X-0.550000X0.550000X0.550000X0*%
%ADD25R,1.550000X1.550000*%
%ADD26C,1.550000*%
%ADD27R,1.500000X1.050000*%
%ADD28O,1.500000X1.050000*%
G04 APERTURE END LIST*
D10*
%TO.C,D1*%
X77180000Y-86830000D03*
D11*
X77180000Y-89370000D03*
%TD*%
D12*
%TO.C, *%
X77180000Y-116040000D03*
%TD*%
D13*
%TO.C,SW1*%
X97500000Y-118580000D03*
D14*
X100040000Y-118580000D03*
X102580000Y-118580000D03*
X105120000Y-118580000D03*
X105120000Y-110960000D03*
X102580000Y-110960000D03*
X100040000Y-110960000D03*
X97500000Y-110960000D03*
%TD*%
%TO.C,C2*%
X86100000Y-61500000D03*
X86100000Y-64000000D03*
%TD*%
D15*
%TO.C,R3*%
X119090000Y-80480000D03*
X119090000Y-85560000D03*
%TD*%
D16*
%TO.C,J2*%
X74220000Y-60240000D03*
X74220000Y-70240000D03*
X76720000Y-60240000D03*
X76720000Y-70240000D03*
X81720000Y-65240000D03*
D17*
X81720000Y-60240000D03*
X81720000Y-62740000D03*
D18*
X76720000Y-65240000D03*
D17*
X81720000Y-70240000D03*
X81720000Y-67740000D03*
%TD*%
D19*
%TO.C,J1*%
X73660000Y-78650000D03*
X80660000Y-78650000D03*
%TD*%
D15*
%TO.C,R9*%
X82090000Y-72500000D03*
X77010000Y-72500000D03*
%TD*%
D14*
%TO.C,C1*%
X86600000Y-77500000D03*
X86600000Y-80000000D03*
%TD*%
D20*
%TO.C,U1*%
X99855000Y-52000000D03*
D21*
X100155000Y-55030000D03*
X105005000Y-55030000D03*
D20*
X105305000Y-52000000D03*
D22*
X93690000Y-51870000D03*
X93690000Y-54410000D03*
D23*
X93690000Y-56950000D03*
D22*
X93690000Y-59490000D03*
X93690000Y-62030000D03*
X93690000Y-64570000D03*
X93690000Y-67110000D03*
D23*
X93690000Y-69650000D03*
D22*
X93690000Y-72190000D03*
X93690000Y-74730000D03*
X93690000Y-77270000D03*
X93690000Y-79810000D03*
D23*
X93690000Y-82350000D03*
D22*
X93690000Y-84890000D03*
X93690000Y-87430000D03*
X93690000Y-89970000D03*
X93690000Y-92510000D03*
D23*
X93690000Y-95050000D03*
D22*
X93690000Y-97590000D03*
X93690000Y-100130000D03*
X111470000Y-100130000D03*
X111470000Y-97590000D03*
D23*
X111470000Y-95050000D03*
D22*
X111470000Y-92510000D03*
X111470000Y-89970000D03*
X111470000Y-87430000D03*
X111470000Y-84890000D03*
D23*
X111470000Y-82350000D03*
D22*
X111470000Y-79810000D03*
X111470000Y-77270000D03*
X111470000Y-74730000D03*
X111470000Y-72190000D03*
D23*
X111470000Y-69650000D03*
D22*
X111470000Y-67110000D03*
X111470000Y-64570000D03*
X111470000Y-62030000D03*
X111470000Y-59490000D03*
D23*
X111470000Y-56950000D03*
D22*
X111470000Y-54410000D03*
X111470000Y-51870000D03*
X100040000Y-99900000D03*
D23*
X102580000Y-99900000D03*
D22*
X105120000Y-99900000D03*
%TD*%
D15*
%TO.C,R8*%
X81100000Y-99000000D03*
X86180000Y-99000000D03*
%TD*%
D24*
%TO.C,D6*%
X122100000Y-86690000D03*
D14*
X122100000Y-94310000D03*
%TD*%
D12*
%TO.C, *%
X120360000Y-55080000D03*
%TD*%
D15*
%TO.C,R6*%
X86020000Y-95720000D03*
X80940000Y-95720000D03*
%TD*%
D10*
%TO.C,D2*%
X77180000Y-93180000D03*
D11*
X77180000Y-95720000D03*
%TD*%
D14*
%TO.C,C3*%
X83850000Y-86000000D03*
X81350000Y-86000000D03*
%TD*%
D15*
%TO.C,R7*%
X86090000Y-92500000D03*
X81010000Y-92500000D03*
%TD*%
D24*
%TO.C,D5*%
X122600000Y-72860000D03*
D14*
X122600000Y-80480000D03*
%TD*%
D12*
%TO.C,3.2mm M3*%
X120360000Y-116040000D03*
%TD*%
D25*
%TO.C,RV1*%
X83530000Y-52540000D03*
D26*
X86030000Y-55040000D03*
X88530000Y-52540000D03*
%TD*%
D10*
%TO.C,D3*%
X77475000Y-99530000D03*
D11*
X77475000Y-102070000D03*
%TD*%
D12*
%TO.C,3.2mm M3*%
X77180000Y-55080000D03*
%TD*%
D15*
%TO.C,R5*%
X87290000Y-108420000D03*
X82210000Y-108420000D03*
%TD*%
%TO.C,R2*%
X119090000Y-72910000D03*
X119090000Y-77990000D03*
%TD*%
D10*
%TO.C,D4*%
X77180000Y-105880000D03*
D11*
X77180000Y-108420000D03*
%TD*%
D15*
%TO.C,R4*%
X86020000Y-102070000D03*
X80940000Y-102070000D03*
%TD*%
D27*
%TO.C,Q1*%
X121100000Y-60230000D03*
D28*
X121100000Y-61500000D03*
X121100000Y-62770000D03*
%TD*%
D15*
%TO.C,R1*%
X86020000Y-89370000D03*
X80940000Y-89370000D03*
%TD*%
M02*
