M48
; DRILL file {KiCad 9.0.3} date 2025-11-19T11:08:36-0800
; FORMAT={-:-/ absolute / metric / decimal}
; #@! TF.CreationDate,2025-11-19T11:08:36-08:00
; #@! TF.GenerationSoftware,Kicad,Pcbnew,9.0.3
; #@! TF.FileFunction,Plated,1,2,PTH
FMAT,2
METRIC
; #@! TA.AperFunction,Plated,PTH,ViaDrill
T1C0.400
; #@! TA.AperFunction,Plated,PTH,ComponentDrill
T2C0.700
; #@! TA.AperFunction,Plated,PTH,ComponentDrill
T3C0.750
; #@! TA.AperFunction,Plated,PTH,ComponentDrill
T4C0.800
; #@! TA.AperFunction,Plated,PTH,ComponentDrill
T5C0.900
; #@! TA.AperFunction,Plated,PTH,ComponentDrill
T6C1.000
; #@! TA.AperFunction,Plated,PTH,ComponentDrill
T7C1.020
%
G90
G05
T1
X112.1Y-117.5
T2
X77.01Y-72.5
X80.94Y-89.37
X80.94Y-95.72
X80.94Y-102.07
X81.01Y-92.5
X81.1Y-99.0
X82.09Y-72.5
X82.21Y-108.42
X86.02Y-89.37
X86.02Y-95.72
X86.02Y-102.07
X86.09Y-92.5
X86.18Y-99.0
X87.29Y-108.42
X87.86Y-105.55
X92.94Y-105.55
X119.09Y-72.91
X119.09Y-77.99
X119.09Y-80.48
X119.09Y-85.56
T3
X121.1Y-60.23
X121.1Y-61.5
X121.1Y-62.77
T4
X81.35Y-86.0
X83.85Y-86.0
X86.1Y-61.5
X86.1Y-64.0
X86.6Y-77.5
X86.6Y-80.0
X97.5Y-110.96
X97.5Y-118.58
X100.04Y-110.96
X100.04Y-118.58
X102.58Y-110.96
X102.58Y-118.58
X105.12Y-110.96
X105.12Y-118.58
X122.1Y-86.69
X122.1Y-94.31
X122.6Y-72.86
X122.6Y-80.48
T5
X77.18Y-86.83
X77.18Y-89.37
X77.18Y-93.18
X77.18Y-95.72
X77.18Y-105.88
X77.18Y-108.42
X77.475Y-99.53
X77.475Y-102.07
T6
X83.53Y-52.54
X86.03Y-55.04
X88.53Y-52.54
T7
X93.69Y-51.87
X93.69Y-54.41
X93.69Y-56.95
X93.69Y-59.49
X93.69Y-62.03
X93.69Y-64.57
X93.69Y-67.11
X93.69Y-69.65
X93.69Y-72.19
X93.69Y-74.73
X93.69Y-77.27
X93.69Y-79.81
X93.69Y-82.35
X93.69Y-84.89
X93.69Y-87.43
X93.69Y-89.97
X93.69Y-92.51
X93.69Y-95.05
X93.69Y-97.59
X93.69Y-100.13
X100.04Y-99.9
X102.58Y-99.9
X105.12Y-99.9
X111.47Y-51.87
X111.47Y-54.41
X111.47Y-56.95
X111.47Y-59.49
X111.47Y-62.03
X111.47Y-64.57
X111.47Y-67.11
X111.47Y-69.65
X111.47Y-72.19
X111.47Y-74.73
X111.47Y-77.27
X111.47Y-79.81
X111.47Y-82.35
X111.47Y-84.89
X111.47Y-87.43
X111.47Y-89.97
X111.47Y-92.51
X111.47Y-95.05
X111.47Y-97.59
X111.47Y-100.13
T5
X76.72Y-65.64G85X76.72Y-64.84
G05
X81.32Y-60.24G85X82.12Y-60.24
G05
X81.32Y-62.74G85X82.12Y-62.74
G05
X81.32Y-67.74G85X82.12Y-67.74
G05
X81.32Y-70.24G85X82.12Y-70.24
G05
M30
