%TF.GenerationSoftware,KiCad,Pcbnew,9.0.3*%
%TF.CreationDate,2025-09-18T11:30:49-07:00*%
%TF.ProjectId,pcb,7063622e-6b69-4636-9164-5f7063625858,rev?*%
%TF.SameCoordinates,Original*%
%TF.FileFunction,Copper,L1,Top*%
%TF.FilePolarity,Positive*%
%FSLAX46Y46*%
G04 Gerber Fmt 4.6, Leading zero omitted, Abs format (unit mm)*
G04 Created by KiCad (PCBNEW 9.0.3) date 2025-09-18 11:30:49*
%MOMM*%
%LPD*%
G01*
G04 APERTURE LIST*
G04 Aperture macros list*
%AMRoundRect*
0 Rectangle with rounded corners*
0 $1 Rounding radius*
0 $2 $3 $4 $5 $6 $7 $8 $9 X,Y pos of 4 corners*
0 Add a 4 corners polygon primitive as box body*
4,1,4,$2,$3,$4,$5,$6,$7,$8,$9,$2,$3,0*
0 Add four circle primitives for the rounded corners*
1,1,$1+$1,$2,$3*
1,1,$1+$1,$4,$5*
1,1,$1+$1,$6,$7*
1,1,$1+$1,$8,$9*
0 Add four rect primitives between the rounded corners*
20,1,$1+$1,$2,$3,$4,$5,0*
20,1,$1+$1,$4,$5,$6,$7,0*
20,1,$1+$1,$6,$7,$8,$9,0*
20,1,$1+$1,$8,$9,$2,$3,0*%
G04 Aperture macros list end*
%TA.AperFunction,ComponentPad*%
%ADD10R,1.800000X1.800000*%
%TD*%
%TA.AperFunction,ComponentPad*%
%ADD11C,1.800000*%
%TD*%
%TA.AperFunction,ComponentPad*%
%ADD12RoundRect,0.250000X0.550000X-0.550000X0.550000X0.550000X-0.550000X0.550000X-0.550000X-0.550000X0*%
%TD*%
%TA.AperFunction,ComponentPad*%
%ADD13C,1.600000*%
%TD*%
%TA.AperFunction,ComponentPad*%
%ADD14C,1.400000*%
%TD*%
%TA.AperFunction,WasherPad*%
%ADD15C,1.200000*%
%TD*%
%TA.AperFunction,ComponentPad*%
%ADD16O,2.500000X1.800000*%
%TD*%
%TA.AperFunction,ComponentPad*%
%ADD17O,1.800000X2.500000*%
%TD*%
%TA.AperFunction,SMDPad,CuDef*%
%ADD18R,1.200000X2.500000*%
%TD*%
%TA.AperFunction,ComponentPad*%
%ADD19O,1.700000X1.700000*%
%TD*%
%TA.AperFunction,SMDPad,CuDef*%
%ADD20R,3.500000X1.700000*%
%TD*%
%TA.AperFunction,ComponentPad*%
%ADD21R,1.700000X1.700000*%
%TD*%
%TA.AperFunction,SMDPad,CuDef*%
%ADD22R,1.700000X3.500000*%
%TD*%
%TA.AperFunction,ComponentPad*%
%ADD23RoundRect,0.250000X-0.550000X0.550000X-0.550000X-0.550000X0.550000X-0.550000X0.550000X0.550000X0*%
%TD*%
%TA.AperFunction,ComponentPad*%
%ADD24R,1.550000X1.550000*%
%TD*%
%TA.AperFunction,ComponentPad*%
%ADD25C,1.550000*%
%TD*%
%TA.AperFunction,ComponentPad*%
%ADD26R,1.500000X1.050000*%
%TD*%
%TA.AperFunction,ComponentPad*%
%ADD27O,1.500000X1.050000*%
%TD*%
%TA.AperFunction,ViaPad*%
%ADD28C,0.800000*%
%TD*%
%TA.AperFunction,Conductor*%
%ADD29C,0.500000*%
%TD*%
G04 APERTURE END LIST*
D10*
%TO.P,D1,1*%
%TO.N,LED_GND*%
X77180000Y-86830000D03*
D11*
%TO.P,D1,2*%
%TO.N,Net-(D1-Pad2)*%
X77180000Y-89370000D03*
%TD*%
D12*
%TO.P,SW1,1*%
%TO.N,GND*%
X97500000Y-118580000D03*
D13*
%TO.P,SW1,2*%
X100040000Y-118580000D03*
%TO.P,SW1,3*%
X102580000Y-118580000D03*
%TO.P,SW1,4*%
X105120000Y-118580000D03*
%TO.P,SW1,5*%
%TO.N,LED_GND*%
X105120000Y-110960000D03*
%TO.P,SW1,6*%
%TO.N,OPT1*%
X102580000Y-110960000D03*
%TO.P,SW1,7*%
%TO.N,PSAVE*%
X100040000Y-110960000D03*
%TO.P,SW1,8*%
%TO.N,KISS*%
X97500000Y-110960000D03*
%TD*%
%TO.P,C2,1*%
%TO.N,Net-(C2-Pad1)*%
X86100000Y-61500000D03*
%TO.P,C2,2*%
%TO.N,MIC*%
X86100000Y-64000000D03*
%TD*%
D14*
%TO.P,R3,1*%
%TO.N,ADC0*%
X119090000Y-80480000D03*
%TO.P,R3,2*%
%TO.N,GND*%
X119090000Y-85560000D03*
%TD*%
D15*
%TO.P,J2,*%
%TO.N,*%
X74220000Y-60240000D03*
X74220000Y-70240000D03*
X76720000Y-60240000D03*
X76720000Y-70240000D03*
X81720000Y-65240000D03*
D16*
%TO.P,J2,R*%
%TO.N,TX0*%
X81720000Y-60240000D03*
%TO.P,J2,RN*%
%TO.N,N/C*%
X81720000Y-62740000D03*
D17*
%TO.P,J2,S*%
%TO.N,GND*%
X76720000Y-65240000D03*
D16*
%TO.P,J2,T*%
%TO.N,RX0*%
X81720000Y-70240000D03*
%TO.P,J2,TN*%
%TO.N,N/C*%
X81720000Y-67740000D03*
%TD*%
D18*
%TO.P,J1,R1*%
%TO.N,MIC*%
X78260000Y-75400000D03*
%TO.P,J1,R2*%
%TO.N,PTT_R*%
X75260000Y-75400000D03*
%TO.P,J1,S*%
%TO.N,GND*%
X83360000Y-81900000D03*
%TO.P,J1,T*%
%TO.N,SP*%
X82260000Y-75400000D03*
%TD*%
D14*
%TO.P,R9,1*%
%TO.N,MIC*%
X82090000Y-72500000D03*
%TO.P,R9,2*%
%TO.N,PTT_R*%
X77010000Y-72500000D03*
%TD*%
D13*
%TO.P,C1,1*%
%TO.N,PWM*%
X86600000Y-77500000D03*
%TO.P,C1,2*%
%TO.N,GND*%
X86600000Y-80000000D03*
%TD*%
D19*
%TO.P,U1,1,GPIO0*%
%TO.N,TX0*%
X93690000Y-51870000D03*
D20*
X92790000Y-51870000D03*
D19*
%TO.P,U1,2,GPIO1*%
%TO.N,RX0*%
X93690000Y-54410000D03*
D20*
X92790000Y-54410000D03*
D21*
%TO.P,U1,3,GND*%
%TO.N,GND*%
X93690000Y-56950000D03*
D20*
X92790000Y-56950000D03*
D19*
%TO.P,U1,4,GPIO2*%
%TO.N,unconnected-(U1-GPIO2-Pad4)*%
X93690000Y-59490000D03*
D20*
%TO.N,unconnected-(U1-GPIO2-Pad4)_1*%
X92790000Y-59490000D03*
D19*
%TO.P,U1,5,GPIO3*%
%TO.N,unconnected-(U1-GPIO3-Pad5)_1*%
X93690000Y-62030000D03*
D20*
%TO.N,unconnected-(U1-GPIO3-Pad5)*%
X92790000Y-62030000D03*
D19*
%TO.P,U1,6,GPIO4*%
%TO.N,TX1*%
X93690000Y-64570000D03*
D20*
X92790000Y-64570000D03*
D19*
%TO.P,U1,7,GPIO5*%
%TO.N,RX1*%
X93690000Y-67110000D03*
D20*
X92790000Y-67110000D03*
D21*
%TO.P,U1,8,GND*%
%TO.N,unconnected-(U1-GND-Pad8)_1*%
X93690000Y-69650000D03*
D20*
%TO.N,unconnected-(U1-GND-Pad8)*%
X92790000Y-69650000D03*
D19*
%TO.P,U1,9,GPIO6*%
%TO.N,unconnected-(U1-GPIO6-Pad9)_1*%
X93690000Y-72190000D03*
D20*
%TO.N,unconnected-(U1-GPIO6-Pad9)*%
X92790000Y-72190000D03*
D19*
%TO.P,U1,10,GPIO7*%
%TO.N,unconnected-(U1-GPIO7-Pad10)*%
X93690000Y-74730000D03*
D20*
%TO.N,unconnected-(U1-GPIO7-Pad10)_1*%
X92790000Y-74730000D03*
D19*
%TO.P,U1,11,GPIO8*%
%TO.N,unconnected-(U1-GPIO8-Pad11)*%
X93690000Y-77270000D03*
D20*
%TO.N,unconnected-(U1-GPIO8-Pad11)_1*%
X92790000Y-77270000D03*
D19*
%TO.P,U1,12,GPIO9*%
%TO.N,unconnected-(U1-GPIO9-Pad12)*%
X93690000Y-79810000D03*
D20*
%TO.N,unconnected-(U1-GPIO9-Pad12)_1*%
X92790000Y-79810000D03*
D21*
%TO.P,U1,13,GND*%
%TO.N,GND*%
X93690000Y-82350000D03*
D20*
X92790000Y-82350000D03*
D19*
%TO.P,U1,14,GPIO10*%
%TO.N,PWM*%
X93690000Y-84890000D03*
D20*
X92790000Y-84890000D03*
D19*
%TO.P,U1,15,GPIO11*%
%TO.N,PTT*%
X93690000Y-87430000D03*
D20*
X92790000Y-87430000D03*
D19*
%TO.P,U1,16,GPIO12*%
%TO.N,CDT*%
X93690000Y-89970000D03*
D20*
X92790000Y-89970000D03*
D19*
%TO.P,U1,17,GPIO13*%
%TO.N,unconnected-(U1-GPIO13-Pad17)*%
X93690000Y-92510000D03*
D20*
%TO.N,unconnected-(U1-GPIO13-Pad17)_1*%
X92790000Y-92510000D03*
D21*
%TO.P,U1,18,GND*%
%TO.N,unconnected-(U1-GND-Pad18)_1*%
X93690000Y-95050000D03*
D20*
%TO.N,unconnected-(U1-GND-Pad18)*%
X92790000Y-95050000D03*
D19*
%TO.P,U1,19,GPIO14*%
%TO.N,CON*%
X93690000Y-97590000D03*
D20*
X92790000Y-97590000D03*
D19*
%TO.P,U1,20,GPIO15*%
%TO.N,STA*%
X93690000Y-100130000D03*
D20*
X92790000Y-100130000D03*
D19*
%TO.P,U1,21,GPIO16*%
%TO.N,KISS*%
X111470000Y-100130000D03*
D20*
X112370000Y-100130000D03*
D19*
%TO.P,U1,22,GPIO17*%
%TO.N,PSAVE*%
X111470000Y-97590000D03*
D20*
X112370000Y-97590000D03*
D21*
%TO.P,U1,23,GND*%
%TO.N,GND*%
X111470000Y-95050000D03*
D20*
X112370000Y-95050000D03*
D19*
%TO.P,U1,24,GPIO18*%
%TO.N,OPT1*%
X111470000Y-92510000D03*
D20*
X112370000Y-92510000D03*
D19*
%TO.P,U1,25,GPIO19*%
%TO.N,unconnected-(U1-GPIO19-Pad25)*%
X111470000Y-89970000D03*
D20*
%TO.N,unconnected-(U1-GPIO19-Pad25)_1*%
X112370000Y-89970000D03*
D19*
%TO.P,U1,26,GPIO20*%
%TO.N,unconnected-(U1-GPIO20-Pad26)*%
X111470000Y-87430000D03*
D20*
X112370000Y-87430000D03*
D19*
%TO.P,U1,27,GPIO21*%
%TO.N,unconnected-(U1-GPIO21-Pad27)*%
X111470000Y-84890000D03*
D20*
%TO.N,unconnected-(U1-GPIO21-Pad27)_1*%
X112370000Y-84890000D03*
D21*
%TO.P,U1,28,GND*%
%TO.N,GND*%
X111470000Y-82350000D03*
D20*
X112370000Y-82350000D03*
D19*
%TO.P,U1,29,GPIO22*%
%TO.N,unconnected-(U1-GPIO22-Pad29)*%
X111470000Y-79810000D03*
D20*
%TO.N,unconnected-(U1-GPIO22-Pad29)_1*%
X112370000Y-79810000D03*
D19*
%TO.P,U1,30,RUN*%
%TO.N,unconnected-(U1-RUN-Pad30)_1*%
X111470000Y-77270000D03*
D20*
%TO.N,unconnected-(U1-RUN-Pad30)*%
X112370000Y-77270000D03*
D19*
%TO.P,U1,31,GPIO26_ADC0*%
%TO.N,ADC0*%
X111470000Y-74730000D03*
D20*
X112370000Y-74730000D03*
D19*
%TO.P,U1,32,GPIO27_ADC1*%
%TO.N,unconnected-(U1-GPIO27_ADC1-Pad32)*%
X111470000Y-72190000D03*
D20*
%TO.N,unconnected-(U1-GPIO27_ADC1-Pad32)_1*%
X112370000Y-72190000D03*
D21*
%TO.P,U1,33,AGND*%
%TO.N,unconnected-(U1-AGND-Pad33)_1*%
X111470000Y-69650000D03*
D20*
%TO.N,unconnected-(U1-AGND-Pad33)*%
X112370000Y-69650000D03*
D19*
%TO.P,U1,34,GPIO28_ADC2*%
%TO.N,unconnected-(U1-GPIO28_ADC2-Pad34)_1*%
X111470000Y-67110000D03*
D20*
%TO.N,unconnected-(U1-GPIO28_ADC2-Pad34)*%
X112370000Y-67110000D03*
D19*
%TO.P,U1,35,ADC_VREF*%
%TO.N,unconnected-(U1-ADC_VREF-Pad35)_1*%
X111470000Y-64570000D03*
D20*
%TO.N,unconnected-(U1-ADC_VREF-Pad35)*%
X112370000Y-64570000D03*
D19*
%TO.P,U1,36,3V3*%
%TO.N,+3V3*%
X111470000Y-62030000D03*
D20*
X112370000Y-62030000D03*
D19*
%TO.P,U1,37,3V3_EN*%
%TO.N,unconnected-(U1-3V3_EN-Pad37)*%
X111470000Y-59490000D03*
D20*
%TO.N,unconnected-(U1-3V3_EN-Pad37)_1*%
X112370000Y-59490000D03*
D21*
%TO.P,U1,38,GND*%
%TO.N,GND*%
X111470000Y-56950000D03*
D20*
X112370000Y-56950000D03*
D19*
%TO.P,U1,39,VSYS*%
%TO.N,unconnected-(U1-VSYS-Pad39)*%
X111470000Y-54410000D03*
D20*
%TO.N,unconnected-(U1-VSYS-Pad39)_1*%
X112370000Y-54410000D03*
D19*
%TO.P,U1,40,VBUS*%
%TO.N,+5V*%
X111470000Y-51870000D03*
D20*
X112370000Y-51870000D03*
D19*
%TO.P,U1,41,SWCLK*%
%TO.N,unconnected-(U1-SWCLK-Pad41)_1*%
X100040000Y-99900000D03*
D22*
%TO.N,unconnected-(U1-SWCLK-Pad41)*%
X100040000Y-100800000D03*
D21*
%TO.P,U1,42,GND*%
%TO.N,GND*%
X102580000Y-99900000D03*
D22*
X102580000Y-100800000D03*
D19*
%TO.P,U1,43,SWDIO*%
%TO.N,unconnected-(U1-SWDIO-Pad43)_1*%
X105120000Y-99900000D03*
D22*
%TO.N,unconnected-(U1-SWDIO-Pad43)*%
X105120000Y-100800000D03*
%TD*%
D14*
%TO.P,R8,1*%
%TO.N,Net-(Q1-B)*%
X81100000Y-99000000D03*
%TO.P,R8,2*%
%TO.N,GND*%
X86180000Y-99000000D03*
%TD*%
D23*
%TO.P,D6,1,K*%
%TO.N,ADC0*%
X122100000Y-86690000D03*
D13*
%TO.P,D6,2,A*%
%TO.N,GND*%
X122100000Y-94310000D03*
%TD*%
D14*
%TO.P,R6,1*%
%TO.N,CDT*%
X86020000Y-95720000D03*
%TO.P,R6,2*%
%TO.N,Net-(D2-Pad2)*%
X80940000Y-95720000D03*
%TD*%
D10*
%TO.P,D2,1*%
%TO.N,LED_GND*%
X77180000Y-93180000D03*
D11*
%TO.P,D2,2*%
%TO.N,Net-(D2-Pad2)*%
X77180000Y-95720000D03*
%TD*%
D13*
%TO.P,C3,1*%
%TO.N,ADC0*%
X83850000Y-86000000D03*
%TO.P,C3,2*%
%TO.N,SP*%
X81350000Y-86000000D03*
%TD*%
D14*
%TO.P,R7,1*%
%TO.N,PTT*%
X86090000Y-92500000D03*
%TO.P,R7,2*%
%TO.N,Net-(Q1-B)*%
X81010000Y-92500000D03*
%TD*%
D23*
%TO.P,D5,1,K*%
%TO.N,+3V3*%
X122600000Y-72860000D03*
D13*
%TO.P,D5,2,A*%
%TO.N,ADC0*%
X122600000Y-80480000D03*
%TD*%
D24*
%TO.P,RV1,1,1*%
%TO.N,PWM*%
X83530000Y-52540000D03*
D25*
%TO.P,RV1,2,2*%
%TO.N,Net-(C2-Pad1)*%
X86030000Y-55040000D03*
%TO.P,RV1,3,3*%
%TO.N,GND*%
X88530000Y-52540000D03*
%TD*%
D10*
%TO.P,D3,1*%
%TO.N,LED_GND*%
X77475000Y-99530000D03*
D11*
%TO.P,D3,2*%
%TO.N,Net-(D3-Pad2)*%
X77475000Y-102070000D03*
%TD*%
D14*
%TO.P,R5,1*%
%TO.N,STA*%
X87290000Y-108420000D03*
%TO.P,R5,2*%
%TO.N,Net-(D4-Pad2)*%
X82210000Y-108420000D03*
%TD*%
%TO.P,R2,1*%
%TO.N,+3V3*%
X119090000Y-72910000D03*
%TO.P,R2,2*%
%TO.N,ADC0*%
X119090000Y-77990000D03*
%TD*%
D10*
%TO.P,D4,1*%
%TO.N,LED_GND*%
X77180000Y-105880000D03*
D11*
%TO.P,D4,2*%
%TO.N,Net-(D4-Pad2)*%
X77180000Y-108420000D03*
%TD*%
D14*
%TO.P,R4,1*%
%TO.N,CON*%
X86020000Y-102070000D03*
%TO.P,R4,2*%
%TO.N,Net-(D3-Pad2)*%
X80940000Y-102070000D03*
%TD*%
D26*
%TO.P,Q1,1,E*%
%TO.N,GND*%
X121100000Y-60230000D03*
D27*
%TO.P,Q1,2,B*%
%TO.N,Net-(Q1-B)*%
X121100000Y-61500000D03*
%TO.P,Q1,3,C*%
%TO.N,PTT_R*%
X121100000Y-62770000D03*
%TD*%
D14*
%TO.P,R1,1*%
%TO.N,PTT*%
X86020000Y-89370000D03*
%TO.P,R1,2*%
%TO.N,Net-(D1-Pad2)*%
X80940000Y-89370000D03*
%TD*%
D28*
%TO.N,PTT_R*%
X112100000Y-117500000D03*
%TD*%
D29*
%TO.N,PTT_R*%
X111100000Y-116500000D02*
X112100000Y-117500000D01*
X82100000Y-114500000D02*
X82100000Y-116500000D01*
X78600000Y-111000000D02*
X82100000Y-114500000D01*
X75650000Y-111000000D02*
X78600000Y-111000000D01*
X74350000Y-84000000D02*
X74500000Y-84150000D01*
X74500000Y-109850000D02*
X75650000Y-111000000D01*
X76600000Y-81750000D02*
X74350000Y-84000000D01*
X82100000Y-116500000D02*
X111100000Y-116500000D01*
X76600000Y-76740000D02*
X76600000Y-81750000D01*
X75260000Y-75400000D02*
X76600000Y-76740000D01*
X74500000Y-84150000D02*
X74500000Y-109850000D01*
%TO.N,Net-(Q1-B)*%
X82600000Y-94090000D02*
X81010000Y-92500000D01*
X82600000Y-97500000D02*
X82600000Y-94090000D01*
X81100000Y-99000000D02*
X82600000Y-97500000D01*
%TO.N,PWM*%
X86600000Y-77500000D02*
X86600000Y-75500000D01*
X86600000Y-75500000D02*
X88100000Y-74000000D01*
X89600000Y-80500000D02*
X86600000Y-77500000D01*
X86140000Y-52540000D02*
X83530000Y-52540000D01*
X88100000Y-74000000D02*
X88100000Y-54500000D01*
X89600000Y-84000000D02*
X89600000Y-80500000D01*
X93690000Y-84890000D02*
X90490000Y-84890000D01*
X88100000Y-54500000D02*
X86140000Y-52540000D01*
X90490000Y-84890000D02*
X89600000Y-84000000D01*
%TO.N,GND*%
X84700000Y-81900000D02*
X86600000Y-80000000D01*
X83360000Y-81900000D02*
X84700000Y-81900000D01*
%TO.N,Net-(C2-Pad1)*%
X86100000Y-61500000D02*
X86100000Y-61000000D01*
X86100000Y-61000000D02*
X86030000Y-60930000D01*
X86030000Y-60930000D02*
X86030000Y-55040000D01*
%TO.N,MIC*%
X86100000Y-70850000D02*
X84450000Y-72500000D01*
X84450000Y-72500000D02*
X82090000Y-72500000D01*
X86100000Y-64000000D02*
X86100000Y-70850000D01*
X80100000Y-72500000D02*
X82090000Y-72500000D01*
X78260000Y-75400000D02*
X79200000Y-75400000D01*
X79200000Y-75400000D02*
X80100000Y-74500000D01*
X80100000Y-74500000D02*
X80100000Y-72500000D01*
%TO.N,ADC0*%
X115100000Y-110500000D02*
X120100000Y-110500000D01*
X122600000Y-100000000D02*
X119100000Y-96500000D01*
X121410000Y-86690000D02*
X122600000Y-86690000D01*
X122900000Y-80480000D02*
X119090000Y-80480000D01*
X121410000Y-86690000D02*
X119100000Y-89000000D01*
X86100000Y-113000000D02*
X112600000Y-113000000D01*
X111470000Y-74730000D02*
X115830000Y-74730000D01*
X85100000Y-112000000D02*
X86100000Y-113000000D01*
X83850000Y-86000000D02*
X83850000Y-105750000D01*
X119100000Y-96500000D02*
X119100000Y-89000000D01*
X122600000Y-80780000D02*
X122900000Y-80480000D01*
X115830000Y-74730000D02*
X119090000Y-77990000D01*
X112600000Y-113000000D02*
X115100000Y-110500000D01*
X122100000Y-86690000D02*
X121410000Y-86690000D01*
X120100000Y-110500000D02*
X122600000Y-108000000D01*
X119090000Y-80480000D02*
X119090000Y-77990000D01*
X122600000Y-108000000D02*
X122600000Y-100000000D01*
X122600000Y-86690000D02*
X122600000Y-80780000D01*
X83850000Y-105750000D02*
X85100000Y-107000000D01*
X85100000Y-107000000D02*
X85100000Y-112000000D01*
%TO.N,SP*%
X81350000Y-80500000D02*
X82260000Y-79590000D01*
X82260000Y-79590000D02*
X82260000Y-75400000D01*
X81350000Y-86000000D02*
X81350000Y-80500000D01*
%TO.N,Net-(D1-Pad2)*%
X80940000Y-89370000D02*
X77180000Y-89370000D01*
%TO.N,Net-(D2-Pad2)*%
X80940000Y-95720000D02*
X77180000Y-95720000D01*
%TO.N,Net-(D3-Pad2)*%
X80940000Y-102070000D02*
X77475000Y-102070000D01*
%TO.N,Net-(D4-Pad2)*%
X82210000Y-108420000D02*
X77180000Y-108420000D01*
%TO.N,+3V3*%
X111470000Y-62030000D02*
X114630000Y-62030000D01*
X119090000Y-66510000D02*
X119090000Y-72910000D01*
X114630000Y-62030000D02*
X119100000Y-66500000D01*
X119140000Y-72860000D02*
X119090000Y-72910000D01*
X119100000Y-66500000D02*
X119090000Y-66510000D01*
X122900000Y-72860000D02*
X119140000Y-72860000D01*
%TO.N,PTT_R*%
X75260000Y-74250000D02*
X77010000Y-72500000D01*
X75260000Y-75400000D02*
X75260000Y-74250000D01*
%TO.N,Net-(Q1-B)*%
X116600000Y-111500000D02*
X120600000Y-111500000D01*
X124100000Y-63000000D02*
X122600000Y-61500000D01*
X82600000Y-106500000D02*
X84100000Y-108000000D01*
X123600000Y-108500000D02*
X123600000Y-97000000D01*
X122600000Y-61500000D02*
X121100000Y-61500000D01*
X120600000Y-111500000D02*
X123600000Y-108500000D01*
X84100000Y-113000000D02*
X86100000Y-115000000D01*
X86100000Y-115000000D02*
X113100000Y-115000000D01*
X113100000Y-115000000D02*
X116600000Y-111500000D01*
X82600000Y-100500000D02*
X82600000Y-106500000D01*
X81100000Y-99000000D02*
X82600000Y-100500000D01*
X124100000Y-96500000D02*
X124100000Y-63000000D01*
X123600000Y-97000000D02*
X124100000Y-96500000D01*
X84100000Y-108000000D02*
X84100000Y-113000000D01*
%TO.N,PTT*%
X86090000Y-89440000D02*
X86020000Y-89370000D01*
X86020000Y-89370000D02*
X87960000Y-87430000D01*
X87960000Y-87430000D02*
X93690000Y-87430000D01*
X86090000Y-92500000D02*
X86090000Y-89440000D01*
%TO.N,CON*%
X89010000Y-97590000D02*
X88600000Y-98000000D01*
X88600000Y-100500000D02*
X87030000Y-102070000D01*
X87030000Y-102070000D02*
X86020000Y-102070000D01*
X93690000Y-97590000D02*
X89010000Y-97590000D01*
X88600000Y-98000000D02*
X88600000Y-100500000D01*
%TO.N,STA*%
X93690000Y-100130000D02*
X93690000Y-102020000D01*
X93690000Y-102020000D02*
X87290000Y-108420000D01*
%TO.N,CDT*%
X89130000Y-89970000D02*
X93690000Y-89970000D01*
X86020000Y-95720000D02*
X87380000Y-95720000D01*
X88600000Y-94500000D02*
X88600000Y-90500000D01*
X88600000Y-90500000D02*
X89130000Y-89970000D01*
X87380000Y-95720000D02*
X88600000Y-94500000D01*
%TO.N,PSAVE*%
X114600000Y-105000000D02*
X100600000Y-105000000D01*
X115600000Y-104000000D02*
X114600000Y-105000000D01*
X100040000Y-105560000D02*
X100040000Y-110960000D01*
X111470000Y-97590000D02*
X115190000Y-97590000D01*
X115190000Y-97590000D02*
X115600000Y-98000000D01*
X100600000Y-105000000D02*
X100040000Y-105560000D01*
X115600000Y-98000000D02*
X115600000Y-104000000D01*
%TO.N,KISS*%
X109600000Y-102000000D02*
X111470000Y-100130000D01*
X97500000Y-106100000D02*
X99600000Y-104000000D01*
X99600000Y-104000000D02*
X109600000Y-104000000D01*
X97500000Y-110960000D02*
X97500000Y-106100000D01*
X109600000Y-104000000D02*
X109600000Y-102000000D01*
%TO.N,OPT1*%
X102580000Y-107020000D02*
X102580000Y-110960000D01*
X116100000Y-106000000D02*
X103600000Y-106000000D01*
X115110000Y-92510000D02*
X116600000Y-94000000D01*
X116600000Y-94000000D02*
X116600000Y-105500000D01*
X103600000Y-106000000D02*
X102580000Y-107020000D01*
X116600000Y-105500000D02*
X116100000Y-106000000D01*
X111470000Y-92510000D02*
X115110000Y-92510000D01*
%TD*%
%TA.AperFunction,Conductor*%
%TO.N,GND*%
G36*
X99343612Y-117270185D02*
G01*
X99389367Y-117322989D01*
X99399311Y-117392147D01*
X99370286Y-117455703D01*
X99349457Y-117474819D01*
X99314077Y-117500523D01*
X99314077Y-117500524D01*
X99993554Y-118180000D01*
X99987339Y-118180000D01*
X99885606Y-118207259D01*
X99794394Y-118259920D01*
X99719920Y-118334394D01*
X99667259Y-118425606D01*
X99640000Y-118527339D01*
X99640000Y-118533553D01*
X98960524Y-117854077D01*
X98943660Y-117855404D01*
X98924475Y-117870198D01*
X98854861Y-117876174D01*
X98793067Y-117843566D01*
X98761785Y-117793649D01*
X98734358Y-117710880D01*
X98734356Y-117710875D01*
X98642315Y-117561654D01*
X98542842Y-117462181D01*
X98509357Y-117400858D01*
X98514341Y-117331166D01*
X98556213Y-117275233D01*
X98621677Y-117250816D01*
X98630523Y-117250500D01*
X99276573Y-117250500D01*
X99343612Y-117270185D01*
G37*
%TD.AperFunction*%
%TA.AperFunction,Conductor*%
G36*
X101883612Y-117270185D02*
G01*
X101929367Y-117322989D01*
X101939311Y-117392147D01*
X101910286Y-117455703D01*
X101889457Y-117474819D01*
X101854077Y-117500523D01*
X101854077Y-117500524D01*
X102533554Y-118180000D01*
X102527339Y-118180000D01*
X102425606Y-118207259D01*
X102334394Y-118259920D01*
X102259920Y-118334394D01*
X102207259Y-118425606D01*
X102180000Y-118527339D01*
X102180000Y-118533553D01*
X101500524Y-117854077D01*
X101500523Y-117854077D01*
X101468143Y-117898644D01*
X101420485Y-117992180D01*
X101372510Y-118042976D01*
X101304689Y-118059771D01*
X101238554Y-118037233D01*
X101199515Y-117992180D01*
X101151859Y-117898650D01*
X101119474Y-117854077D01*
X101119474Y-117854076D01*
X100440000Y-118533551D01*
X100440000Y-118527339D01*
X100412741Y-118425606D01*
X100360080Y-118334394D01*
X100285606Y-118259920D01*
X100194394Y-118207259D01*
X100092661Y-118180000D01*
X100086446Y-118180000D01*
X100765922Y-117500524D01*
X100765921Y-117500522D01*
X100730542Y-117474818D01*
X100687876Y-117419488D01*
X100681897Y-117349875D01*
X100714503Y-117288080D01*
X100775341Y-117253723D01*
X100803427Y-117250500D01*
X101816573Y-117250500D01*
X101883612Y-117270185D01*
G37*
%TD.AperFunction*%
%TA.AperFunction,Conductor*%
G36*
X104423612Y-117270185D02*
G01*
X104469367Y-117322989D01*
X104479311Y-117392147D01*
X104450286Y-117455703D01*
X104429457Y-117474819D01*
X104394077Y-117500523D01*
X104394077Y-117500524D01*
X105073554Y-118180000D01*
X105067339Y-118180000D01*
X104965606Y-118207259D01*
X104874394Y-118259920D01*
X104799920Y-118334394D01*
X104747259Y-118425606D01*
X104720000Y-118527339D01*
X104720000Y-118533553D01*
X104040524Y-117854077D01*
X104040523Y-117854077D01*
X104008143Y-117898644D01*
X103960485Y-117992180D01*
X103912510Y-118042976D01*
X103844689Y-118059771D01*
X103778554Y-118037233D01*
X103739515Y-117992180D01*
X103691859Y-117898650D01*
X103659474Y-117854077D01*
X103659474Y-117854076D01*
X102980000Y-118533551D01*
X102980000Y-118527339D01*
X102952741Y-118425606D01*
X102900080Y-118334394D01*
X102825606Y-118259920D01*
X102734394Y-118207259D01*
X102632661Y-118180000D01*
X102626446Y-118180000D01*
X103305922Y-117500524D01*
X103305921Y-117500522D01*
X103270542Y-117474818D01*
X103227876Y-117419488D01*
X103221897Y-117349875D01*
X103254503Y-117288080D01*
X103315341Y-117253723D01*
X103343427Y-117250500D01*
X104356573Y-117250500D01*
X104423612Y-117270185D01*
G37*
%TD.AperFunction*%
%TA.AperFunction,Conductor*%
G36*
X115534809Y-75500185D02*
G01*
X115555451Y-75516819D01*
X117853181Y-77814548D01*
X117886666Y-77875871D01*
X117889500Y-77902229D01*
X117889500Y-78084486D01*
X117919059Y-78271118D01*
X117977454Y-78450836D01*
X118053165Y-78599426D01*
X118063240Y-78619199D01*
X118174310Y-78772073D01*
X118174312Y-78772075D01*
X118303181Y-78900944D01*
X118336666Y-78962267D01*
X118339500Y-78988625D01*
X118339500Y-79481374D01*
X118319815Y-79548413D01*
X118303182Y-79569055D01*
X118174309Y-79697928D01*
X118063240Y-79850800D01*
X117977454Y-80019163D01*
X117919059Y-80198881D01*
X117889500Y-80385513D01*
X117889500Y-80574486D01*
X117919059Y-80761118D01*
X117977454Y-80940836D01*
X118047391Y-81078093D01*
X118063240Y-81109199D01*
X118174310Y-81262073D01*
X118307927Y-81395690D01*
X118460801Y-81506760D01*
X118530425Y-81542235D01*
X118629163Y-81592545D01*
X118629165Y-81592545D01*
X118629168Y-81592547D01*
X118725497Y-81623846D01*
X118808881Y-81650940D01*
X118995514Y-81680500D01*
X118995519Y-81680500D01*
X119184486Y-81680500D01*
X119371118Y-81650940D01*
X119374011Y-81650000D01*
X119550832Y-81592547D01*
X119719199Y-81506760D01*
X119872073Y-81395690D01*
X120000944Y-81266819D01*
X120062267Y-81233334D01*
X120088625Y-81230500D01*
X121474582Y-81230500D01*
X121541621Y-81250185D01*
X121574900Y-81281615D01*
X121608028Y-81327212D01*
X121608032Y-81327217D01*
X121608034Y-81327219D01*
X121752781Y-81471966D01*
X121798384Y-81505098D01*
X121841050Y-81560425D01*
X121849500Y-81605416D01*
X121849500Y-85265500D01*
X121829815Y-85332539D01*
X121777011Y-85378294D01*
X121725501Y-85389500D01*
X121499999Y-85389500D01*
X121499980Y-85389501D01*
X121397203Y-85400000D01*
X121397200Y-85400001D01*
X121230668Y-85455185D01*
X121230663Y-85455187D01*
X121081342Y-85547289D01*
X120957289Y-85671342D01*
X120865187Y-85820663D01*
X120865185Y-85820668D01*
X120844823Y-85882116D01*
X120810001Y-85987203D01*
X120810001Y-85987204D01*
X120810000Y-85987204D01*
X120799500Y-86089983D01*
X120799500Y-86187770D01*
X120779815Y-86254809D01*
X120763181Y-86275451D01*
X118517048Y-88521583D01*
X118495774Y-88553422D01*
X118474642Y-88585051D01*
X118466150Y-88597760D01*
X118434916Y-88644504D01*
X118434912Y-88644511D01*
X118378343Y-88781082D01*
X118378340Y-88781092D01*
X118349500Y-88926079D01*
X118349500Y-88926082D01*
X118349500Y-96573918D01*
X118349500Y-96573920D01*
X118349499Y-96573920D01*
X118378340Y-96718907D01*
X118378343Y-96718917D01*
X118434912Y-96855488D01*
X118434916Y-96855495D01*
X118452747Y-96882181D01*
X118452748Y-96882184D01*
X118517046Y-96978414D01*
X118517052Y-96978421D01*
X121813181Y-100274548D01*
X121846666Y-100335871D01*
X121849500Y-100362229D01*
X121849500Y-107637770D01*
X121829815Y-107704809D01*
X121813181Y-107725451D01*
X119825451Y-109713181D01*
X119764128Y-109746666D01*
X119737770Y-109749500D01*
X115026080Y-109749500D01*
X114881092Y-109778340D01*
X114881086Y-109778342D01*
X114744508Y-109834914D01*
X114744496Y-109834921D01*
X114695269Y-109867813D01*
X114621588Y-109917044D01*
X114621580Y-109917050D01*
X112325451Y-112213181D01*
X112264128Y-112246666D01*
X112237770Y-112249500D01*
X105939331Y-112249500D01*
X105872292Y-112229815D01*
X105826537Y-112177011D01*
X105816593Y-112107853D01*
X105845618Y-112044297D01*
X105866446Y-112025181D01*
X105967219Y-111951966D01*
X106111966Y-111807219D01*
X106111968Y-111807215D01*
X106111971Y-111807213D01*
X106174128Y-111721659D01*
X106232287Y-111641610D01*
X106325220Y-111459219D01*
X106388477Y-111264534D01*
X106420500Y-111062352D01*
X106420500Y-110857648D01*
X106388477Y-110655466D01*
X106325220Y-110460781D01*
X106325218Y-110460778D01*
X106325218Y-110460776D01*
X106261088Y-110334916D01*
X106232287Y-110278390D01*
X106211298Y-110249501D01*
X106111971Y-110112786D01*
X105967213Y-109968028D01*
X105801613Y-109847715D01*
X105801612Y-109847714D01*
X105801610Y-109847713D01*
X105744653Y-109818691D01*
X105619223Y-109754781D01*
X105424534Y-109691522D01*
X105249995Y-109663878D01*
X105222352Y-109659500D01*
X105017648Y-109659500D01*
X104993329Y-109663351D01*
X104815465Y-109691522D01*
X104620776Y-109754781D01*
X104438386Y-109847715D01*
X104272786Y-109968028D01*
X104128028Y-110112786D01*
X104007715Y-110278386D01*
X103960485Y-110371080D01*
X103912510Y-110421876D01*
X103844689Y-110438671D01*
X103778554Y-110416134D01*
X103739515Y-110371080D01*
X103717779Y-110328421D01*
X103692287Y-110278390D01*
X103671298Y-110249501D01*
X103571971Y-110112786D01*
X103427217Y-109968032D01*
X103427212Y-109968028D01*
X103381615Y-109934900D01*
X103338949Y-109879571D01*
X103330500Y-109834582D01*
X103330500Y-107382230D01*
X103350185Y-107315191D01*
X103366819Y-107294549D01*
X103874549Y-106786819D01*
X103935872Y-106753334D01*
X103962230Y-106750500D01*
X116173920Y-106750500D01*
X116271462Y-106731096D01*
X116318913Y-106721658D01*
X116455495Y-106665084D01*
X116504729Y-106632186D01*
X116578416Y-106582952D01*
X117182952Y-105978416D01*
X117247984Y-105881087D01*
X117265084Y-105855495D01*
X117321658Y-105718913D01*
X117341018Y-105621586D01*
X117350500Y-105573920D01*
X117350500Y-93926079D01*
X117321659Y-93781092D01*
X117321658Y-93781091D01*
X117321658Y-93781087D01*
X117290600Y-93706105D01*
X117265087Y-93644511D01*
X117265080Y-93644498D01*
X117182952Y-93521585D01*
X117182951Y-93521584D01*
X117078416Y-93417049D01*
X116766611Y-93105244D01*
X115588421Y-91927052D01*
X115588414Y-91927046D01*
X115496816Y-91865843D01*
X115496815Y-91865843D01*
X115465500Y-91844919D01*
X115465488Y-91844912D01*
X115328917Y-91788343D01*
X115328907Y-91788340D01*
X115183920Y-91759500D01*
X115183918Y-91759500D01*
X114744499Y-91759500D01*
X114677460Y-91739815D01*
X114631705Y-91687011D01*
X114620499Y-91635500D01*
X114620499Y-91612129D01*
X114620498Y-91612123D01*
X114620497Y-91612116D01*
X114614091Y-91552517D01*
X114563796Y-91417669D01*
X114486421Y-91314309D01*
X114462004Y-91248848D01*
X114476855Y-91180575D01*
X114486416Y-91165696D01*
X114563796Y-91062331D01*
X114614091Y-90927483D01*
X114620500Y-90867873D01*
X114620499Y-89072128D01*
X114614091Y-89012517D01*
X114575544Y-88909168D01*
X114563797Y-88877671D01*
X114563795Y-88877668D01*
X114486421Y-88774309D01*
X114462004Y-88708848D01*
X114476855Y-88640575D01*
X114486416Y-88625696D01*
X114563796Y-88522331D01*
X114614091Y-88387483D01*
X114620500Y-88327873D01*
X114620499Y-86567882D01*
X118435669Y-86567882D01*
X118435670Y-86567883D01*
X118461059Y-86586329D01*
X118629362Y-86672085D01*
X118808997Y-86730451D01*
X118995553Y-86760000D01*
X119184447Y-86760000D01*
X119371002Y-86730451D01*
X119550637Y-86672085D01*
X119718937Y-86586331D01*
X119744328Y-86567883D01*
X119744328Y-86567882D01*
X119090001Y-85913554D01*
X119090000Y-85913554D01*
X118435669Y-86567882D01*
X114620499Y-86567882D01*
X114620499Y-86532128D01*
X114614091Y-86472517D01*
X114563796Y-86337669D01*
X114486421Y-86234309D01*
X114462004Y-86168848D01*
X114476855Y-86100575D01*
X114486416Y-86085696D01*
X114563796Y-85982331D01*
X114614091Y-85847483D01*
X114620500Y-85787873D01*
X114620500Y-85465552D01*
X117890000Y-85465552D01*
X117890000Y-85654447D01*
X117919548Y-85841002D01*
X117977914Y-86020637D01*
X118063666Y-86188933D01*
X118082116Y-86214328D01*
X118736446Y-85560000D01*
X118736446Y-85559999D01*
X118690369Y-85513922D01*
X118740000Y-85513922D01*
X118740000Y-85606078D01*
X118763852Y-85695095D01*
X118809930Y-85774905D01*
X118875095Y-85840070D01*
X118954905Y-85886148D01*
X119043922Y-85910000D01*
X119136078Y-85910000D01*
X119225095Y-85886148D01*
X119304905Y-85840070D01*
X119370070Y-85774905D01*
X119416148Y-85695095D01*
X119440000Y-85606078D01*
X119440000Y-85559999D01*
X119443554Y-85559999D01*
X119443554Y-85560000D01*
X120097882Y-86214328D01*
X120097883Y-86214328D01*
X120116331Y-86188937D01*
X120202085Y-86020637D01*
X120260451Y-85841002D01*
X120290000Y-85654447D01*
X120290000Y-85465552D01*
X120260451Y-85278997D01*
X120202085Y-85099362D01*
X120116329Y-84931059D01*
X120097883Y-84905670D01*
X120097882Y-84905669D01*
X119443554Y-85559999D01*
X119440000Y-85559999D01*
X119440000Y-85513922D01*
X119416148Y-85424905D01*
X119370070Y-85345095D01*
X119304905Y-85279930D01*
X119225095Y-85233852D01*
X119136078Y-85210000D01*
X119043922Y-85210000D01*
X118954905Y-85233852D01*
X118875095Y-85279930D01*
X118809930Y-85345095D01*
X118763852Y-85424905D01*
X118740000Y-85513922D01*
X118690369Y-85513922D01*
X118082116Y-84905669D01*
X118082116Y-84905670D01*
X118063669Y-84931060D01*
X117977914Y-85099362D01*
X117919548Y-85278997D01*
X117890000Y-85465552D01*
X114620500Y-85465552D01*
X114620499Y-84552116D01*
X118435669Y-84552116D01*
X119090000Y-85206446D01*
X119090001Y-85206446D01*
X119744328Y-84552116D01*
X119718933Y-84533666D01*
X119550637Y-84447914D01*
X119371002Y-84389548D01*
X119184447Y-84360000D01*
X118995553Y-84360000D01*
X118808997Y-84389548D01*
X118629362Y-84447914D01*
X118461060Y-84533669D01*
X118435670Y-84552116D01*
X118435669Y-84552116D01*
X114620499Y-84552116D01*
X114620499Y-83992128D01*
X114614091Y-83932517D01*
X114611691Y-83926083D01*
X114563797Y-83797671D01*
X114563795Y-83797668D01*
X114551383Y-83781088D01*
X114486109Y-83693893D01*
X114461692Y-83628430D01*
X114476543Y-83560157D01*
X114486110Y-83545271D01*
X114563352Y-83442089D01*
X114563354Y-83442086D01*
X114613596Y-83307379D01*
X114613598Y-83307372D01*
X114619999Y-83247844D01*
X114620000Y-83247827D01*
X114620000Y-82600000D01*
X111914560Y-82600000D01*
X111945245Y-82546853D01*
X111980000Y-82417143D01*
X111980000Y-82282857D01*
X111945245Y-82153147D01*
X111914560Y-82100000D01*
X114620000Y-82100000D01*
X114620000Y-81452172D01*
X114619999Y-81452155D01*
X114613598Y-81392627D01*
X114613596Y-81392620D01*
X114563354Y-81257913D01*
X114563352Y-81257910D01*
X114486110Y-81154729D01*
X114461692Y-81089265D01*
X114476543Y-81020992D01*
X114486105Y-81006111D01*
X114563796Y-80902331D01*
X114614091Y-80767483D01*
X114620500Y-80707873D01*
X114620499Y-78912128D01*
X114614091Y-78852517D01*
X114602606Y-78821725D01*
X114563797Y-78717671D01*
X114563795Y-78717668D01*
X114486421Y-78614309D01*
X114462004Y-78548848D01*
X114476855Y-78480575D01*
X114486416Y-78465696D01*
X114563796Y-78362331D01*
X114614091Y-78227483D01*
X114620500Y-78167873D01*
X114620499Y-76372128D01*
X114614091Y-76312517D01*
X114571546Y-76198449D01*
X114563797Y-76177671D01*
X114563795Y-76177668D01*
X114486421Y-76074309D01*
X114462004Y-76008848D01*
X114476855Y-75940575D01*
X114486416Y-75925696D01*
X114563796Y-75822331D01*
X114614091Y-75687483D01*
X114620500Y-75627873D01*
X114620500Y-75604500D01*
X114640185Y-75537461D01*
X114692989Y-75491706D01*
X114744500Y-75480500D01*
X115467770Y-75480500D01*
X115534809Y-75500185D01*
G37*
%TD.AperFunction*%
%TA.AperFunction,Conductor*%
G36*
X90482540Y-90740185D02*
G01*
X90528295Y-90792989D01*
X90539501Y-90844500D01*
X90539501Y-90867876D01*
X90545908Y-90927483D01*
X90596202Y-91062328D01*
X90596203Y-91062330D01*
X90673578Y-91165689D01*
X90697995Y-91231153D01*
X90683144Y-91299426D01*
X90673578Y-91314311D01*
X90596203Y-91417669D01*
X90596202Y-91417671D01*
X90545908Y-91552517D01*
X90539501Y-91612116D01*
X90539501Y-91612123D01*
X90539500Y-91612135D01*
X90539500Y-93407870D01*
X90539501Y-93407876D01*
X90545908Y-93467483D01*
X90596202Y-93602328D01*
X90596203Y-93602330D01*
X90615902Y-93628644D01*
X90665122Y-93694394D01*
X90673578Y-93705689D01*
X90697995Y-93771153D01*
X90683144Y-93839426D01*
X90673578Y-93854309D01*
X90673265Y-93854729D01*
X90596203Y-93957669D01*
X90596202Y-93957671D01*
X90545908Y-94092517D01*
X90539501Y-94152116D01*
X90539501Y-94152123D01*
X90539500Y-94152135D01*
X90539500Y-95947870D01*
X90539501Y-95947876D01*
X90545908Y-96007483D01*
X90596202Y-96142328D01*
X90596203Y-96142330D01*
X90673578Y-96245689D01*
X90697995Y-96311153D01*
X90683144Y-96379426D01*
X90673578Y-96394311D01*
X90596203Y-96497669D01*
X90596202Y-96497671D01*
X90545908Y-96632517D01*
X90540965Y-96678499D01*
X90539501Y-96692123D01*
X90539500Y-96692135D01*
X90539500Y-96715500D01*
X90519815Y-96782539D01*
X90467011Y-96828294D01*
X90415500Y-96839500D01*
X88936076Y-96839500D01*
X88907242Y-96845234D01*
X88907243Y-96845235D01*
X88791092Y-96868339D01*
X88791086Y-96868341D01*
X88762917Y-96880009D01*
X88762906Y-96880014D01*
X88757669Y-96882184D01*
X88654505Y-96924916D01*
X88574436Y-96978416D01*
X88569037Y-96982023D01*
X88569034Y-96982025D01*
X88531586Y-97007046D01*
X88531581Y-97007050D01*
X88017052Y-97521578D01*
X88017049Y-97521581D01*
X87976043Y-97582951D01*
X87976044Y-97582952D01*
X87934914Y-97644508D01*
X87878343Y-97781082D01*
X87878340Y-97781092D01*
X87849500Y-97926079D01*
X87849500Y-100137769D01*
X87829815Y-100204808D01*
X87813181Y-100225450D01*
X86924597Y-101114033D01*
X86863274Y-101147518D01*
X86793582Y-101142534D01*
X86764030Y-101126670D01*
X86649199Y-101043240D01*
X86480836Y-100957454D01*
X86301118Y-100899059D01*
X86114486Y-100869500D01*
X86114481Y-100869500D01*
X85925519Y-100869500D01*
X85925514Y-100869500D01*
X85738881Y-100899059D01*
X85559163Y-100957454D01*
X85390800Y-101043240D01*
X85307386Y-101103845D01*
X85237927Y-101154310D01*
X85237925Y-101154312D01*
X85237924Y-101154312D01*
X85104312Y-101287924D01*
X85104312Y-101287925D01*
X85104310Y-101287927D01*
X85081371Y-101319500D01*
X84993240Y-101440800D01*
X84907454Y-101609163D01*
X84849060Y-101788880D01*
X84846973Y-101802058D01*
X84817043Y-101865192D01*
X84757731Y-101902123D01*
X84687869Y-101901125D01*
X84629636Y-101862515D01*
X84601523Y-101798551D01*
X84600500Y-101782659D01*
X84600500Y-100007882D01*
X85525669Y-100007882D01*
X85525670Y-100007883D01*
X85551059Y-100026329D01*
X85719362Y-100112085D01*
X85898997Y-100170451D01*
X86085553Y-100200000D01*
X86274447Y-100200000D01*
X86461002Y-100170451D01*
X86640637Y-100112085D01*
X86808937Y-100026331D01*
X86834328Y-100007883D01*
X86834328Y-100007882D01*
X86180001Y-99353554D01*
X86180000Y-99353554D01*
X85525669Y-100007882D01*
X84600500Y-100007882D01*
X84600500Y-98905552D01*
X84980000Y-98905552D01*
X84980000Y-99094447D01*
X85009548Y-99281002D01*
X85067914Y-99460637D01*
X85153666Y-99628933D01*
X85172116Y-99654328D01*
X85826446Y-99000000D01*
X85826446Y-98999999D01*
X85780369Y-98953922D01*
X85830000Y-98953922D01*
X85830000Y-99046078D01*
X85853852Y-99135095D01*
X85899930Y-99214905D01*
X85965095Y-99280070D01*
X86044905Y-99326148D01*
X86133922Y-99350000D01*
X86226078Y-99350000D01*
X86315095Y-99326148D01*
X86394905Y-99280070D01*
X86460070Y-99214905D01*
X86506148Y-99135095D01*
X86530000Y-99046078D01*
X86530000Y-98999999D01*
X86533554Y-98999999D01*
X86533554Y-99000000D01*
X87187882Y-99654328D01*
X87187883Y-99654328D01*
X87206331Y-99628937D01*
X87292085Y-99460637D01*
X87350451Y-99281002D01*
X87380000Y-99094447D01*
X87380000Y-98905552D01*
X87350451Y-98718997D01*
X87292085Y-98539362D01*
X87206329Y-98371059D01*
X87187883Y-98345670D01*
X87187882Y-98345669D01*
X86533554Y-98999999D01*
X86530000Y-98999999D01*
X86530000Y-98953922D01*
X86506148Y-98864905D01*
X86460070Y-98785095D01*
X86394905Y-98719930D01*
X86315095Y-98673852D01*
X86226078Y-98650000D01*
X86133922Y-98650000D01*
X86044905Y-98673852D01*
X85965095Y-98719930D01*
X85899930Y-98785095D01*
X85853852Y-98864905D01*
X85830000Y-98953922D01*
X85780369Y-98953922D01*
X85172116Y-98345669D01*
X85172116Y-98345670D01*
X85153669Y-98371060D01*
X85067914Y-98539362D01*
X85009548Y-98718997D01*
X84980000Y-98905552D01*
X84600500Y-98905552D01*
X84600500Y-97992116D01*
X85525669Y-97992116D01*
X86180000Y-98646446D01*
X86180001Y-98646446D01*
X86834328Y-97992116D01*
X86808933Y-97973666D01*
X86640637Y-97887914D01*
X86461002Y-97829548D01*
X86274447Y-97800000D01*
X86085553Y-97800000D01*
X85898997Y-97829548D01*
X85719362Y-97887914D01*
X85551060Y-97973669D01*
X85525670Y-97992116D01*
X85525669Y-97992116D01*
X84600500Y-97992116D01*
X84600500Y-96007340D01*
X84620185Y-95940301D01*
X84672989Y-95894546D01*
X84742147Y-95884602D01*
X84805703Y-95913627D01*
X84843477Y-95972405D01*
X84846973Y-95987942D01*
X84849060Y-96001118D01*
X84907454Y-96180836D01*
X84978362Y-96320000D01*
X84993240Y-96349199D01*
X85104310Y-96502073D01*
X85237927Y-96635690D01*
X85390801Y-96746760D01*
X85468740Y-96786472D01*
X85559163Y-96832545D01*
X85559165Y-96832545D01*
X85559168Y-96832547D01*
X85629813Y-96855501D01*
X85738881Y-96890940D01*
X85925514Y-96920500D01*
X85925519Y-96920500D01*
X86114486Y-96920500D01*
X86301118Y-96890940D01*
X86480832Y-96832547D01*
X86649199Y-96746760D01*
X86802073Y-96635690D01*
X86930944Y-96506819D01*
X86992267Y-96473334D01*
X87018625Y-96470500D01*
X87453920Y-96470500D01*
X87551462Y-96451096D01*
X87598913Y-96441658D01*
X87735495Y-96385084D01*
X87797287Y-96343796D01*
X87858416Y-96302952D01*
X89182952Y-94978415D01*
X89214141Y-94931737D01*
X89233879Y-94902197D01*
X89233881Y-94902192D01*
X89233887Y-94902184D01*
X89265084Y-94855495D01*
X89306676Y-94755084D01*
X89321659Y-94718912D01*
X89349191Y-94580499D01*
X89350500Y-94573918D01*
X89350500Y-90862229D01*
X89359144Y-90832788D01*
X89365668Y-90802802D01*
X89369422Y-90797786D01*
X89370185Y-90795190D01*
X89386819Y-90774548D01*
X89404548Y-90756819D01*
X89465871Y-90723334D01*
X89492229Y-90720500D01*
X90415501Y-90720500D01*
X90482540Y-90740185D01*
G37*
%TD.AperFunction*%
%TA.AperFunction,Conductor*%
G36*
X102830000Y-100676000D02*
G01*
X102810315Y-100743039D01*
X102757511Y-100788794D01*
X102706000Y-100800000D01*
X102454000Y-100800000D01*
X102386961Y-100780315D01*
X102341206Y-100727511D01*
X102330000Y-100676000D01*
X102330000Y-100344560D01*
X102383147Y-100375245D01*
X102512857Y-100410000D01*
X102647143Y-100410000D01*
X102776853Y-100375245D01*
X102830000Y-100344560D01*
X102830000Y-100676000D01*
G37*
%TD.AperFunction*%
%TA.AperFunction,Conductor*%
G36*
X123268834Y-87785048D02*
G01*
X123324767Y-87826920D01*
X123349184Y-87892384D01*
X123349500Y-87901230D01*
X123349500Y-93463315D01*
X123329815Y-93530354D01*
X123277011Y-93576109D01*
X123215772Y-93586933D01*
X123179474Y-93584076D01*
X122500000Y-94263551D01*
X122500000Y-94257339D01*
X122472741Y-94155606D01*
X122420080Y-94064394D01*
X122345606Y-93989920D01*
X122254394Y-93937259D01*
X122152661Y-93910000D01*
X122146446Y-93910000D01*
X122825922Y-93230524D01*
X122825921Y-93230523D01*
X122781359Y-93198147D01*
X122781350Y-93198141D01*
X122599031Y-93105244D01*
X122404417Y-93042009D01*
X122202317Y-93010000D01*
X121997683Y-93010000D01*
X121795582Y-93042009D01*
X121600968Y-93105244D01*
X121418646Y-93198143D01*
X121418645Y-93198143D01*
X121374077Y-93230523D01*
X121374077Y-93230524D01*
X122053554Y-93910000D01*
X122047339Y-93910000D01*
X121945606Y-93937259D01*
X121854394Y-93989920D01*
X121779920Y-94064394D01*
X121727259Y-94155606D01*
X121700000Y-94257339D01*
X121700000Y-94263553D01*
X121020524Y-93584077D01*
X121020523Y-93584077D01*
X120988143Y-93628644D01*
X120895244Y-93810968D01*
X120832009Y-94005582D01*
X120800000Y-94207682D01*
X120800000Y-94412317D01*
X120832009Y-94614417D01*
X120895244Y-94809031D01*
X120988141Y-94991350D01*
X120988147Y-94991359D01*
X121020523Y-95035921D01*
X121020524Y-95035922D01*
X121700000Y-94356446D01*
X121700000Y-94362661D01*
X121727259Y-94464394D01*
X121779920Y-94555606D01*
X121854394Y-94630080D01*
X121945606Y-94682741D01*
X122047339Y-94710000D01*
X122053553Y-94710000D01*
X121374076Y-95389474D01*
X121418650Y-95421859D01*
X121600968Y-95514755D01*
X121795582Y-95577990D01*
X121997683Y-95610000D01*
X122202317Y-95610000D01*
X122404417Y-95577990D01*
X122599031Y-95514755D01*
X122781349Y-95421859D01*
X122825921Y-95389474D01*
X122146447Y-94710000D01*
X122152661Y-94710000D01*
X122254394Y-94682741D01*
X122345606Y-94630080D01*
X122420080Y-94555606D01*
X122472741Y-94464394D01*
X122500000Y-94362661D01*
X122500000Y-94356448D01*
X123179473Y-95035921D01*
X123215771Y-95033065D01*
X123284148Y-95047429D01*
X123333905Y-95096480D01*
X123349500Y-95156683D01*
X123349500Y-96137770D01*
X123329815Y-96204809D01*
X123313181Y-96225451D01*
X123017048Y-96521583D01*
X122997635Y-96550637D01*
X122978351Y-96579500D01*
X122934919Y-96644499D01*
X122934912Y-96644511D01*
X122878343Y-96781082D01*
X122878340Y-96781092D01*
X122849500Y-96926079D01*
X122849500Y-98888770D01*
X122829815Y-98955809D01*
X122777011Y-99001564D01*
X122707853Y-99011508D01*
X122644297Y-98982483D01*
X122637819Y-98976451D01*
X119886819Y-96225451D01*
X119853334Y-96164128D01*
X119850500Y-96137770D01*
X119850500Y-89362229D01*
X119870185Y-89295190D01*
X119886819Y-89274548D01*
X120525393Y-88635974D01*
X121181007Y-87980359D01*
X121242328Y-87946876D01*
X121307685Y-87950335D01*
X121397203Y-87979999D01*
X121499991Y-87990500D01*
X122700008Y-87990499D01*
X122802797Y-87979999D01*
X122969334Y-87924814D01*
X123118656Y-87832712D01*
X123137819Y-87813549D01*
X123199142Y-87780064D01*
X123268834Y-87785048D01*
G37*
%TD.AperFunction*%
%TA.AperFunction,Conductor*%
G36*
X114814809Y-93280185D02*
G01*
X114835451Y-93296819D01*
X115813181Y-94274548D01*
X115846666Y-94335871D01*
X115849500Y-94362229D01*
X115849500Y-96896057D01*
X115829815Y-96963096D01*
X115777011Y-97008851D01*
X115707853Y-97018795D01*
X115656611Y-96999160D01*
X115576816Y-96945844D01*
X115576815Y-96945843D01*
X115545500Y-96924919D01*
X115545488Y-96924912D01*
X115408917Y-96868343D01*
X115408907Y-96868340D01*
X115263920Y-96839500D01*
X115263918Y-96839500D01*
X114744499Y-96839500D01*
X114677460Y-96819815D01*
X114631705Y-96767011D01*
X114620499Y-96715500D01*
X114620499Y-96692129D01*
X114620498Y-96692123D01*
X114620497Y-96692116D01*
X114614091Y-96632517D01*
X114614034Y-96632365D01*
X114563797Y-96497671D01*
X114563795Y-96497668D01*
X114549782Y-96478949D01*
X114486109Y-96393893D01*
X114461692Y-96328430D01*
X114476543Y-96260157D01*
X114486110Y-96245271D01*
X114563352Y-96142089D01*
X114563354Y-96142086D01*
X114613596Y-96007379D01*
X114613598Y-96007372D01*
X114619999Y-95947844D01*
X114620000Y-95947827D01*
X114620000Y-95300000D01*
X111914560Y-95300000D01*
X111945245Y-95246853D01*
X111980000Y-95117143D01*
X111980000Y-94982857D01*
X111945245Y-94853147D01*
X111914560Y-94800000D01*
X114620000Y-94800000D01*
X114620000Y-94152172D01*
X114619999Y-94152155D01*
X114613598Y-94092627D01*
X114613596Y-94092620D01*
X114563354Y-93957913D01*
X114563352Y-93957910D01*
X114486110Y-93854729D01*
X114461692Y-93789265D01*
X114476543Y-93720992D01*
X114486105Y-93706111D01*
X114563796Y-93602331D01*
X114614091Y-93467483D01*
X114620500Y-93407873D01*
X114620500Y-93384500D01*
X114623050Y-93375814D01*
X114621762Y-93366853D01*
X114632740Y-93342812D01*
X114640185Y-93317461D01*
X114647025Y-93311533D01*
X114650787Y-93303297D01*
X114673021Y-93289007D01*
X114692989Y-93271706D01*
X114703503Y-93269418D01*
X114709565Y-93265523D01*
X114744500Y-93260500D01*
X114747770Y-93260500D01*
X114814809Y-93280185D01*
G37*
%TD.AperFunction*%
%TA.AperFunction,Conductor*%
G36*
X87311919Y-64785460D02*
G01*
X87346277Y-64846299D01*
X87349500Y-64874386D01*
X87349500Y-73637770D01*
X87329815Y-73704809D01*
X87313181Y-73725451D01*
X86017047Y-75021584D01*
X86017045Y-75021586D01*
X86000573Y-75046241D01*
X86000572Y-75046243D01*
X85934913Y-75144508D01*
X85878343Y-75281082D01*
X85878340Y-75281092D01*
X85849500Y-75426079D01*
X85849500Y-76374582D01*
X85829815Y-76441621D01*
X85798385Y-76474900D01*
X85752787Y-76508028D01*
X85752782Y-76508032D01*
X85608028Y-76652786D01*
X85487715Y-76818386D01*
X85394781Y-77000776D01*
X85331522Y-77195465D01*
X85299500Y-77397648D01*
X85299500Y-77602351D01*
X85331522Y-77804534D01*
X85394781Y-77999223D01*
X85456582Y-78120513D01*
X85484901Y-78176092D01*
X85487715Y-78181613D01*
X85608028Y-78347213D01*
X85752786Y-78491971D01*
X85918385Y-78612284D01*
X85918387Y-78612285D01*
X85918390Y-78612287D01*
X85972378Y-78639795D01*
X86023174Y-78687769D01*
X86039969Y-78755590D01*
X86017432Y-78821725D01*
X85972378Y-78860765D01*
X85918644Y-78888143D01*
X85874077Y-78920523D01*
X85874077Y-78920524D01*
X86553554Y-79600000D01*
X86547339Y-79600000D01*
X86445606Y-79627259D01*
X86354394Y-79679920D01*
X86279920Y-79754394D01*
X86227259Y-79845606D01*
X86200000Y-79947339D01*
X86200000Y-79953553D01*
X85520524Y-79274077D01*
X85520523Y-79274077D01*
X85488143Y-79318644D01*
X85395244Y-79500968D01*
X85332009Y-79695582D01*
X85300000Y-79897682D01*
X85300000Y-80102317D01*
X85332009Y-80304417D01*
X85395244Y-80499031D01*
X85488141Y-80681350D01*
X85488147Y-80681359D01*
X85520523Y-80725921D01*
X85520524Y-80725922D01*
X86200000Y-80046446D01*
X86200000Y-80052661D01*
X86227259Y-80154394D01*
X86279920Y-80245606D01*
X86354394Y-80320080D01*
X86445606Y-80372741D01*
X86547339Y-80400000D01*
X86553553Y-80400000D01*
X85874076Y-81079474D01*
X85918650Y-81111859D01*
X86100968Y-81204755D01*
X86295582Y-81267990D01*
X86497683Y-81300000D01*
X86702317Y-81300000D01*
X86904417Y-81267990D01*
X87099031Y-81204755D01*
X87281349Y-81111859D01*
X87325921Y-81079474D01*
X86646447Y-80400000D01*
X86652661Y-80400000D01*
X86754394Y-80372741D01*
X86845606Y-80320080D01*
X86920080Y-80245606D01*
X86972741Y-80154394D01*
X87000000Y-80052661D01*
X87000000Y-80046446D01*
X87679474Y-80725921D01*
X87711859Y-80681349D01*
X87804755Y-80499031D01*
X87867989Y-80304417D01*
X87894874Y-80134678D01*
X87924803Y-80071543D01*
X87984115Y-80034612D01*
X88053977Y-80035610D01*
X88105028Y-80066395D01*
X88813181Y-80774548D01*
X88846666Y-80835871D01*
X88849500Y-80862229D01*
X88849500Y-84073918D01*
X88849500Y-84073920D01*
X88849499Y-84073920D01*
X88878340Y-84218907D01*
X88878343Y-84218917D01*
X88934912Y-84355488D01*
X88934915Y-84355494D01*
X88934916Y-84355495D01*
X88943879Y-84368909D01*
X88943880Y-84368912D01*
X89017046Y-84478414D01*
X89017052Y-84478421D01*
X90011584Y-85472952D01*
X90011586Y-85472954D01*
X90040698Y-85492404D01*
X90084367Y-85521582D01*
X90084369Y-85521585D01*
X90084370Y-85521585D01*
X90134496Y-85555079D01*
X90134511Y-85555087D01*
X90271082Y-85611656D01*
X90271087Y-85611658D01*
X90271091Y-85611658D01*
X90271092Y-85611659D01*
X90416079Y-85640500D01*
X90422142Y-85641097D01*
X90422012Y-85642412D01*
X90482540Y-85660185D01*
X90528295Y-85712989D01*
X90539501Y-85764500D01*
X90539501Y-85787876D01*
X90545908Y-85847483D01*
X90596202Y-85982328D01*
X90596203Y-85982330D01*
X90673578Y-86085689D01*
X90697995Y-86151153D01*
X90683144Y-86219426D01*
X90673578Y-86234311D01*
X90596203Y-86337669D01*
X90596202Y-86337671D01*
X90545908Y-86472517D01*
X90539501Y-86532116D01*
X90539501Y-86532124D01*
X90539500Y-86532135D01*
X90539500Y-86555500D01*
X90519815Y-86622539D01*
X90467011Y-86668294D01*
X90415500Y-86679500D01*
X87886080Y-86679500D01*
X87741092Y-86708340D01*
X87741082Y-86708343D01*
X87604511Y-86764912D01*
X87604498Y-86764919D01*
X87481584Y-86847048D01*
X87481580Y-86847051D01*
X86195451Y-88133181D01*
X86134128Y-88166666D01*
X86107770Y-88169500D01*
X85925514Y-88169500D01*
X85738881Y-88199059D01*
X85559163Y-88257454D01*
X85390800Y-88343240D01*
X85341294Y-88379209D01*
X85237927Y-88454310D01*
X85237925Y-88454312D01*
X85237924Y-88454312D01*
X85104312Y-88587924D01*
X85104312Y-88587925D01*
X85104310Y-88587927D01*
X85063199Y-88644511D01*
X84993240Y-88740800D01*
X84907454Y-88909163D01*
X84849060Y-89088880D01*
X84846973Y-89102058D01*
X84817043Y-89165192D01*
X84757731Y-89202123D01*
X84687869Y-89201125D01*
X84629636Y-89162515D01*
X84601523Y-89098551D01*
X84600500Y-89082659D01*
X84600500Y-87125416D01*
X84620185Y-87058377D01*
X84651613Y-87025099D01*
X84697219Y-86991966D01*
X84841966Y-86847219D01*
X84841968Y-86847215D01*
X84841971Y-86847213D01*
X84942865Y-86708342D01*
X84962287Y-86681610D01*
X85055220Y-86499219D01*
X85118477Y-86304534D01*
X85150500Y-86102352D01*
X85150500Y-85897648D01*
X85129411Y-85764500D01*
X85118477Y-85695465D01*
X85070331Y-85547288D01*
X85055220Y-85500781D01*
X85055218Y-85500778D01*
X85055218Y-85500776D01*
X84998519Y-85389500D01*
X84962287Y-85318390D01*
X84954556Y-85307749D01*
X84841971Y-85152786D01*
X84697213Y-85008028D01*
X84531613Y-84887715D01*
X84531612Y-84887714D01*
X84531610Y-84887713D01*
X84474653Y-84858691D01*
X84349223Y-84794781D01*
X84154534Y-84731522D01*
X83979995Y-84703878D01*
X83952352Y-84699500D01*
X83747648Y-84699500D01*
X83723329Y-84703351D01*
X83545465Y-84731522D01*
X83350776Y-84794781D01*
X83168386Y-84887715D01*
X83002786Y-85008028D01*
X82858028Y-85152786D01*
X82737713Y-85318388D01*
X82710484Y-85371828D01*
X82662510Y-85422623D01*
X82594688Y-85439418D01*
X82528554Y-85416880D01*
X82489516Y-85371828D01*
X82462286Y-85318388D01*
X82341971Y-85152786D01*
X82197217Y-85008032D01*
X82197212Y-85008028D01*
X82151615Y-84974900D01*
X82108949Y-84919571D01*
X82100500Y-84874582D01*
X82100500Y-83475910D01*
X82120185Y-83408871D01*
X82172989Y-83363116D01*
X82242147Y-83353172D01*
X82305703Y-83382197D01*
X82323767Y-83401599D01*
X82402813Y-83507190D01*
X82517906Y-83593350D01*
X82517913Y-83593354D01*
X82652620Y-83643596D01*
X82652627Y-83643598D01*
X82712155Y-83649999D01*
X82712172Y-83650000D01*
X83110000Y-83650000D01*
X83610000Y-83650000D01*
X84007828Y-83650000D01*
X84007844Y-83649999D01*
X84067372Y-83643598D01*
X84067379Y-83643596D01*
X84202086Y-83593354D01*
X84202093Y-83593350D01*
X84317187Y-83507190D01*
X84317190Y-83507187D01*
X84403350Y-83392093D01*
X84403354Y-83392086D01*
X84453596Y-83257379D01*
X84453598Y-83257372D01*
X84459999Y-83197844D01*
X84460000Y-83197827D01*
X84460000Y-82150000D01*
X83610000Y-82150000D01*
X83610000Y-83650000D01*
X83110000Y-83650000D01*
X83110000Y-81650000D01*
X83610000Y-81650000D01*
X84460000Y-81650000D01*
X84460000Y-80602172D01*
X84459999Y-80602155D01*
X84453598Y-80542627D01*
X84453596Y-80542620D01*
X84403354Y-80407913D01*
X84403350Y-80407906D01*
X84317190Y-80292812D01*
X84317187Y-80292809D01*
X84202093Y-80206649D01*
X84202086Y-80206645D01*
X84067379Y-80156403D01*
X84067372Y-80156401D01*
X84007844Y-80150000D01*
X83610000Y-80150000D01*
X83610000Y-81650000D01*
X83110000Y-81650000D01*
X83110000Y-80187440D01*
X82980499Y-80143396D01*
X82968023Y-80134612D01*
X82953387Y-80130315D01*
X82940039Y-80114911D01*
X82923368Y-80103174D01*
X82917620Y-80089038D01*
X82907632Y-80077511D01*
X82904731Y-80057335D01*
X82897052Y-80038449D01*
X82899859Y-80023452D01*
X82897688Y-80008353D01*
X82907457Y-79982857D01*
X82909907Y-79969772D01*
X82914226Y-79965192D01*
X82917325Y-79957107D01*
X82925084Y-79945495D01*
X82981658Y-79808913D01*
X83001219Y-79710577D01*
X83010500Y-79663920D01*
X83010500Y-77214141D01*
X83030185Y-77147102D01*
X83082989Y-77101347D01*
X83091149Y-77097966D01*
X83102331Y-77093796D01*
X83217546Y-77007546D01*
X83303796Y-76892331D01*
X83354091Y-76757483D01*
X83360500Y-76697873D01*
X83360499Y-74102128D01*
X83354091Y-74042517D01*
X83330587Y-73979500D01*
X83303797Y-73907671D01*
X83303793Y-73907664D01*
X83217547Y-73792455D01*
X83217544Y-73792452D01*
X83102335Y-73706206D01*
X83102328Y-73706202D01*
X82967482Y-73655908D01*
X82967483Y-73655908D01*
X82916397Y-73650416D01*
X82900787Y-73643950D01*
X82883963Y-73642402D01*
X82869178Y-73630857D01*
X82851846Y-73623678D01*
X82842209Y-73609798D01*
X82828894Y-73599401D01*
X82822697Y-73581695D01*
X82811998Y-73566285D01*
X82811395Y-73549400D01*
X82805814Y-73533453D01*
X82810174Y-73515206D01*
X82809505Y-73496460D01*
X82818230Y-73481494D01*
X82822053Y-73465497D01*
X82837766Y-73447985D01*
X82843775Y-73437679D01*
X82849894Y-73431803D01*
X82872073Y-73415690D01*
X83001845Y-73285917D01*
X83002747Y-73285052D01*
X83032684Y-73269487D01*
X83062267Y-73253334D01*
X83064141Y-73253132D01*
X83064739Y-73252822D01*
X83065972Y-73252935D01*
X83088625Y-73250500D01*
X84523920Y-73250500D01*
X84621462Y-73231096D01*
X84668913Y-73221658D01*
X84805495Y-73165084D01*
X84868978Y-73122666D01*
X84928416Y-73082952D01*
X86682951Y-71328416D01*
X86765084Y-71205495D01*
X86821658Y-71068913D01*
X86831096Y-71021462D01*
X86850500Y-70923920D01*
X86850500Y-65125416D01*
X86870185Y-65058377D01*
X86901613Y-65025099D01*
X86947219Y-64991966D01*
X87091966Y-64847219D01*
X87092635Y-64846299D01*
X87125181Y-64801502D01*
X87180510Y-64758836D01*
X87250123Y-64752855D01*
X87311919Y-64785460D01*
G37*
%TD.AperFunction*%
%TA.AperFunction,Conductor*%
G36*
X93214755Y-82153147D02*
G01*
X93180000Y-82282857D01*
X93180000Y-82417143D01*
X93214755Y-82546853D01*
X93245440Y-82600000D01*
X92914000Y-82600000D01*
X92846961Y-82580315D01*
X92801206Y-82527511D01*
X92790000Y-82476000D01*
X92790000Y-82224000D01*
X92809685Y-82156961D01*
X92862489Y-82111206D01*
X92914000Y-82100000D01*
X93245440Y-82100000D01*
X93214755Y-82153147D01*
G37*
%TD.AperFunction*%
%TA.AperFunction,Conductor*%
G36*
X123444042Y-50000765D02*
G01*
X123458399Y-50001705D01*
X123671615Y-50015680D01*
X123681094Y-50016671D01*
X123732679Y-50024088D01*
X123739143Y-50025195D01*
X123935789Y-50064310D01*
X123946496Y-50066941D01*
X123988767Y-50079353D01*
X123993614Y-50080887D01*
X124191989Y-50148226D01*
X124203618Y-50152842D01*
X124226842Y-50163448D01*
X124230139Y-50165013D01*
X124424204Y-50260715D01*
X124432460Y-50264787D01*
X124446508Y-50272897D01*
X124650464Y-50409177D01*
X124663328Y-50419048D01*
X124847749Y-50580781D01*
X124859218Y-50592250D01*
X125020951Y-50776671D01*
X125030825Y-50789539D01*
X125167102Y-50993492D01*
X125175212Y-51007539D01*
X125274968Y-51209824D01*
X125276550Y-51213156D01*
X125287154Y-51236375D01*
X125291779Y-51248028D01*
X125359097Y-51446340D01*
X125360655Y-51451264D01*
X125373053Y-51493488D01*
X125375693Y-51504232D01*
X125414796Y-51700818D01*
X125415917Y-51707362D01*
X125423325Y-51758885D01*
X125424321Y-51768422D01*
X125439234Y-51995941D01*
X125439500Y-52004051D01*
X125439500Y-119115948D01*
X125439234Y-119124058D01*
X125424321Y-119351576D01*
X125423325Y-119361113D01*
X125415917Y-119412636D01*
X125414796Y-119419180D01*
X125375693Y-119615766D01*
X125373053Y-119626510D01*
X125360655Y-119668734D01*
X125359097Y-119673658D01*
X125291779Y-119871970D01*
X125287154Y-119883623D01*
X125287153Y-119883626D01*
X125276542Y-119906859D01*
X125274961Y-119910187D01*
X125175214Y-120112456D01*
X125167104Y-120126504D01*
X125030825Y-120330460D01*
X125020951Y-120343328D01*
X124859218Y-120527749D01*
X124847749Y-120539218D01*
X124663328Y-120700951D01*
X124650460Y-120710825D01*
X124446504Y-120847104D01*
X124432456Y-120855214D01*
X124230187Y-120954961D01*
X124226859Y-120956542D01*
X124203626Y-120967153D01*
X124191970Y-120971779D01*
X123993658Y-121039097D01*
X123988734Y-121040655D01*
X123946510Y-121053053D01*
X123935766Y-121055693D01*
X123739180Y-121094796D01*
X123732636Y-121095917D01*
X123681113Y-121103325D01*
X123671576Y-121104321D01*
X123444058Y-121119234D01*
X123435948Y-121119500D01*
X74104052Y-121119500D01*
X74095942Y-121119234D01*
X73868422Y-121104321D01*
X73858885Y-121103325D01*
X73807362Y-121095917D01*
X73800818Y-121094796D01*
X73604232Y-121055693D01*
X73593488Y-121053053D01*
X73551264Y-121040655D01*
X73546340Y-121039097D01*
X73348028Y-120971779D01*
X73336375Y-120967154D01*
X73313156Y-120956550D01*
X73309824Y-120954968D01*
X73107539Y-120855212D01*
X73093492Y-120847102D01*
X72889539Y-120710825D01*
X72876671Y-120700951D01*
X72692250Y-120539218D01*
X72680781Y-120527749D01*
X72519048Y-120343328D01*
X72509174Y-120330460D01*
X72372897Y-120126507D01*
X72364787Y-120112460D01*
X72312630Y-120006697D01*
X72265013Y-119910139D01*
X72263448Y-119906842D01*
X72252841Y-119883615D01*
X72248226Y-119871989D01*
X72180887Y-119673614D01*
X72179353Y-119668767D01*
X72166941Y-119626496D01*
X72164310Y-119615789D01*
X72125195Y-119419143D01*
X72124088Y-119412679D01*
X72116671Y-119361094D01*
X72115680Y-119351615D01*
X72100765Y-119124042D01*
X72100500Y-119115933D01*
X72100500Y-115918711D01*
X75329500Y-115918711D01*
X75329500Y-116161288D01*
X75361161Y-116401785D01*
X75423947Y-116636104D01*
X75492057Y-116800535D01*
X75516776Y-116860212D01*
X75638064Y-117070289D01*
X75638066Y-117070292D01*
X75638067Y-117070293D01*
X75785733Y-117262736D01*
X75785739Y-117262743D01*
X75957256Y-117434260D01*
X75957263Y-117434266D01*
X75993643Y-117462181D01*
X76149711Y-117581936D01*
X76359788Y-117703224D01*
X76583900Y-117796054D01*
X76818211Y-117858838D01*
X76958515Y-117877309D01*
X77058711Y-117890500D01*
X77058712Y-117890500D01*
X77301289Y-117890500D01*
X77349388Y-117884167D01*
X77541789Y-117858838D01*
X77776100Y-117796054D01*
X78000212Y-117703224D01*
X78210289Y-117581936D01*
X78402738Y-117434265D01*
X78574265Y-117262738D01*
X78721936Y-117070289D01*
X78843224Y-116860212D01*
X78936054Y-116636100D01*
X78998838Y-116401789D01*
X79030500Y-116161288D01*
X79030500Y-115918712D01*
X78998838Y-115678211D01*
X78936054Y-115443900D01*
X78843224Y-115219788D01*
X78721936Y-115009711D01*
X78574265Y-114817262D01*
X78574260Y-114817256D01*
X78402743Y-114645739D01*
X78402736Y-114645733D01*
X78210293Y-114498067D01*
X78210292Y-114498066D01*
X78210289Y-114498064D01*
X78000212Y-114376776D01*
X78000205Y-114376773D01*
X77776104Y-114283947D01*
X77541785Y-114221161D01*
X77301289Y-114189500D01*
X77301288Y-114189500D01*
X77058712Y-114189500D01*
X77058711Y-114189500D01*
X76818214Y-114221161D01*
X76583895Y-114283947D01*
X76359794Y-114376773D01*
X76359785Y-114376777D01*
X76149706Y-114498067D01*
X75957263Y-114645733D01*
X75957256Y-114645739D01*
X75785739Y-114817256D01*
X75785733Y-114817263D01*
X75638067Y-115009706D01*
X75516777Y-115219785D01*
X75516773Y-115219794D01*
X75423947Y-115443895D01*
X75361161Y-115678214D01*
X75329500Y-115918711D01*
X72100500Y-115918711D01*
X72100500Y-84073919D01*
X73599499Y-84073919D01*
X73628340Y-84218906D01*
X73628343Y-84218916D01*
X73684914Y-84355491D01*
X73684915Y-84355493D01*
X73684916Y-84355494D01*
X73693877Y-84368906D01*
X73728602Y-84420875D01*
X73749480Y-84487553D01*
X73749500Y-84489766D01*
X73749500Y-109923918D01*
X73749500Y-109923920D01*
X73749499Y-109923920D01*
X73778340Y-110068907D01*
X73778343Y-110068917D01*
X73834914Y-110205492D01*
X73864318Y-110249498D01*
X73864319Y-110249501D01*
X73917046Y-110328414D01*
X73917052Y-110328421D01*
X75067049Y-111478416D01*
X75171584Y-111582951D01*
X75171587Y-111582953D01*
X75171588Y-111582954D01*
X75294503Y-111665083D01*
X75294506Y-111665085D01*
X75344665Y-111685861D01*
X75351080Y-111688518D01*
X75431088Y-111721659D01*
X75547241Y-111744763D01*
X75570380Y-111749365D01*
X75576081Y-111750500D01*
X75576082Y-111750500D01*
X75576083Y-111750500D01*
X75723918Y-111750500D01*
X78237770Y-111750500D01*
X78304809Y-111770185D01*
X78325451Y-111786819D01*
X81313181Y-114774548D01*
X81346666Y-114835871D01*
X81349500Y-114862229D01*
X81349500Y-116426082D01*
X81349500Y-116573918D01*
X81349500Y-116573920D01*
X81349499Y-116573920D01*
X81378340Y-116718907D01*
X81378343Y-116718917D01*
X81434912Y-116855488D01*
X81434919Y-116855501D01*
X81517048Y-116978415D01*
X81517051Y-116978419D01*
X81621580Y-117082948D01*
X81621584Y-117082951D01*
X81744498Y-117165080D01*
X81744511Y-117165087D01*
X81881082Y-117221656D01*
X81881087Y-117221658D01*
X81881091Y-117221658D01*
X81881092Y-117221659D01*
X82026079Y-117250500D01*
X82026082Y-117250500D01*
X96369477Y-117250500D01*
X96436516Y-117270185D01*
X96482271Y-117322989D01*
X96492215Y-117392147D01*
X96463190Y-117455703D01*
X96457158Y-117462181D01*
X96357684Y-117561654D01*
X96265643Y-117710875D01*
X96265641Y-117710880D01*
X96210494Y-117877302D01*
X96210493Y-117877309D01*
X96200000Y-117980013D01*
X96200000Y-118330000D01*
X97184314Y-118330000D01*
X97179920Y-118334394D01*
X97127259Y-118425606D01*
X97100000Y-118527339D01*
X97100000Y-118632661D01*
X97127259Y-118734394D01*
X97179920Y-118825606D01*
X97184314Y-118830000D01*
X96200001Y-118830000D01*
X96200001Y-119179986D01*
X96210494Y-119282697D01*
X96265641Y-119449119D01*
X96265643Y-119449124D01*
X96357684Y-119598345D01*
X96481654Y-119722315D01*
X96630875Y-119814356D01*
X96630880Y-119814358D01*
X96797302Y-119869505D01*
X96797309Y-119869506D01*
X96900019Y-119879999D01*
X97249999Y-119879999D01*
X97250000Y-119879998D01*
X97250000Y-118895686D01*
X97254394Y-118900080D01*
X97345606Y-118952741D01*
X97447339Y-118980000D01*
X97552661Y-118980000D01*
X97654394Y-118952741D01*
X97745606Y-118900080D01*
X97750000Y-118895686D01*
X97750000Y-119879999D01*
X98099972Y-119879999D01*
X98099986Y-119879998D01*
X98202697Y-119869505D01*
X98369119Y-119814358D01*
X98369124Y-119814356D01*
X98518345Y-119722315D01*
X98642315Y-119598345D01*
X98670582Y-119552517D01*
X98767859Y-119351367D01*
X98786094Y-119331235D01*
X98801556Y-119308904D01*
X98809205Y-119305723D01*
X98814767Y-119299584D01*
X98840991Y-119292507D01*
X98866072Y-119282080D01*
X98874226Y-119283540D01*
X98882224Y-119281382D01*
X98908107Y-119289606D01*
X98934848Y-119294394D01*
X98941858Y-119300330D01*
X98948813Y-119302540D01*
X98950993Y-119305171D01*
X98960524Y-119305922D01*
X99640000Y-118626446D01*
X99640000Y-118632661D01*
X99667259Y-118734394D01*
X99719920Y-118825606D01*
X99794394Y-118900080D01*
X99885606Y-118952741D01*
X99987339Y-118980000D01*
X99993553Y-118980000D01*
X99314076Y-119659474D01*
X99358650Y-119691859D01*
X99540968Y-119784755D01*
X99735582Y-119847990D01*
X99937683Y-119880000D01*
X100142317Y-119880000D01*
X100344417Y-119847990D01*
X100539031Y-119784755D01*
X100721349Y-119691859D01*
X100765921Y-119659474D01*
X100086447Y-118980000D01*
X100092661Y-118980000D01*
X100194394Y-118952741D01*
X100285606Y-118900080D01*
X100360080Y-118825606D01*
X100412741Y-118734394D01*
X100440000Y-118632661D01*
X100440000Y-118626448D01*
X101119474Y-119305922D01*
X101119474Y-119305921D01*
X101151861Y-119261347D01*
X101151861Y-119261346D01*
X101199515Y-119167820D01*
X101247489Y-119117024D01*
X101315310Y-119100228D01*
X101381445Y-119122765D01*
X101420485Y-119167819D01*
X101468141Y-119261350D01*
X101468147Y-119261359D01*
X101500523Y-119305921D01*
X101500524Y-119305922D01*
X102180000Y-118626446D01*
X102180000Y-118632661D01*
X102207259Y-118734394D01*
X102259920Y-118825606D01*
X102334394Y-118900080D01*
X102425606Y-118952741D01*
X102527339Y-118980000D01*
X102533553Y-118980000D01*
X101854076Y-119659474D01*
X101898650Y-119691859D01*
X102080968Y-119784755D01*
X102275582Y-119847990D01*
X102477683Y-119880000D01*
X102682317Y-119880000D01*
X102884417Y-119847990D01*
X103079031Y-119784755D01*
X103261349Y-119691859D01*
X103305921Y-119659474D01*
X102626447Y-118980000D01*
X102632661Y-118980000D01*
X102734394Y-118952741D01*
X102825606Y-118900080D01*
X102900080Y-118825606D01*
X102952741Y-118734394D01*
X102980000Y-118632661D01*
X102980000Y-118626448D01*
X103659474Y-119305922D01*
X103659474Y-119305921D01*
X103691861Y-119261347D01*
X103691861Y-119261346D01*
X103739515Y-119167820D01*
X103787489Y-119117024D01*
X103855310Y-119100228D01*
X103921445Y-119122765D01*
X103960485Y-119167819D01*
X104008141Y-119261350D01*
X104008147Y-119261359D01*
X104040523Y-119305921D01*
X104040524Y-119305922D01*
X104720000Y-118626446D01*
X104720000Y-118632661D01*
X104747259Y-118734394D01*
X104799920Y-118825606D01*
X104874394Y-118900080D01*
X104965606Y-118952741D01*
X105067339Y-118980000D01*
X105073553Y-118980000D01*
X104394076Y-119659474D01*
X104438650Y-119691859D01*
X104620968Y-119784755D01*
X104815582Y-119847990D01*
X105017683Y-119880000D01*
X105222317Y-119880000D01*
X105424417Y-119847990D01*
X105619031Y-119784755D01*
X105801349Y-119691859D01*
X105845921Y-119659474D01*
X105166447Y-118980000D01*
X105172661Y-118980000D01*
X105274394Y-118952741D01*
X105365606Y-118900080D01*
X105440080Y-118825606D01*
X105492741Y-118734394D01*
X105520000Y-118632661D01*
X105520000Y-118626447D01*
X106199474Y-119305921D01*
X106231859Y-119261349D01*
X106324755Y-119079031D01*
X106387990Y-118884417D01*
X106420000Y-118682317D01*
X106420000Y-118477682D01*
X106387990Y-118275582D01*
X106324755Y-118080968D01*
X106231859Y-117898650D01*
X106199474Y-117854077D01*
X106199474Y-117854076D01*
X105520000Y-118533551D01*
X105520000Y-118527339D01*
X105492741Y-118425606D01*
X105440080Y-118334394D01*
X105365606Y-118259920D01*
X105274394Y-118207259D01*
X105172661Y-118180000D01*
X105166446Y-118180000D01*
X105845922Y-117500524D01*
X105845921Y-117500522D01*
X105810542Y-117474818D01*
X105767876Y-117419488D01*
X105761897Y-117349875D01*
X105794503Y-117288080D01*
X105855341Y-117253723D01*
X105883427Y-117250500D01*
X110737770Y-117250500D01*
X110804809Y-117270185D01*
X110825451Y-117286819D01*
X111190823Y-117652191D01*
X111224308Y-117713514D01*
X111224759Y-117715680D01*
X111234104Y-117762660D01*
X111234106Y-117762668D01*
X111301983Y-117926540D01*
X111301990Y-117926553D01*
X111400535Y-118074034D01*
X111400538Y-118074038D01*
X111525961Y-118199461D01*
X111525965Y-118199464D01*
X111673446Y-118298009D01*
X111673459Y-118298016D01*
X111750677Y-118330000D01*
X111837334Y-118365894D01*
X111837336Y-118365894D01*
X111837341Y-118365896D01*
X112011304Y-118400499D01*
X112011307Y-118400500D01*
X112011309Y-118400500D01*
X112188693Y-118400500D01*
X112188694Y-118400499D01*
X112246682Y-118388964D01*
X112362658Y-118365896D01*
X112362661Y-118365894D01*
X112362666Y-118365894D01*
X112526547Y-118298013D01*
X112674035Y-118199464D01*
X112799464Y-118074035D01*
X112898013Y-117926547D01*
X112965894Y-117762666D01*
X112977718Y-117703226D01*
X113000499Y-117588695D01*
X113000500Y-117588693D01*
X113000500Y-117411306D01*
X113000499Y-117411304D01*
X112965896Y-117237341D01*
X112965893Y-117237332D01*
X112898016Y-117073459D01*
X112898009Y-117073446D01*
X112799464Y-116925965D01*
X112799461Y-116925961D01*
X112674038Y-116800538D01*
X112674034Y-116800535D01*
X112526553Y-116701990D01*
X112526540Y-116701983D01*
X112362668Y-116634106D01*
X112362660Y-116634104D01*
X112315680Y-116624759D01*
X112253769Y-116592374D01*
X112252191Y-116590823D01*
X111663703Y-116002334D01*
X111623550Y-115962181D01*
X111599814Y-115918711D01*
X118509500Y-115918711D01*
X118509500Y-116161288D01*
X118541161Y-116401785D01*
X118603947Y-116636104D01*
X118672057Y-116800535D01*
X118696776Y-116860212D01*
X118818064Y-117070289D01*
X118818066Y-117070292D01*
X118818067Y-117070293D01*
X118965733Y-117262736D01*
X118965739Y-117262743D01*
X119137256Y-117434260D01*
X119137263Y-117434266D01*
X119173643Y-117462181D01*
X119329711Y-117581936D01*
X119539788Y-117703224D01*
X119763900Y-117796054D01*
X119998211Y-117858838D01*
X120138515Y-117877309D01*
X120238711Y-117890500D01*
X120238712Y-117890500D01*
X120481289Y-117890500D01*
X120529388Y-117884167D01*
X120721789Y-117858838D01*
X120956100Y-117796054D01*
X121180212Y-117703224D01*
X121390289Y-117581936D01*
X121582738Y-117434265D01*
X121754265Y-117262738D01*
X121901936Y-117070289D01*
X122023224Y-116860212D01*
X122116054Y-116636100D01*
X122178838Y-116401789D01*
X122210500Y-116161288D01*
X122210500Y-115918712D01*
X122178838Y-115678211D01*
X122116054Y-115443900D01*
X122023224Y-115219788D01*
X121901936Y-115009711D01*
X121754265Y-114817262D01*
X121754260Y-114817256D01*
X121582743Y-114645739D01*
X121582736Y-114645733D01*
X121390293Y-114498067D01*
X121390292Y-114498066D01*
X121390289Y-114498064D01*
X121180212Y-114376776D01*
X121180205Y-114376773D01*
X120956104Y-114283947D01*
X120721785Y-114221161D01*
X120481289Y-114189500D01*
X120481288Y-114189500D01*
X120238712Y-114189500D01*
X120238711Y-114189500D01*
X119998214Y-114221161D01*
X119763895Y-114283947D01*
X119539794Y-114376773D01*
X119539785Y-114376777D01*
X119329706Y-114498067D01*
X119137263Y-114645733D01*
X119137256Y-114645739D01*
X118965739Y-114817256D01*
X118965733Y-114817263D01*
X118818067Y-115009706D01*
X118696777Y-115219785D01*
X118696773Y-115219794D01*
X118603947Y-115443895D01*
X118541161Y-115678214D01*
X118509500Y-115918711D01*
X111599814Y-115918711D01*
X111590065Y-115900858D01*
X111595049Y-115831166D01*
X111636921Y-115775233D01*
X111702385Y-115750816D01*
X111711231Y-115750500D01*
X113173920Y-115750500D01*
X113303278Y-115724768D01*
X113318913Y-115721658D01*
X113455495Y-115665084D01*
X113504729Y-115632186D01*
X113578416Y-115582952D01*
X116874548Y-112286818D01*
X116935871Y-112253334D01*
X116962229Y-112250500D01*
X120673920Y-112250500D01*
X120784632Y-112228477D01*
X120818913Y-112221658D01*
X120955495Y-112165084D01*
X121004729Y-112132186D01*
X121078416Y-112082952D01*
X124182952Y-108978415D01*
X124215441Y-108929790D01*
X124248154Y-108880833D01*
X124254934Y-108870683D01*
X124265084Y-108855495D01*
X124298221Y-108775495D01*
X124321659Y-108718912D01*
X124350500Y-108573917D01*
X124350500Y-108426082D01*
X124350500Y-97362230D01*
X124370185Y-97295191D01*
X124386819Y-97274549D01*
X124682947Y-96978421D01*
X124682952Y-96978416D01*
X124747251Y-96882184D01*
X124765084Y-96855495D01*
X124821658Y-96718913D01*
X124836460Y-96644499D01*
X124850500Y-96573920D01*
X124850500Y-62926079D01*
X124821659Y-62781092D01*
X124821658Y-62781091D01*
X124821658Y-62781087D01*
X124810982Y-62755312D01*
X124765087Y-62644511D01*
X124765080Y-62644498D01*
X124682952Y-62521585D01*
X124632239Y-62470872D01*
X124578416Y-62417049D01*
X124219466Y-62058099D01*
X123078421Y-60917052D01*
X123078414Y-60917046D01*
X123004729Y-60867812D01*
X123004729Y-60867813D01*
X122955491Y-60834913D01*
X122818917Y-60778343D01*
X122818907Y-60778340D01*
X122673920Y-60749500D01*
X122673918Y-60749500D01*
X122474000Y-60749500D01*
X122406961Y-60729815D01*
X122361206Y-60677011D01*
X122350000Y-60625500D01*
X122350000Y-60480000D01*
X121465866Y-60480000D01*
X121441674Y-60477617D01*
X121426004Y-60474500D01*
X121426003Y-60474500D01*
X121385830Y-60474500D01*
X121400075Y-60460255D01*
X121449444Y-60374745D01*
X121475000Y-60279370D01*
X121475000Y-60180630D01*
X121449444Y-60085255D01*
X121400075Y-59999745D01*
X121380330Y-59980000D01*
X122350000Y-59980000D01*
X122350000Y-59657172D01*
X122349999Y-59657155D01*
X122343598Y-59597627D01*
X122343596Y-59597620D01*
X122293354Y-59462913D01*
X122293350Y-59462906D01*
X122207190Y-59347812D01*
X122207187Y-59347809D01*
X122092093Y-59261649D01*
X122092086Y-59261645D01*
X121957379Y-59211403D01*
X121957372Y-59211401D01*
X121897844Y-59205000D01*
X121350000Y-59205000D01*
X121350000Y-59949670D01*
X121330255Y-59929925D01*
X121244745Y-59880556D01*
X121149370Y-59855000D01*
X121050630Y-59855000D01*
X120955255Y-59880556D01*
X120869745Y-59929925D01*
X120850000Y-59949670D01*
X120850000Y-59205000D01*
X120302155Y-59205000D01*
X120242627Y-59211401D01*
X120242620Y-59211403D01*
X120107913Y-59261645D01*
X120107906Y-59261649D01*
X119992812Y-59347809D01*
X119992809Y-59347812D01*
X119906649Y-59462906D01*
X119906645Y-59462913D01*
X119856403Y-59597620D01*
X119856401Y-59597627D01*
X119850000Y-59657155D01*
X119850000Y-59980000D01*
X120819670Y-59980000D01*
X120799925Y-59999745D01*
X120750556Y-60085255D01*
X120725000Y-60180630D01*
X120725000Y-60279370D01*
X120750556Y-60374745D01*
X120799925Y-60460255D01*
X120814170Y-60474500D01*
X120773997Y-60474500D01*
X120773996Y-60474500D01*
X120758326Y-60477617D01*
X120734134Y-60480000D01*
X119850000Y-60480000D01*
X119850000Y-60802844D01*
X119856401Y-60862372D01*
X119856403Y-60862379D01*
X119906645Y-60997086D01*
X119907251Y-60997895D01*
X119907604Y-60998841D01*
X119910897Y-61004872D01*
X119910030Y-61005345D01*
X119931670Y-61063359D01*
X119922547Y-61119661D01*
X119888910Y-61200868D01*
X119888907Y-61200880D01*
X119849500Y-61398992D01*
X119849500Y-61601007D01*
X119888907Y-61799119D01*
X119888909Y-61799127D01*
X119966213Y-61985755D01*
X120019904Y-62066109D01*
X120040782Y-62132787D01*
X120022297Y-62200167D01*
X120019904Y-62203891D01*
X119966213Y-62284244D01*
X119888909Y-62470872D01*
X119888907Y-62470880D01*
X119849500Y-62668992D01*
X119849500Y-62871007D01*
X119888907Y-63069119D01*
X119888909Y-63069127D01*
X119966212Y-63255752D01*
X119966217Y-63255762D01*
X120078441Y-63423718D01*
X120221281Y-63566558D01*
X120389237Y-63678782D01*
X120389241Y-63678784D01*
X120389244Y-63678786D01*
X120575873Y-63756091D01*
X120773992Y-63795499D01*
X120773996Y-63795500D01*
X120773997Y-63795500D01*
X121426004Y-63795500D01*
X121426005Y-63795499D01*
X121624127Y-63756091D01*
X121810756Y-63678786D01*
X121978718Y-63566558D01*
X122121558Y-63423718D01*
X122233786Y-63255756D01*
X122311091Y-63069127D01*
X122350500Y-62871003D01*
X122350500Y-62668997D01*
X122341571Y-62624108D01*
X122347798Y-62554519D01*
X122390660Y-62499341D01*
X122456549Y-62476096D01*
X122524546Y-62492163D01*
X122550869Y-62512237D01*
X123313181Y-63274548D01*
X123346666Y-63335871D01*
X123349500Y-63362229D01*
X123349500Y-71437458D01*
X123329815Y-71504497D01*
X123277011Y-71550252D01*
X123212902Y-71560816D01*
X123200028Y-71559501D01*
X123200012Y-71559500D01*
X123200009Y-71559500D01*
X123200003Y-71559500D01*
X121999998Y-71559500D01*
X121999981Y-71559501D01*
X121897203Y-71570000D01*
X121897200Y-71570001D01*
X121730668Y-71625185D01*
X121730663Y-71625187D01*
X121581342Y-71717289D01*
X121457289Y-71841342D01*
X121365187Y-71990663D01*
X121365184Y-71990671D01*
X121353972Y-72024506D01*
X121314199Y-72081950D01*
X121249683Y-72108772D01*
X121236267Y-72109500D01*
X120038625Y-72109500D01*
X120009187Y-72100855D01*
X119979197Y-72094332D01*
X119974180Y-72090576D01*
X119971586Y-72089815D01*
X119950948Y-72073185D01*
X119876818Y-71999055D01*
X119843334Y-71937731D01*
X119840500Y-71911374D01*
X119840500Y-66636402D01*
X119842883Y-66612209D01*
X119850500Y-66573919D01*
X119850500Y-66426082D01*
X119850499Y-66426078D01*
X119830147Y-66323760D01*
X119821659Y-66281088D01*
X119780297Y-66181232D01*
X119765085Y-66144507D01*
X119721593Y-66079416D01*
X119682952Y-66021585D01*
X119682950Y-66021583D01*
X119682948Y-66021580D01*
X119682947Y-66021579D01*
X115108421Y-61447052D01*
X115108414Y-61447046D01*
X115016816Y-61385843D01*
X115016815Y-61385843D01*
X114985500Y-61364919D01*
X114985488Y-61364912D01*
X114848917Y-61308343D01*
X114848907Y-61308340D01*
X114720307Y-61282759D01*
X114658396Y-61250373D01*
X114623822Y-61189657D01*
X114620499Y-61161142D01*
X114620499Y-61132129D01*
X114620498Y-61132123D01*
X114620497Y-61132116D01*
X114614091Y-61072517D01*
X114610675Y-61063359D01*
X114563797Y-60937671D01*
X114563795Y-60937668D01*
X114548359Y-60917048D01*
X114486421Y-60834309D01*
X114462004Y-60768848D01*
X114476855Y-60700575D01*
X114486416Y-60685696D01*
X114563796Y-60582331D01*
X114614091Y-60447483D01*
X114620500Y-60387873D01*
X114620499Y-59462913D01*
X114620499Y-58592129D01*
X114620498Y-58592123D01*
X114620497Y-58592116D01*
X114614091Y-58532517D01*
X114563796Y-58397669D01*
X114486109Y-58293893D01*
X114461692Y-58228430D01*
X114476543Y-58160157D01*
X114486110Y-58145271D01*
X114563352Y-58042089D01*
X114563354Y-58042086D01*
X114613596Y-57907379D01*
X114613598Y-57907372D01*
X114619999Y-57847844D01*
X114620000Y-57847827D01*
X114620000Y-57200000D01*
X111914560Y-57200000D01*
X111945245Y-57146853D01*
X111980000Y-57017143D01*
X111980000Y-56882857D01*
X111945245Y-56753147D01*
X111914560Y-56700000D01*
X114620000Y-56700000D01*
X114620000Y-56052172D01*
X114619999Y-56052155D01*
X114613598Y-55992627D01*
X114613596Y-55992620D01*
X114563354Y-55857913D01*
X114563352Y-55857910D01*
X114486110Y-55754729D01*
X114461692Y-55689265D01*
X114476543Y-55620992D01*
X114486105Y-55606111D01*
X114563796Y-55502331D01*
X114614091Y-55367483D01*
X114620500Y-55307873D01*
X114620500Y-54958711D01*
X118509500Y-54958711D01*
X118509500Y-55201288D01*
X118541161Y-55441785D01*
X118603947Y-55676104D01*
X118679254Y-55857910D01*
X118696776Y-55900212D01*
X118818064Y-56110289D01*
X118818066Y-56110292D01*
X118818067Y-56110293D01*
X118965733Y-56302736D01*
X118965739Y-56302743D01*
X119137256Y-56474260D01*
X119137263Y-56474266D01*
X119225403Y-56541898D01*
X119329711Y-56621936D01*
X119539788Y-56743224D01*
X119763900Y-56836054D01*
X119998211Y-56898838D01*
X120178586Y-56922584D01*
X120238711Y-56930500D01*
X120238712Y-56930500D01*
X120481289Y-56930500D01*
X120529388Y-56924167D01*
X120721789Y-56898838D01*
X120956100Y-56836054D01*
X121180212Y-56743224D01*
X121390289Y-56621936D01*
X121582738Y-56474265D01*
X121754265Y-56302738D01*
X121901936Y-56110289D01*
X122023224Y-55900212D01*
X122116054Y-55676100D01*
X122178838Y-55441789D01*
X122210500Y-55201288D01*
X122210500Y-54958712D01*
X122206928Y-54931583D01*
X122178838Y-54718214D01*
X122178838Y-54718211D01*
X122116054Y-54483900D01*
X122023224Y-54259788D01*
X121901936Y-54049711D01*
X121754792Y-53857949D01*
X121754266Y-53857263D01*
X121754260Y-53857256D01*
X121582743Y-53685739D01*
X121582736Y-53685733D01*
X121390293Y-53538067D01*
X121390292Y-53538066D01*
X121390289Y-53538064D01*
X121180212Y-53416776D01*
X121142712Y-53401243D01*
X120956104Y-53323947D01*
X120721785Y-53261161D01*
X120481289Y-53229500D01*
X120481288Y-53229500D01*
X120238712Y-53229500D01*
X120238711Y-53229500D01*
X119998214Y-53261161D01*
X119763895Y-53323947D01*
X119539794Y-53416773D01*
X119539785Y-53416777D01*
X119329706Y-53538067D01*
X119137263Y-53685733D01*
X119137256Y-53685739D01*
X118965739Y-53857256D01*
X118965733Y-53857263D01*
X118818067Y-54049706D01*
X118696777Y-54259785D01*
X118696773Y-54259794D01*
X118603947Y-54483895D01*
X118541161Y-54718214D01*
X118509500Y-54958711D01*
X114620500Y-54958711D01*
X114620499Y-54374919D01*
X114620499Y-53512129D01*
X114620498Y-53512123D01*
X114620497Y-53512116D01*
X114614091Y-53452517D01*
X114600760Y-53416776D01*
X114563797Y-53317671D01*
X114563795Y-53317668D01*
X114543457Y-53290500D01*
X114486421Y-53214309D01*
X114462004Y-53148848D01*
X114476855Y-53080575D01*
X114486416Y-53065696D01*
X114563796Y-52962331D01*
X114614091Y-52827483D01*
X114620500Y-52767873D01*
X114620499Y-50972128D01*
X114614091Y-50912517D01*
X114604274Y-50886197D01*
X114563797Y-50777671D01*
X114563793Y-50777664D01*
X114477547Y-50662455D01*
X114477544Y-50662452D01*
X114362335Y-50576206D01*
X114362328Y-50576202D01*
X114227482Y-50525908D01*
X114227483Y-50525908D01*
X114167883Y-50519501D01*
X114167881Y-50519500D01*
X114167873Y-50519500D01*
X111576291Y-50519500D01*
X111576287Y-50519500D01*
X111363713Y-50519500D01*
X111363708Y-50519500D01*
X110572129Y-50519500D01*
X110572123Y-50519501D01*
X110512516Y-50525908D01*
X110377671Y-50576202D01*
X110377664Y-50576206D01*
X110262455Y-50662452D01*
X110262452Y-50662455D01*
X110176206Y-50777664D01*
X110176202Y-50777671D01*
X110125908Y-50912517D01*
X110123840Y-50931758D01*
X110119501Y-50972123D01*
X110119500Y-50972135D01*
X110119500Y-52767870D01*
X110119501Y-52767876D01*
X110125908Y-52827483D01*
X110176202Y-52962328D01*
X110176203Y-52962330D01*
X110253578Y-53065689D01*
X110277995Y-53131153D01*
X110263144Y-53199426D01*
X110253578Y-53214311D01*
X110176203Y-53317669D01*
X110176202Y-53317671D01*
X110125908Y-53452517D01*
X110119501Y-53512116D01*
X110119501Y-53512123D01*
X110119500Y-53512135D01*
X110119500Y-55307870D01*
X110119501Y-55307876D01*
X110125908Y-55367483D01*
X110176202Y-55502328D01*
X110176206Y-55502335D01*
X110253889Y-55606105D01*
X110278307Y-55671569D01*
X110263456Y-55739842D01*
X110253890Y-55754727D01*
X110176647Y-55857910D01*
X110176645Y-55857913D01*
X110126403Y-55992620D01*
X110126401Y-55992627D01*
X110120000Y-56052155D01*
X110120000Y-56700000D01*
X111025440Y-56700000D01*
X110994755Y-56753147D01*
X110960000Y-56882857D01*
X110960000Y-57017143D01*
X110994755Y-57146853D01*
X111025440Y-57200000D01*
X110120000Y-57200000D01*
X110120000Y-57847844D01*
X110126401Y-57907372D01*
X110126403Y-57907379D01*
X110176645Y-58042086D01*
X110176646Y-58042088D01*
X110253890Y-58145272D01*
X110278307Y-58210736D01*
X110263456Y-58279009D01*
X110253890Y-58293894D01*
X110176204Y-58397669D01*
X110176202Y-58397671D01*
X110125908Y-58532517D01*
X110119501Y-58592116D01*
X110119501Y-58592123D01*
X110119500Y-58592135D01*
X110119500Y-60387870D01*
X110119501Y-60387876D01*
X110125908Y-60447483D01*
X110176202Y-60582328D01*
X110176203Y-60582330D01*
X110176204Y-60582331D01*
X110247081Y-60677011D01*
X110253578Y-60685689D01*
X110277995Y-60751153D01*
X110263144Y-60819426D01*
X110253578Y-60834311D01*
X110176203Y-60937669D01*
X110176202Y-60937671D01*
X110125908Y-61072517D01*
X110125167Y-61079414D01*
X110119501Y-61132123D01*
X110119500Y-61132135D01*
X110119500Y-62927870D01*
X110119501Y-62927876D01*
X110125908Y-62987483D01*
X110176202Y-63122328D01*
X110176203Y-63122330D01*
X110210355Y-63167951D01*
X110248814Y-63219326D01*
X110253578Y-63225689D01*
X110277995Y-63291153D01*
X110263144Y-63359426D01*
X110253578Y-63374311D01*
X110176203Y-63477669D01*
X110176202Y-63477671D01*
X110125908Y-63612517D01*
X110119501Y-63672116D01*
X110119501Y-63672123D01*
X110119500Y-63672135D01*
X110119500Y-65467870D01*
X110119501Y-65467876D01*
X110125908Y-65527483D01*
X110176202Y-65662328D01*
X110176203Y-65662330D01*
X110253578Y-65765689D01*
X110277995Y-65831153D01*
X110263144Y-65899426D01*
X110253578Y-65914309D01*
X110250940Y-65917835D01*
X110176203Y-66017669D01*
X110176202Y-66017671D01*
X110125908Y-66152517D01*
X110120191Y-66205700D01*
X110119501Y-66212123D01*
X110119500Y-66212135D01*
X110119500Y-68007870D01*
X110119501Y-68007876D01*
X110125908Y-68067483D01*
X110176202Y-68202328D01*
X110176203Y-68202330D01*
X110253578Y-68305689D01*
X110277995Y-68371153D01*
X110263144Y-68439426D01*
X110253578Y-68454311D01*
X110176203Y-68557669D01*
X110176202Y-68557671D01*
X110125908Y-68692517D01*
X110119501Y-68752116D01*
X110119501Y-68752123D01*
X110119500Y-68752135D01*
X110119500Y-70547870D01*
X110119501Y-70547876D01*
X110125908Y-70607483D01*
X110176202Y-70742328D01*
X110176203Y-70742330D01*
X110253578Y-70845689D01*
X110277995Y-70911153D01*
X110263144Y-70979426D01*
X110253578Y-70994311D01*
X110176203Y-71097669D01*
X110176202Y-71097671D01*
X110125908Y-71232517D01*
X110121955Y-71269293D01*
X110119501Y-71292123D01*
X110119500Y-71292135D01*
X110119500Y-73087870D01*
X110119501Y-73087876D01*
X110125908Y-73147483D01*
X110176202Y-73282328D01*
X110176203Y-73282330D01*
X110253578Y-73385689D01*
X110277995Y-73451153D01*
X110263144Y-73519426D01*
X110253578Y-73534311D01*
X110176203Y-73637669D01*
X110176202Y-73637671D01*
X110125908Y-73772517D01*
X110120192Y-73825687D01*
X110119501Y-73832123D01*
X110119500Y-73832135D01*
X110119500Y-75627870D01*
X110119501Y-75627876D01*
X110125908Y-75687483D01*
X110176202Y-75822328D01*
X110176203Y-75822330D01*
X110253578Y-75925689D01*
X110277995Y-75991153D01*
X110263144Y-76059426D01*
X110253578Y-76074311D01*
X110176203Y-76177669D01*
X110176202Y-76177671D01*
X110125908Y-76312517D01*
X110119501Y-76372116D01*
X110119501Y-76372123D01*
X110119500Y-76372135D01*
X110119500Y-78167870D01*
X110119501Y-78167876D01*
X110125908Y-78227483D01*
X110176202Y-78362328D01*
X110176203Y-78362330D01*
X110253578Y-78465689D01*
X110277995Y-78531153D01*
X110263144Y-78599426D01*
X110253578Y-78614311D01*
X110176203Y-78717669D01*
X110176202Y-78717671D01*
X110125908Y-78852517D01*
X110120702Y-78900944D01*
X110119501Y-78912123D01*
X110119500Y-78912135D01*
X110119500Y-80707870D01*
X110119501Y-80707876D01*
X110125908Y-80767483D01*
X110176202Y-80902328D01*
X110176206Y-80902335D01*
X110253889Y-81006105D01*
X110278307Y-81071569D01*
X110263456Y-81139842D01*
X110253890Y-81154727D01*
X110176647Y-81257910D01*
X110176645Y-81257913D01*
X110126403Y-81392620D01*
X110126401Y-81392627D01*
X110120000Y-81452155D01*
X110120000Y-82100000D01*
X111025440Y-82100000D01*
X110994755Y-82153147D01*
X110960000Y-82282857D01*
X110960000Y-82417143D01*
X110994755Y-82546853D01*
X111025440Y-82600000D01*
X110120000Y-82600000D01*
X110120000Y-83247844D01*
X110126401Y-83307372D01*
X110126403Y-83307379D01*
X110176645Y-83442086D01*
X110176646Y-83442088D01*
X110253890Y-83545272D01*
X110278307Y-83610736D01*
X110263456Y-83679009D01*
X110253890Y-83693894D01*
X110176204Y-83797669D01*
X110176202Y-83797671D01*
X110125908Y-83932517D01*
X110119501Y-83992116D01*
X110119501Y-83992123D01*
X110119500Y-83992135D01*
X110119500Y-85787870D01*
X110119501Y-85787876D01*
X110125908Y-85847483D01*
X110176202Y-85982328D01*
X110176203Y-85982330D01*
X110253578Y-86085689D01*
X110277995Y-86151153D01*
X110263144Y-86219426D01*
X110253578Y-86234311D01*
X110176203Y-86337669D01*
X110176202Y-86337671D01*
X110125908Y-86472517D01*
X110119501Y-86532116D01*
X110119501Y-86532124D01*
X110119500Y-86532135D01*
X110119500Y-88327870D01*
X110119501Y-88327876D01*
X110125908Y-88387483D01*
X110176202Y-88522328D01*
X110176203Y-88522330D01*
X110253578Y-88625689D01*
X110277995Y-88691153D01*
X110263144Y-88759426D01*
X110253578Y-88774311D01*
X110176203Y-88877669D01*
X110176202Y-88877671D01*
X110125908Y-89012517D01*
X110119501Y-89072116D01*
X110119501Y-89072123D01*
X110119500Y-89072135D01*
X110119500Y-90867870D01*
X110119501Y-90867876D01*
X110125908Y-90927483D01*
X110176202Y-91062328D01*
X110176203Y-91062330D01*
X110253578Y-91165689D01*
X110277995Y-91231153D01*
X110263144Y-91299426D01*
X110253578Y-91314311D01*
X110176203Y-91417669D01*
X110176202Y-91417671D01*
X110125908Y-91552517D01*
X110119501Y-91612116D01*
X110119501Y-91612123D01*
X110119500Y-91612135D01*
X110119500Y-93407870D01*
X110119501Y-93407876D01*
X110125908Y-93467483D01*
X110176202Y-93602328D01*
X110176206Y-93602335D01*
X110253889Y-93706105D01*
X110278307Y-93771569D01*
X110263456Y-93839842D01*
X110253890Y-93854727D01*
X110176647Y-93957910D01*
X110176645Y-93957913D01*
X110126403Y-94092620D01*
X110126401Y-94092627D01*
X110120000Y-94152155D01*
X110120000Y-94800000D01*
X111025440Y-94800000D01*
X110994755Y-94853147D01*
X110960000Y-94982857D01*
X110960000Y-95117143D01*
X110994755Y-95246853D01*
X111025440Y-95300000D01*
X110120000Y-95300000D01*
X110120000Y-95947844D01*
X110126401Y-96007372D01*
X110126403Y-96007379D01*
X110176645Y-96142086D01*
X110176646Y-96142088D01*
X110253890Y-96245272D01*
X110278307Y-96310736D01*
X110263456Y-96379009D01*
X110253890Y-96393894D01*
X110176204Y-96497669D01*
X110176202Y-96497671D01*
X110125908Y-96632517D01*
X110120965Y-96678499D01*
X110119501Y-96692123D01*
X110119500Y-96692135D01*
X110119500Y-98487870D01*
X110119501Y-98487876D01*
X110125908Y-98547483D01*
X110176202Y-98682328D01*
X110176203Y-98682330D01*
X110253578Y-98785689D01*
X110277995Y-98851153D01*
X110263144Y-98919426D01*
X110253578Y-98934311D01*
X110176203Y-99037669D01*
X110176202Y-99037671D01*
X110125908Y-99172517D01*
X110119817Y-99229180D01*
X110119501Y-99232123D01*
X110119500Y-99232135D01*
X110119500Y-100367769D01*
X110099815Y-100434808D01*
X110083181Y-100455450D01*
X109017049Y-101521582D01*
X109003685Y-101541584D01*
X108934913Y-101644508D01*
X108878343Y-101781082D01*
X108878340Y-101781092D01*
X108849500Y-101926079D01*
X108849500Y-103125500D01*
X108829815Y-103192539D01*
X108777011Y-103238294D01*
X108725500Y-103249500D01*
X106214048Y-103249500D01*
X106147009Y-103229815D01*
X106101254Y-103177011D01*
X106091310Y-103107853D01*
X106120335Y-103044297D01*
X106170715Y-103009318D01*
X106212328Y-102993797D01*
X106212327Y-102993797D01*
X106212331Y-102993796D01*
X106327546Y-102907546D01*
X106413796Y-102792331D01*
X106464091Y-102657483D01*
X106470500Y-102597873D01*
X106470499Y-100006291D01*
X106470500Y-100006287D01*
X106470500Y-99793713D01*
X106470499Y-99793708D01*
X106470499Y-99002128D01*
X106464091Y-98942517D01*
X106461030Y-98934311D01*
X106413797Y-98807671D01*
X106413793Y-98807664D01*
X106327547Y-98692455D01*
X106327544Y-98692452D01*
X106212335Y-98606206D01*
X106212328Y-98606202D01*
X106077482Y-98555908D01*
X106077483Y-98555908D01*
X106017883Y-98549501D01*
X106017881Y-98549500D01*
X106017873Y-98549500D01*
X105226289Y-98549500D01*
X105226287Y-98549500D01*
X105013713Y-98549500D01*
X105013709Y-98549500D01*
X104222129Y-98549500D01*
X104222123Y-98549501D01*
X104162516Y-98555908D01*
X104027671Y-98606202D01*
X104027669Y-98606204D01*
X103923894Y-98683890D01*
X103858430Y-98708307D01*
X103790157Y-98693456D01*
X103775272Y-98683890D01*
X103672088Y-98606646D01*
X103672086Y-98606645D01*
X103537379Y-98556403D01*
X103537372Y-98556401D01*
X103477844Y-98550000D01*
X102830000Y-98550000D01*
X102830000Y-99455439D01*
X102776853Y-99424755D01*
X102647143Y-99390000D01*
X102512857Y-99390000D01*
X102383147Y-99424755D01*
X102330000Y-99455439D01*
X102330000Y-98550000D01*
X101682155Y-98550000D01*
X101622627Y-98556401D01*
X101622620Y-98556403D01*
X101487913Y-98606645D01*
X101487910Y-98606647D01*
X101384727Y-98683890D01*
X101319262Y-98708307D01*
X101250989Y-98693455D01*
X101236105Y-98683889D01*
X101132335Y-98606206D01*
X101132328Y-98606202D01*
X100997482Y-98555908D01*
X100997483Y-98555908D01*
X100937883Y-98549501D01*
X100937881Y-98549500D01*
X100937873Y-98549500D01*
X100146289Y-98549500D01*
X100146287Y-98549500D01*
X99933713Y-98549500D01*
X99933709Y-98549500D01*
X99142129Y-98549500D01*
X99142123Y-98549501D01*
X99082516Y-98555908D01*
X98947671Y-98606202D01*
X98947664Y-98606206D01*
X98832455Y-98692452D01*
X98832452Y-98692455D01*
X98746206Y-98807664D01*
X98746202Y-98807671D01*
X98695908Y-98942517D01*
X98689501Y-99002116D01*
X98689501Y-99002123D01*
X98689500Y-99002135D01*
X98689500Y-102597870D01*
X98689501Y-102597876D01*
X98695908Y-102657483D01*
X98746202Y-102792328D01*
X98746206Y-102792335D01*
X98832452Y-102907544D01*
X98832455Y-102907547D01*
X98947664Y-102993793D01*
X98947671Y-102993797D01*
X99082517Y-103044091D01*
X99082516Y-103044091D01*
X99089444Y-103044835D01*
X99142127Y-103050500D01*
X99307757Y-103050499D01*
X99374794Y-103070183D01*
X99420549Y-103122987D01*
X99430493Y-103192145D01*
X99401468Y-103255701D01*
X99355209Y-103289060D01*
X99244504Y-103334916D01*
X99244498Y-103334919D01*
X99121584Y-103417048D01*
X99121580Y-103417051D01*
X96917045Y-105621586D01*
X96896271Y-105652678D01*
X96887983Y-105665084D01*
X96883878Y-105671228D01*
X96834914Y-105744507D01*
X96778344Y-105881081D01*
X96778342Y-105881087D01*
X96749500Y-106026079D01*
X96749500Y-109834582D01*
X96729815Y-109901621D01*
X96698385Y-109934900D01*
X96652787Y-109968028D01*
X96652782Y-109968032D01*
X96508028Y-110112786D01*
X96387715Y-110278386D01*
X96294781Y-110460776D01*
X96231522Y-110655465D01*
X96199500Y-110857648D01*
X96199500Y-111062351D01*
X96231522Y-111264534D01*
X96294781Y-111459223D01*
X96357825Y-111582951D01*
X96385756Y-111637770D01*
X96387715Y-111641613D01*
X96508028Y-111807213D01*
X96652780Y-111951965D01*
X96753554Y-112025181D01*
X96796220Y-112080511D01*
X96802199Y-112150125D01*
X96769594Y-112211920D01*
X96708755Y-112246277D01*
X96680669Y-112249500D01*
X86462229Y-112249500D01*
X86395190Y-112229815D01*
X86374548Y-112213181D01*
X85886819Y-111725451D01*
X85853334Y-111664128D01*
X85850500Y-111637770D01*
X85850500Y-108581066D01*
X85870185Y-108514027D01*
X85922989Y-108468272D01*
X85992147Y-108458328D01*
X86055703Y-108487353D01*
X86093477Y-108546131D01*
X86096973Y-108561668D01*
X86119059Y-108701118D01*
X86177454Y-108880836D01*
X86263240Y-109049199D01*
X86374310Y-109202073D01*
X86507927Y-109335690D01*
X86660801Y-109446760D01*
X86740347Y-109487290D01*
X86829163Y-109532545D01*
X86829165Y-109532545D01*
X86829168Y-109532547D01*
X86925497Y-109563846D01*
X87008881Y-109590940D01*
X87195514Y-109620500D01*
X87195519Y-109620500D01*
X87384486Y-109620500D01*
X87571118Y-109590940D01*
X87750832Y-109532547D01*
X87919199Y-109446760D01*
X88072073Y-109335690D01*
X88205690Y-109202073D01*
X88316760Y-109049199D01*
X88402547Y-108880832D01*
X88460940Y-108701118D01*
X88490500Y-108514486D01*
X88490500Y-108332229D01*
X88510185Y-108265190D01*
X88526819Y-108244548D01*
X91383598Y-105387770D01*
X94272952Y-102498416D01*
X94340079Y-102397951D01*
X94355084Y-102375495D01*
X94411658Y-102238913D01*
X94440500Y-102093918D01*
X94440500Y-101604499D01*
X94460185Y-101537460D01*
X94512989Y-101491705D01*
X94564500Y-101480499D01*
X94587871Y-101480499D01*
X94587872Y-101480499D01*
X94647483Y-101474091D01*
X94782331Y-101423796D01*
X94897546Y-101337546D01*
X94983796Y-101222331D01*
X95034091Y-101087483D01*
X95040500Y-101027873D01*
X95040500Y-100135908D01*
X95040500Y-100023713D01*
X95040500Y-100016118D01*
X95040499Y-100016100D01*
X95040499Y-99232129D01*
X95040498Y-99232123D01*
X95040497Y-99232116D01*
X95034091Y-99172517D01*
X95025142Y-99148524D01*
X94983797Y-99037671D01*
X94983795Y-99037668D01*
X94906421Y-98934309D01*
X94882004Y-98868848D01*
X94896855Y-98800575D01*
X94906416Y-98785696D01*
X94983796Y-98682331D01*
X95034091Y-98547483D01*
X95040500Y-98487873D01*
X95040500Y-97644505D01*
X95040500Y-97483713D01*
X95040500Y-97476118D01*
X95040499Y-97476100D01*
X95040499Y-96692129D01*
X95040498Y-96692123D01*
X95040497Y-96692116D01*
X95034091Y-96632517D01*
X95034034Y-96632365D01*
X94983797Y-96497671D01*
X94983795Y-96497668D01*
X94969782Y-96478949D01*
X94906421Y-96394309D01*
X94882004Y-96328848D01*
X94896855Y-96260575D01*
X94906416Y-96245696D01*
X94983796Y-96142331D01*
X95034091Y-96007483D01*
X95040500Y-95947873D01*
X95040499Y-94152128D01*
X95034091Y-94092517D01*
X95001666Y-94005582D01*
X94983797Y-93957671D01*
X94983795Y-93957668D01*
X94960150Y-93926082D01*
X94906421Y-93854309D01*
X94882004Y-93788848D01*
X94896855Y-93720575D01*
X94906416Y-93705696D01*
X94983796Y-93602331D01*
X95034091Y-93467483D01*
X95040500Y-93407873D01*
X95040500Y-92573917D01*
X95040500Y-92403713D01*
X95040500Y-92396118D01*
X95040499Y-92396100D01*
X95040499Y-91612129D01*
X95040498Y-91612123D01*
X95040497Y-91612116D01*
X95034091Y-91552517D01*
X94983796Y-91417669D01*
X94906421Y-91314309D01*
X94882004Y-91248848D01*
X94896855Y-91180575D01*
X94906416Y-91165696D01*
X94983796Y-91062331D01*
X95034091Y-90927483D01*
X95040500Y-90867873D01*
X95040500Y-89975908D01*
X95040500Y-89863713D01*
X95040500Y-89856118D01*
X95040499Y-89856100D01*
X95040499Y-89072129D01*
X95040498Y-89072123D01*
X95040497Y-89072116D01*
X95034091Y-89012517D01*
X94995544Y-88909168D01*
X94983797Y-88877671D01*
X94983795Y-88877668D01*
X94906421Y-88774309D01*
X94882004Y-88708848D01*
X94896855Y-88640575D01*
X94906416Y-88625696D01*
X94983796Y-88522331D01*
X95034091Y-88387483D01*
X95040500Y-88327873D01*
X95040500Y-87435908D01*
X95040500Y-87323713D01*
X95040500Y-87316118D01*
X95040499Y-87316100D01*
X95040499Y-86532129D01*
X95040499Y-86532127D01*
X95034091Y-86472517D01*
X94983796Y-86337669D01*
X94906421Y-86234309D01*
X94882004Y-86168848D01*
X94896855Y-86100575D01*
X94906416Y-86085696D01*
X94983796Y-85982331D01*
X95034091Y-85847483D01*
X95040500Y-85787873D01*
X95040500Y-84900500D01*
X95040500Y-84783713D01*
X95040500Y-84776118D01*
X95040499Y-84776100D01*
X95040499Y-83992129D01*
X95040498Y-83992123D01*
X95040497Y-83992116D01*
X95034091Y-83932517D01*
X95031691Y-83926083D01*
X94983797Y-83797671D01*
X94983795Y-83797668D01*
X94971383Y-83781088D01*
X94906109Y-83693893D01*
X94881692Y-83628430D01*
X94896543Y-83560157D01*
X94906110Y-83545271D01*
X94983352Y-83442089D01*
X94983354Y-83442086D01*
X95033596Y-83307379D01*
X95033598Y-83307372D01*
X95039999Y-83247844D01*
X95040000Y-83247827D01*
X95040000Y-82600000D01*
X94134560Y-82600000D01*
X94165245Y-82546853D01*
X94200000Y-82417143D01*
X94200000Y-82282857D01*
X94165245Y-82153147D01*
X94134560Y-82100000D01*
X95040000Y-82100000D01*
X95040000Y-81452172D01*
X95039999Y-81452155D01*
X95033598Y-81392627D01*
X95033596Y-81392620D01*
X94983354Y-81257913D01*
X94983352Y-81257910D01*
X94906110Y-81154729D01*
X94881692Y-81089265D01*
X94896543Y-81020992D01*
X94906105Y-81006111D01*
X94983796Y-80902331D01*
X95034091Y-80767483D01*
X95040500Y-80707873D01*
X95040500Y-79814916D01*
X95040500Y-79703713D01*
X95040500Y-79696118D01*
X95040499Y-79696100D01*
X95040499Y-78912129D01*
X95040498Y-78912123D01*
X95040497Y-78912116D01*
X95034091Y-78852517D01*
X95022606Y-78821725D01*
X94983797Y-78717671D01*
X94983795Y-78717668D01*
X94906421Y-78614309D01*
X94882004Y-78548848D01*
X94896855Y-78480575D01*
X94906416Y-78465696D01*
X94983796Y-78362331D01*
X95034091Y-78227483D01*
X95040500Y-78167873D01*
X95040500Y-77281088D01*
X95040500Y-77163713D01*
X95040500Y-77156118D01*
X95040499Y-77156100D01*
X95040499Y-76372129D01*
X95040498Y-76372123D01*
X95040497Y-76372116D01*
X95034091Y-76312517D01*
X94991546Y-76198449D01*
X94983797Y-76177671D01*
X94983795Y-76177668D01*
X94906421Y-76074309D01*
X94882004Y-76008848D01*
X94896855Y-75940575D01*
X94906416Y-75925696D01*
X94983796Y-75822331D01*
X95034091Y-75687483D01*
X95040500Y-75627873D01*
X95040500Y-74734916D01*
X95040500Y-74623713D01*
X95040500Y-74616118D01*
X95040499Y-74616100D01*
X95040499Y-73832129D01*
X95040498Y-73832123D01*
X95040497Y-73832116D01*
X95034091Y-73772517D01*
X95033294Y-73770381D01*
X94983797Y-73637671D01*
X94983795Y-73637668D01*
X94906421Y-73534309D01*
X94882004Y-73468848D01*
X94896855Y-73400575D01*
X94906416Y-73385696D01*
X94983796Y-73282331D01*
X95034091Y-73147483D01*
X95040500Y-73087873D01*
X95040500Y-72194916D01*
X95040500Y-72083713D01*
X95040500Y-72076118D01*
X95040499Y-72076100D01*
X95040499Y-71292129D01*
X95040498Y-71292123D01*
X95040497Y-71292116D01*
X95034091Y-71232517D01*
X95024012Y-71205495D01*
X94983797Y-71097671D01*
X94983795Y-71097668D01*
X94906421Y-70994309D01*
X94882004Y-70928848D01*
X94896855Y-70860575D01*
X94906416Y-70845696D01*
X94983796Y-70742331D01*
X95034091Y-70607483D01*
X95040500Y-70547873D01*
X95040499Y-68752128D01*
X95034091Y-68692517D01*
X95019115Y-68652365D01*
X94983797Y-68557671D01*
X94983795Y-68557668D01*
X94906421Y-68454309D01*
X94882004Y-68388848D01*
X94896855Y-68320575D01*
X94906416Y-68305696D01*
X94983796Y-68202331D01*
X95034091Y-68067483D01*
X95040500Y-68007873D01*
X95040500Y-67134092D01*
X95040500Y-67003713D01*
X95040500Y-66996118D01*
X95040499Y-66996100D01*
X95040499Y-66212129D01*
X95040498Y-66212123D01*
X95040497Y-66212116D01*
X95034091Y-66152517D01*
X95033290Y-66150370D01*
X94983797Y-66017671D01*
X94983795Y-66017668D01*
X94970636Y-66000090D01*
X94906421Y-65914309D01*
X94882004Y-65848848D01*
X94896855Y-65780575D01*
X94906416Y-65765696D01*
X94983796Y-65662331D01*
X95034091Y-65527483D01*
X95040500Y-65467873D01*
X95040500Y-64574035D01*
X95040500Y-64463713D01*
X95040500Y-64456118D01*
X95040499Y-64456100D01*
X95040499Y-63672129D01*
X95040498Y-63672123D01*
X95040497Y-63672116D01*
X95034091Y-63612517D01*
X95016949Y-63566558D01*
X94983797Y-63477671D01*
X94983795Y-63477668D01*
X94943408Y-63423718D01*
X94906421Y-63374309D01*
X94882004Y-63308848D01*
X94896855Y-63240575D01*
X94906416Y-63225696D01*
X94983796Y-63122331D01*
X95034091Y-62987483D01*
X95040500Y-62927873D01*
X95040500Y-62058099D01*
X95040500Y-61923713D01*
X95040500Y-61916118D01*
X95040499Y-61916100D01*
X95040499Y-61132129D01*
X95040498Y-61132123D01*
X95040497Y-61132116D01*
X95034091Y-61072517D01*
X95030675Y-61063359D01*
X94983797Y-60937671D01*
X94983795Y-60937668D01*
X94968359Y-60917048D01*
X94906421Y-60834309D01*
X94882004Y-60768848D01*
X94896855Y-60700575D01*
X94906416Y-60685696D01*
X94983796Y-60582331D01*
X95034091Y-60447483D01*
X95040500Y-60387873D01*
X95040500Y-59501698D01*
X95040500Y-59383713D01*
X95040500Y-59376118D01*
X95040499Y-59376100D01*
X95040499Y-58592129D01*
X95040498Y-58592123D01*
X95040497Y-58592116D01*
X95034091Y-58532517D01*
X94983796Y-58397669D01*
X94906109Y-58293893D01*
X94881692Y-58228430D01*
X94896543Y-58160157D01*
X94906110Y-58145271D01*
X94983352Y-58042089D01*
X94983354Y-58042086D01*
X95033596Y-57907379D01*
X95033598Y-57907372D01*
X95039999Y-57847844D01*
X95040000Y-57847827D01*
X95040000Y-57200000D01*
X94134560Y-57200000D01*
X94165245Y-57146853D01*
X94200000Y-57017143D01*
X94200000Y-56882857D01*
X94165245Y-56753147D01*
X94134560Y-56700000D01*
X95040000Y-56700000D01*
X95040000Y-56052172D01*
X95039999Y-56052155D01*
X95033598Y-55992627D01*
X95033596Y-55992620D01*
X94983354Y-55857913D01*
X94983352Y-55857910D01*
X94906110Y-55754729D01*
X94881692Y-55689265D01*
X94896543Y-55620992D01*
X94906105Y-55606111D01*
X94983796Y-55502331D01*
X95034091Y-55367483D01*
X95040500Y-55307873D01*
X95040500Y-54931577D01*
X98904500Y-54931577D01*
X98904500Y-55128422D01*
X98935290Y-55322826D01*
X98996117Y-55510029D01*
X99050900Y-55617546D01*
X99085476Y-55685405D01*
X99201172Y-55844646D01*
X99340354Y-55983828D01*
X99499595Y-56099524D01*
X99568269Y-56134515D01*
X99674970Y-56188882D01*
X99674972Y-56188882D01*
X99674975Y-56188884D01*
X99775317Y-56221487D01*
X99862173Y-56249709D01*
X100056578Y-56280500D01*
X100056583Y-56280500D01*
X100253422Y-56280500D01*
X100447826Y-56249709D01*
X100635025Y-56188884D01*
X100810405Y-56099524D01*
X100969646Y-55983828D01*
X101108828Y-55844646D01*
X101224524Y-55685405D01*
X101313884Y-55510025D01*
X101374709Y-55322826D01*
X101377077Y-55307873D01*
X101405500Y-55128422D01*
X101405500Y-54931577D01*
X103754500Y-54931577D01*
X103754500Y-55128422D01*
X103785290Y-55322826D01*
X103846117Y-55510029D01*
X103900900Y-55617546D01*
X103935476Y-55685405D01*
X104051172Y-55844646D01*
X104190354Y-55983828D01*
X104349595Y-56099524D01*
X104418269Y-56134515D01*
X104524970Y-56188882D01*
X104524972Y-56188882D01*
X104524975Y-56188884D01*
X104625317Y-56221487D01*
X104712173Y-56249709D01*
X104906578Y-56280500D01*
X104906583Y-56280500D01*
X105103422Y-56280500D01*
X105297826Y-56249709D01*
X105485025Y-56188884D01*
X105660405Y-56099524D01*
X105819646Y-55983828D01*
X105958828Y-55844646D01*
X106074524Y-55685405D01*
X106163884Y-55510025D01*
X106224709Y-55322826D01*
X106227077Y-55307873D01*
X106255500Y-55128422D01*
X106255500Y-54931577D01*
X106224709Y-54737173D01*
X106163882Y-54549970D01*
X106074689Y-54374919D01*
X106074524Y-54374595D01*
X105958828Y-54215354D01*
X105819646Y-54076172D01*
X105660405Y-53960476D01*
X105485029Y-53871117D01*
X105297826Y-53810290D01*
X105103422Y-53779500D01*
X105103417Y-53779500D01*
X104906583Y-53779500D01*
X104906578Y-53779500D01*
X104712173Y-53810290D01*
X104524970Y-53871117D01*
X104349594Y-53960476D01*
X104265486Y-54021585D01*
X104190354Y-54076172D01*
X104190352Y-54076174D01*
X104190351Y-54076174D01*
X104051174Y-54215351D01*
X104051174Y-54215352D01*
X104051172Y-54215354D01*
X104018891Y-54259785D01*
X103935476Y-54374594D01*
X103846117Y-54549970D01*
X103785290Y-54737173D01*
X103754500Y-54931577D01*
X101405500Y-54931577D01*
X101374709Y-54737173D01*
X101313882Y-54549970D01*
X101224689Y-54374919D01*
X101224524Y-54374595D01*
X101108828Y-54215354D01*
X100969646Y-54076172D01*
X100810405Y-53960476D01*
X100635029Y-53871117D01*
X100447826Y-53810290D01*
X100253422Y-53779500D01*
X100253417Y-53779500D01*
X100056583Y-53779500D01*
X100056578Y-53779500D01*
X99862173Y-53810290D01*
X99674970Y-53871117D01*
X99499594Y-53960476D01*
X99415486Y-54021585D01*
X99340354Y-54076172D01*
X99340352Y-54076174D01*
X99340351Y-54076174D01*
X99201174Y-54215351D01*
X99201174Y-54215352D01*
X99201172Y-54215354D01*
X99168891Y-54259785D01*
X99085476Y-54374594D01*
X98996117Y-54549970D01*
X98935290Y-54737173D01*
X98904500Y-54931577D01*
X95040500Y-54931577D01*
X95040500Y-54426082D01*
X95040500Y-54303713D01*
X95040500Y-54296118D01*
X95040499Y-54296100D01*
X95040499Y-53512129D01*
X95040498Y-53512123D01*
X95040497Y-53512116D01*
X95034091Y-53452517D01*
X95020760Y-53416776D01*
X94983797Y-53317671D01*
X94983795Y-53317668D01*
X94963457Y-53290500D01*
X94906421Y-53214309D01*
X94882004Y-53148848D01*
X94896855Y-53080575D01*
X94906416Y-53065696D01*
X94983796Y-52962331D01*
X95034091Y-52827483D01*
X95040500Y-52767873D01*
X95040500Y-51889778D01*
X98454500Y-51889778D01*
X98454500Y-52110221D01*
X98488985Y-52327952D01*
X98557103Y-52537603D01*
X98557104Y-52537606D01*
X98657187Y-52734025D01*
X98786752Y-52912358D01*
X98786756Y-52912363D01*
X98942636Y-53068243D01*
X98942641Y-53068247D01*
X99029225Y-53131153D01*
X99120978Y-53197815D01*
X99219514Y-53248022D01*
X99317393Y-53297895D01*
X99317396Y-53297896D01*
X99355219Y-53310185D01*
X99527049Y-53366015D01*
X99744778Y-53400500D01*
X99744779Y-53400500D01*
X99965221Y-53400500D01*
X99965222Y-53400500D01*
X100182951Y-53366015D01*
X100392606Y-53297895D01*
X100589022Y-53197815D01*
X100767365Y-53068242D01*
X100923242Y-52912365D01*
X101052815Y-52734022D01*
X101152895Y-52537606D01*
X101221015Y-52327951D01*
X101255500Y-52110222D01*
X101255500Y-51889778D01*
X103904500Y-51889778D01*
X103904500Y-52110221D01*
X103938985Y-52327952D01*
X104007103Y-52537603D01*
X104007104Y-52537606D01*
X104107187Y-52734025D01*
X104236752Y-52912358D01*
X104236756Y-52912363D01*
X104392636Y-53068243D01*
X104392641Y-53068247D01*
X104479225Y-53131153D01*
X104570978Y-53197815D01*
X104669514Y-53248022D01*
X104767393Y-53297895D01*
X104767396Y-53297896D01*
X104805219Y-53310185D01*
X104977049Y-53366015D01*
X105194778Y-53400500D01*
X105194779Y-53400500D01*
X105415221Y-53400500D01*
X105415222Y-53400500D01*
X105632951Y-53366015D01*
X105842606Y-53297895D01*
X106039022Y-53197815D01*
X106217365Y-53068242D01*
X106373242Y-52912365D01*
X106502815Y-52734022D01*
X106602895Y-52537606D01*
X106671015Y-52327951D01*
X106705500Y-52110222D01*
X106705500Y-51889778D01*
X106671015Y-51672049D01*
X106602895Y-51462394D01*
X106602895Y-51462393D01*
X106505327Y-51270909D01*
X106502815Y-51265978D01*
X106391891Y-51113303D01*
X106373247Y-51087641D01*
X106373243Y-51087636D01*
X106217363Y-50931756D01*
X106217358Y-50931752D01*
X106039025Y-50802187D01*
X106039024Y-50802186D01*
X106039022Y-50802185D01*
X105976096Y-50770122D01*
X105842606Y-50702104D01*
X105842603Y-50702103D01*
X105632952Y-50633985D01*
X105524086Y-50616742D01*
X105415222Y-50599500D01*
X105194778Y-50599500D01*
X105122201Y-50610995D01*
X104977047Y-50633985D01*
X104767396Y-50702103D01*
X104767393Y-50702104D01*
X104570974Y-50802187D01*
X104392641Y-50931752D01*
X104392636Y-50931756D01*
X104236756Y-51087636D01*
X104236752Y-51087641D01*
X104107187Y-51265974D01*
X104007104Y-51462393D01*
X104007103Y-51462396D01*
X103938985Y-51672047D01*
X103904500Y-51889778D01*
X101255500Y-51889778D01*
X101221015Y-51672049D01*
X101152895Y-51462394D01*
X101152895Y-51462393D01*
X101055327Y-51270909D01*
X101052815Y-51265978D01*
X100941891Y-51113303D01*
X100923247Y-51087641D01*
X100923243Y-51087636D01*
X100767363Y-50931756D01*
X100767358Y-50931752D01*
X100589025Y-50802187D01*
X100589024Y-50802186D01*
X100589022Y-50802185D01*
X100526096Y-50770122D01*
X100392606Y-50702104D01*
X100392603Y-50702103D01*
X100182952Y-50633985D01*
X100074086Y-50616742D01*
X99965222Y-50599500D01*
X99744778Y-50599500D01*
X99672201Y-50610995D01*
X99527047Y-50633985D01*
X99317396Y-50702103D01*
X99317393Y-50702104D01*
X99120974Y-50802187D01*
X98942641Y-50931752D01*
X98942636Y-50931756D01*
X98786756Y-51087636D01*
X98786752Y-51087641D01*
X98657187Y-51265974D01*
X98557104Y-51462393D01*
X98557103Y-51462396D01*
X98488985Y-51672047D01*
X98454500Y-51889778D01*
X95040500Y-51889778D01*
X95040500Y-51874916D01*
X95040500Y-51763713D01*
X95040499Y-51763709D01*
X95040499Y-50972128D01*
X95034091Y-50912517D01*
X95024274Y-50886197D01*
X94983797Y-50777671D01*
X94983793Y-50777664D01*
X94897547Y-50662455D01*
X94897544Y-50662452D01*
X94782335Y-50576206D01*
X94782328Y-50576202D01*
X94647482Y-50525908D01*
X94647483Y-50525908D01*
X94587883Y-50519501D01*
X94587881Y-50519500D01*
X94587873Y-50519500D01*
X93796288Y-50519500D01*
X93796287Y-50519500D01*
X93583713Y-50519500D01*
X93583711Y-50519500D01*
X90992129Y-50519500D01*
X90992123Y-50519501D01*
X90932516Y-50525908D01*
X90797671Y-50576202D01*
X90797664Y-50576206D01*
X90682455Y-50662452D01*
X90682452Y-50662455D01*
X90596206Y-50777664D01*
X90596202Y-50777671D01*
X90545908Y-50912517D01*
X90543840Y-50931758D01*
X90539501Y-50972123D01*
X90539500Y-50972135D01*
X90539500Y-52767870D01*
X90539501Y-52767876D01*
X90545908Y-52827483D01*
X90596202Y-52962328D01*
X90596203Y-52962330D01*
X90673578Y-53065689D01*
X90697995Y-53131153D01*
X90683144Y-53199426D01*
X90673578Y-53214311D01*
X90596203Y-53317669D01*
X90596202Y-53317671D01*
X90545908Y-53452517D01*
X90539501Y-53512116D01*
X90539501Y-53512123D01*
X90539500Y-53512135D01*
X90539500Y-55307870D01*
X90539501Y-55307876D01*
X90545908Y-55367483D01*
X90596202Y-55502328D01*
X90596206Y-55502335D01*
X90673889Y-55606105D01*
X90698307Y-55671569D01*
X90683456Y-55739842D01*
X90673890Y-55754727D01*
X90596647Y-55857910D01*
X90596645Y-55857913D01*
X90546403Y-55992620D01*
X90546401Y-55992627D01*
X90540000Y-56052155D01*
X90540000Y-56700000D01*
X93245440Y-56700000D01*
X93214755Y-56753147D01*
X93180000Y-56882857D01*
X93180000Y-57017143D01*
X93214755Y-57146853D01*
X93245440Y-57200000D01*
X90540000Y-57200000D01*
X90540000Y-57847844D01*
X90546401Y-57907372D01*
X90546403Y-57907379D01*
X90596645Y-58042086D01*
X90596646Y-58042088D01*
X90673890Y-58145272D01*
X90698307Y-58210736D01*
X90683456Y-58279009D01*
X90673890Y-58293894D01*
X90596204Y-58397669D01*
X90596202Y-58397671D01*
X90545908Y-58532517D01*
X90539501Y-58592116D01*
X90539501Y-58592123D01*
X90539500Y-58592135D01*
X90539500Y-60387870D01*
X90539501Y-60387876D01*
X90545908Y-60447483D01*
X90596202Y-60582328D01*
X90596203Y-60582330D01*
X90596204Y-60582331D01*
X90667081Y-60677011D01*
X90673578Y-60685689D01*
X90697995Y-60751153D01*
X90683144Y-60819426D01*
X90673578Y-60834311D01*
X90596203Y-60937669D01*
X90596202Y-60937671D01*
X90545908Y-61072517D01*
X90545167Y-61079414D01*
X90539501Y-61132123D01*
X90539500Y-61132135D01*
X90539500Y-62927870D01*
X90539501Y-62927876D01*
X90545908Y-62987483D01*
X90596202Y-63122328D01*
X90596203Y-63122330D01*
X90630355Y-63167951D01*
X90668814Y-63219326D01*
X90673578Y-63225689D01*
X90697995Y-63291153D01*
X90683144Y-63359426D01*
X90673578Y-63374311D01*
X90596203Y-63477669D01*
X90596202Y-63477671D01*
X90545908Y-63612517D01*
X90539501Y-63672116D01*
X90539501Y-63672123D01*
X90539500Y-63672135D01*
X90539500Y-65467870D01*
X90539501Y-65467876D01*
X90545908Y-65527483D01*
X90596202Y-65662328D01*
X90596203Y-65662330D01*
X90673578Y-65765689D01*
X90697995Y-65831153D01*
X90683144Y-65899426D01*
X90673578Y-65914309D01*
X90670940Y-65917835D01*
X90596203Y-66017669D01*
X90596202Y-66017671D01*
X90545908Y-66152517D01*
X90540191Y-66205700D01*
X90539501Y-66212123D01*
X90539500Y-66212135D01*
X90539500Y-68007870D01*
X90539501Y-68007876D01*
X90545908Y-68067483D01*
X90596202Y-68202328D01*
X90596203Y-68202330D01*
X90673578Y-68305689D01*
X90697995Y-68371153D01*
X90683144Y-68439426D01*
X90673578Y-68454311D01*
X90596203Y-68557669D01*
X90596202Y-68557671D01*
X90545908Y-68692517D01*
X90539501Y-68752116D01*
X90539501Y-68752123D01*
X90539500Y-68752135D01*
X90539500Y-70547870D01*
X90539501Y-70547876D01*
X90545908Y-70607483D01*
X90596202Y-70742328D01*
X90596203Y-70742330D01*
X90673578Y-70845689D01*
X90697995Y-70911153D01*
X90683144Y-70979426D01*
X90673578Y-70994311D01*
X90596203Y-71097669D01*
X90596202Y-71097671D01*
X90545908Y-71232517D01*
X90541955Y-71269293D01*
X90539501Y-71292123D01*
X90539500Y-71292135D01*
X90539500Y-73087870D01*
X90539501Y-73087876D01*
X90545908Y-73147483D01*
X90596202Y-73282328D01*
X90596203Y-73282330D01*
X90673578Y-73385689D01*
X90697995Y-73451153D01*
X90683144Y-73519426D01*
X90673578Y-73534311D01*
X90596203Y-73637669D01*
X90596202Y-73637671D01*
X90545908Y-73772517D01*
X90540192Y-73825687D01*
X90539501Y-73832123D01*
X90539500Y-73832135D01*
X90539500Y-75627870D01*
X90539501Y-75627876D01*
X90545908Y-75687483D01*
X90596202Y-75822328D01*
X90596203Y-75822330D01*
X90673578Y-75925689D01*
X90697995Y-75991153D01*
X90683144Y-76059426D01*
X90673578Y-76074311D01*
X90596203Y-76177669D01*
X90596202Y-76177671D01*
X90545908Y-76312517D01*
X90539501Y-76372116D01*
X90539501Y-76372123D01*
X90539500Y-76372135D01*
X90539500Y-78167870D01*
X90539501Y-78167876D01*
X90545908Y-78227483D01*
X90596202Y-78362328D01*
X90596203Y-78362330D01*
X90673578Y-78465689D01*
X90697995Y-78531153D01*
X90683144Y-78599426D01*
X90673578Y-78614311D01*
X90596203Y-78717669D01*
X90596202Y-78717671D01*
X90545908Y-78852517D01*
X90540702Y-78900944D01*
X90539501Y-78912123D01*
X90539500Y-78912135D01*
X90539500Y-80183615D01*
X90538175Y-80188125D01*
X90539165Y-80192719D01*
X90528424Y-80221332D01*
X90519815Y-80250654D01*
X90516263Y-80253731D01*
X90514612Y-80258132D01*
X90490102Y-80276399D01*
X90467011Y-80296409D01*
X90462360Y-80297077D01*
X90458591Y-80299887D01*
X90428100Y-80302003D01*
X90397853Y-80306353D01*
X90393577Y-80304400D01*
X90388889Y-80304726D01*
X90362098Y-80290024D01*
X90334297Y-80277328D01*
X90330612Y-80272746D01*
X90327636Y-80271113D01*
X90319569Y-80259013D01*
X90306544Y-80242815D01*
X90303436Y-80237095D01*
X90277908Y-80175466D01*
X90265084Y-80144505D01*
X90204245Y-80053453D01*
X90201095Y-80048738D01*
X90201092Y-80048733D01*
X90182955Y-80021590D01*
X90182952Y-80021585D01*
X87926473Y-77765106D01*
X87892988Y-77703783D01*
X87891681Y-77658028D01*
X87900500Y-77602352D01*
X87900500Y-77397648D01*
X87894664Y-77360800D01*
X87868477Y-77195465D01*
X87805218Y-77000776D01*
X87749960Y-76892328D01*
X87712287Y-76818390D01*
X87695733Y-76795605D01*
X87591971Y-76652786D01*
X87447217Y-76508032D01*
X87447212Y-76508028D01*
X87401615Y-76474900D01*
X87358949Y-76419571D01*
X87350500Y-76374582D01*
X87350500Y-75862229D01*
X87370185Y-75795190D01*
X87386819Y-75774548D01*
X88682948Y-74478419D01*
X88682951Y-74478416D01*
X88765084Y-74355495D01*
X88821658Y-74218913D01*
X88844887Y-74102135D01*
X88850500Y-74073920D01*
X88850500Y-54426082D01*
X88840322Y-54374916D01*
X88840322Y-54374913D01*
X88826158Y-54303709D01*
X88821659Y-54281088D01*
X88765084Y-54144506D01*
X88765084Y-54144505D01*
X88694922Y-54039500D01*
X88694122Y-54038302D01*
X88682957Y-54021591D01*
X88682952Y-54021585D01*
X88669504Y-54008137D01*
X88636019Y-53946814D01*
X88641003Y-53877122D01*
X88682875Y-53821189D01*
X88737788Y-53797983D01*
X88828558Y-53783606D01*
X88828559Y-53783606D01*
X89019432Y-53721587D01*
X89198246Y-53630477D01*
X89238022Y-53601576D01*
X88659408Y-53022962D01*
X88722993Y-53005925D01*
X88837007Y-52940099D01*
X88930099Y-52847007D01*
X88995925Y-52732993D01*
X89012962Y-52669408D01*
X89591576Y-53248022D01*
X89620477Y-53208246D01*
X89711587Y-53029432D01*
X89773606Y-52838559D01*
X89805000Y-52640350D01*
X89805000Y-52439649D01*
X89773606Y-52241440D01*
X89711587Y-52050567D01*
X89620478Y-51871754D01*
X89591576Y-51831976D01*
X89591576Y-51831975D01*
X89012962Y-52410590D01*
X88995925Y-52347007D01*
X88930099Y-52232993D01*
X88837007Y-52139901D01*
X88722993Y-52074075D01*
X88659409Y-52057037D01*
X89238023Y-51478423D01*
X89238022Y-51478422D01*
X89198246Y-51449522D01*
X89019432Y-51358412D01*
X88828559Y-51296393D01*
X88630350Y-51265000D01*
X88429650Y-51265000D01*
X88231440Y-51296393D01*
X88040567Y-51358412D01*
X87861755Y-51449521D01*
X87821976Y-51478422D01*
X88400591Y-52057037D01*
X88337007Y-52074075D01*
X88222993Y-52139901D01*
X88129901Y-52232993D01*
X88064075Y-52347007D01*
X88047037Y-52410591D01*
X87468422Y-51831976D01*
X87439521Y-51871755D01*
X87348412Y-52050567D01*
X87286393Y-52241439D01*
X87272016Y-52332212D01*
X87242086Y-52395346D01*
X87182775Y-52432277D01*
X87112912Y-52431279D01*
X87061862Y-52400494D01*
X86618413Y-51957045D01*
X86569179Y-51924150D01*
X86536355Y-51902218D01*
X86495495Y-51874916D01*
X86495494Y-51874915D01*
X86495492Y-51874914D01*
X86495490Y-51874913D01*
X86358917Y-51818343D01*
X86358907Y-51818340D01*
X86213920Y-51789500D01*
X86213918Y-51789500D01*
X84924664Y-51789500D01*
X84857625Y-51769815D01*
X84811870Y-51717011D01*
X84806000Y-51701485D01*
X84802618Y-51690335D01*
X84799091Y-51657517D01*
X84748796Y-51522669D01*
X84748795Y-51522668D01*
X84748793Y-51522664D01*
X84662547Y-51407455D01*
X84662544Y-51407452D01*
X84547335Y-51321206D01*
X84547328Y-51321202D01*
X84412482Y-51270908D01*
X84412483Y-51270908D01*
X84352883Y-51264501D01*
X84352881Y-51264500D01*
X84352873Y-51264500D01*
X84352864Y-51264500D01*
X82707129Y-51264500D01*
X82707123Y-51264501D01*
X82647516Y-51270908D01*
X82512671Y-51321202D01*
X82512664Y-51321206D01*
X82397455Y-51407452D01*
X82397452Y-51407455D01*
X82311206Y-51522664D01*
X82311202Y-51522671D01*
X82260908Y-51657517D01*
X82254501Y-51717116D01*
X82254500Y-51717135D01*
X82254500Y-53362870D01*
X82254501Y-53362876D01*
X82260908Y-53422483D01*
X82311202Y-53557328D01*
X82311206Y-53557335D01*
X82397452Y-53672544D01*
X82397455Y-53672547D01*
X82512664Y-53758793D01*
X82512671Y-53758797D01*
X82647517Y-53809091D01*
X82647516Y-53809091D01*
X82654444Y-53809835D01*
X82707127Y-53815500D01*
X84352872Y-53815499D01*
X84412483Y-53809091D01*
X84547331Y-53758796D01*
X84662546Y-53672546D01*
X84748796Y-53557331D01*
X84799091Y-53422483D01*
X84801375Y-53401243D01*
X84828114Y-53336692D01*
X84885507Y-53296845D01*
X84924664Y-53290500D01*
X85777770Y-53290500D01*
X85844809Y-53310185D01*
X85865451Y-53326819D01*
X86091451Y-53552819D01*
X86124936Y-53614142D01*
X86119952Y-53683834D01*
X86078080Y-53739767D01*
X86012616Y-53764184D01*
X86003770Y-53764500D01*
X85929616Y-53764500D01*
X85834910Y-53779500D01*
X85731319Y-53795907D01*
X85540373Y-53857949D01*
X85361491Y-53949095D01*
X85345827Y-53960476D01*
X85199068Y-54067103D01*
X85199066Y-54067105D01*
X85199065Y-54067105D01*
X85057105Y-54209065D01*
X85057105Y-54209066D01*
X85057103Y-54209068D01*
X85006423Y-54278822D01*
X84939095Y-54371491D01*
X84847949Y-54550373D01*
X84787254Y-54737173D01*
X84785907Y-54741320D01*
X84754500Y-54939616D01*
X84754500Y-55140384D01*
X84781028Y-55307873D01*
X84785907Y-55338680D01*
X84847949Y-55529626D01*
X84922582Y-55676100D01*
X84939095Y-55708508D01*
X85057103Y-55870932D01*
X85199068Y-56012897D01*
X85199069Y-56012898D01*
X85199068Y-56012898D01*
X85218659Y-56027131D01*
X85228383Y-56034196D01*
X85271050Y-56089524D01*
X85279500Y-56134515D01*
X85279500Y-60429952D01*
X85259815Y-60496991D01*
X85243182Y-60517633D01*
X85108027Y-60652788D01*
X84987715Y-60818386D01*
X84894781Y-61000776D01*
X84831522Y-61195465D01*
X84799500Y-61397648D01*
X84799500Y-61602351D01*
X84831522Y-61804534D01*
X84894781Y-61999223D01*
X84987715Y-62181613D01*
X85108028Y-62347213D01*
X85252786Y-62491971D01*
X85418388Y-62612286D01*
X85471828Y-62639516D01*
X85522623Y-62687490D01*
X85539418Y-62755312D01*
X85516880Y-62821446D01*
X85471828Y-62860484D01*
X85418388Y-62887713D01*
X85252786Y-63008028D01*
X85108028Y-63152786D01*
X84987715Y-63318386D01*
X84894781Y-63500776D01*
X84831522Y-63695465D01*
X84799500Y-63897648D01*
X84799500Y-64102351D01*
X84831522Y-64304534D01*
X84894781Y-64499223D01*
X84958691Y-64624653D01*
X84985002Y-64676290D01*
X84987715Y-64681613D01*
X85108028Y-64847213D01*
X85108034Y-64847219D01*
X85252781Y-64991966D01*
X85298384Y-65025098D01*
X85341050Y-65080425D01*
X85349500Y-65125416D01*
X85349500Y-70487770D01*
X85329815Y-70554809D01*
X85313181Y-70575451D01*
X84175451Y-71713181D01*
X84114128Y-71746666D01*
X84087770Y-71749500D01*
X83088625Y-71749500D01*
X83059443Y-71740931D01*
X83029695Y-71734602D01*
X83024365Y-71730631D01*
X83021586Y-71729815D01*
X83001345Y-71713580D01*
X83001124Y-71713361D01*
X82872073Y-71584310D01*
X82867641Y-71581089D01*
X82860912Y-71574422D01*
X82848434Y-71551817D01*
X82832657Y-71531372D01*
X82831825Y-71521727D01*
X82827147Y-71513252D01*
X82828871Y-71487486D01*
X82826653Y-71461761D01*
X82831167Y-71453197D01*
X82831814Y-71443539D01*
X82847192Y-71422799D01*
X82859236Y-71399954D01*
X82872942Y-71388072D01*
X82873430Y-71387415D01*
X82873911Y-71387233D01*
X82875301Y-71386027D01*
X82982365Y-71308242D01*
X83138242Y-71152365D01*
X83267815Y-70974022D01*
X83367895Y-70777606D01*
X83436015Y-70567951D01*
X83470500Y-70350222D01*
X83470500Y-70129778D01*
X83436015Y-69912049D01*
X83367895Y-69702394D01*
X83367895Y-69702393D01*
X83333237Y-69634375D01*
X83267815Y-69505978D01*
X83191244Y-69400586D01*
X83138247Y-69327641D01*
X83138243Y-69327636D01*
X82982365Y-69171758D01*
X82937965Y-69139500D01*
X82870270Y-69090317D01*
X82827606Y-69034989D01*
X82821627Y-68965376D01*
X82854232Y-68903580D01*
X82870265Y-68889686D01*
X82982365Y-68808242D01*
X83138242Y-68652365D01*
X83267815Y-68474022D01*
X83367895Y-68277606D01*
X83436015Y-68067951D01*
X83470500Y-67850222D01*
X83470500Y-67629778D01*
X83436015Y-67412049D01*
X83367895Y-67202394D01*
X83367895Y-67202393D01*
X83333093Y-67134092D01*
X83267815Y-67005978D01*
X83251260Y-66983192D01*
X83138247Y-66827641D01*
X83138243Y-66827636D01*
X82982363Y-66671756D01*
X82982358Y-66671752D01*
X82804025Y-66542187D01*
X82804024Y-66542186D01*
X82804022Y-66542185D01*
X82725236Y-66502041D01*
X82607606Y-66442104D01*
X82607603Y-66442103D01*
X82397955Y-66373986D01*
X82397953Y-66373985D01*
X82397951Y-66373985D01*
X82392746Y-66373160D01*
X82329614Y-66343229D01*
X82292685Y-66283916D01*
X82293685Y-66214053D01*
X82332298Y-66155822D01*
X82339255Y-66150377D01*
X82436928Y-66079414D01*
X82559414Y-65956928D01*
X82661232Y-65816788D01*
X82739873Y-65662445D01*
X82793402Y-65497701D01*
X82820500Y-65326611D01*
X82820500Y-65153389D01*
X82793402Y-64982299D01*
X82739873Y-64817555D01*
X82661232Y-64663212D01*
X82559414Y-64523072D01*
X82436928Y-64400586D01*
X82339263Y-64329628D01*
X82296599Y-64274299D01*
X82290620Y-64204685D01*
X82323226Y-64142890D01*
X82384065Y-64108533D01*
X82392749Y-64106838D01*
X82397951Y-64106015D01*
X82607606Y-64037895D01*
X82804022Y-63937815D01*
X82982365Y-63808242D01*
X83138242Y-63652365D01*
X83267815Y-63474022D01*
X83367895Y-63277606D01*
X83436015Y-63067951D01*
X83470500Y-62850222D01*
X83470500Y-62629778D01*
X83436015Y-62412049D01*
X83384291Y-62252855D01*
X83367896Y-62202396D01*
X83367895Y-62202393D01*
X83332428Y-62132787D01*
X83267815Y-62005978D01*
X83251260Y-61983192D01*
X83138247Y-61827641D01*
X83138243Y-61827636D01*
X82982365Y-61671758D01*
X82982357Y-61671752D01*
X82870270Y-61590317D01*
X82827606Y-61534989D01*
X82821627Y-61465376D01*
X82854232Y-61403580D01*
X82870265Y-61389686D01*
X82982365Y-61308242D01*
X83138242Y-61152365D01*
X83267815Y-60974022D01*
X83367895Y-60777606D01*
X83436015Y-60567951D01*
X83470500Y-60350222D01*
X83470500Y-60129778D01*
X83436015Y-59912049D01*
X83367895Y-59702394D01*
X83367895Y-59702393D01*
X83314509Y-59597620D01*
X83267815Y-59505978D01*
X83173454Y-59376100D01*
X83138247Y-59327641D01*
X83138243Y-59327636D01*
X82982363Y-59171756D01*
X82982358Y-59171752D01*
X82804025Y-59042187D01*
X82804024Y-59042186D01*
X82804022Y-59042185D01*
X82741096Y-59010122D01*
X82607606Y-58942104D01*
X82607603Y-58942103D01*
X82397952Y-58873985D01*
X82289086Y-58856742D01*
X82180222Y-58839500D01*
X81259778Y-58839500D01*
X81187201Y-58850995D01*
X81042047Y-58873985D01*
X80832396Y-58942103D01*
X80832393Y-58942104D01*
X80635974Y-59042187D01*
X80457641Y-59171752D01*
X80457636Y-59171756D01*
X80301756Y-59327636D01*
X80301752Y-59327641D01*
X80172187Y-59505974D01*
X80072104Y-59702393D01*
X80072103Y-59702396D01*
X80003985Y-59912047D01*
X79969500Y-60129778D01*
X79969500Y-60350221D01*
X80003985Y-60567952D01*
X80072103Y-60777603D01*
X80072104Y-60777606D01*
X80172187Y-60974025D01*
X80301752Y-61152358D01*
X80301756Y-61152363D01*
X80457636Y-61308243D01*
X80457641Y-61308247D01*
X80569727Y-61389682D01*
X80612393Y-61445011D01*
X80618372Y-61514625D01*
X80585767Y-61576420D01*
X80569727Y-61590318D01*
X80457641Y-61671752D01*
X80457636Y-61671756D01*
X80301756Y-61827636D01*
X80301752Y-61827641D01*
X80172187Y-62005974D01*
X80072104Y-62202393D01*
X80072103Y-62202396D01*
X80003985Y-62412047D01*
X79991296Y-62492163D01*
X79969500Y-62629778D01*
X79969500Y-62850222D01*
X79972792Y-62871004D01*
X80003985Y-63067952D01*
X80072103Y-63277603D01*
X80072104Y-63277606D01*
X80172187Y-63474025D01*
X80301752Y-63652358D01*
X80301756Y-63652363D01*
X80457636Y-63808243D01*
X80457641Y-63808247D01*
X80613192Y-63921260D01*
X80635978Y-63937815D01*
X80764375Y-64003237D01*
X80832393Y-64037895D01*
X80832396Y-64037896D01*
X81042045Y-64106014D01*
X81042046Y-64106014D01*
X81042049Y-64106015D01*
X81047243Y-64106837D01*
X81110378Y-64136764D01*
X81147311Y-64196074D01*
X81146317Y-64265936D01*
X81107709Y-64324171D01*
X81100735Y-64329628D01*
X81003078Y-64400581D01*
X81003069Y-64400588D01*
X80880588Y-64523069D01*
X80880588Y-64523070D01*
X80880586Y-64523072D01*
X80852184Y-64562164D01*
X80778768Y-64663211D01*
X80700128Y-64817552D01*
X80646597Y-64982302D01*
X80619500Y-65153389D01*
X80619500Y-65326610D01*
X80641873Y-65467873D01*
X80646598Y-65497701D01*
X80700127Y-65662445D01*
X80778768Y-65816788D01*
X80880586Y-65956928D01*
X81003072Y-66079414D01*
X81100735Y-66150371D01*
X81143400Y-66205700D01*
X81149379Y-66275314D01*
X81116773Y-66337108D01*
X81055934Y-66371466D01*
X81047254Y-66373160D01*
X81042048Y-66373984D01*
X80832396Y-66442103D01*
X80832393Y-66442104D01*
X80635974Y-66542187D01*
X80457641Y-66671752D01*
X80457636Y-66671756D01*
X80301756Y-66827636D01*
X80301752Y-66827641D01*
X80172187Y-67005974D01*
X80072104Y-67202393D01*
X80072103Y-67202396D01*
X80003985Y-67412047D01*
X79969500Y-67629778D01*
X79969500Y-67850221D01*
X80003985Y-68067952D01*
X80072103Y-68277603D01*
X80072104Y-68277606D01*
X80172187Y-68474025D01*
X80301752Y-68652358D01*
X80301756Y-68652363D01*
X80457636Y-68808243D01*
X80457641Y-68808247D01*
X80569727Y-68889682D01*
X80612393Y-68945011D01*
X80618372Y-69014625D01*
X80585767Y-69076420D01*
X80569727Y-69090318D01*
X80457641Y-69171752D01*
X80457636Y-69171756D01*
X80301756Y-69327636D01*
X80301752Y-69327641D01*
X80172187Y-69505974D01*
X80072104Y-69702393D01*
X80072103Y-69702396D01*
X80003985Y-69912047D01*
X79969500Y-70129778D01*
X79969500Y-70350221D01*
X80003985Y-70567952D01*
X80072103Y-70777603D01*
X80072104Y-70777606D01*
X80114380Y-70860575D01*
X80149167Y-70928848D01*
X80172187Y-70974025D01*
X80301752Y-71152358D01*
X80301756Y-71152363D01*
X80457636Y-71308243D01*
X80457641Y-71308247D01*
X80567512Y-71388072D01*
X80635978Y-71437815D01*
X80784030Y-71513252D01*
X80787490Y-71515015D01*
X80838286Y-71562990D01*
X80855081Y-71630811D01*
X80832543Y-71696946D01*
X80777828Y-71740397D01*
X80731195Y-71749500D01*
X80026080Y-71749500D01*
X79881092Y-71778340D01*
X79881082Y-71778343D01*
X79744511Y-71834912D01*
X79744498Y-71834919D01*
X79621584Y-71917048D01*
X79621580Y-71917051D01*
X79517051Y-72021580D01*
X79517048Y-72021584D01*
X79434919Y-72144498D01*
X79434912Y-72144511D01*
X79378343Y-72281082D01*
X79378340Y-72281092D01*
X79349500Y-72426079D01*
X79349500Y-73643512D01*
X79329815Y-73710551D01*
X79277011Y-73756306D01*
X79207853Y-73766250D01*
X79151189Y-73742779D01*
X79102331Y-73706204D01*
X79102328Y-73706202D01*
X78967482Y-73655908D01*
X78967483Y-73655908D01*
X78907883Y-73649501D01*
X78907881Y-73649500D01*
X78907873Y-73649500D01*
X78907865Y-73649500D01*
X77851892Y-73649500D01*
X77784853Y-73629815D01*
X77739098Y-73577011D01*
X77729154Y-73507853D01*
X77758179Y-73444297D01*
X77779005Y-73425184D01*
X77792073Y-73415690D01*
X77925690Y-73282073D01*
X78036760Y-73129199D01*
X78122547Y-72960832D01*
X78180940Y-72781118D01*
X78197676Y-72675450D01*
X78210500Y-72594486D01*
X78210500Y-72405513D01*
X78180940Y-72218881D01*
X78140471Y-72094332D01*
X78122547Y-72039168D01*
X78122545Y-72039165D01*
X78122545Y-72039163D01*
X78036759Y-71870800D01*
X78015358Y-71841344D01*
X77925690Y-71717927D01*
X77792073Y-71584310D01*
X77639199Y-71473240D01*
X77616670Y-71461761D01*
X77470836Y-71387454D01*
X77420849Y-71371212D01*
X77385893Y-71359854D01*
X77328219Y-71320417D01*
X77301021Y-71256058D01*
X77312936Y-71187212D01*
X77351328Y-71141606D01*
X77436928Y-71079414D01*
X77559414Y-70956928D01*
X77661232Y-70816788D01*
X77739873Y-70662445D01*
X77793402Y-70497701D01*
X77820500Y-70326611D01*
X77820500Y-70153389D01*
X77793402Y-69982299D01*
X77739873Y-69817555D01*
X77661232Y-69663212D01*
X77559414Y-69523072D01*
X77436928Y-69400586D01*
X77296788Y-69298768D01*
X77142445Y-69220127D01*
X76977701Y-69166598D01*
X76977699Y-69166597D01*
X76977698Y-69166597D01*
X76846271Y-69145781D01*
X76806611Y-69139500D01*
X76633389Y-69139500D01*
X76593728Y-69145781D01*
X76462302Y-69166597D01*
X76297552Y-69220128D01*
X76143211Y-69298768D01*
X76063256Y-69356859D01*
X76003072Y-69400586D01*
X76003070Y-69400588D01*
X76003069Y-69400588D01*
X75880588Y-69523069D01*
X75880588Y-69523070D01*
X75880586Y-69523072D01*
X75836859Y-69583256D01*
X75778768Y-69663211D01*
X75700128Y-69817552D01*
X75646597Y-69982302D01*
X75623240Y-70129778D01*
X75619500Y-70153389D01*
X75619500Y-70326611D01*
X75646598Y-70497701D01*
X75700127Y-70662445D01*
X75778768Y-70816788D01*
X75880586Y-70956928D01*
X76003072Y-71079414D01*
X76143212Y-71181232D01*
X76297555Y-71259873D01*
X76326549Y-71269293D01*
X76384223Y-71308730D01*
X76411422Y-71373089D01*
X76399508Y-71441935D01*
X76361116Y-71487542D01*
X76227925Y-71584311D01*
X76094312Y-71717924D01*
X76094312Y-71717925D01*
X76094310Y-71717927D01*
X76085673Y-71729815D01*
X75983240Y-71870800D01*
X75897454Y-72039163D01*
X75839059Y-72218881D01*
X75809500Y-72405513D01*
X75809500Y-72587769D01*
X75789815Y-72654808D01*
X75773181Y-72675450D01*
X74835449Y-73613181D01*
X74774126Y-73646666D01*
X74747769Y-73649500D01*
X74612130Y-73649500D01*
X74612123Y-73649501D01*
X74552516Y-73655908D01*
X74417671Y-73706202D01*
X74417664Y-73706206D01*
X74302455Y-73792452D01*
X74302452Y-73792455D01*
X74216206Y-73907664D01*
X74216202Y-73907671D01*
X74165908Y-74042517D01*
X74160286Y-74094812D01*
X74159501Y-74102123D01*
X74159500Y-74102135D01*
X74159500Y-76697870D01*
X74159501Y-76697876D01*
X74165908Y-76757483D01*
X74216202Y-76892328D01*
X74216206Y-76892335D01*
X74302452Y-77007544D01*
X74302455Y-77007547D01*
X74417664Y-77093793D01*
X74417671Y-77093797D01*
X74552517Y-77144091D01*
X74552516Y-77144091D01*
X74559444Y-77144835D01*
X74612127Y-77150500D01*
X75725500Y-77150499D01*
X75792539Y-77170184D01*
X75838294Y-77222987D01*
X75849500Y-77274499D01*
X75849500Y-81387769D01*
X75829815Y-81454808D01*
X75813181Y-81475450D01*
X73767052Y-83521578D01*
X73767052Y-83521579D01*
X73767049Y-83521582D01*
X73767048Y-83521584D01*
X73751221Y-83545272D01*
X73684918Y-83644502D01*
X73684914Y-83644509D01*
X73628342Y-83781087D01*
X73628340Y-83781093D01*
X73599500Y-83926080D01*
X73599500Y-83926083D01*
X73599500Y-84073917D01*
X73599500Y-84073919D01*
X73599499Y-84073919D01*
X72100500Y-84073919D01*
X72100500Y-78748543D01*
X72659499Y-78748543D01*
X72697947Y-78941829D01*
X72697950Y-78941839D01*
X72773364Y-79123907D01*
X72773371Y-79123920D01*
X72882860Y-79287781D01*
X72882863Y-79287785D01*
X73022214Y-79427136D01*
X73022218Y-79427139D01*
X73186079Y-79536628D01*
X73186092Y-79536635D01*
X73339071Y-79600000D01*
X73368165Y-79612051D01*
X73368169Y-79612051D01*
X73368170Y-79612052D01*
X73561456Y-79650500D01*
X73561459Y-79650500D01*
X73758543Y-79650500D01*
X73888582Y-79624632D01*
X73951835Y-79612051D01*
X74105472Y-79548413D01*
X74133907Y-79536635D01*
X74133907Y-79536634D01*
X74133914Y-79536632D01*
X74297782Y-79427139D01*
X74437139Y-79287782D01*
X74546632Y-79123914D01*
X74622051Y-78941835D01*
X74655819Y-78772073D01*
X74660500Y-78748543D01*
X74660500Y-78551456D01*
X74622052Y-78358170D01*
X74622051Y-78358169D01*
X74622051Y-78358165D01*
X74617515Y-78347213D01*
X74546635Y-78176092D01*
X74546628Y-78176079D01*
X74437139Y-78012218D01*
X74437136Y-78012214D01*
X74297785Y-77872863D01*
X74297781Y-77872860D01*
X74133920Y-77763371D01*
X74133907Y-77763364D01*
X73951839Y-77687950D01*
X73951829Y-77687947D01*
X73758543Y-77649500D01*
X73758541Y-77649500D01*
X73561459Y-77649500D01*
X73561457Y-77649500D01*
X73368170Y-77687947D01*
X73368160Y-77687950D01*
X73186092Y-77763364D01*
X73186079Y-77763371D01*
X73022218Y-77872860D01*
X73022214Y-77872863D01*
X72882863Y-78012214D01*
X72882860Y-78012218D01*
X72773371Y-78176079D01*
X72773364Y-78176092D01*
X72697950Y-78358160D01*
X72697947Y-78358170D01*
X72659500Y-78551456D01*
X72659500Y-78551459D01*
X72659500Y-78748541D01*
X72659500Y-78748543D01*
X72659499Y-78748543D01*
X72100500Y-78748543D01*
X72100500Y-70153389D01*
X73119500Y-70153389D01*
X73119500Y-70326611D01*
X73146598Y-70497701D01*
X73200127Y-70662445D01*
X73278768Y-70816788D01*
X73380586Y-70956928D01*
X73503072Y-71079414D01*
X73643212Y-71181232D01*
X73797555Y-71259873D01*
X73962299Y-71313402D01*
X74133389Y-71340500D01*
X74133390Y-71340500D01*
X74306610Y-71340500D01*
X74306611Y-71340500D01*
X74477701Y-71313402D01*
X74642445Y-71259873D01*
X74796788Y-71181232D01*
X74936928Y-71079414D01*
X75059414Y-70956928D01*
X75161232Y-70816788D01*
X75239873Y-70662445D01*
X75293402Y-70497701D01*
X75320500Y-70326611D01*
X75320500Y-70153389D01*
X75293402Y-69982299D01*
X75239873Y-69817555D01*
X75161232Y-69663212D01*
X75059414Y-69523072D01*
X74936928Y-69400586D01*
X74796788Y-69298768D01*
X74642445Y-69220127D01*
X74477701Y-69166598D01*
X74477699Y-69166597D01*
X74477698Y-69166597D01*
X74346271Y-69145781D01*
X74306611Y-69139500D01*
X74133389Y-69139500D01*
X74093728Y-69145781D01*
X73962302Y-69166597D01*
X73797552Y-69220128D01*
X73643211Y-69298768D01*
X73563256Y-69356859D01*
X73503072Y-69400586D01*
X73503070Y-69400588D01*
X73503069Y-69400588D01*
X73380588Y-69523069D01*
X73380588Y-69523070D01*
X73380586Y-69523072D01*
X73336859Y-69583256D01*
X73278768Y-69663211D01*
X73200128Y-69817552D01*
X73146597Y-69982302D01*
X73123240Y-70129778D01*
X73119500Y-70153389D01*
X72100500Y-70153389D01*
X72100500Y-64779818D01*
X75320000Y-64779818D01*
X75320000Y-64990000D01*
X76270000Y-64990000D01*
X76270000Y-65490000D01*
X75320000Y-65490000D01*
X75320000Y-65700181D01*
X75354473Y-65917835D01*
X75422567Y-66127410D01*
X75522613Y-66323760D01*
X75652142Y-66502041D01*
X75807958Y-66657857D01*
X75986239Y-66787386D01*
X76182589Y-66887432D01*
X76392163Y-66955526D01*
X76469999Y-66967854D01*
X76470000Y-66967854D01*
X76470000Y-66015277D01*
X76546306Y-66059333D01*
X76660756Y-66090000D01*
X76779244Y-66090000D01*
X76893694Y-66059333D01*
X76970000Y-66015277D01*
X76970000Y-66967854D01*
X77047834Y-66955526D01*
X77047837Y-66955526D01*
X77257410Y-66887432D01*
X77453760Y-66787386D01*
X77632041Y-66657857D01*
X77787857Y-66502041D01*
X77917386Y-66323760D01*
X78017432Y-66127410D01*
X78085526Y-65917835D01*
X78120000Y-65700181D01*
X78120000Y-65490000D01*
X77170000Y-65490000D01*
X77170000Y-64990000D01*
X78120000Y-64990000D01*
X78120000Y-64779818D01*
X78085526Y-64562164D01*
X78017432Y-64352589D01*
X77917386Y-64156239D01*
X77787857Y-63977958D01*
X77632041Y-63822142D01*
X77453760Y-63692613D01*
X77257410Y-63592567D01*
X77047836Y-63524473D01*
X76970000Y-63512144D01*
X76970000Y-64464722D01*
X76893694Y-64420667D01*
X76779244Y-64390000D01*
X76660756Y-64390000D01*
X76546306Y-64420667D01*
X76470000Y-64464722D01*
X76470000Y-63512144D01*
X76392164Y-63524473D01*
X76392161Y-63524473D01*
X76182589Y-63592567D01*
X75986239Y-63692613D01*
X75807958Y-63822142D01*
X75652142Y-63977958D01*
X75522613Y-64156239D01*
X75422567Y-64352589D01*
X75354473Y-64562164D01*
X75320000Y-64779818D01*
X72100500Y-64779818D01*
X72100500Y-60153389D01*
X73119500Y-60153389D01*
X73119500Y-60326611D01*
X73123240Y-60350222D01*
X73146485Y-60496991D01*
X73146598Y-60497701D01*
X73200127Y-60662445D01*
X73278768Y-60816788D01*
X73380586Y-60956928D01*
X73503072Y-61079414D01*
X73643212Y-61181232D01*
X73797555Y-61259873D01*
X73962299Y-61313402D01*
X74133389Y-61340500D01*
X74133390Y-61340500D01*
X74306610Y-61340500D01*
X74306611Y-61340500D01*
X74477701Y-61313402D01*
X74642445Y-61259873D01*
X74796788Y-61181232D01*
X74936928Y-61079414D01*
X75059414Y-60956928D01*
X75161232Y-60816788D01*
X75239873Y-60662445D01*
X75293402Y-60497701D01*
X75320500Y-60326611D01*
X75320500Y-60153389D01*
X75619500Y-60153389D01*
X75619500Y-60326611D01*
X75623240Y-60350222D01*
X75646485Y-60496991D01*
X75646598Y-60497701D01*
X75700127Y-60662445D01*
X75778768Y-60816788D01*
X75880586Y-60956928D01*
X76003072Y-61079414D01*
X76143212Y-61181232D01*
X76297555Y-61259873D01*
X76462299Y-61313402D01*
X76633389Y-61340500D01*
X76633390Y-61340500D01*
X76806610Y-61340500D01*
X76806611Y-61340500D01*
X76977701Y-61313402D01*
X77142445Y-61259873D01*
X77296788Y-61181232D01*
X77436928Y-61079414D01*
X77559414Y-60956928D01*
X77661232Y-60816788D01*
X77739873Y-60662445D01*
X77793402Y-60497701D01*
X77820500Y-60326611D01*
X77820500Y-60153389D01*
X77793402Y-59982299D01*
X77739873Y-59817555D01*
X77661232Y-59663212D01*
X77559414Y-59523072D01*
X77436928Y-59400586D01*
X77296788Y-59298768D01*
X77142445Y-59220127D01*
X76977701Y-59166598D01*
X76977699Y-59166597D01*
X76977698Y-59166597D01*
X76846271Y-59145781D01*
X76806611Y-59139500D01*
X76633389Y-59139500D01*
X76593728Y-59145781D01*
X76462302Y-59166597D01*
X76462299Y-59166598D01*
X76324405Y-59211403D01*
X76297552Y-59220128D01*
X76143211Y-59298768D01*
X76075713Y-59347809D01*
X76003072Y-59400586D01*
X76003070Y-59400588D01*
X76003069Y-59400588D01*
X75880588Y-59523069D01*
X75880588Y-59523070D01*
X75880586Y-59523072D01*
X75836859Y-59583256D01*
X75778768Y-59663211D01*
X75700128Y-59817552D01*
X75646597Y-59982302D01*
X75630291Y-60085255D01*
X75619500Y-60153389D01*
X75320500Y-60153389D01*
X75293402Y-59982299D01*
X75239873Y-59817555D01*
X75161232Y-59663212D01*
X75059414Y-59523072D01*
X74936928Y-59400586D01*
X74796788Y-59298768D01*
X74642445Y-59220127D01*
X74477701Y-59166598D01*
X74477699Y-59166597D01*
X74477698Y-59166597D01*
X74346271Y-59145781D01*
X74306611Y-59139500D01*
X74133389Y-59139500D01*
X74093728Y-59145781D01*
X73962302Y-59166597D01*
X73962299Y-59166598D01*
X73824405Y-59211403D01*
X73797552Y-59220128D01*
X73643211Y-59298768D01*
X73575713Y-59347809D01*
X73503072Y-59400586D01*
X73503070Y-59400588D01*
X73503069Y-59400588D01*
X73380588Y-59523069D01*
X73380588Y-59523070D01*
X73380586Y-59523072D01*
X73336859Y-59583256D01*
X73278768Y-59663211D01*
X73200128Y-59817552D01*
X73146597Y-59982302D01*
X73130291Y-60085255D01*
X73119500Y-60153389D01*
X72100500Y-60153389D01*
X72100500Y-54958711D01*
X75329500Y-54958711D01*
X75329500Y-55201288D01*
X75361161Y-55441785D01*
X75423947Y-55676104D01*
X75499254Y-55857910D01*
X75516776Y-55900212D01*
X75638064Y-56110289D01*
X75638066Y-56110292D01*
X75638067Y-56110293D01*
X75785733Y-56302736D01*
X75785739Y-56302743D01*
X75957256Y-56474260D01*
X75957263Y-56474266D01*
X76045403Y-56541898D01*
X76149711Y-56621936D01*
X76359788Y-56743224D01*
X76583900Y-56836054D01*
X76818211Y-56898838D01*
X76998586Y-56922584D01*
X77058711Y-56930500D01*
X77058712Y-56930500D01*
X77301289Y-56930500D01*
X77349388Y-56924167D01*
X77541789Y-56898838D01*
X77776100Y-56836054D01*
X78000212Y-56743224D01*
X78210289Y-56621936D01*
X78402738Y-56474265D01*
X78574265Y-56302738D01*
X78721936Y-56110289D01*
X78843224Y-55900212D01*
X78936054Y-55676100D01*
X78998838Y-55441789D01*
X79030500Y-55201288D01*
X79030500Y-54958712D01*
X79026928Y-54931583D01*
X78998838Y-54718214D01*
X78998838Y-54718211D01*
X78936054Y-54483900D01*
X78843224Y-54259788D01*
X78721936Y-54049711D01*
X78574792Y-53857949D01*
X78574266Y-53857263D01*
X78574260Y-53857256D01*
X78402743Y-53685739D01*
X78402736Y-53685733D01*
X78210293Y-53538067D01*
X78210292Y-53538066D01*
X78210289Y-53538064D01*
X78000212Y-53416776D01*
X77962712Y-53401243D01*
X77776104Y-53323947D01*
X77541785Y-53261161D01*
X77301289Y-53229500D01*
X77301288Y-53229500D01*
X77058712Y-53229500D01*
X77058711Y-53229500D01*
X76818214Y-53261161D01*
X76583895Y-53323947D01*
X76359794Y-53416773D01*
X76359785Y-53416777D01*
X76149706Y-53538067D01*
X75957263Y-53685733D01*
X75957256Y-53685739D01*
X75785739Y-53857256D01*
X75785733Y-53857263D01*
X75638067Y-54049706D01*
X75516777Y-54259785D01*
X75516773Y-54259794D01*
X75423947Y-54483895D01*
X75361161Y-54718214D01*
X75329500Y-54958711D01*
X72100500Y-54958711D01*
X72100500Y-52004066D01*
X72100765Y-51995957D01*
X72103315Y-51957045D01*
X72115681Y-51768378D01*
X72116670Y-51758911D01*
X72124090Y-51707308D01*
X72125193Y-51700868D01*
X72164312Y-51504200D01*
X72166938Y-51493513D01*
X72179361Y-51451205D01*
X72180877Y-51446412D01*
X72248231Y-51247996D01*
X72252834Y-51236397D01*
X72263477Y-51213093D01*
X72264987Y-51209913D01*
X72364790Y-51007533D01*
X72372893Y-50993498D01*
X72509182Y-50789527D01*
X72519039Y-50776681D01*
X72680786Y-50592244D01*
X72692244Y-50580786D01*
X72876681Y-50419039D01*
X72889527Y-50409182D01*
X73093498Y-50272893D01*
X73107533Y-50264790D01*
X73309913Y-50164987D01*
X73313093Y-50163477D01*
X73336397Y-50152834D01*
X73347996Y-50148231D01*
X73546412Y-50080877D01*
X73551205Y-50079361D01*
X73593513Y-50066938D01*
X73604200Y-50064312D01*
X73800868Y-50025193D01*
X73807308Y-50024090D01*
X73858911Y-50016670D01*
X73868378Y-50015681D01*
X74083057Y-50001610D01*
X74095958Y-50000765D01*
X74104067Y-50000500D01*
X123435933Y-50000500D01*
X123444042Y-50000765D01*
G37*
%TD.AperFunction*%
%TD*%
M02*
