%TF.GenerationSoftware,KiCad,Pcbnew,9.0.3*%
%TF.CreationDate,2025-11-18T12:01:30-08:00*%
%TF.ProjectId,pcb,7063622e-6b69-4636-9164-5f7063625858,rev?*%
%TF.SameCoordinates,Original*%
%TF.FileFunction,Copper,L2,Bot*%
%TF.FilePolarity,Positive*%
%FSLAX46Y46*%
G04 Gerber Fmt 4.6, Leading zero omitted, Abs format (unit mm)*
G04 Created by KiCad (PCBNEW 9.0.3) date 2025-11-18 12:01:30*
%MOMM*%
%LPD*%
G01*
G04 APERTURE LIST*
G04 Aperture macros list*
%AMRoundRect*
0 Rectangle with rounded corners*
0 $1 Rounding radius*
0 $2 $3 $4 $5 $6 $7 $8 $9 X,Y pos of 4 corners*
0 Add a 4 corners polygon primitive as box body*
4,1,4,$2,$3,$4,$5,$6,$7,$8,$9,$2,$3,0*
0 Add four circle primitives for the rounded corners*
1,1,$1+$1,$2,$3*
1,1,$1+$1,$4,$5*
1,1,$1+$1,$6,$7*
1,1,$1+$1,$8,$9*
0 Add four rect primitives between the rounded corners*
20,1,$1+$1,$2,$3,$4,$5,0*
20,1,$1+$1,$4,$5,$6,$7,0*
20,1,$1+$1,$6,$7,$8,$9,0*
20,1,$1+$1,$8,$9,$2,$3,0*%
G04 Aperture macros list end*
%TA.AperFunction,ComponentPad*%
%ADD10C,1.400000*%
%TD*%
%TA.AperFunction,ComponentPad*%
%ADD11R,1.800000X1.800000*%
%TD*%
%TA.AperFunction,ComponentPad*%
%ADD12C,1.800000*%
%TD*%
%TA.AperFunction,ComponentPad*%
%ADD13RoundRect,0.250000X0.550000X-0.550000X0.550000X0.550000X-0.550000X0.550000X-0.550000X-0.550000X0*%
%TD*%
%TA.AperFunction,ComponentPad*%
%ADD14C,1.600000*%
%TD*%
%TA.AperFunction,WasherPad*%
%ADD15C,1.200000*%
%TD*%
%TA.AperFunction,ComponentPad*%
%ADD16O,2.500000X1.800000*%
%TD*%
%TA.AperFunction,ComponentPad*%
%ADD17O,1.800000X2.500000*%
%TD*%
%TA.AperFunction,ComponentPad*%
%ADD18O,1.700000X1.700000*%
%TD*%
%TA.AperFunction,ComponentPad*%
%ADD19R,1.700000X1.700000*%
%TD*%
%TA.AperFunction,ComponentPad*%
%ADD20RoundRect,0.250000X-0.550000X0.550000X-0.550000X-0.550000X0.550000X-0.550000X0.550000X0.550000X0*%
%TD*%
%TA.AperFunction,ComponentPad*%
%ADD21R,1.550000X1.550000*%
%TD*%
%TA.AperFunction,ComponentPad*%
%ADD22C,1.550000*%
%TD*%
%TA.AperFunction,ComponentPad*%
%ADD23R,1.500000X1.050000*%
%TD*%
%TA.AperFunction,ComponentPad*%
%ADD24O,1.500000X1.050000*%
%TD*%
%TA.AperFunction,ViaPad*%
%ADD25C,0.800000*%
%TD*%
%TA.AperFunction,Conductor*%
%ADD26C,0.500000*%
%TD*%
G04 APERTURE END LIST*
D10*
%TO.P,R10,1*%
%TO.N,Net-(C1-Pad1)*%
X87860000Y-105550000D03*
%TO.P,R10,2*%
%TO.N,PWM*%
X92940000Y-105550000D03*
%TD*%
D11*
%TO.P,D1,1*%
%TO.N,LED_GND*%
X77180000Y-86830000D03*
D12*
%TO.P,D1,2*%
%TO.N,Net-(D1-Pad2)*%
X77180000Y-89370000D03*
%TD*%
D13*
%TO.P,SW1,1*%
%TO.N,GND*%
X97500000Y-118580000D03*
D14*
%TO.P,SW1,2*%
X100040000Y-118580000D03*
%TO.P,SW1,3*%
X102580000Y-118580000D03*
%TO.P,SW1,4*%
X105120000Y-118580000D03*
%TO.P,SW1,5*%
%TO.N,LED_GND*%
X105120000Y-110960000D03*
%TO.P,SW1,6*%
%TO.N,OPT3*%
X102580000Y-110960000D03*
%TO.P,SW1,7*%
%TO.N,OPT2*%
X100040000Y-110960000D03*
%TO.P,SW1,8*%
%TO.N,OPT1*%
X97500000Y-110960000D03*
%TD*%
%TO.P,C2,1*%
%TO.N,Net-(C2-Pad1)*%
X86100000Y-61500000D03*
%TO.P,C2,2*%
%TO.N,MIC*%
X86100000Y-64000000D03*
%TD*%
D10*
%TO.P,R3,1*%
%TO.N,ADC0*%
X119090000Y-80480000D03*
%TO.P,R3,2*%
%TO.N,GND*%
X119090000Y-85560000D03*
%TD*%
D15*
%TO.P,J2,*%
%TO.N,*%
X74220000Y-60240000D03*
X74220000Y-70240000D03*
X76720000Y-60240000D03*
X76720000Y-70240000D03*
X81720000Y-65240000D03*
D16*
%TO.P,J2,R*%
%TO.N,TX0*%
X81720000Y-60240000D03*
%TO.P,J2,RN*%
%TO.N,N/C*%
X81720000Y-62740000D03*
D17*
%TO.P,J2,S*%
%TO.N,GND*%
X76720000Y-65240000D03*
D16*
%TO.P,J2,T*%
%TO.N,RX0*%
X81720000Y-70240000D03*
%TO.P,J2,TN*%
%TO.N,N/C*%
X81720000Y-67740000D03*
%TD*%
D10*
%TO.P,R9,1*%
%TO.N,MIC*%
X82090000Y-72500000D03*
%TO.P,R9,2*%
%TO.N,PTT_R*%
X77010000Y-72500000D03*
%TD*%
D14*
%TO.P,C1,1*%
%TO.N,Net-(C1-Pad1)*%
X86600000Y-77500000D03*
%TO.P,C1,2*%
%TO.N,GND*%
X86600000Y-80000000D03*
%TD*%
D18*
%TO.P,U1,1,GPIO0*%
%TO.N,TX0*%
X93690000Y-51870000D03*
%TO.P,U1,2,GPIO1*%
%TO.N,RX0*%
X93690000Y-54410000D03*
D19*
%TO.P,U1,3,GND*%
%TO.N,GND*%
X93690000Y-56950000D03*
D18*
%TO.P,U1,4,GPIO2*%
%TO.N,unconnected-(U1-GPIO2-Pad4)*%
X93690000Y-59490000D03*
%TO.P,U1,5,GPIO3*%
%TO.N,unconnected-(U1-GPIO3-Pad5)_1*%
X93690000Y-62030000D03*
%TO.P,U1,6,GPIO4*%
%TO.N,TX1*%
X93690000Y-64570000D03*
%TO.P,U1,7,GPIO5*%
%TO.N,RX1*%
X93690000Y-67110000D03*
D19*
%TO.P,U1,8,GND*%
%TO.N,unconnected-(U1-GND-Pad8)_1*%
X93690000Y-69650000D03*
D18*
%TO.P,U1,9,GPIO6*%
%TO.N,unconnected-(U1-GPIO6-Pad9)_1*%
X93690000Y-72190000D03*
%TO.P,U1,10,GPIO7*%
%TO.N,unconnected-(U1-GPIO7-Pad10)*%
X93690000Y-74730000D03*
%TO.P,U1,11,GPIO8*%
%TO.N,unconnected-(U1-GPIO8-Pad11)*%
X93690000Y-77270000D03*
%TO.P,U1,12,GPIO9*%
%TO.N,unconnected-(U1-GPIO9-Pad12)*%
X93690000Y-79810000D03*
D19*
%TO.P,U1,13,GND*%
%TO.N,GND*%
X93690000Y-82350000D03*
D18*
%TO.P,U1,14,GPIO10*%
%TO.N,PWM*%
X93690000Y-84890000D03*
%TO.P,U1,15,GPIO11*%
%TO.N,PTT*%
X93690000Y-87430000D03*
%TO.P,U1,16,GPIO12*%
%TO.N,CDT*%
X93690000Y-89970000D03*
%TO.P,U1,17,GPIO13*%
%TO.N,unconnected-(U1-GPIO13-Pad17)*%
X93690000Y-92510000D03*
D19*
%TO.P,U1,18,GND*%
%TO.N,unconnected-(U1-GND-Pad18)_1*%
X93690000Y-95050000D03*
D18*
%TO.P,U1,19,GPIO14*%
%TO.N,CON*%
X93690000Y-97590000D03*
%TO.P,U1,20,GPIO15*%
%TO.N,STA*%
X93690000Y-100130000D03*
%TO.P,U1,21,GPIO16*%
%TO.N,OPT1*%
X111470000Y-100130000D03*
%TO.P,U1,22,GPIO17*%
%TO.N,OPT2*%
X111470000Y-97590000D03*
D19*
%TO.P,U1,23,GND*%
%TO.N,GND*%
X111470000Y-95050000D03*
D18*
%TO.P,U1,24,GPIO18*%
%TO.N,OPT3*%
X111470000Y-92510000D03*
%TO.P,U1,25,GPIO19*%
%TO.N,unconnected-(U1-GPIO19-Pad25)*%
X111470000Y-89970000D03*
%TO.P,U1,26,GPIO20*%
%TO.N,unconnected-(U1-GPIO20-Pad26)*%
X111470000Y-87430000D03*
%TO.P,U1,27,GPIO21*%
%TO.N,unconnected-(U1-GPIO21-Pad27)*%
X111470000Y-84890000D03*
D19*
%TO.P,U1,28,GND*%
%TO.N,GND*%
X111470000Y-82350000D03*
D18*
%TO.P,U1,29,GPIO22*%
%TO.N,unconnected-(U1-GPIO22-Pad29)*%
X111470000Y-79810000D03*
%TO.P,U1,30,RUN*%
%TO.N,unconnected-(U1-RUN-Pad30)_1*%
X111470000Y-77270000D03*
%TO.P,U1,31,GPIO26_ADC0*%
%TO.N,ADC0*%
X111470000Y-74730000D03*
%TO.P,U1,32,GPIO27_ADC1*%
%TO.N,unconnected-(U1-GPIO27_ADC1-Pad32)*%
X111470000Y-72190000D03*
D19*
%TO.P,U1,33,AGND*%
%TO.N,unconnected-(U1-AGND-Pad33)_1*%
X111470000Y-69650000D03*
D18*
%TO.P,U1,34,GPIO28_ADC2*%
%TO.N,unconnected-(U1-GPIO28_ADC2-Pad34)_1*%
X111470000Y-67110000D03*
%TO.P,U1,35,ADC_VREF*%
%TO.N,unconnected-(U1-ADC_VREF-Pad35)_1*%
X111470000Y-64570000D03*
%TO.P,U1,36,3V3*%
%TO.N,+3V3*%
X111470000Y-62030000D03*
%TO.P,U1,37,3V3_EN*%
%TO.N,unconnected-(U1-3V3_EN-Pad37)*%
X111470000Y-59490000D03*
D19*
%TO.P,U1,38,GND*%
%TO.N,GND*%
X111470000Y-56950000D03*
D18*
%TO.P,U1,39,VSYS*%
%TO.N,unconnected-(U1-VSYS-Pad39)*%
X111470000Y-54410000D03*
%TO.P,U1,40,VBUS*%
%TO.N,+5V*%
X111470000Y-51870000D03*
%TO.P,U1,41,SWCLK*%
%TO.N,unconnected-(U1-SWCLK-Pad41)_1*%
X100040000Y-99900000D03*
D19*
%TO.P,U1,42,GND*%
%TO.N,GND*%
X102580000Y-99900000D03*
D18*
%TO.P,U1,43,SWDIO*%
%TO.N,unconnected-(U1-SWDIO-Pad43)_1*%
X105120000Y-99900000D03*
%TD*%
D10*
%TO.P,R8,1*%
%TO.N,Net-(Q1-B)*%
X81100000Y-99000000D03*
%TO.P,R8,2*%
%TO.N,GND*%
X86180000Y-99000000D03*
%TD*%
D20*
%TO.P,D6,1,K*%
%TO.N,ADC0*%
X122100000Y-86690000D03*
D14*
%TO.P,D6,2,A*%
%TO.N,GND*%
X122100000Y-94310000D03*
%TD*%
D10*
%TO.P,R6,1*%
%TO.N,CDT*%
X86020000Y-95720000D03*
%TO.P,R6,2*%
%TO.N,Net-(D2-Pad2)*%
X80940000Y-95720000D03*
%TD*%
D11*
%TO.P,D2,1*%
%TO.N,LED_GND*%
X77180000Y-93180000D03*
D12*
%TO.P,D2,2*%
%TO.N,Net-(D2-Pad2)*%
X77180000Y-95720000D03*
%TD*%
D14*
%TO.P,C3,1*%
%TO.N,ADC0*%
X83850000Y-86000000D03*
%TO.P,C3,2*%
%TO.N,SP*%
X81350000Y-86000000D03*
%TD*%
D10*
%TO.P,R7,1*%
%TO.N,PTT*%
X86090000Y-92500000D03*
%TO.P,R7,2*%
%TO.N,Net-(Q1-B)*%
X81010000Y-92500000D03*
%TD*%
D20*
%TO.P,D5,1,K*%
%TO.N,+3V3*%
X122600000Y-72860000D03*
D14*
%TO.P,D5,2,A*%
%TO.N,ADC0*%
X122600000Y-80480000D03*
%TD*%
D21*
%TO.P,RV1,1,1*%
%TO.N,Net-(C1-Pad1)*%
X83530000Y-52540000D03*
D22*
%TO.P,RV1,2,2*%
%TO.N,Net-(C2-Pad1)*%
X86030000Y-55040000D03*
%TO.P,RV1,3,3*%
%TO.N,GND*%
X88530000Y-52540000D03*
%TD*%
D11*
%TO.P,D3,1*%
%TO.N,LED_GND*%
X77475000Y-99530000D03*
D12*
%TO.P,D3,2*%
%TO.N,Net-(D3-Pad2)*%
X77475000Y-102070000D03*
%TD*%
D10*
%TO.P,R5,1*%
%TO.N,STA*%
X87290000Y-108420000D03*
%TO.P,R5,2*%
%TO.N,Net-(D4-Pad2)*%
X82210000Y-108420000D03*
%TD*%
%TO.P,R2,1*%
%TO.N,+3V3*%
X119090000Y-72910000D03*
%TO.P,R2,2*%
%TO.N,ADC0*%
X119090000Y-77990000D03*
%TD*%
D11*
%TO.P,D4,1*%
%TO.N,LED_GND*%
X77180000Y-105880000D03*
D12*
%TO.P,D4,2*%
%TO.N,Net-(D4-Pad2)*%
X77180000Y-108420000D03*
%TD*%
D10*
%TO.P,R4,1*%
%TO.N,CON*%
X86020000Y-102070000D03*
%TO.P,R4,2*%
%TO.N,Net-(D3-Pad2)*%
X80940000Y-102070000D03*
%TD*%
D23*
%TO.P,Q1,1,E*%
%TO.N,GND*%
X121100000Y-60230000D03*
D24*
%TO.P,Q1,2,B*%
%TO.N,Net-(Q1-B)*%
X121100000Y-61500000D03*
%TO.P,Q1,3,C*%
%TO.N,PTT_R*%
X121100000Y-62770000D03*
%TD*%
D10*
%TO.P,R1,1*%
%TO.N,PTT*%
X86020000Y-89370000D03*
%TO.P,R1,2*%
%TO.N,Net-(D1-Pad2)*%
X80940000Y-89370000D03*
%TD*%
D25*
%TO.N,PTT_R*%
X112100000Y-117500000D03*
%TD*%
D26*
%TO.N,Net-(C1-Pad1)*%
X87800000Y-77500000D02*
X86600000Y-77500000D01*
X89000000Y-78700000D02*
X87800000Y-77500000D01*
X89000000Y-83800000D02*
X89000000Y-78700000D01*
X86200000Y-105550000D02*
X83900000Y-103250000D01*
X83900000Y-88900000D02*
X89000000Y-83800000D01*
X87860000Y-105550000D02*
X86200000Y-105550000D01*
X83900000Y-103250000D02*
X83900000Y-88900000D01*
%TO.N,GND*%
X81100000Y-57000000D02*
X81100000Y-51000000D01*
X100040000Y-118580000D02*
X102580000Y-118580000D01*
X119090000Y-85560000D02*
X119090000Y-84490000D01*
X97500000Y-118580000D02*
X100040000Y-118580000D01*
X90600000Y-103420000D02*
X90600000Y-103500000D01*
X102580000Y-118580000D02*
X105120000Y-118580000D01*
X111470000Y-56950000D02*
X93690000Y-56950000D01*
X113550000Y-56950000D02*
X116830000Y-60230000D01*
X116950000Y-82350000D02*
X111470000Y-82350000D01*
X76720000Y-65240000D02*
X78600000Y-63360000D01*
X120410000Y-94310000D02*
X119090000Y-92990000D01*
X116830000Y-60230000D02*
X121100000Y-60230000D01*
X102580000Y-103480000D02*
X102600000Y-103500000D01*
X111470000Y-56950000D02*
X113550000Y-56950000D01*
X102650000Y-95050000D02*
X102600000Y-95000000D01*
X102750000Y-82350000D02*
X111470000Y-82350000D01*
X100100000Y-82350000D02*
X102750000Y-82350000D01*
X78600000Y-67000000D02*
X76840000Y-65240000D01*
X108600000Y-118500000D02*
X108100000Y-118500000D01*
X102580000Y-95020000D02*
X102600000Y-95000000D01*
X102650000Y-82450000D02*
X102750000Y-82350000D01*
X119090000Y-84490000D02*
X116950000Y-82350000D01*
X102650000Y-95050000D02*
X102650000Y-82450000D01*
X90600000Y-103500000D02*
X102600000Y-103500000D01*
X119090000Y-92990000D02*
X119090000Y-85560000D01*
X78600000Y-63360000D02*
X78600000Y-59500000D01*
X122600000Y-94310000D02*
X120410000Y-94310000D01*
X111470000Y-95050000D02*
X102650000Y-95050000D01*
X86990000Y-51000000D02*
X88530000Y-52540000D01*
X81100000Y-51000000D02*
X86990000Y-51000000D01*
X108020000Y-118580000D02*
X105120000Y-118580000D01*
X108100000Y-118500000D02*
X108020000Y-118580000D01*
X86180000Y-99000000D02*
X90600000Y-103420000D01*
X86600000Y-80000000D02*
X78600000Y-72000000D01*
X108600000Y-109500000D02*
X108600000Y-118500000D01*
X78600000Y-72000000D02*
X78600000Y-67000000D01*
X78600000Y-59500000D02*
X81100000Y-57000000D01*
X102600000Y-103500000D02*
X108600000Y-109500000D01*
X102580000Y-99900000D02*
X102580000Y-103480000D01*
X76840000Y-65240000D02*
X76720000Y-65240000D01*
X93690000Y-82350000D02*
X100100000Y-82350000D01*
X102580000Y-99900000D02*
X102580000Y-95020000D01*
%TO.N,LED_GND*%
X77180000Y-105880000D02*
X75980000Y-105880000D01*
X79600000Y-107000000D02*
X78480000Y-105880000D01*
X74100000Y-104000000D02*
X74100000Y-99500000D01*
X78480000Y-105880000D02*
X77180000Y-105880000D01*
X79600000Y-109500000D02*
X79600000Y-107000000D01*
X77180000Y-93180000D02*
X74280000Y-93180000D01*
X83600000Y-113500000D02*
X79600000Y-109500000D01*
X74100000Y-93000000D02*
X74100000Y-89910000D01*
X75980000Y-105880000D02*
X74100000Y-104000000D01*
X74100000Y-89910000D02*
X77180000Y-86830000D01*
X105120000Y-112480000D02*
X104100000Y-113500000D01*
X105120000Y-110960000D02*
X105120000Y-112480000D01*
X74130000Y-99530000D02*
X74100000Y-99500000D01*
X77475000Y-99530000D02*
X74130000Y-99530000D01*
X104100000Y-113500000D02*
X83600000Y-113500000D01*
X74100000Y-99500000D02*
X74100000Y-93000000D01*
X74280000Y-93180000D02*
X74100000Y-93000000D01*
%TO.N,PTT_R*%
X124100000Y-105500000D02*
X112100000Y-117500000D01*
X122370000Y-62770000D02*
X124100000Y-64500000D01*
X124100000Y-64500000D02*
X124100000Y-105500000D01*
X121100000Y-62770000D02*
X122370000Y-62770000D01*
%TO.N,TX0*%
X81720000Y-60240000D02*
X82860000Y-60240000D01*
X91230000Y-51870000D02*
X93690000Y-51870000D01*
X82860000Y-60240000D02*
X91230000Y-51870000D01*
%TO.N,RX0*%
X89600000Y-66500000D02*
X89600000Y-55500000D01*
X89600000Y-55500000D02*
X90690000Y-54410000D01*
X85860000Y-70240000D02*
X89600000Y-66500000D01*
X90690000Y-54410000D02*
X93690000Y-54410000D01*
X81720000Y-70240000D02*
X85860000Y-70240000D01*
%TD*%
%TA.AperFunction,Conductor*%
%TO.N,GND*%
G36*
X123444042Y-50000765D02*
G01*
X123458399Y-50001705D01*
X123671615Y-50015680D01*
X123681094Y-50016671D01*
X123732679Y-50024088D01*
X123739143Y-50025195D01*
X123935789Y-50064310D01*
X123946496Y-50066941D01*
X123988767Y-50079353D01*
X123993614Y-50080887D01*
X124191989Y-50148226D01*
X124203615Y-50152841D01*
X124226842Y-50163448D01*
X124230139Y-50165013D01*
X124424204Y-50260715D01*
X124432460Y-50264787D01*
X124446508Y-50272897D01*
X124650464Y-50409177D01*
X124663328Y-50419048D01*
X124847749Y-50580781D01*
X124859218Y-50592250D01*
X125020951Y-50776671D01*
X125030825Y-50789539D01*
X125167102Y-50993492D01*
X125175212Y-51007539D01*
X125274968Y-51209824D01*
X125276550Y-51213156D01*
X125287154Y-51236375D01*
X125291779Y-51248028D01*
X125359097Y-51446340D01*
X125360655Y-51451264D01*
X125373053Y-51493488D01*
X125375693Y-51504232D01*
X125414796Y-51700818D01*
X125415917Y-51707362D01*
X125423325Y-51758885D01*
X125424321Y-51768422D01*
X125439234Y-51995941D01*
X125439500Y-52004051D01*
X125439500Y-119115948D01*
X125439234Y-119124058D01*
X125424321Y-119351576D01*
X125423325Y-119361113D01*
X125415917Y-119412636D01*
X125414796Y-119419180D01*
X125375693Y-119615766D01*
X125373053Y-119626510D01*
X125360655Y-119668734D01*
X125359097Y-119673658D01*
X125291779Y-119871970D01*
X125287154Y-119883623D01*
X125287153Y-119883626D01*
X125276542Y-119906859D01*
X125274961Y-119910187D01*
X125175214Y-120112456D01*
X125167104Y-120126504D01*
X125030825Y-120330460D01*
X125020951Y-120343328D01*
X124859218Y-120527749D01*
X124847749Y-120539218D01*
X124663328Y-120700951D01*
X124650460Y-120710825D01*
X124446504Y-120847104D01*
X124432456Y-120855214D01*
X124230187Y-120954961D01*
X124226859Y-120956542D01*
X124203626Y-120967153D01*
X124191970Y-120971779D01*
X123993658Y-121039097D01*
X123988734Y-121040655D01*
X123946510Y-121053053D01*
X123935766Y-121055693D01*
X123739180Y-121094796D01*
X123732636Y-121095917D01*
X123681113Y-121103325D01*
X123671576Y-121104321D01*
X123444058Y-121119234D01*
X123435948Y-121119500D01*
X74104052Y-121119500D01*
X74095942Y-121119234D01*
X73868422Y-121104321D01*
X73858885Y-121103325D01*
X73807362Y-121095917D01*
X73800818Y-121094796D01*
X73604232Y-121055693D01*
X73593488Y-121053053D01*
X73551264Y-121040655D01*
X73546340Y-121039097D01*
X73348028Y-120971779D01*
X73336375Y-120967154D01*
X73313156Y-120956550D01*
X73309824Y-120954968D01*
X73107539Y-120855212D01*
X73093492Y-120847102D01*
X72889539Y-120710825D01*
X72876671Y-120700951D01*
X72692250Y-120539218D01*
X72680781Y-120527749D01*
X72519048Y-120343328D01*
X72509174Y-120330460D01*
X72372897Y-120126507D01*
X72364787Y-120112460D01*
X72312630Y-120006697D01*
X72265013Y-119910139D01*
X72263448Y-119906842D01*
X72252841Y-119883615D01*
X72248226Y-119871989D01*
X72180887Y-119673614D01*
X72179353Y-119668767D01*
X72166941Y-119626496D01*
X72164310Y-119615789D01*
X72125195Y-119419143D01*
X72124088Y-119412679D01*
X72116671Y-119361094D01*
X72115680Y-119351615D01*
X72100765Y-119124042D01*
X72100500Y-119115933D01*
X72100500Y-117980013D01*
X96200000Y-117980013D01*
X96200000Y-118330000D01*
X97184314Y-118330000D01*
X97179920Y-118334394D01*
X97127259Y-118425606D01*
X97100000Y-118527339D01*
X97100000Y-118632661D01*
X97127259Y-118734394D01*
X97179920Y-118825606D01*
X97184314Y-118830000D01*
X96200001Y-118830000D01*
X96200001Y-119179986D01*
X96210494Y-119282697D01*
X96265641Y-119449119D01*
X96265643Y-119449124D01*
X96357684Y-119598345D01*
X96481654Y-119722315D01*
X96630875Y-119814356D01*
X96630880Y-119814358D01*
X96797302Y-119869505D01*
X96797309Y-119869506D01*
X96900019Y-119879999D01*
X97249999Y-119879999D01*
X97250000Y-119879998D01*
X97250000Y-118895686D01*
X97254394Y-118900080D01*
X97345606Y-118952741D01*
X97447339Y-118980000D01*
X97552661Y-118980000D01*
X97654394Y-118952741D01*
X97745606Y-118900080D01*
X97750000Y-118895686D01*
X97750000Y-119879999D01*
X98099972Y-119879999D01*
X98099986Y-119879998D01*
X98202697Y-119869505D01*
X98369119Y-119814358D01*
X98369124Y-119814356D01*
X98518345Y-119722315D01*
X98642315Y-119598345D01*
X98670582Y-119552517D01*
X98767859Y-119351367D01*
X98786094Y-119331235D01*
X98801556Y-119308904D01*
X98809205Y-119305723D01*
X98814767Y-119299584D01*
X98840991Y-119292507D01*
X98866072Y-119282080D01*
X98874226Y-119283540D01*
X98882224Y-119281382D01*
X98908107Y-119289606D01*
X98934848Y-119294394D01*
X98941858Y-119300330D01*
X98948813Y-119302540D01*
X98950993Y-119305171D01*
X98960524Y-119305922D01*
X99640000Y-118626446D01*
X99640000Y-118632661D01*
X99667259Y-118734394D01*
X99719920Y-118825606D01*
X99794394Y-118900080D01*
X99885606Y-118952741D01*
X99987339Y-118980000D01*
X99993553Y-118980000D01*
X99314076Y-119659474D01*
X99358650Y-119691859D01*
X99540968Y-119784755D01*
X99735582Y-119847990D01*
X99937683Y-119880000D01*
X100142317Y-119880000D01*
X100344417Y-119847990D01*
X100539031Y-119784755D01*
X100721349Y-119691859D01*
X100765921Y-119659474D01*
X100086447Y-118980000D01*
X100092661Y-118980000D01*
X100194394Y-118952741D01*
X100285606Y-118900080D01*
X100360080Y-118825606D01*
X100412741Y-118734394D01*
X100440000Y-118632661D01*
X100440000Y-118626448D01*
X101119474Y-119305922D01*
X101119474Y-119305921D01*
X101151861Y-119261347D01*
X101151861Y-119261346D01*
X101199515Y-119167820D01*
X101247489Y-119117024D01*
X101315310Y-119100228D01*
X101381445Y-119122765D01*
X101420485Y-119167819D01*
X101468141Y-119261350D01*
X101468147Y-119261359D01*
X101500523Y-119305921D01*
X101500524Y-119305922D01*
X102180000Y-118626446D01*
X102180000Y-118632661D01*
X102207259Y-118734394D01*
X102259920Y-118825606D01*
X102334394Y-118900080D01*
X102425606Y-118952741D01*
X102527339Y-118980000D01*
X102533553Y-118980000D01*
X101854076Y-119659474D01*
X101898650Y-119691859D01*
X102080968Y-119784755D01*
X102275582Y-119847990D01*
X102477683Y-119880000D01*
X102682317Y-119880000D01*
X102884417Y-119847990D01*
X103079031Y-119784755D01*
X103261349Y-119691859D01*
X103305921Y-119659474D01*
X102626447Y-118980000D01*
X102632661Y-118980000D01*
X102734394Y-118952741D01*
X102825606Y-118900080D01*
X102900080Y-118825606D01*
X102952741Y-118734394D01*
X102980000Y-118632661D01*
X102980000Y-118626448D01*
X103659474Y-119305922D01*
X103659474Y-119305921D01*
X103691861Y-119261347D01*
X103691861Y-119261346D01*
X103739515Y-119167820D01*
X103787489Y-119117024D01*
X103855310Y-119100228D01*
X103921445Y-119122765D01*
X103960485Y-119167819D01*
X104008141Y-119261350D01*
X104008147Y-119261359D01*
X104040523Y-119305921D01*
X104040524Y-119305922D01*
X104720000Y-118626446D01*
X104720000Y-118632661D01*
X104747259Y-118734394D01*
X104799920Y-118825606D01*
X104874394Y-118900080D01*
X104965606Y-118952741D01*
X105067339Y-118980000D01*
X105073553Y-118980000D01*
X104394076Y-119659474D01*
X104438650Y-119691859D01*
X104620968Y-119784755D01*
X104815582Y-119847990D01*
X105017683Y-119880000D01*
X105222317Y-119880000D01*
X105424417Y-119847990D01*
X105619031Y-119784755D01*
X105801349Y-119691859D01*
X105845921Y-119659474D01*
X105166447Y-118980000D01*
X105172661Y-118980000D01*
X105274394Y-118952741D01*
X105365606Y-118900080D01*
X105440080Y-118825606D01*
X105492741Y-118734394D01*
X105520000Y-118632661D01*
X105520000Y-118626447D01*
X106199474Y-119305921D01*
X106231859Y-119261349D01*
X106324755Y-119079031D01*
X106387990Y-118884417D01*
X106420000Y-118682317D01*
X106420000Y-118477682D01*
X106387990Y-118275582D01*
X106324755Y-118080968D01*
X106231859Y-117898650D01*
X106199474Y-117854077D01*
X106199474Y-117854076D01*
X105520000Y-118533551D01*
X105520000Y-118527339D01*
X105492741Y-118425606D01*
X105440080Y-118334394D01*
X105365606Y-118259920D01*
X105274394Y-118207259D01*
X105172661Y-118180000D01*
X105166446Y-118180000D01*
X105845922Y-117500524D01*
X105845921Y-117500523D01*
X105801359Y-117468147D01*
X105801350Y-117468141D01*
X105689802Y-117411304D01*
X111199500Y-117411304D01*
X111199500Y-117588695D01*
X111234103Y-117762658D01*
X111234106Y-117762667D01*
X111301983Y-117926540D01*
X111301990Y-117926553D01*
X111400535Y-118074034D01*
X111400538Y-118074038D01*
X111525961Y-118199461D01*
X111525965Y-118199464D01*
X111673446Y-118298009D01*
X111673459Y-118298016D01*
X111750677Y-118330000D01*
X111837334Y-118365894D01*
X111837336Y-118365894D01*
X111837341Y-118365896D01*
X112011304Y-118400499D01*
X112011307Y-118400500D01*
X112011309Y-118400500D01*
X112188693Y-118400500D01*
X112188694Y-118400499D01*
X112246682Y-118388964D01*
X112362658Y-118365896D01*
X112362661Y-118365894D01*
X112362666Y-118365894D01*
X112526547Y-118298013D01*
X112674035Y-118199464D01*
X112799464Y-118074035D01*
X112898013Y-117926547D01*
X112965894Y-117762666D01*
X112975239Y-117715680D01*
X113007624Y-117653770D01*
X113009176Y-117652191D01*
X114742656Y-115918711D01*
X118509500Y-115918711D01*
X118509500Y-116161288D01*
X118541161Y-116401785D01*
X118603947Y-116636104D01*
X118631237Y-116701987D01*
X118696776Y-116860212D01*
X118818064Y-117070289D01*
X118818066Y-117070292D01*
X118818067Y-117070293D01*
X118965733Y-117262736D01*
X118965739Y-117262743D01*
X119137256Y-117434260D01*
X119137263Y-117434266D01*
X119181410Y-117468141D01*
X119329711Y-117581936D01*
X119539788Y-117703224D01*
X119763900Y-117796054D01*
X119998211Y-117858838D01*
X120138515Y-117877309D01*
X120238711Y-117890500D01*
X120238712Y-117890500D01*
X120481289Y-117890500D01*
X120529388Y-117884167D01*
X120721789Y-117858838D01*
X120956100Y-117796054D01*
X121180212Y-117703224D01*
X121390289Y-117581936D01*
X121582738Y-117434265D01*
X121754265Y-117262738D01*
X121901936Y-117070289D01*
X122023224Y-116860212D01*
X122116054Y-116636100D01*
X122178838Y-116401789D01*
X122210500Y-116161288D01*
X122210500Y-115918712D01*
X122178838Y-115678211D01*
X122116054Y-115443900D01*
X122023224Y-115219788D01*
X121901936Y-115009711D01*
X121754265Y-114817262D01*
X121754260Y-114817256D01*
X121582743Y-114645739D01*
X121582736Y-114645733D01*
X121390293Y-114498067D01*
X121390292Y-114498066D01*
X121390289Y-114498064D01*
X121180212Y-114376776D01*
X121180205Y-114376773D01*
X120956104Y-114283947D01*
X120723640Y-114221658D01*
X120721789Y-114221162D01*
X120721788Y-114221161D01*
X120721785Y-114221161D01*
X120481289Y-114189500D01*
X120481288Y-114189500D01*
X120238712Y-114189500D01*
X120238711Y-114189500D01*
X119998214Y-114221161D01*
X119763895Y-114283947D01*
X119539794Y-114376773D01*
X119539785Y-114376777D01*
X119329706Y-114498067D01*
X119137263Y-114645733D01*
X119137256Y-114645739D01*
X118965739Y-114817256D01*
X118965733Y-114817263D01*
X118818067Y-115009706D01*
X118696777Y-115219785D01*
X118696773Y-115219794D01*
X118603947Y-115443895D01*
X118541161Y-115678214D01*
X118509500Y-115918711D01*
X114742656Y-115918711D01*
X118709403Y-111951964D01*
X124682952Y-105978416D01*
X124732186Y-105904729D01*
X124765084Y-105855495D01*
X124793711Y-105786384D01*
X124821659Y-105718912D01*
X124850500Y-105573917D01*
X124850500Y-105426082D01*
X124850500Y-64426082D01*
X124850500Y-64426079D01*
X124821659Y-64281092D01*
X124821658Y-64281091D01*
X124821658Y-64281087D01*
X124796408Y-64220127D01*
X124765087Y-64144511D01*
X124765080Y-64144498D01*
X124682952Y-64021585D01*
X124639325Y-63977958D01*
X124578416Y-63917049D01*
X124162143Y-63500776D01*
X122848421Y-62187052D01*
X122848420Y-62187051D01*
X122840281Y-62181613D01*
X122769160Y-62134092D01*
X122767207Y-62132787D01*
X122725501Y-62104919D01*
X122725488Y-62104912D01*
X122588917Y-62048343D01*
X122588907Y-62048340D01*
X122443920Y-62019500D01*
X122443918Y-62019500D01*
X122405388Y-62019500D01*
X122338349Y-61999815D01*
X122292594Y-61947011D01*
X122282650Y-61877853D01*
X122290825Y-61848052D01*
X122311091Y-61799127D01*
X122350500Y-61601003D01*
X122350500Y-61398997D01*
X122311091Y-61200873D01*
X122277451Y-61119661D01*
X122269983Y-61050194D01*
X122289592Y-61005144D01*
X122289101Y-61004876D01*
X122292102Y-60999379D01*
X122292748Y-60997896D01*
X122293352Y-60997089D01*
X122343597Y-60862376D01*
X122343598Y-60862372D01*
X122349999Y-60802844D01*
X122350000Y-60802827D01*
X122350000Y-60480000D01*
X121465866Y-60480000D01*
X121441674Y-60477617D01*
X121426004Y-60474500D01*
X121426003Y-60474500D01*
X121385830Y-60474500D01*
X121400075Y-60460255D01*
X121449444Y-60374745D01*
X121475000Y-60279370D01*
X121475000Y-60180630D01*
X121449444Y-60085255D01*
X121400075Y-59999745D01*
X121380330Y-59980000D01*
X122350000Y-59980000D01*
X122350000Y-59657172D01*
X122349999Y-59657155D01*
X122343598Y-59597627D01*
X122343596Y-59597620D01*
X122293354Y-59462913D01*
X122293350Y-59462906D01*
X122207190Y-59347812D01*
X122207187Y-59347809D01*
X122092093Y-59261649D01*
X122092086Y-59261645D01*
X121957379Y-59211403D01*
X121957372Y-59211401D01*
X121897844Y-59205000D01*
X121350000Y-59205000D01*
X121350000Y-59949670D01*
X121330255Y-59929925D01*
X121244745Y-59880556D01*
X121149370Y-59855000D01*
X121050630Y-59855000D01*
X120955255Y-59880556D01*
X120869745Y-59929925D01*
X120850000Y-59949670D01*
X120850000Y-59205000D01*
X120302155Y-59205000D01*
X120242627Y-59211401D01*
X120242620Y-59211403D01*
X120107913Y-59261645D01*
X120107906Y-59261649D01*
X119992812Y-59347809D01*
X119992809Y-59347812D01*
X119906649Y-59462906D01*
X119906645Y-59462913D01*
X119856403Y-59597620D01*
X119856401Y-59597627D01*
X119850000Y-59657155D01*
X119850000Y-59980000D01*
X120819670Y-59980000D01*
X120799925Y-59999745D01*
X120750556Y-60085255D01*
X120725000Y-60180630D01*
X120725000Y-60279370D01*
X120750556Y-60374745D01*
X120799925Y-60460255D01*
X120814170Y-60474500D01*
X120773997Y-60474500D01*
X120773996Y-60474500D01*
X120758326Y-60477617D01*
X120734134Y-60480000D01*
X119850000Y-60480000D01*
X119850000Y-60802844D01*
X119856401Y-60862372D01*
X119856403Y-60862379D01*
X119906645Y-60997086D01*
X119907251Y-60997895D01*
X119907604Y-60998841D01*
X119910897Y-61004872D01*
X119910030Y-61005345D01*
X119931670Y-61063359D01*
X119922547Y-61119661D01*
X119888910Y-61200868D01*
X119888907Y-61200880D01*
X119849500Y-61398992D01*
X119849500Y-61601007D01*
X119888907Y-61799119D01*
X119888909Y-61799127D01*
X119966213Y-61985755D01*
X120019904Y-62066109D01*
X120040782Y-62132787D01*
X120022297Y-62200167D01*
X120019904Y-62203891D01*
X119966213Y-62284244D01*
X119888909Y-62470872D01*
X119888907Y-62470880D01*
X119849500Y-62668992D01*
X119849500Y-62871007D01*
X119888907Y-63069119D01*
X119888909Y-63069127D01*
X119966212Y-63255752D01*
X119966217Y-63255762D01*
X120078441Y-63423718D01*
X120221281Y-63566558D01*
X120389237Y-63678782D01*
X120389241Y-63678784D01*
X120389244Y-63678786D01*
X120575873Y-63756091D01*
X120773992Y-63795499D01*
X120773996Y-63795500D01*
X120773997Y-63795500D01*
X121426004Y-63795500D01*
X121426005Y-63795499D01*
X121624127Y-63756091D01*
X121810756Y-63678786D01*
X121969920Y-63572436D01*
X122036595Y-63551559D01*
X122103975Y-63570043D01*
X122126490Y-63587858D01*
X123313181Y-64774548D01*
X123346666Y-64835871D01*
X123349500Y-64862229D01*
X123349500Y-71437458D01*
X123329815Y-71504497D01*
X123277011Y-71550252D01*
X123212902Y-71560816D01*
X123200028Y-71559501D01*
X123200012Y-71559500D01*
X123200009Y-71559500D01*
X123200003Y-71559500D01*
X121999998Y-71559500D01*
X121999981Y-71559501D01*
X121897203Y-71570000D01*
X121897200Y-71570001D01*
X121730668Y-71625185D01*
X121730663Y-71625187D01*
X121581342Y-71717289D01*
X121457289Y-71841342D01*
X121365187Y-71990663D01*
X121365186Y-71990666D01*
X121310001Y-72157203D01*
X121310001Y-72157204D01*
X121310000Y-72157204D01*
X121299500Y-72259983D01*
X121299500Y-73460001D01*
X121299501Y-73460018D01*
X121310000Y-73562796D01*
X121310001Y-73562799D01*
X121355429Y-73699890D01*
X121365186Y-73729334D01*
X121457288Y-73878656D01*
X121581344Y-74002712D01*
X121730666Y-74094814D01*
X121897203Y-74149999D01*
X121999991Y-74160500D01*
X123200008Y-74160499D01*
X123212897Y-74159182D01*
X123281589Y-74171950D01*
X123332474Y-74219830D01*
X123349500Y-74282540D01*
X123349500Y-79199954D01*
X123329815Y-79266993D01*
X123277011Y-79312748D01*
X123207853Y-79322692D01*
X123169206Y-79310439D01*
X123099226Y-79274782D01*
X122904534Y-79211522D01*
X122707333Y-79180289D01*
X122702352Y-79179500D01*
X122497648Y-79179500D01*
X122492667Y-79180289D01*
X122295465Y-79211522D01*
X122100776Y-79274781D01*
X121918386Y-79367715D01*
X121752786Y-79488028D01*
X121608028Y-79632786D01*
X121487715Y-79798386D01*
X121394781Y-79980776D01*
X121331522Y-80175465D01*
X121299500Y-80377648D01*
X121299500Y-80582351D01*
X121331522Y-80784534D01*
X121394781Y-80979223D01*
X121458691Y-81104653D01*
X121487147Y-81160500D01*
X121487715Y-81161613D01*
X121608028Y-81327213D01*
X121752786Y-81471971D01*
X121850499Y-81542962D01*
X121918390Y-81592287D01*
X122005485Y-81636664D01*
X122100776Y-81685218D01*
X122100778Y-81685218D01*
X122100781Y-81685220D01*
X122205137Y-81719127D01*
X122295465Y-81748477D01*
X122368502Y-81760045D01*
X122497648Y-81780500D01*
X122497649Y-81780500D01*
X122702351Y-81780500D01*
X122702352Y-81780500D01*
X122904534Y-81748477D01*
X123099219Y-81685220D01*
X123169205Y-81649559D01*
X123237874Y-81636664D01*
X123302614Y-81662940D01*
X123342872Y-81720046D01*
X123349500Y-81760045D01*
X123349500Y-85478770D01*
X123329815Y-85545809D01*
X123277011Y-85591564D01*
X123207853Y-85601508D01*
X123144297Y-85572483D01*
X123137819Y-85566451D01*
X123118657Y-85547289D01*
X123118656Y-85547288D01*
X123019626Y-85486206D01*
X122969336Y-85455187D01*
X122969331Y-85455185D01*
X122921749Y-85439418D01*
X122802797Y-85400001D01*
X122802795Y-85400000D01*
X122700010Y-85389500D01*
X121499998Y-85389500D01*
X121499981Y-85389501D01*
X121397203Y-85400000D01*
X121397200Y-85400001D01*
X121230668Y-85455185D01*
X121230663Y-85455187D01*
X121081342Y-85547289D01*
X120957289Y-85671342D01*
X120865187Y-85820663D01*
X120865185Y-85820668D01*
X120858756Y-85840070D01*
X120810001Y-85987203D01*
X120810001Y-85987204D01*
X120810000Y-85987204D01*
X120799500Y-86089983D01*
X120799500Y-87290001D01*
X120799501Y-87290018D01*
X120810000Y-87392796D01*
X120810001Y-87392799D01*
X120831208Y-87456796D01*
X120865186Y-87559334D01*
X120957288Y-87708656D01*
X121081344Y-87832712D01*
X121230666Y-87924814D01*
X121397203Y-87979999D01*
X121499991Y-87990500D01*
X122700008Y-87990499D01*
X122802797Y-87979999D01*
X122969334Y-87924814D01*
X123118656Y-87832712D01*
X123137819Y-87813549D01*
X123199142Y-87780064D01*
X123268834Y-87785048D01*
X123324767Y-87826920D01*
X123349184Y-87892384D01*
X123349500Y-87901230D01*
X123349500Y-93463315D01*
X123329815Y-93530354D01*
X123277011Y-93576109D01*
X123215772Y-93586933D01*
X123179474Y-93584076D01*
X122500000Y-94263551D01*
X122500000Y-94257339D01*
X122472741Y-94155606D01*
X122420080Y-94064394D01*
X122345606Y-93989920D01*
X122254394Y-93937259D01*
X122152661Y-93910000D01*
X122146446Y-93910000D01*
X122825922Y-93230524D01*
X122825921Y-93230523D01*
X122781359Y-93198147D01*
X122781350Y-93198141D01*
X122599031Y-93105244D01*
X122404417Y-93042009D01*
X122202317Y-93010000D01*
X121997683Y-93010000D01*
X121795582Y-93042009D01*
X121600968Y-93105244D01*
X121418646Y-93198143D01*
X121418645Y-93198143D01*
X121374077Y-93230523D01*
X121374077Y-93230524D01*
X122053554Y-93910000D01*
X122047339Y-93910000D01*
X121945606Y-93937259D01*
X121854394Y-93989920D01*
X121779920Y-94064394D01*
X121727259Y-94155606D01*
X121700000Y-94257339D01*
X121700000Y-94263553D01*
X121020524Y-93584077D01*
X121020523Y-93584077D01*
X120988143Y-93628644D01*
X120895244Y-93810968D01*
X120832009Y-94005582D01*
X120800000Y-94207682D01*
X120800000Y-94412317D01*
X120832009Y-94614417D01*
X120895244Y-94809031D01*
X120988141Y-94991350D01*
X120988147Y-94991359D01*
X121020523Y-95035921D01*
X121020524Y-95035922D01*
X121700000Y-94356446D01*
X121700000Y-94362661D01*
X121727259Y-94464394D01*
X121779920Y-94555606D01*
X121854394Y-94630080D01*
X121945606Y-94682741D01*
X122047339Y-94710000D01*
X122053553Y-94710000D01*
X121374076Y-95389474D01*
X121418650Y-95421859D01*
X121600968Y-95514755D01*
X121795582Y-95577990D01*
X121997683Y-95610000D01*
X122202317Y-95610000D01*
X122404417Y-95577990D01*
X122599031Y-95514755D01*
X122781349Y-95421859D01*
X122825921Y-95389474D01*
X122146447Y-94710000D01*
X122152661Y-94710000D01*
X122254394Y-94682741D01*
X122345606Y-94630080D01*
X122420080Y-94555606D01*
X122472741Y-94464394D01*
X122500000Y-94362661D01*
X122500000Y-94356448D01*
X123179473Y-95035921D01*
X123215771Y-95033065D01*
X123284148Y-95047429D01*
X123333905Y-95096480D01*
X123349500Y-95156683D01*
X123349500Y-105137769D01*
X123329815Y-105204808D01*
X123313181Y-105225450D01*
X111947807Y-116590823D01*
X111886484Y-116624308D01*
X111884319Y-116624759D01*
X111837337Y-116634104D01*
X111837331Y-116634106D01*
X111673459Y-116701983D01*
X111673446Y-116701990D01*
X111525965Y-116800535D01*
X111525961Y-116800538D01*
X111400538Y-116925961D01*
X111400535Y-116925965D01*
X111301990Y-117073446D01*
X111301983Y-117073459D01*
X111234106Y-117237332D01*
X111234103Y-117237341D01*
X111199500Y-117411304D01*
X105689802Y-117411304D01*
X105619031Y-117375244D01*
X105424417Y-117312009D01*
X105222317Y-117280000D01*
X105017683Y-117280000D01*
X104815582Y-117312009D01*
X104620968Y-117375244D01*
X104438644Y-117468143D01*
X104394077Y-117500523D01*
X104394077Y-117500524D01*
X105073554Y-118180000D01*
X105067339Y-118180000D01*
X104965606Y-118207259D01*
X104874394Y-118259920D01*
X104799920Y-118334394D01*
X104747259Y-118425606D01*
X104720000Y-118527339D01*
X104720000Y-118533553D01*
X104040524Y-117854077D01*
X104040523Y-117854077D01*
X104008143Y-117898644D01*
X103960485Y-117992180D01*
X103912510Y-118042976D01*
X103844689Y-118059771D01*
X103778554Y-118037233D01*
X103739515Y-117992180D01*
X103691859Y-117898650D01*
X103659474Y-117854077D01*
X103659474Y-117854076D01*
X102980000Y-118533551D01*
X102980000Y-118527339D01*
X102952741Y-118425606D01*
X102900080Y-118334394D01*
X102825606Y-118259920D01*
X102734394Y-118207259D01*
X102632661Y-118180000D01*
X102626446Y-118180000D01*
X103305922Y-117500524D01*
X103305921Y-117500523D01*
X103261359Y-117468147D01*
X103261350Y-117468141D01*
X103079031Y-117375244D01*
X102884417Y-117312009D01*
X102682317Y-117280000D01*
X102477683Y-117280000D01*
X102275582Y-117312009D01*
X102080968Y-117375244D01*
X101898644Y-117468143D01*
X101854077Y-117500523D01*
X101854077Y-117500524D01*
X102533554Y-118180000D01*
X102527339Y-118180000D01*
X102425606Y-118207259D01*
X102334394Y-118259920D01*
X102259920Y-118334394D01*
X102207259Y-118425606D01*
X102180000Y-118527339D01*
X102180000Y-118533553D01*
X101500524Y-117854077D01*
X101500523Y-117854077D01*
X101468143Y-117898644D01*
X101420485Y-117992180D01*
X101372510Y-118042976D01*
X101304689Y-118059771D01*
X101238554Y-118037233D01*
X101199515Y-117992180D01*
X101151859Y-117898650D01*
X101119474Y-117854077D01*
X101119474Y-117854076D01*
X100440000Y-118533551D01*
X100440000Y-118527339D01*
X100412741Y-118425606D01*
X100360080Y-118334394D01*
X100285606Y-118259920D01*
X100194394Y-118207259D01*
X100092661Y-118180000D01*
X100086446Y-118180000D01*
X100765922Y-117500524D01*
X100765921Y-117500523D01*
X100721359Y-117468147D01*
X100721350Y-117468141D01*
X100539031Y-117375244D01*
X100344417Y-117312009D01*
X100142317Y-117280000D01*
X99937683Y-117280000D01*
X99735582Y-117312009D01*
X99540968Y-117375244D01*
X99358644Y-117468143D01*
X99314077Y-117500523D01*
X99314077Y-117500524D01*
X99993554Y-118180000D01*
X99987339Y-118180000D01*
X99885606Y-118207259D01*
X99794394Y-118259920D01*
X99719920Y-118334394D01*
X99667259Y-118425606D01*
X99640000Y-118527339D01*
X99640000Y-118533553D01*
X98960524Y-117854077D01*
X98943660Y-117855404D01*
X98924475Y-117870198D01*
X98920416Y-117870546D01*
X98917040Y-117872823D01*
X98885898Y-117873509D01*
X98854861Y-117876174D01*
X98851258Y-117874273D01*
X98847188Y-117874363D01*
X98820620Y-117858105D01*
X98793067Y-117843566D01*
X98790068Y-117839409D01*
X98787591Y-117837894D01*
X98781756Y-117827890D01*
X98767860Y-117808631D01*
X98670580Y-117607477D01*
X98642319Y-117561659D01*
X98642316Y-117561655D01*
X98518345Y-117437684D01*
X98369124Y-117345643D01*
X98369119Y-117345641D01*
X98202697Y-117290494D01*
X98202690Y-117290493D01*
X98099986Y-117280000D01*
X97750000Y-117280000D01*
X97750000Y-118264314D01*
X97745606Y-118259920D01*
X97654394Y-118207259D01*
X97552661Y-118180000D01*
X97447339Y-118180000D01*
X97345606Y-118207259D01*
X97254394Y-118259920D01*
X97250000Y-118264314D01*
X97250000Y-117280000D01*
X96900028Y-117280000D01*
X96900012Y-117280001D01*
X96797302Y-117290494D01*
X96630880Y-117345641D01*
X96630875Y-117345643D01*
X96481654Y-117437684D01*
X96357684Y-117561654D01*
X96265643Y-117710875D01*
X96265641Y-117710880D01*
X96210494Y-117877302D01*
X96210493Y-117877309D01*
X96200000Y-117980013D01*
X72100500Y-117980013D01*
X72100500Y-115918711D01*
X75329500Y-115918711D01*
X75329500Y-116161288D01*
X75361161Y-116401785D01*
X75423947Y-116636104D01*
X75451237Y-116701987D01*
X75516776Y-116860212D01*
X75638064Y-117070289D01*
X75638066Y-117070292D01*
X75638067Y-117070293D01*
X75785733Y-117262736D01*
X75785739Y-117262743D01*
X75957256Y-117434260D01*
X75957263Y-117434266D01*
X76001410Y-117468141D01*
X76149711Y-117581936D01*
X76359788Y-117703224D01*
X76583900Y-117796054D01*
X76818211Y-117858838D01*
X76958515Y-117877309D01*
X77058711Y-117890500D01*
X77058712Y-117890500D01*
X77301289Y-117890500D01*
X77349388Y-117884167D01*
X77541789Y-117858838D01*
X77776100Y-117796054D01*
X78000212Y-117703224D01*
X78210289Y-117581936D01*
X78402738Y-117434265D01*
X78574265Y-117262738D01*
X78721936Y-117070289D01*
X78843224Y-116860212D01*
X78936054Y-116636100D01*
X78998838Y-116401789D01*
X79030500Y-116161288D01*
X79030500Y-115918712D01*
X78998838Y-115678211D01*
X78936054Y-115443900D01*
X78843224Y-115219788D01*
X78721936Y-115009711D01*
X78574265Y-114817262D01*
X78574260Y-114817256D01*
X78402743Y-114645739D01*
X78402736Y-114645733D01*
X78210293Y-114498067D01*
X78210292Y-114498066D01*
X78210289Y-114498064D01*
X78000212Y-114376776D01*
X78000205Y-114376773D01*
X77776104Y-114283947D01*
X77543640Y-114221658D01*
X77541789Y-114221162D01*
X77541788Y-114221161D01*
X77541785Y-114221161D01*
X77301289Y-114189500D01*
X77301288Y-114189500D01*
X77058712Y-114189500D01*
X77058711Y-114189500D01*
X76818214Y-114221161D01*
X76583895Y-114283947D01*
X76359794Y-114376773D01*
X76359785Y-114376777D01*
X76149706Y-114498067D01*
X75957263Y-114645733D01*
X75957256Y-114645739D01*
X75785739Y-114817256D01*
X75785733Y-114817263D01*
X75638067Y-115009706D01*
X75516777Y-115219785D01*
X75516773Y-115219794D01*
X75423947Y-115443895D01*
X75361161Y-115678214D01*
X75329500Y-115918711D01*
X72100500Y-115918711D01*
X72100500Y-104073920D01*
X73349499Y-104073920D01*
X73378340Y-104218907D01*
X73378343Y-104218917D01*
X73434912Y-104355488D01*
X73434914Y-104355492D01*
X73434916Y-104355495D01*
X73450662Y-104379060D01*
X73517051Y-104478420D01*
X73517052Y-104478421D01*
X74943356Y-105904723D01*
X75397048Y-106358415D01*
X75397049Y-106358416D01*
X75455682Y-106417049D01*
X75501585Y-106462952D01*
X75624498Y-106545080D01*
X75624511Y-106545087D01*
X75702952Y-106577578D01*
X75757356Y-106621419D01*
X75779421Y-106687713D01*
X75779500Y-106692138D01*
X75779500Y-106827869D01*
X75779501Y-106827876D01*
X75785908Y-106887483D01*
X75836202Y-107022328D01*
X75836206Y-107022335D01*
X75922452Y-107137544D01*
X75922455Y-107137547D01*
X76037664Y-107223793D01*
X76037671Y-107223797D01*
X76117580Y-107253601D01*
X76173514Y-107295472D01*
X76197931Y-107360936D01*
X76183080Y-107429209D01*
X76161929Y-107457463D01*
X76111756Y-107507636D01*
X76111752Y-107507641D01*
X75982187Y-107685974D01*
X75882104Y-107882393D01*
X75882103Y-107882396D01*
X75813985Y-108092047D01*
X75779500Y-108309778D01*
X75779500Y-108530221D01*
X75813985Y-108747952D01*
X75882103Y-108957603D01*
X75882104Y-108957606D01*
X75982187Y-109154025D01*
X76111752Y-109332358D01*
X76111756Y-109332363D01*
X76267636Y-109488243D01*
X76267641Y-109488247D01*
X76423192Y-109601260D01*
X76445978Y-109617815D01*
X76527789Y-109659500D01*
X76642393Y-109717895D01*
X76642396Y-109717896D01*
X76747221Y-109751955D01*
X76852049Y-109786015D01*
X77069778Y-109820500D01*
X77069779Y-109820500D01*
X77290221Y-109820500D01*
X77290222Y-109820500D01*
X77507951Y-109786015D01*
X77717606Y-109717895D01*
X77914022Y-109617815D01*
X78092365Y-109488242D01*
X78248242Y-109332365D01*
X78377815Y-109154022D01*
X78477895Y-108957606D01*
X78546015Y-108747951D01*
X78580500Y-108530222D01*
X78580500Y-108309778D01*
X78546015Y-108092049D01*
X78477895Y-107882394D01*
X78477895Y-107882393D01*
X78443237Y-107814375D01*
X78377815Y-107685978D01*
X78342902Y-107637924D01*
X78248247Y-107507641D01*
X78248243Y-107507636D01*
X78198071Y-107457464D01*
X78164586Y-107396141D01*
X78169570Y-107326449D01*
X78211442Y-107270516D01*
X78242420Y-107253601D01*
X78322326Y-107223798D01*
X78322326Y-107223797D01*
X78322331Y-107223796D01*
X78437546Y-107137546D01*
X78453950Y-107115632D01*
X78509881Y-107073764D01*
X78579572Y-107068779D01*
X78640894Y-107102262D01*
X78640896Y-107102263D01*
X78640896Y-107102264D01*
X78813181Y-107274548D01*
X78846666Y-107335871D01*
X78849500Y-107362229D01*
X78849500Y-109573918D01*
X78849500Y-109573920D01*
X78849499Y-109573920D01*
X78878340Y-109718907D01*
X78878343Y-109718917D01*
X78934914Y-109855492D01*
X78967812Y-109904727D01*
X78967813Y-109904730D01*
X79017046Y-109978414D01*
X79017052Y-109978421D01*
X83017049Y-113978416D01*
X83121583Y-114082950D01*
X83121585Y-114082952D01*
X83244498Y-114165080D01*
X83244511Y-114165087D01*
X83381082Y-114221656D01*
X83381087Y-114221658D01*
X83381091Y-114221658D01*
X83381092Y-114221659D01*
X83526079Y-114250500D01*
X83526082Y-114250500D01*
X104173920Y-114250500D01*
X104271462Y-114231096D01*
X104318913Y-114221658D01*
X104455495Y-114165084D01*
X104504729Y-114132186D01*
X104578416Y-114082952D01*
X105702952Y-112958416D01*
X105752186Y-112884729D01*
X105785084Y-112835495D01*
X105841658Y-112698913D01*
X105870500Y-112553918D01*
X105870500Y-112085416D01*
X105890185Y-112018377D01*
X105921613Y-111985099D01*
X105967219Y-111951966D01*
X106111966Y-111807219D01*
X106111968Y-111807215D01*
X106111971Y-111807213D01*
X106164732Y-111734590D01*
X106232287Y-111641610D01*
X106325220Y-111459219D01*
X106388477Y-111264534D01*
X106420500Y-111062352D01*
X106420500Y-110857648D01*
X106388477Y-110655466D01*
X106325220Y-110460781D01*
X106325218Y-110460778D01*
X106325218Y-110460776D01*
X106279515Y-110371080D01*
X106232287Y-110278390D01*
X106224556Y-110267749D01*
X106111971Y-110112786D01*
X105967213Y-109968028D01*
X105801613Y-109847715D01*
X105801612Y-109847714D01*
X105801610Y-109847713D01*
X105744653Y-109818691D01*
X105619223Y-109754781D01*
X105424534Y-109691522D01*
X105249995Y-109663878D01*
X105222352Y-109659500D01*
X105017648Y-109659500D01*
X104993329Y-109663351D01*
X104815465Y-109691522D01*
X104620776Y-109754781D01*
X104438386Y-109847715D01*
X104272786Y-109968028D01*
X104128028Y-110112786D01*
X104007715Y-110278386D01*
X103960485Y-110371080D01*
X103912510Y-110421876D01*
X103844689Y-110438671D01*
X103778554Y-110416134D01*
X103739515Y-110371080D01*
X103738883Y-110369840D01*
X103692287Y-110278390D01*
X103684556Y-110267749D01*
X103571971Y-110112786D01*
X103427213Y-109968028D01*
X103261613Y-109847715D01*
X103261612Y-109847714D01*
X103261610Y-109847713D01*
X103204653Y-109818691D01*
X103079223Y-109754781D01*
X102884534Y-109691522D01*
X102709995Y-109663878D01*
X102682352Y-109659500D01*
X102477648Y-109659500D01*
X102453329Y-109663351D01*
X102275465Y-109691522D01*
X102080776Y-109754781D01*
X101898386Y-109847715D01*
X101732786Y-109968028D01*
X101588028Y-110112786D01*
X101467715Y-110278386D01*
X101420485Y-110371080D01*
X101372510Y-110421876D01*
X101304689Y-110438671D01*
X101238554Y-110416134D01*
X101199515Y-110371080D01*
X101198883Y-110369840D01*
X101152287Y-110278390D01*
X101144556Y-110267749D01*
X101031971Y-110112786D01*
X100887213Y-109968028D01*
X100721613Y-109847715D01*
X100721612Y-109847714D01*
X100721610Y-109847713D01*
X100664653Y-109818691D01*
X100539223Y-109754781D01*
X100344534Y-109691522D01*
X100169995Y-109663878D01*
X100142352Y-109659500D01*
X99937648Y-109659500D01*
X99913329Y-109663351D01*
X99735465Y-109691522D01*
X99540776Y-109754781D01*
X99358386Y-109847715D01*
X99192786Y-109968028D01*
X99048028Y-110112786D01*
X98927715Y-110278386D01*
X98880485Y-110371080D01*
X98832510Y-110421876D01*
X98764689Y-110438671D01*
X98698554Y-110416134D01*
X98659515Y-110371080D01*
X98658883Y-110369840D01*
X98612287Y-110278390D01*
X98604556Y-110267749D01*
X98491971Y-110112786D01*
X98347213Y-109968028D01*
X98181613Y-109847715D01*
X98181612Y-109847714D01*
X98181610Y-109847713D01*
X98124653Y-109818691D01*
X97999223Y-109754781D01*
X97804534Y-109691522D01*
X97629995Y-109663878D01*
X97602352Y-109659500D01*
X97397648Y-109659500D01*
X97373329Y-109663351D01*
X97195465Y-109691522D01*
X97000776Y-109754781D01*
X96818386Y-109847715D01*
X96652786Y-109968028D01*
X96508028Y-110112786D01*
X96387715Y-110278386D01*
X96294781Y-110460776D01*
X96231522Y-110655465D01*
X96199500Y-110857648D01*
X96199500Y-111062351D01*
X96231522Y-111264534D01*
X96294781Y-111459223D01*
X96387715Y-111641613D01*
X96508028Y-111807213D01*
X96652786Y-111951971D01*
X96774535Y-112040425D01*
X96818390Y-112072287D01*
X96934607Y-112131503D01*
X97000776Y-112165218D01*
X97000778Y-112165218D01*
X97000781Y-112165220D01*
X97061070Y-112184809D01*
X97195465Y-112228477D01*
X97296557Y-112244488D01*
X97397648Y-112260500D01*
X97397649Y-112260500D01*
X97602351Y-112260500D01*
X97602352Y-112260500D01*
X97804534Y-112228477D01*
X97999219Y-112165220D01*
X98181610Y-112072287D01*
X98301619Y-111985096D01*
X98347213Y-111951971D01*
X98347215Y-111951968D01*
X98347219Y-111951966D01*
X98491966Y-111807219D01*
X98491968Y-111807215D01*
X98491971Y-111807213D01*
X98612284Y-111641614D01*
X98612285Y-111641613D01*
X98612287Y-111641610D01*
X98659516Y-111548917D01*
X98707489Y-111498123D01*
X98775310Y-111481328D01*
X98841445Y-111503865D01*
X98880485Y-111548919D01*
X98927715Y-111641614D01*
X99048028Y-111807213D01*
X99192786Y-111951971D01*
X99314535Y-112040425D01*
X99358390Y-112072287D01*
X99474607Y-112131503D01*
X99540776Y-112165218D01*
X99540778Y-112165218D01*
X99540781Y-112165220D01*
X99601070Y-112184809D01*
X99735465Y-112228477D01*
X99836557Y-112244488D01*
X99937648Y-112260500D01*
X99937649Y-112260500D01*
X100142351Y-112260500D01*
X100142352Y-112260500D01*
X100344534Y-112228477D01*
X100539219Y-112165220D01*
X100721610Y-112072287D01*
X100841619Y-111985096D01*
X100887213Y-111951971D01*
X100887215Y-111951968D01*
X100887219Y-111951966D01*
X101031966Y-111807219D01*
X101031968Y-111807215D01*
X101031971Y-111807213D01*
X101152284Y-111641614D01*
X101152285Y-111641613D01*
X101152287Y-111641610D01*
X101199516Y-111548917D01*
X101247489Y-111498123D01*
X101315310Y-111481328D01*
X101381445Y-111503865D01*
X101420485Y-111548919D01*
X101467715Y-111641614D01*
X101588028Y-111807213D01*
X101732786Y-111951971D01*
X101854535Y-112040425D01*
X101898390Y-112072287D01*
X102014607Y-112131503D01*
X102080776Y-112165218D01*
X102080778Y-112165218D01*
X102080781Y-112165220D01*
X102141070Y-112184809D01*
X102275465Y-112228477D01*
X102376557Y-112244488D01*
X102477648Y-112260500D01*
X102477649Y-112260500D01*
X102682351Y-112260500D01*
X102682352Y-112260500D01*
X102884534Y-112228477D01*
X103079219Y-112165220D01*
X103261610Y-112072287D01*
X103381619Y-111985096D01*
X103427213Y-111951971D01*
X103427215Y-111951968D01*
X103427219Y-111951966D01*
X103571966Y-111807219D01*
X103571968Y-111807215D01*
X103571971Y-111807213D01*
X103692284Y-111641614D01*
X103692285Y-111641613D01*
X103692287Y-111641610D01*
X103739516Y-111548917D01*
X103787489Y-111498123D01*
X103855310Y-111481328D01*
X103921445Y-111503865D01*
X103960485Y-111548919D01*
X104007715Y-111641614D01*
X104128028Y-111807213D01*
X104128034Y-111807219D01*
X104272781Y-111951966D01*
X104318384Y-111985098D01*
X104321724Y-111989429D01*
X104326703Y-111991703D01*
X104342832Y-112016801D01*
X104361050Y-112040425D01*
X104362303Y-112047098D01*
X104364477Y-112050481D01*
X104369500Y-112085416D01*
X104369500Y-112117770D01*
X104349815Y-112184809D01*
X104333181Y-112205451D01*
X103825451Y-112713181D01*
X103764128Y-112746666D01*
X103737770Y-112749500D01*
X83962229Y-112749500D01*
X83895190Y-112729815D01*
X83874548Y-112713181D01*
X80386819Y-109225451D01*
X80353334Y-109164128D01*
X80350500Y-109137770D01*
X80350500Y-108325513D01*
X81009500Y-108325513D01*
X81009500Y-108514486D01*
X81039059Y-108701118D01*
X81097454Y-108880836D01*
X81136571Y-108957606D01*
X81183240Y-109049199D01*
X81294310Y-109202073D01*
X81427927Y-109335690D01*
X81580801Y-109446760D01*
X81660347Y-109487290D01*
X81749163Y-109532545D01*
X81749165Y-109532545D01*
X81749168Y-109532547D01*
X81845497Y-109563846D01*
X81928881Y-109590940D01*
X82115514Y-109620500D01*
X82115519Y-109620500D01*
X82304486Y-109620500D01*
X82491118Y-109590940D01*
X82670832Y-109532547D01*
X82839199Y-109446760D01*
X82992073Y-109335690D01*
X83125690Y-109202073D01*
X83236760Y-109049199D01*
X83322547Y-108880832D01*
X83380940Y-108701118D01*
X83410500Y-108514486D01*
X83410500Y-108325513D01*
X86089500Y-108325513D01*
X86089500Y-108514486D01*
X86119059Y-108701118D01*
X86177454Y-108880836D01*
X86216571Y-108957606D01*
X86263240Y-109049199D01*
X86374310Y-109202073D01*
X86507927Y-109335690D01*
X86660801Y-109446760D01*
X86740347Y-109487290D01*
X86829163Y-109532545D01*
X86829165Y-109532545D01*
X86829168Y-109532547D01*
X86925497Y-109563846D01*
X87008881Y-109590940D01*
X87195514Y-109620500D01*
X87195519Y-109620500D01*
X87384486Y-109620500D01*
X87571118Y-109590940D01*
X87750832Y-109532547D01*
X87919199Y-109446760D01*
X88072073Y-109335690D01*
X88205690Y-109202073D01*
X88316760Y-109049199D01*
X88402547Y-108880832D01*
X88460940Y-108701118D01*
X88490500Y-108514486D01*
X88490500Y-108325513D01*
X88460940Y-108138881D01*
X88402545Y-107959163D01*
X88316759Y-107790800D01*
X88205690Y-107637927D01*
X88072073Y-107504310D01*
X87919199Y-107393240D01*
X87750836Y-107307454D01*
X87571118Y-107249059D01*
X87384486Y-107219500D01*
X87384481Y-107219500D01*
X87195519Y-107219500D01*
X87195514Y-107219500D01*
X87008881Y-107249059D01*
X86829163Y-107307454D01*
X86660800Y-107393240D01*
X86611294Y-107429209D01*
X86507927Y-107504310D01*
X86507925Y-107504312D01*
X86507924Y-107504312D01*
X86374312Y-107637924D01*
X86374312Y-107637925D01*
X86374310Y-107637927D01*
X86339402Y-107685974D01*
X86263240Y-107790800D01*
X86177454Y-107959163D01*
X86119059Y-108138881D01*
X86089500Y-108325513D01*
X83410500Y-108325513D01*
X83380940Y-108138881D01*
X83322545Y-107959163D01*
X83236759Y-107790800D01*
X83125690Y-107637927D01*
X82992073Y-107504310D01*
X82839199Y-107393240D01*
X82670836Y-107307454D01*
X82491118Y-107249059D01*
X82304486Y-107219500D01*
X82304481Y-107219500D01*
X82115519Y-107219500D01*
X82115514Y-107219500D01*
X81928881Y-107249059D01*
X81749163Y-107307454D01*
X81580800Y-107393240D01*
X81531294Y-107429209D01*
X81427927Y-107504310D01*
X81427925Y-107504312D01*
X81427924Y-107504312D01*
X81294312Y-107637924D01*
X81294312Y-107637925D01*
X81294310Y-107637927D01*
X81259402Y-107685974D01*
X81183240Y-107790800D01*
X81097454Y-107959163D01*
X81039059Y-108138881D01*
X81009500Y-108325513D01*
X80350500Y-108325513D01*
X80350500Y-106926079D01*
X80321659Y-106781092D01*
X80321658Y-106781091D01*
X80321658Y-106781087D01*
X80321656Y-106781082D01*
X80265087Y-106644511D01*
X80265080Y-106644498D01*
X80182952Y-106521585D01*
X80182951Y-106521584D01*
X80078416Y-106417049D01*
X79840566Y-106179199D01*
X78958421Y-105297052D01*
X78958414Y-105297046D01*
X78884729Y-105247812D01*
X78884729Y-105247813D01*
X78835491Y-105214913D01*
X78698915Y-105158342D01*
X78698910Y-105158341D01*
X78680305Y-105154640D01*
X78618395Y-105122253D01*
X78583822Y-105061537D01*
X78580499Y-105033023D01*
X78580499Y-104932129D01*
X78580498Y-104932123D01*
X78574091Y-104872516D01*
X78523797Y-104737671D01*
X78523793Y-104737664D01*
X78437547Y-104622455D01*
X78437544Y-104622452D01*
X78322335Y-104536206D01*
X78322328Y-104536202D01*
X78187482Y-104485908D01*
X78187483Y-104485908D01*
X78127883Y-104479501D01*
X78127881Y-104479500D01*
X78127873Y-104479500D01*
X78127864Y-104479500D01*
X76232129Y-104479500D01*
X76232123Y-104479501D01*
X76172516Y-104485908D01*
X76037671Y-104536202D01*
X76037669Y-104536203D01*
X75955905Y-104597412D01*
X75944664Y-104605828D01*
X75929187Y-104617414D01*
X75863723Y-104641831D01*
X75795450Y-104626980D01*
X75767195Y-104605828D01*
X74886819Y-103725451D01*
X74853334Y-103664128D01*
X74850500Y-103637770D01*
X74850500Y-100404500D01*
X74870185Y-100337461D01*
X74922989Y-100291706D01*
X74974500Y-100280500D01*
X75950501Y-100280500D01*
X76017540Y-100300185D01*
X76063295Y-100352989D01*
X76074501Y-100404500D01*
X76074501Y-100477876D01*
X76080908Y-100537483D01*
X76131202Y-100672328D01*
X76131206Y-100672335D01*
X76217452Y-100787544D01*
X76217455Y-100787547D01*
X76332664Y-100873793D01*
X76332671Y-100873797D01*
X76412580Y-100903601D01*
X76468514Y-100945472D01*
X76492931Y-101010936D01*
X76478080Y-101079209D01*
X76456929Y-101107463D01*
X76406756Y-101157636D01*
X76406752Y-101157641D01*
X76277187Y-101335974D01*
X76177104Y-101532393D01*
X76177103Y-101532396D01*
X76108985Y-101742047D01*
X76074500Y-101959778D01*
X76074500Y-102180221D01*
X76108985Y-102397952D01*
X76177103Y-102607603D01*
X76177104Y-102607606D01*
X76277187Y-102804025D01*
X76406752Y-102982358D01*
X76406756Y-102982363D01*
X76562636Y-103138243D01*
X76562641Y-103138247D01*
X76718192Y-103251260D01*
X76740978Y-103267815D01*
X76851085Y-103323918D01*
X76937393Y-103367895D01*
X76937396Y-103367896D01*
X77042221Y-103401955D01*
X77147049Y-103436015D01*
X77364778Y-103470500D01*
X77364779Y-103470500D01*
X77585221Y-103470500D01*
X77585222Y-103470500D01*
X77802951Y-103436015D01*
X78012606Y-103367895D01*
X78209022Y-103267815D01*
X78387365Y-103138242D01*
X78543242Y-102982365D01*
X78672815Y-102804022D01*
X78772895Y-102607606D01*
X78841015Y-102397951D01*
X78875500Y-102180222D01*
X78875500Y-101975513D01*
X79739500Y-101975513D01*
X79739500Y-102164486D01*
X79769059Y-102351118D01*
X79827454Y-102530836D01*
X79866571Y-102607606D01*
X79913240Y-102699199D01*
X80024310Y-102852073D01*
X80157927Y-102985690D01*
X80310801Y-103096760D01*
X80390347Y-103137290D01*
X80479163Y-103182545D01*
X80479165Y-103182545D01*
X80479168Y-103182547D01*
X80575497Y-103213846D01*
X80658881Y-103240940D01*
X80845514Y-103270500D01*
X80845519Y-103270500D01*
X81034486Y-103270500D01*
X81221118Y-103240940D01*
X81400832Y-103182547D01*
X81569199Y-103096760D01*
X81722073Y-102985690D01*
X81855690Y-102852073D01*
X81966760Y-102699199D01*
X82052547Y-102530832D01*
X82110940Y-102351118D01*
X82140500Y-102164486D01*
X82140500Y-101975513D01*
X82110940Y-101788881D01*
X82052545Y-101609163D01*
X82007290Y-101520347D01*
X81966760Y-101440801D01*
X81855690Y-101287927D01*
X81722073Y-101154310D01*
X81569199Y-101043240D01*
X81505799Y-101010936D01*
X81400836Y-100957454D01*
X81221118Y-100899059D01*
X81034486Y-100869500D01*
X81034481Y-100869500D01*
X80845519Y-100869500D01*
X80845514Y-100869500D01*
X80658881Y-100899059D01*
X80479163Y-100957454D01*
X80310800Y-101043240D01*
X80261294Y-101079209D01*
X80157927Y-101154310D01*
X80157925Y-101154312D01*
X80157924Y-101154312D01*
X80024312Y-101287924D01*
X80024312Y-101287925D01*
X80024310Y-101287927D01*
X79989402Y-101335974D01*
X79913240Y-101440800D01*
X79827454Y-101609163D01*
X79769059Y-101788881D01*
X79739500Y-101975513D01*
X78875500Y-101975513D01*
X78875500Y-101959778D01*
X78841015Y-101742049D01*
X78772895Y-101532394D01*
X78772895Y-101532393D01*
X78729509Y-101447246D01*
X78672815Y-101335978D01*
X78635815Y-101285051D01*
X78543247Y-101157641D01*
X78543243Y-101157636D01*
X78493071Y-101107464D01*
X78459586Y-101046141D01*
X78464570Y-100976449D01*
X78506442Y-100920516D01*
X78537420Y-100903601D01*
X78617326Y-100873798D01*
X78617326Y-100873797D01*
X78617331Y-100873796D01*
X78732546Y-100787546D01*
X78818796Y-100672331D01*
X78869091Y-100537483D01*
X78875500Y-100477873D01*
X78875499Y-98905513D01*
X79899500Y-98905513D01*
X79899500Y-99094486D01*
X79929059Y-99281118D01*
X79987454Y-99460836D01*
X80064265Y-99611585D01*
X80073240Y-99629199D01*
X80184310Y-99782073D01*
X80317927Y-99915690D01*
X80470801Y-100026760D01*
X80550347Y-100067290D01*
X80639163Y-100112545D01*
X80639165Y-100112545D01*
X80639168Y-100112547D01*
X80735497Y-100143846D01*
X80818881Y-100170940D01*
X81005514Y-100200500D01*
X81005519Y-100200500D01*
X81194486Y-100200500D01*
X81381118Y-100170940D01*
X81382623Y-100170451D01*
X81560832Y-100112547D01*
X81729199Y-100026760D01*
X81882073Y-99915690D01*
X82015690Y-99782073D01*
X82126760Y-99629199D01*
X82212547Y-99460832D01*
X82270940Y-99281118D01*
X82285026Y-99192184D01*
X82300500Y-99094486D01*
X82300500Y-98905513D01*
X82270940Y-98718881D01*
X82226506Y-98582129D01*
X82212547Y-98539168D01*
X82212545Y-98539165D01*
X82212545Y-98539163D01*
X82167290Y-98450347D01*
X82126760Y-98370801D01*
X82015690Y-98217927D01*
X81882073Y-98084310D01*
X81729199Y-97973240D01*
X81560836Y-97887454D01*
X81381118Y-97829059D01*
X81194486Y-97799500D01*
X81194481Y-97799500D01*
X81005519Y-97799500D01*
X81005514Y-97799500D01*
X80818881Y-97829059D01*
X80639163Y-97887454D01*
X80470800Y-97973240D01*
X80383579Y-98036610D01*
X80317927Y-98084310D01*
X80317925Y-98084312D01*
X80317924Y-98084312D01*
X80184312Y-98217924D01*
X80184312Y-98217925D01*
X80184310Y-98217927D01*
X80144695Y-98272452D01*
X80073240Y-98370800D01*
X79987454Y-98539163D01*
X79929059Y-98718881D01*
X79899500Y-98905513D01*
X78875499Y-98905513D01*
X78875499Y-98582128D01*
X78869091Y-98522517D01*
X78818796Y-98387669D01*
X78818795Y-98387668D01*
X78818793Y-98387664D01*
X78732547Y-98272455D01*
X78732544Y-98272452D01*
X78617335Y-98186206D01*
X78617328Y-98186202D01*
X78482482Y-98135908D01*
X78482483Y-98135908D01*
X78422883Y-98129501D01*
X78422881Y-98129500D01*
X78422873Y-98129500D01*
X78422864Y-98129500D01*
X76527129Y-98129500D01*
X76527123Y-98129501D01*
X76467516Y-98135908D01*
X76332671Y-98186202D01*
X76332664Y-98186206D01*
X76217455Y-98272452D01*
X76217452Y-98272455D01*
X76131206Y-98387664D01*
X76131202Y-98387671D01*
X76080908Y-98522517D01*
X76074501Y-98582116D01*
X76074501Y-98582123D01*
X76074500Y-98582135D01*
X76074500Y-98655500D01*
X76054815Y-98722539D01*
X76002011Y-98768294D01*
X75950500Y-98779500D01*
X74974500Y-98779500D01*
X74907461Y-98759815D01*
X74861706Y-98707011D01*
X74850500Y-98655500D01*
X74850500Y-94054500D01*
X74870185Y-93987461D01*
X74922989Y-93941706D01*
X74974500Y-93930500D01*
X75655501Y-93930500D01*
X75722540Y-93950185D01*
X75768295Y-94002989D01*
X75779501Y-94054500D01*
X75779501Y-94127876D01*
X75785908Y-94187483D01*
X75836202Y-94322328D01*
X75836206Y-94322335D01*
X75922452Y-94437544D01*
X75922455Y-94437547D01*
X76037664Y-94523793D01*
X76037671Y-94523797D01*
X76117580Y-94553601D01*
X76173514Y-94595472D01*
X76197931Y-94660936D01*
X76183080Y-94729209D01*
X76161929Y-94757463D01*
X76111756Y-94807636D01*
X76111752Y-94807641D01*
X75982187Y-94985974D01*
X75882104Y-95182393D01*
X75882103Y-95182396D01*
X75813985Y-95392047D01*
X75779500Y-95609778D01*
X75779500Y-95830221D01*
X75813985Y-96047952D01*
X75882103Y-96257603D01*
X75882104Y-96257606D01*
X75923294Y-96338443D01*
X75972132Y-96434293D01*
X75982187Y-96454025D01*
X76111752Y-96632358D01*
X76111756Y-96632363D01*
X76267636Y-96788243D01*
X76267641Y-96788247D01*
X76423192Y-96901260D01*
X76445978Y-96917815D01*
X76574375Y-96983237D01*
X76642393Y-97017895D01*
X76642396Y-97017896D01*
X76747221Y-97051955D01*
X76852049Y-97086015D01*
X77069778Y-97120500D01*
X77069779Y-97120500D01*
X77290221Y-97120500D01*
X77290222Y-97120500D01*
X77507951Y-97086015D01*
X77717606Y-97017895D01*
X77914022Y-96917815D01*
X78092365Y-96788242D01*
X78248242Y-96632365D01*
X78377815Y-96454022D01*
X78477895Y-96257606D01*
X78477915Y-96257546D01*
X78483778Y-96239500D01*
X78546015Y-96047951D01*
X78580500Y-95830222D01*
X78580500Y-95625513D01*
X79739500Y-95625513D01*
X79739500Y-95814486D01*
X79769059Y-96001118D01*
X79827454Y-96180836D01*
X79910487Y-96343796D01*
X79913240Y-96349199D01*
X80024310Y-96502073D01*
X80157927Y-96635690D01*
X80310801Y-96746760D01*
X80390347Y-96787290D01*
X80479163Y-96832545D01*
X80479165Y-96832545D01*
X80479168Y-96832547D01*
X80575497Y-96863846D01*
X80658881Y-96890940D01*
X80845514Y-96920500D01*
X80845519Y-96920500D01*
X81034486Y-96920500D01*
X81221118Y-96890940D01*
X81248081Y-96882179D01*
X81400832Y-96832547D01*
X81569199Y-96746760D01*
X81722073Y-96635690D01*
X81855690Y-96502073D01*
X81966760Y-96349199D01*
X82052547Y-96180832D01*
X82110940Y-96001118D01*
X82140500Y-95814486D01*
X82140500Y-95625513D01*
X82110940Y-95438881D01*
X82052545Y-95259163D01*
X81980182Y-95117143D01*
X81966760Y-95090801D01*
X81855690Y-94937927D01*
X81722073Y-94804310D01*
X81569199Y-94693240D01*
X81400836Y-94607454D01*
X81221118Y-94549059D01*
X81034486Y-94519500D01*
X81034481Y-94519500D01*
X80845519Y-94519500D01*
X80845514Y-94519500D01*
X80658881Y-94549059D01*
X80479163Y-94607454D01*
X80310800Y-94693240D01*
X80261294Y-94729209D01*
X80157927Y-94804310D01*
X80157925Y-94804312D01*
X80157924Y-94804312D01*
X80024312Y-94937924D01*
X80024312Y-94937925D01*
X80024310Y-94937927D01*
X79991666Y-94982857D01*
X79913240Y-95090800D01*
X79827454Y-95259163D01*
X79769059Y-95438881D01*
X79739500Y-95625513D01*
X78580500Y-95625513D01*
X78580500Y-95609778D01*
X78546015Y-95392049D01*
X78477895Y-95182394D01*
X78477895Y-95182393D01*
X78434119Y-95096480D01*
X78377815Y-94985978D01*
X78342902Y-94937924D01*
X78248247Y-94807641D01*
X78248243Y-94807636D01*
X78198071Y-94757464D01*
X78164586Y-94696141D01*
X78169570Y-94626449D01*
X78211442Y-94570516D01*
X78242420Y-94553601D01*
X78322326Y-94523798D01*
X78322326Y-94523797D01*
X78322331Y-94523796D01*
X78437546Y-94437546D01*
X78523796Y-94322331D01*
X78574091Y-94187483D01*
X78580500Y-94127873D01*
X78580499Y-92405513D01*
X79809500Y-92405513D01*
X79809500Y-92594486D01*
X79839059Y-92781118D01*
X79897454Y-92960836D01*
X79971034Y-93105244D01*
X79983240Y-93129199D01*
X80094310Y-93282073D01*
X80227927Y-93415690D01*
X80380801Y-93526760D01*
X80455163Y-93564649D01*
X80549163Y-93612545D01*
X80549165Y-93612545D01*
X80549168Y-93612547D01*
X80616243Y-93634341D01*
X80728881Y-93670940D01*
X80915514Y-93700500D01*
X80915519Y-93700500D01*
X81104486Y-93700500D01*
X81291118Y-93670940D01*
X81470832Y-93612547D01*
X81639199Y-93526760D01*
X81792073Y-93415690D01*
X81925690Y-93282073D01*
X82036760Y-93129199D01*
X82122547Y-92960832D01*
X82180940Y-92781118D01*
X82210500Y-92594486D01*
X82210500Y-92405513D01*
X82180940Y-92218881D01*
X82122545Y-92039163D01*
X82036759Y-91870800D01*
X82011625Y-91836206D01*
X81925690Y-91717927D01*
X81792073Y-91584310D01*
X81639199Y-91473240D01*
X81470836Y-91387454D01*
X81291118Y-91329059D01*
X81104486Y-91299500D01*
X81104481Y-91299500D01*
X80915519Y-91299500D01*
X80915514Y-91299500D01*
X80728881Y-91329059D01*
X80549163Y-91387454D01*
X80380800Y-91473240D01*
X80293579Y-91536610D01*
X80227927Y-91584310D01*
X80227925Y-91584312D01*
X80227924Y-91584312D01*
X80094312Y-91717924D01*
X80094312Y-91717925D01*
X80094310Y-91717927D01*
X80049574Y-91779500D01*
X79983240Y-91870800D01*
X79897454Y-92039163D01*
X79839059Y-92218881D01*
X79809500Y-92405513D01*
X78580499Y-92405513D01*
X78580499Y-92232128D01*
X78574091Y-92172517D01*
X78523796Y-92037669D01*
X78523795Y-92037668D01*
X78523793Y-92037664D01*
X78437547Y-91922455D01*
X78437544Y-91922452D01*
X78322335Y-91836206D01*
X78322328Y-91836202D01*
X78187482Y-91785908D01*
X78187483Y-91785908D01*
X78127883Y-91779501D01*
X78127881Y-91779500D01*
X78127873Y-91779500D01*
X78127864Y-91779500D01*
X76232129Y-91779500D01*
X76232123Y-91779501D01*
X76172516Y-91785908D01*
X76037671Y-91836202D01*
X76037664Y-91836206D01*
X75922455Y-91922452D01*
X75922452Y-91922455D01*
X75836206Y-92037664D01*
X75836202Y-92037671D01*
X75785908Y-92172517D01*
X75780924Y-92218881D01*
X75779501Y-92232123D01*
X75779500Y-92232135D01*
X75779500Y-92305500D01*
X75759815Y-92372539D01*
X75707011Y-92418294D01*
X75655500Y-92429500D01*
X74974500Y-92429500D01*
X74907461Y-92409815D01*
X74861706Y-92357011D01*
X74850500Y-92305500D01*
X74850500Y-90272230D01*
X74870185Y-90205191D01*
X74886819Y-90184549D01*
X75207655Y-89863713D01*
X75581665Y-89489702D01*
X75642986Y-89456219D01*
X75712677Y-89461203D01*
X75768611Y-89503074D01*
X75791817Y-89557987D01*
X75813985Y-89697952D01*
X75882103Y-89907603D01*
X75882104Y-89907606D01*
X75982187Y-90104025D01*
X76111752Y-90282358D01*
X76111756Y-90282363D01*
X76267636Y-90438243D01*
X76267641Y-90438247D01*
X76423192Y-90551260D01*
X76445978Y-90567815D01*
X76574375Y-90633237D01*
X76642393Y-90667895D01*
X76642396Y-90667896D01*
X76672940Y-90677820D01*
X76852049Y-90736015D01*
X77069778Y-90770500D01*
X77069779Y-90770500D01*
X77290221Y-90770500D01*
X77290222Y-90770500D01*
X77507951Y-90736015D01*
X77717606Y-90667895D01*
X77914022Y-90567815D01*
X78092365Y-90438242D01*
X78248242Y-90282365D01*
X78377815Y-90104022D01*
X78477895Y-89907606D01*
X78546015Y-89697951D01*
X78580500Y-89480222D01*
X78580500Y-89275513D01*
X79739500Y-89275513D01*
X79739500Y-89464486D01*
X79769059Y-89651118D01*
X79827454Y-89830836D01*
X79866571Y-89907606D01*
X79913240Y-89999199D01*
X80024310Y-90152073D01*
X80157927Y-90285690D01*
X80310801Y-90396760D01*
X80390347Y-90437290D01*
X80479163Y-90482545D01*
X80479165Y-90482545D01*
X80479168Y-90482547D01*
X80575497Y-90513846D01*
X80658881Y-90540940D01*
X80845514Y-90570500D01*
X80845519Y-90570500D01*
X81034486Y-90570500D01*
X81221118Y-90540940D01*
X81400832Y-90482547D01*
X81569199Y-90396760D01*
X81722073Y-90285690D01*
X81855690Y-90152073D01*
X81966760Y-89999199D01*
X82052547Y-89830832D01*
X82110940Y-89651118D01*
X82140500Y-89464486D01*
X82140500Y-89275513D01*
X82110940Y-89088881D01*
X82052545Y-88909163D01*
X81966759Y-88740800D01*
X81855690Y-88587927D01*
X81722073Y-88454310D01*
X81569199Y-88343240D01*
X81400836Y-88257454D01*
X81221118Y-88199059D01*
X81034486Y-88169500D01*
X81034481Y-88169500D01*
X80845519Y-88169500D01*
X80845514Y-88169500D01*
X80658881Y-88199059D01*
X80479163Y-88257454D01*
X80310800Y-88343240D01*
X80223579Y-88406610D01*
X80157927Y-88454310D01*
X80157925Y-88454312D01*
X80157924Y-88454312D01*
X80024312Y-88587924D01*
X80024312Y-88587925D01*
X80024310Y-88587927D01*
X79976610Y-88653579D01*
X79913240Y-88740800D01*
X79827454Y-88909163D01*
X79769059Y-89088881D01*
X79739500Y-89275513D01*
X78580500Y-89275513D01*
X78580500Y-89259778D01*
X78546015Y-89042049D01*
X78477895Y-88832394D01*
X78477895Y-88832393D01*
X78442288Y-88762512D01*
X78377815Y-88635978D01*
X78340814Y-88585050D01*
X78248247Y-88457641D01*
X78248243Y-88457636D01*
X78198071Y-88407464D01*
X78164586Y-88346141D01*
X78169570Y-88276449D01*
X78211442Y-88220516D01*
X78242420Y-88203601D01*
X78322326Y-88173798D01*
X78322326Y-88173797D01*
X78322331Y-88173796D01*
X78437546Y-88087546D01*
X78523796Y-87972331D01*
X78574091Y-87837483D01*
X78580500Y-87777873D01*
X78580499Y-85897648D01*
X80049500Y-85897648D01*
X80049500Y-86102351D01*
X80081522Y-86304534D01*
X80144781Y-86499223D01*
X80237715Y-86681613D01*
X80358028Y-86847213D01*
X80502786Y-86991971D01*
X80657749Y-87104556D01*
X80668390Y-87112287D01*
X80784607Y-87171503D01*
X80850776Y-87205218D01*
X80850778Y-87205218D01*
X80850781Y-87205220D01*
X80955137Y-87239127D01*
X81045465Y-87268477D01*
X81103911Y-87277734D01*
X81247648Y-87300500D01*
X81247649Y-87300500D01*
X81452351Y-87300500D01*
X81452352Y-87300500D01*
X81654534Y-87268477D01*
X81849219Y-87205220D01*
X82031610Y-87112287D01*
X82124590Y-87044732D01*
X82197213Y-86991971D01*
X82197215Y-86991968D01*
X82197219Y-86991966D01*
X82341966Y-86847219D01*
X82341968Y-86847215D01*
X82341971Y-86847213D01*
X82426802Y-86730451D01*
X82462287Y-86681610D01*
X82489515Y-86628171D01*
X82537490Y-86577376D01*
X82605311Y-86560581D01*
X82671446Y-86583118D01*
X82710485Y-86628172D01*
X82737715Y-86681613D01*
X82858028Y-86847213D01*
X83002786Y-86991971D01*
X83157749Y-87104556D01*
X83168390Y-87112287D01*
X83284607Y-87171503D01*
X83350776Y-87205218D01*
X83350778Y-87205218D01*
X83350781Y-87205220D01*
X83455137Y-87239127D01*
X83545465Y-87268477D01*
X83603911Y-87277734D01*
X83747648Y-87300500D01*
X83747649Y-87300500D01*
X83952351Y-87300500D01*
X83952352Y-87300500D01*
X84152619Y-87268780D01*
X84221910Y-87277734D01*
X84275362Y-87322730D01*
X84296002Y-87389482D01*
X84277277Y-87456796D01*
X84259696Y-87478934D01*
X83317050Y-88421580D01*
X83317044Y-88421588D01*
X83267812Y-88495268D01*
X83267813Y-88495269D01*
X83234921Y-88544496D01*
X83234914Y-88544508D01*
X83178342Y-88681086D01*
X83178340Y-88681092D01*
X83149500Y-88826079D01*
X83149500Y-88826082D01*
X83149500Y-103323918D01*
X83149500Y-103323920D01*
X83149499Y-103323920D01*
X83178340Y-103468907D01*
X83178343Y-103468917D01*
X83178999Y-103470500D01*
X83234916Y-103605495D01*
X83252370Y-103631617D01*
X83260981Y-103644505D01*
X83317049Y-103728418D01*
X83317052Y-103728421D01*
X85617049Y-106028416D01*
X85721584Y-106132951D01*
X85721585Y-106132952D01*
X85844498Y-106215080D01*
X85844511Y-106215087D01*
X85981082Y-106271656D01*
X85981087Y-106271658D01*
X85981091Y-106271658D01*
X85981092Y-106271659D01*
X86126079Y-106300500D01*
X86126082Y-106300500D01*
X86861375Y-106300500D01*
X86928414Y-106320185D01*
X86949056Y-106336819D01*
X87077927Y-106465690D01*
X87230801Y-106576760D01*
X87310347Y-106617290D01*
X87399163Y-106662545D01*
X87399165Y-106662545D01*
X87399168Y-106662547D01*
X87490239Y-106692138D01*
X87578881Y-106720940D01*
X87765514Y-106750500D01*
X87765519Y-106750500D01*
X87954486Y-106750500D01*
X88141118Y-106720940D01*
X88320832Y-106662547D01*
X88489199Y-106576760D01*
X88642073Y-106465690D01*
X88775690Y-106332073D01*
X88886760Y-106179199D01*
X88972547Y-106010832D01*
X89030940Y-105831118D01*
X89038025Y-105786384D01*
X89060500Y-105644486D01*
X89060500Y-105455513D01*
X91739500Y-105455513D01*
X91739500Y-105644486D01*
X91769059Y-105831118D01*
X91827454Y-106010836D01*
X91889676Y-106132952D01*
X91913240Y-106179199D01*
X92024310Y-106332073D01*
X92157927Y-106465690D01*
X92310801Y-106576760D01*
X92390347Y-106617290D01*
X92479163Y-106662545D01*
X92479165Y-106662545D01*
X92479168Y-106662547D01*
X92570239Y-106692138D01*
X92658881Y-106720940D01*
X92845514Y-106750500D01*
X92845519Y-106750500D01*
X93034486Y-106750500D01*
X93221118Y-106720940D01*
X93400832Y-106662547D01*
X93569199Y-106576760D01*
X93722073Y-106465690D01*
X93855690Y-106332073D01*
X93966760Y-106179199D01*
X94052547Y-106010832D01*
X94110940Y-105831118D01*
X94118025Y-105786384D01*
X94140500Y-105644486D01*
X94140500Y-105455513D01*
X94110940Y-105268881D01*
X94073820Y-105154640D01*
X94052547Y-105089168D01*
X94052545Y-105089165D01*
X94052545Y-105089163D01*
X94007290Y-105000347D01*
X93966760Y-104920801D01*
X93855690Y-104767927D01*
X93722073Y-104634310D01*
X93569199Y-104523240D01*
X93495931Y-104485908D01*
X93400836Y-104437454D01*
X93221118Y-104379059D01*
X93034486Y-104349500D01*
X93034481Y-104349500D01*
X92845519Y-104349500D01*
X92845514Y-104349500D01*
X92658881Y-104379059D01*
X92479163Y-104437454D01*
X92310800Y-104523240D01*
X92223579Y-104586610D01*
X92157927Y-104634310D01*
X92157925Y-104634312D01*
X92157924Y-104634312D01*
X92024312Y-104767924D01*
X92024312Y-104767925D01*
X92024310Y-104767927D01*
X92015673Y-104779815D01*
X91913240Y-104920800D01*
X91827454Y-105089163D01*
X91769059Y-105268881D01*
X91739500Y-105455513D01*
X89060500Y-105455513D01*
X89030940Y-105268881D01*
X88993820Y-105154640D01*
X88972547Y-105089168D01*
X88972545Y-105089165D01*
X88972545Y-105089163D01*
X88927290Y-105000347D01*
X88886760Y-104920801D01*
X88775690Y-104767927D01*
X88642073Y-104634310D01*
X88489199Y-104523240D01*
X88415931Y-104485908D01*
X88320836Y-104437454D01*
X88141118Y-104379059D01*
X87954486Y-104349500D01*
X87954481Y-104349500D01*
X87765519Y-104349500D01*
X87765514Y-104349500D01*
X87578881Y-104379059D01*
X87399163Y-104437454D01*
X87230800Y-104523240D01*
X87143579Y-104586610D01*
X87077927Y-104634310D01*
X87077925Y-104634312D01*
X87077924Y-104634312D01*
X86949056Y-104763181D01*
X86887733Y-104796666D01*
X86861375Y-104799500D01*
X86562229Y-104799500D01*
X86495190Y-104779815D01*
X86474548Y-104763181D01*
X84686819Y-102975451D01*
X84653334Y-102914128D01*
X84650500Y-102887770D01*
X84650500Y-102522917D01*
X84670185Y-102455878D01*
X84722989Y-102410123D01*
X84792147Y-102400179D01*
X84855703Y-102429204D01*
X84892431Y-102484598D01*
X84907454Y-102530836D01*
X84946571Y-102607606D01*
X84993240Y-102699199D01*
X85104310Y-102852073D01*
X85237927Y-102985690D01*
X85390801Y-103096760D01*
X85470347Y-103137290D01*
X85559163Y-103182545D01*
X85559165Y-103182545D01*
X85559168Y-103182547D01*
X85655497Y-103213846D01*
X85738881Y-103240940D01*
X85925514Y-103270500D01*
X85925519Y-103270500D01*
X86114486Y-103270500D01*
X86301118Y-103240940D01*
X86480832Y-103182547D01*
X86649199Y-103096760D01*
X86802073Y-102985690D01*
X86935690Y-102852073D01*
X87046760Y-102699199D01*
X87132547Y-102530832D01*
X87190940Y-102351118D01*
X87220500Y-102164486D01*
X87220500Y-101975513D01*
X87190940Y-101788881D01*
X87132545Y-101609163D01*
X87087290Y-101520347D01*
X87046760Y-101440801D01*
X86935690Y-101287927D01*
X86802073Y-101154310D01*
X86649199Y-101043240D01*
X86585799Y-101010936D01*
X86480836Y-100957454D01*
X86301118Y-100899059D01*
X86114486Y-100869500D01*
X86114481Y-100869500D01*
X85925519Y-100869500D01*
X85925514Y-100869500D01*
X85738881Y-100899059D01*
X85559163Y-100957454D01*
X85390800Y-101043240D01*
X85341294Y-101079209D01*
X85237927Y-101154310D01*
X85237925Y-101154312D01*
X85237924Y-101154312D01*
X85104312Y-101287924D01*
X85104312Y-101287925D01*
X85104310Y-101287927D01*
X85069402Y-101335974D01*
X84993240Y-101440800D01*
X84907454Y-101609163D01*
X84892431Y-101655401D01*
X84852992Y-101713076D01*
X84788634Y-101740274D01*
X84719787Y-101728359D01*
X84668312Y-101681114D01*
X84650500Y-101617082D01*
X84650500Y-100007882D01*
X85525669Y-100007882D01*
X85525670Y-100007883D01*
X85551059Y-100026329D01*
X85719362Y-100112085D01*
X85898997Y-100170451D01*
X86085553Y-100200000D01*
X86274447Y-100200000D01*
X86461002Y-100170451D01*
X86640637Y-100112085D01*
X86808937Y-100026331D01*
X86834328Y-100007883D01*
X86834328Y-100007882D01*
X86180001Y-99353554D01*
X86180000Y-99353554D01*
X85525669Y-100007882D01*
X84650500Y-100007882D01*
X84650500Y-98905552D01*
X84980000Y-98905552D01*
X84980000Y-99094447D01*
X85009548Y-99281002D01*
X85067914Y-99460637D01*
X85153666Y-99628933D01*
X85172116Y-99654328D01*
X85826446Y-99000000D01*
X85826446Y-98999999D01*
X85780369Y-98953922D01*
X85830000Y-98953922D01*
X85830000Y-99046078D01*
X85853852Y-99135095D01*
X85899930Y-99214905D01*
X85965095Y-99280070D01*
X86044905Y-99326148D01*
X86133922Y-99350000D01*
X86226078Y-99350000D01*
X86315095Y-99326148D01*
X86394905Y-99280070D01*
X86460070Y-99214905D01*
X86506148Y-99135095D01*
X86530000Y-99046078D01*
X86530000Y-98999999D01*
X86533554Y-98999999D01*
X86533554Y-99000000D01*
X87187882Y-99654328D01*
X87187883Y-99654328D01*
X87206331Y-99628937D01*
X87292085Y-99460637D01*
X87350451Y-99281002D01*
X87380000Y-99094447D01*
X87380000Y-98905552D01*
X87350451Y-98718997D01*
X87292085Y-98539362D01*
X87206329Y-98371059D01*
X87187883Y-98345670D01*
X87187882Y-98345669D01*
X86533554Y-98999999D01*
X86530000Y-98999999D01*
X86530000Y-98953922D01*
X86506148Y-98864905D01*
X86460070Y-98785095D01*
X86394905Y-98719930D01*
X86315095Y-98673852D01*
X86226078Y-98650000D01*
X86133922Y-98650000D01*
X86044905Y-98673852D01*
X85965095Y-98719930D01*
X85899930Y-98785095D01*
X85853852Y-98864905D01*
X85830000Y-98953922D01*
X85780369Y-98953922D01*
X85172116Y-98345669D01*
X85172116Y-98345670D01*
X85153669Y-98371060D01*
X85067914Y-98539362D01*
X85009548Y-98718997D01*
X84980000Y-98905552D01*
X84650500Y-98905552D01*
X84650500Y-97992116D01*
X85525669Y-97992116D01*
X86180000Y-98646446D01*
X86180001Y-98646446D01*
X86834328Y-97992116D01*
X86808933Y-97973666D01*
X86640637Y-97887914D01*
X86461002Y-97829548D01*
X86274447Y-97800000D01*
X86085553Y-97800000D01*
X85898997Y-97829548D01*
X85719362Y-97887914D01*
X85551060Y-97973669D01*
X85525670Y-97992116D01*
X85525669Y-97992116D01*
X84650500Y-97992116D01*
X84650500Y-96172917D01*
X84670185Y-96105878D01*
X84722989Y-96060123D01*
X84792147Y-96050179D01*
X84855703Y-96079204D01*
X84892430Y-96134596D01*
X84901329Y-96161986D01*
X84907454Y-96180836D01*
X84990487Y-96343796D01*
X84993240Y-96349199D01*
X85104310Y-96502073D01*
X85237927Y-96635690D01*
X85390801Y-96746760D01*
X85470347Y-96787290D01*
X85559163Y-96832545D01*
X85559165Y-96832545D01*
X85559168Y-96832547D01*
X85655497Y-96863846D01*
X85738881Y-96890940D01*
X85925514Y-96920500D01*
X85925519Y-96920500D01*
X86114486Y-96920500D01*
X86301118Y-96890940D01*
X86328081Y-96882179D01*
X86480832Y-96832547D01*
X86649199Y-96746760D01*
X86802073Y-96635690D01*
X86935690Y-96502073D01*
X87046760Y-96349199D01*
X87132547Y-96180832D01*
X87190940Y-96001118D01*
X87220500Y-95814486D01*
X87220500Y-95625513D01*
X87190940Y-95438881D01*
X87132545Y-95259163D01*
X87060182Y-95117143D01*
X87046760Y-95090801D01*
X86935690Y-94937927D01*
X86802073Y-94804310D01*
X86649199Y-94693240D01*
X86480836Y-94607454D01*
X86301118Y-94549059D01*
X86114486Y-94519500D01*
X86114481Y-94519500D01*
X85925519Y-94519500D01*
X85925514Y-94519500D01*
X85738881Y-94549059D01*
X85559163Y-94607454D01*
X85390800Y-94693240D01*
X85341294Y-94729209D01*
X85237927Y-94804310D01*
X85237925Y-94804312D01*
X85237924Y-94804312D01*
X85104312Y-94937924D01*
X85104312Y-94937925D01*
X85104310Y-94937927D01*
X85071666Y-94982857D01*
X84993240Y-95090800D01*
X84907454Y-95259163D01*
X84892431Y-95305401D01*
X84852992Y-95363076D01*
X84788634Y-95390274D01*
X84719787Y-95378359D01*
X84668312Y-95331114D01*
X84650500Y-95267082D01*
X84650500Y-92661066D01*
X84670185Y-92594027D01*
X84722989Y-92548272D01*
X84792147Y-92538328D01*
X84855703Y-92567353D01*
X84893477Y-92626131D01*
X84896973Y-92641668D01*
X84919059Y-92781118D01*
X84977454Y-92960836D01*
X85051034Y-93105244D01*
X85063240Y-93129199D01*
X85174310Y-93282073D01*
X85307927Y-93415690D01*
X85460801Y-93526760D01*
X85535163Y-93564649D01*
X85629163Y-93612545D01*
X85629165Y-93612545D01*
X85629168Y-93612547D01*
X85696243Y-93634341D01*
X85808881Y-93670940D01*
X85995514Y-93700500D01*
X85995519Y-93700500D01*
X86184486Y-93700500D01*
X86371118Y-93670940D01*
X86550832Y-93612547D01*
X86719199Y-93526760D01*
X86872073Y-93415690D01*
X87005690Y-93282073D01*
X87116760Y-93129199D01*
X87202547Y-92960832D01*
X87260940Y-92781118D01*
X87290500Y-92594486D01*
X87290500Y-92405513D01*
X87260940Y-92218881D01*
X87202545Y-92039163D01*
X87116759Y-91870800D01*
X87091625Y-91836206D01*
X87005690Y-91717927D01*
X86872073Y-91584310D01*
X86719199Y-91473240D01*
X86550836Y-91387454D01*
X86371118Y-91329059D01*
X86184486Y-91299500D01*
X86184481Y-91299500D01*
X85995519Y-91299500D01*
X85995514Y-91299500D01*
X85808881Y-91329059D01*
X85629163Y-91387454D01*
X85460800Y-91473240D01*
X85373579Y-91536610D01*
X85307927Y-91584310D01*
X85307925Y-91584312D01*
X85307924Y-91584312D01*
X85174312Y-91717924D01*
X85174312Y-91717925D01*
X85174310Y-91717927D01*
X85129574Y-91779500D01*
X85063240Y-91870800D01*
X84977454Y-92039163D01*
X84919059Y-92218881D01*
X84896973Y-92358331D01*
X84867044Y-92421466D01*
X84807732Y-92458397D01*
X84737870Y-92457399D01*
X84679637Y-92418789D01*
X84651523Y-92354825D01*
X84650500Y-92338933D01*
X84650500Y-89822917D01*
X84670185Y-89755878D01*
X84722989Y-89710123D01*
X84792147Y-89700179D01*
X84855703Y-89729204D01*
X84892431Y-89784598D01*
X84907454Y-89830836D01*
X84946571Y-89907606D01*
X84993240Y-89999199D01*
X85104310Y-90152073D01*
X85237927Y-90285690D01*
X85390801Y-90396760D01*
X85470347Y-90437290D01*
X85559163Y-90482545D01*
X85559165Y-90482545D01*
X85559168Y-90482547D01*
X85655497Y-90513846D01*
X85738881Y-90540940D01*
X85925514Y-90570500D01*
X85925519Y-90570500D01*
X86114486Y-90570500D01*
X86301118Y-90540940D01*
X86480832Y-90482547D01*
X86649199Y-90396760D01*
X86802073Y-90285690D01*
X86935690Y-90152073D01*
X87046760Y-89999199D01*
X87132547Y-89830832D01*
X87190940Y-89651118D01*
X87220500Y-89464486D01*
X87220500Y-89275513D01*
X87190940Y-89088881D01*
X87132545Y-88909163D01*
X87046759Y-88740800D01*
X86935690Y-88587927D01*
X86802073Y-88454310D01*
X86649199Y-88343240D01*
X86480836Y-88257454D01*
X86301118Y-88199059D01*
X86114486Y-88169500D01*
X86114481Y-88169500D01*
X85991228Y-88169500D01*
X85924189Y-88149815D01*
X85878434Y-88097011D01*
X85868490Y-88027853D01*
X85897515Y-87964297D01*
X85903547Y-87957819D01*
X89170208Y-84691160D01*
X89582948Y-84278419D01*
X89582948Y-84278418D01*
X89582951Y-84278416D01*
X89665084Y-84155495D01*
X89721658Y-84018913D01*
X89750500Y-83873918D01*
X89750500Y-83726083D01*
X89750500Y-78626082D01*
X89750500Y-78626079D01*
X89721659Y-78481092D01*
X89721658Y-78481091D01*
X89721658Y-78481087D01*
X89721656Y-78481082D01*
X89665087Y-78344511D01*
X89665080Y-78344498D01*
X89582952Y-78221585D01*
X89537446Y-78176079D01*
X89478416Y-78117049D01*
X89195717Y-77834350D01*
X88278421Y-76917052D01*
X88278414Y-76917046D01*
X88204729Y-76867812D01*
X88204729Y-76867813D01*
X88155491Y-76834913D01*
X88018917Y-76778343D01*
X88018907Y-76778340D01*
X87873920Y-76749500D01*
X87873918Y-76749500D01*
X87725418Y-76749500D01*
X87658379Y-76729815D01*
X87625100Y-76698385D01*
X87591971Y-76652787D01*
X87591967Y-76652782D01*
X87447213Y-76508028D01*
X87281613Y-76387715D01*
X87281612Y-76387714D01*
X87281610Y-76387713D01*
X87224653Y-76358691D01*
X87099223Y-76294781D01*
X86904534Y-76231522D01*
X86729995Y-76203878D01*
X86702352Y-76199500D01*
X86497648Y-76199500D01*
X86473329Y-76203351D01*
X86295465Y-76231522D01*
X86100776Y-76294781D01*
X85918386Y-76387715D01*
X85752786Y-76508028D01*
X85608028Y-76652786D01*
X85487715Y-76818386D01*
X85394781Y-77000776D01*
X85331522Y-77195465D01*
X85299500Y-77397648D01*
X85299500Y-77602351D01*
X85331522Y-77804534D01*
X85394781Y-77999223D01*
X85454817Y-78117049D01*
X85484901Y-78176092D01*
X85487715Y-78181613D01*
X85608028Y-78347213D01*
X85752786Y-78491971D01*
X85918385Y-78612284D01*
X85918387Y-78612285D01*
X85918390Y-78612287D01*
X85972378Y-78639795D01*
X86023174Y-78687769D01*
X86039969Y-78755590D01*
X86017432Y-78821725D01*
X85972378Y-78860765D01*
X85918644Y-78888143D01*
X85874077Y-78920523D01*
X85874077Y-78920524D01*
X86553554Y-79600000D01*
X86547339Y-79600000D01*
X86445606Y-79627259D01*
X86354394Y-79679920D01*
X86279920Y-79754394D01*
X86227259Y-79845606D01*
X86200000Y-79947339D01*
X86200000Y-79953553D01*
X85520524Y-79274077D01*
X85520523Y-79274077D01*
X85488143Y-79318644D01*
X85395244Y-79500968D01*
X85332009Y-79695582D01*
X85300000Y-79897682D01*
X85300000Y-80102317D01*
X85332009Y-80304417D01*
X85395244Y-80499031D01*
X85488141Y-80681350D01*
X85488147Y-80681359D01*
X85520523Y-80725921D01*
X85520524Y-80725922D01*
X86200000Y-80046446D01*
X86200000Y-80052661D01*
X86227259Y-80154394D01*
X86279920Y-80245606D01*
X86354394Y-80320080D01*
X86445606Y-80372741D01*
X86547339Y-80400000D01*
X86553553Y-80400000D01*
X85874076Y-81079474D01*
X85918650Y-81111859D01*
X86100968Y-81204755D01*
X86295582Y-81267990D01*
X86497683Y-81300000D01*
X86702317Y-81300000D01*
X86904417Y-81267990D01*
X87099031Y-81204755D01*
X87281349Y-81111859D01*
X87325921Y-81079474D01*
X86646447Y-80400000D01*
X86652661Y-80400000D01*
X86754394Y-80372741D01*
X86845606Y-80320080D01*
X86920080Y-80245606D01*
X86972741Y-80154394D01*
X87000000Y-80052661D01*
X87000000Y-80046447D01*
X87679474Y-80725921D01*
X87711859Y-80681349D01*
X87804755Y-80499031D01*
X87867990Y-80304417D01*
X87900000Y-80102317D01*
X87900000Y-79897682D01*
X87867990Y-79695582D01*
X87804755Y-79500968D01*
X87711859Y-79318650D01*
X87679474Y-79274077D01*
X87679474Y-79274076D01*
X87000000Y-79953551D01*
X87000000Y-79947339D01*
X86972741Y-79845606D01*
X86920080Y-79754394D01*
X86845606Y-79679920D01*
X86754394Y-79627259D01*
X86652661Y-79600000D01*
X86646446Y-79600000D01*
X87325922Y-78920524D01*
X87325921Y-78920523D01*
X87281359Y-78888147D01*
X87281350Y-78888141D01*
X87227621Y-78860765D01*
X87176825Y-78812791D01*
X87160030Y-78744970D01*
X87182567Y-78678835D01*
X87227621Y-78639795D01*
X87281610Y-78612287D01*
X87355721Y-78558443D01*
X87447213Y-78491971D01*
X87447214Y-78491969D01*
X87447219Y-78491966D01*
X87501227Y-78437957D01*
X87562549Y-78404472D01*
X87632241Y-78409456D01*
X87676589Y-78437957D01*
X88213181Y-78974548D01*
X88246666Y-79035871D01*
X88249500Y-79062229D01*
X88249500Y-83437769D01*
X88229815Y-83504808D01*
X88213181Y-83525450D01*
X85328934Y-86409696D01*
X85267611Y-86443181D01*
X85197919Y-86438197D01*
X85141986Y-86396325D01*
X85117569Y-86330861D01*
X85118779Y-86302622D01*
X85150500Y-86102352D01*
X85150500Y-85897648D01*
X85118477Y-85695466D01*
X85118356Y-85695095D01*
X85069850Y-85545809D01*
X85055220Y-85500781D01*
X85055218Y-85500778D01*
X85055218Y-85500776D01*
X85012470Y-85416880D01*
X84962287Y-85318390D01*
X84954556Y-85307749D01*
X84841971Y-85152786D01*
X84697213Y-85008028D01*
X84531613Y-84887715D01*
X84531612Y-84887714D01*
X84531610Y-84887713D01*
X84474653Y-84858691D01*
X84349223Y-84794781D01*
X84154534Y-84731522D01*
X83979995Y-84703878D01*
X83952352Y-84699500D01*
X83747648Y-84699500D01*
X83723329Y-84703351D01*
X83545465Y-84731522D01*
X83350776Y-84794781D01*
X83168386Y-84887715D01*
X83002786Y-85008028D01*
X82858028Y-85152786D01*
X82737713Y-85318388D01*
X82710484Y-85371828D01*
X82662510Y-85422623D01*
X82594688Y-85439418D01*
X82528554Y-85416880D01*
X82489516Y-85371828D01*
X82462286Y-85318388D01*
X82341971Y-85152786D01*
X82197213Y-85008028D01*
X82031613Y-84887715D01*
X82031612Y-84887714D01*
X82031610Y-84887713D01*
X81974653Y-84858691D01*
X81849223Y-84794781D01*
X81654534Y-84731522D01*
X81479995Y-84703878D01*
X81452352Y-84699500D01*
X81247648Y-84699500D01*
X81223329Y-84703351D01*
X81045465Y-84731522D01*
X80850776Y-84794781D01*
X80668386Y-84887715D01*
X80502786Y-85008028D01*
X80358028Y-85152786D01*
X80237715Y-85318386D01*
X80144781Y-85500776D01*
X80081522Y-85695465D01*
X80049500Y-85897648D01*
X78580499Y-85897648D01*
X78580499Y-85882128D01*
X78574091Y-85822517D01*
X78573401Y-85820668D01*
X78523797Y-85687671D01*
X78523793Y-85687664D01*
X78437547Y-85572455D01*
X78437544Y-85572452D01*
X78322335Y-85486206D01*
X78322328Y-85486202D01*
X78187482Y-85435908D01*
X78187483Y-85435908D01*
X78127883Y-85429501D01*
X78127881Y-85429500D01*
X78127873Y-85429500D01*
X78127864Y-85429500D01*
X76232129Y-85429500D01*
X76232123Y-85429501D01*
X76172516Y-85435908D01*
X76037671Y-85486202D01*
X76037664Y-85486206D01*
X75922455Y-85572452D01*
X75922452Y-85572455D01*
X75836206Y-85687664D01*
X75836202Y-85687671D01*
X75785908Y-85822517D01*
X75781343Y-85864985D01*
X75779501Y-85882123D01*
X75779500Y-85882135D01*
X75779500Y-87117769D01*
X75759815Y-87184808D01*
X75743181Y-87205450D01*
X73517045Y-89431586D01*
X73495064Y-89464486D01*
X73484550Y-89480222D01*
X73469281Y-89503074D01*
X73434914Y-89554507D01*
X73378343Y-89691082D01*
X73378340Y-89691092D01*
X73349500Y-89836079D01*
X73349500Y-89836082D01*
X73349500Y-92926082D01*
X73349500Y-99426082D01*
X73349500Y-104073918D01*
X73349500Y-104073920D01*
X73349499Y-104073920D01*
X72100500Y-104073920D01*
X72100500Y-78748543D01*
X72659499Y-78748543D01*
X72697947Y-78941829D01*
X72697950Y-78941839D01*
X72773364Y-79123907D01*
X72773371Y-79123920D01*
X72882860Y-79287781D01*
X72882863Y-79287785D01*
X73022214Y-79427136D01*
X73022218Y-79427139D01*
X73186079Y-79536628D01*
X73186092Y-79536635D01*
X73339071Y-79600000D01*
X73368165Y-79612051D01*
X73368169Y-79612051D01*
X73368170Y-79612052D01*
X73561456Y-79650500D01*
X73561459Y-79650500D01*
X73758543Y-79650500D01*
X73888582Y-79624632D01*
X73951835Y-79612051D01*
X74133914Y-79536632D01*
X74297782Y-79427139D01*
X74437139Y-79287782D01*
X74546632Y-79123914D01*
X74622051Y-78941835D01*
X74654263Y-78779896D01*
X74660500Y-78748543D01*
X79659499Y-78748543D01*
X79697947Y-78941829D01*
X79697950Y-78941839D01*
X79773364Y-79123907D01*
X79773371Y-79123920D01*
X79882860Y-79287781D01*
X79882863Y-79287785D01*
X80022214Y-79427136D01*
X80022218Y-79427139D01*
X80186079Y-79536628D01*
X80186092Y-79536635D01*
X80339071Y-79600000D01*
X80368165Y-79612051D01*
X80368169Y-79612051D01*
X80368170Y-79612052D01*
X80561456Y-79650500D01*
X80561459Y-79650500D01*
X80758543Y-79650500D01*
X80888582Y-79624632D01*
X80951835Y-79612051D01*
X81133914Y-79536632D01*
X81297782Y-79427139D01*
X81437139Y-79287782D01*
X81546632Y-79123914D01*
X81622051Y-78941835D01*
X81654263Y-78779896D01*
X81660500Y-78748543D01*
X81660500Y-78551456D01*
X81622052Y-78358170D01*
X81622051Y-78358169D01*
X81622051Y-78358165D01*
X81598002Y-78300104D01*
X81546635Y-78176092D01*
X81546628Y-78176079D01*
X81437139Y-78012218D01*
X81437136Y-78012214D01*
X81297785Y-77872863D01*
X81297781Y-77872860D01*
X81133920Y-77763371D01*
X81133907Y-77763364D01*
X80951839Y-77687950D01*
X80951829Y-77687947D01*
X80758543Y-77649500D01*
X80758541Y-77649500D01*
X80561459Y-77649500D01*
X80561457Y-77649500D01*
X80368170Y-77687947D01*
X80368160Y-77687950D01*
X80186092Y-77763364D01*
X80186079Y-77763371D01*
X80022218Y-77872860D01*
X80022214Y-77872863D01*
X79882863Y-78012214D01*
X79882860Y-78012218D01*
X79773371Y-78176079D01*
X79773364Y-78176092D01*
X79697950Y-78358160D01*
X79697947Y-78358170D01*
X79659500Y-78551456D01*
X79659500Y-78551459D01*
X79659500Y-78748541D01*
X79659500Y-78748543D01*
X79659499Y-78748543D01*
X74660500Y-78748543D01*
X74660500Y-78551456D01*
X74622052Y-78358170D01*
X74622051Y-78358169D01*
X74622051Y-78358165D01*
X74598002Y-78300104D01*
X74546635Y-78176092D01*
X74546628Y-78176079D01*
X74437139Y-78012218D01*
X74437136Y-78012214D01*
X74297785Y-77872863D01*
X74297781Y-77872860D01*
X74133920Y-77763371D01*
X74133907Y-77763364D01*
X73951839Y-77687950D01*
X73951829Y-77687947D01*
X73758543Y-77649500D01*
X73758541Y-77649500D01*
X73561459Y-77649500D01*
X73561457Y-77649500D01*
X73368170Y-77687947D01*
X73368160Y-77687950D01*
X73186092Y-77763364D01*
X73186079Y-77763371D01*
X73022218Y-77872860D01*
X73022214Y-77872863D01*
X72882863Y-78012214D01*
X72882860Y-78012218D01*
X72773371Y-78176079D01*
X72773364Y-78176092D01*
X72697950Y-78358160D01*
X72697947Y-78358170D01*
X72659500Y-78551456D01*
X72659500Y-78551459D01*
X72659500Y-78748541D01*
X72659500Y-78748543D01*
X72659499Y-78748543D01*
X72100500Y-78748543D01*
X72100500Y-70153389D01*
X73119500Y-70153389D01*
X73119500Y-70326611D01*
X73146598Y-70497701D01*
X73200127Y-70662445D01*
X73278768Y-70816788D01*
X73380586Y-70956928D01*
X73503072Y-71079414D01*
X73643212Y-71181232D01*
X73797555Y-71259873D01*
X73962299Y-71313402D01*
X74133389Y-71340500D01*
X74133390Y-71340500D01*
X74306610Y-71340500D01*
X74306611Y-71340500D01*
X74477701Y-71313402D01*
X74642445Y-71259873D01*
X74796788Y-71181232D01*
X74936928Y-71079414D01*
X75059414Y-70956928D01*
X75161232Y-70816788D01*
X75239873Y-70662445D01*
X75293402Y-70497701D01*
X75320500Y-70326611D01*
X75320500Y-70153389D01*
X75619500Y-70153389D01*
X75619500Y-70326611D01*
X75646598Y-70497701D01*
X75700127Y-70662445D01*
X75778768Y-70816788D01*
X75880586Y-70956928D01*
X76003072Y-71079414D01*
X76143212Y-71181232D01*
X76297555Y-71259873D01*
X76326549Y-71269293D01*
X76384223Y-71308730D01*
X76411422Y-71373089D01*
X76399508Y-71441935D01*
X76361116Y-71487542D01*
X76227925Y-71584311D01*
X76094312Y-71717924D01*
X76094312Y-71717925D01*
X76094310Y-71717927D01*
X76078957Y-71739059D01*
X75983240Y-71870800D01*
X75897454Y-72039163D01*
X75839059Y-72218881D01*
X75809500Y-72405513D01*
X75809500Y-72594486D01*
X75839059Y-72781118D01*
X75897454Y-72960836D01*
X75983240Y-73129199D01*
X76094310Y-73282073D01*
X76227927Y-73415690D01*
X76380801Y-73526760D01*
X76451526Y-73562796D01*
X76549163Y-73612545D01*
X76549165Y-73612545D01*
X76549168Y-73612547D01*
X76645497Y-73643846D01*
X76728881Y-73670940D01*
X76915514Y-73700500D01*
X76915519Y-73700500D01*
X77104486Y-73700500D01*
X77291118Y-73670940D01*
X77470832Y-73612547D01*
X77639199Y-73526760D01*
X77792073Y-73415690D01*
X77925690Y-73282073D01*
X78036760Y-73129199D01*
X78122547Y-72960832D01*
X78180940Y-72781118D01*
X78192455Y-72708414D01*
X78210500Y-72594486D01*
X78210500Y-72405513D01*
X78180940Y-72218881D01*
X78151386Y-72127924D01*
X78122547Y-72039168D01*
X78122545Y-72039165D01*
X78122545Y-72039163D01*
X78043098Y-71883240D01*
X78036760Y-71870801D01*
X77925690Y-71717927D01*
X77792073Y-71584310D01*
X77639199Y-71473240D01*
X77616670Y-71461761D01*
X77470836Y-71387454D01*
X77420849Y-71371212D01*
X77385893Y-71359854D01*
X77328219Y-71320417D01*
X77301021Y-71256058D01*
X77312936Y-71187212D01*
X77351328Y-71141606D01*
X77359939Y-71135350D01*
X77436928Y-71079414D01*
X77559414Y-70956928D01*
X77661232Y-70816788D01*
X77739873Y-70662445D01*
X77793402Y-70497701D01*
X77820500Y-70326611D01*
X77820500Y-70153389D01*
X77793402Y-69982299D01*
X77739873Y-69817555D01*
X77661232Y-69663212D01*
X77559414Y-69523072D01*
X77436928Y-69400586D01*
X77296788Y-69298768D01*
X77142445Y-69220127D01*
X76977701Y-69166598D01*
X76977699Y-69166597D01*
X76977698Y-69166597D01*
X76846271Y-69145781D01*
X76806611Y-69139500D01*
X76633389Y-69139500D01*
X76593728Y-69145781D01*
X76462302Y-69166597D01*
X76297552Y-69220128D01*
X76143211Y-69298768D01*
X76063256Y-69356859D01*
X76003072Y-69400586D01*
X76003070Y-69400588D01*
X76003069Y-69400588D01*
X75880588Y-69523069D01*
X75880588Y-69523070D01*
X75880586Y-69523072D01*
X75836859Y-69583256D01*
X75778768Y-69663211D01*
X75700128Y-69817552D01*
X75646597Y-69982302D01*
X75623240Y-70129778D01*
X75619500Y-70153389D01*
X75320500Y-70153389D01*
X75293402Y-69982299D01*
X75239873Y-69817555D01*
X75161232Y-69663212D01*
X75059414Y-69523072D01*
X74936928Y-69400586D01*
X74796788Y-69298768D01*
X74642445Y-69220127D01*
X74477701Y-69166598D01*
X74477699Y-69166597D01*
X74477698Y-69166597D01*
X74346271Y-69145781D01*
X74306611Y-69139500D01*
X74133389Y-69139500D01*
X74093728Y-69145781D01*
X73962302Y-69166597D01*
X73797552Y-69220128D01*
X73643211Y-69298768D01*
X73563256Y-69356859D01*
X73503072Y-69400586D01*
X73503070Y-69400588D01*
X73503069Y-69400588D01*
X73380588Y-69523069D01*
X73380588Y-69523070D01*
X73380586Y-69523072D01*
X73336859Y-69583256D01*
X73278768Y-69663211D01*
X73200128Y-69817552D01*
X73146597Y-69982302D01*
X73123240Y-70129778D01*
X73119500Y-70153389D01*
X72100500Y-70153389D01*
X72100500Y-64779818D01*
X75320000Y-64779818D01*
X75320000Y-64990000D01*
X76270000Y-64990000D01*
X76270000Y-65490000D01*
X75320000Y-65490000D01*
X75320000Y-65700181D01*
X75354473Y-65917835D01*
X75422567Y-66127410D01*
X75522613Y-66323760D01*
X75652142Y-66502041D01*
X75807958Y-66657857D01*
X75986239Y-66787386D01*
X76182589Y-66887432D01*
X76392163Y-66955526D01*
X76469999Y-66967854D01*
X76470000Y-66967854D01*
X76470000Y-66015277D01*
X76546306Y-66059333D01*
X76660756Y-66090000D01*
X76779244Y-66090000D01*
X76893694Y-66059333D01*
X76970000Y-66015277D01*
X76970000Y-66967854D01*
X77047834Y-66955526D01*
X77047837Y-66955526D01*
X77257410Y-66887432D01*
X77453760Y-66787386D01*
X77632041Y-66657857D01*
X77787857Y-66502041D01*
X77917386Y-66323760D01*
X78017432Y-66127410D01*
X78085526Y-65917835D01*
X78120000Y-65700181D01*
X78120000Y-65490000D01*
X77170000Y-65490000D01*
X77170000Y-64990000D01*
X78120000Y-64990000D01*
X78120000Y-64779818D01*
X78085526Y-64562164D01*
X78017432Y-64352589D01*
X77917386Y-64156239D01*
X77787857Y-63977958D01*
X77632041Y-63822142D01*
X77453760Y-63692613D01*
X77257410Y-63592567D01*
X77047836Y-63524473D01*
X76970000Y-63512144D01*
X76970000Y-64464722D01*
X76893694Y-64420667D01*
X76779244Y-64390000D01*
X76660756Y-64390000D01*
X76546306Y-64420667D01*
X76470000Y-64464722D01*
X76470000Y-63512144D01*
X76392164Y-63524473D01*
X76392161Y-63524473D01*
X76182589Y-63592567D01*
X75986239Y-63692613D01*
X75807958Y-63822142D01*
X75652142Y-63977958D01*
X75522613Y-64156239D01*
X75422567Y-64352589D01*
X75354473Y-64562164D01*
X75320000Y-64779818D01*
X72100500Y-64779818D01*
X72100500Y-60153389D01*
X73119500Y-60153389D01*
X73119500Y-60326611D01*
X73146598Y-60497701D01*
X73200127Y-60662445D01*
X73278768Y-60816788D01*
X73380586Y-60956928D01*
X73503072Y-61079414D01*
X73643212Y-61181232D01*
X73797555Y-61259873D01*
X73962299Y-61313402D01*
X74133389Y-61340500D01*
X74133390Y-61340500D01*
X74306610Y-61340500D01*
X74306611Y-61340500D01*
X74477701Y-61313402D01*
X74642445Y-61259873D01*
X74796788Y-61181232D01*
X74936928Y-61079414D01*
X75059414Y-60956928D01*
X75161232Y-60816788D01*
X75239873Y-60662445D01*
X75293402Y-60497701D01*
X75320500Y-60326611D01*
X75320500Y-60153389D01*
X75619500Y-60153389D01*
X75619500Y-60326611D01*
X75646598Y-60497701D01*
X75700127Y-60662445D01*
X75778768Y-60816788D01*
X75880586Y-60956928D01*
X76003072Y-61079414D01*
X76143212Y-61181232D01*
X76297555Y-61259873D01*
X76462299Y-61313402D01*
X76633389Y-61340500D01*
X76633390Y-61340500D01*
X76806610Y-61340500D01*
X76806611Y-61340500D01*
X76977701Y-61313402D01*
X77142445Y-61259873D01*
X77296788Y-61181232D01*
X77436928Y-61079414D01*
X77559414Y-60956928D01*
X77661232Y-60816788D01*
X77739873Y-60662445D01*
X77793402Y-60497701D01*
X77820500Y-60326611D01*
X77820500Y-60153389D01*
X77816760Y-60129778D01*
X79969500Y-60129778D01*
X79969500Y-60350221D01*
X80003985Y-60567952D01*
X80072103Y-60777603D01*
X80072104Y-60777606D01*
X80172187Y-60974025D01*
X80301752Y-61152358D01*
X80301756Y-61152363D01*
X80457636Y-61308243D01*
X80457641Y-61308247D01*
X80569727Y-61389682D01*
X80612393Y-61445011D01*
X80618372Y-61514625D01*
X80585767Y-61576420D01*
X80569727Y-61590318D01*
X80457641Y-61671752D01*
X80457636Y-61671756D01*
X80301756Y-61827636D01*
X80301752Y-61827641D01*
X80172187Y-62005974D01*
X80072104Y-62202393D01*
X80072103Y-62202396D01*
X80003985Y-62412047D01*
X79982387Y-62548412D01*
X79969500Y-62629778D01*
X79969500Y-62850222D01*
X79972792Y-62871007D01*
X80003985Y-63067952D01*
X80072103Y-63277603D01*
X80072104Y-63277606D01*
X80115367Y-63362512D01*
X80142085Y-63414949D01*
X80172187Y-63474025D01*
X80301752Y-63652358D01*
X80301756Y-63652363D01*
X80457636Y-63808243D01*
X80457641Y-63808247D01*
X80607396Y-63917049D01*
X80635978Y-63937815D01*
X80764375Y-64003237D01*
X80832393Y-64037895D01*
X80832396Y-64037896D01*
X81042045Y-64106014D01*
X81042046Y-64106014D01*
X81042049Y-64106015D01*
X81047243Y-64106837D01*
X81110378Y-64136764D01*
X81147311Y-64196074D01*
X81146317Y-64265936D01*
X81107709Y-64324171D01*
X81100735Y-64329628D01*
X81003078Y-64400581D01*
X81003069Y-64400588D01*
X80880588Y-64523069D01*
X80880588Y-64523070D01*
X80880586Y-64523072D01*
X80852184Y-64562164D01*
X80778768Y-64663211D01*
X80700128Y-64817552D01*
X80646597Y-64982302D01*
X80645066Y-64991971D01*
X80619500Y-65153389D01*
X80619500Y-65326611D01*
X80646598Y-65497701D01*
X80700127Y-65662445D01*
X80778768Y-65816788D01*
X80880586Y-65956928D01*
X81003072Y-66079414D01*
X81100735Y-66150371D01*
X81143400Y-66205700D01*
X81149379Y-66275314D01*
X81116773Y-66337108D01*
X81055934Y-66371466D01*
X81047254Y-66373160D01*
X81042048Y-66373984D01*
X80832396Y-66442103D01*
X80832393Y-66442104D01*
X80635974Y-66542187D01*
X80457641Y-66671752D01*
X80457636Y-66671756D01*
X80301756Y-66827636D01*
X80301752Y-66827641D01*
X80172187Y-67005974D01*
X80072104Y-67202393D01*
X80072103Y-67202396D01*
X80003985Y-67412047D01*
X79969500Y-67629778D01*
X79969500Y-67850221D01*
X80003985Y-68067952D01*
X80072103Y-68277603D01*
X80072104Y-68277606D01*
X80172187Y-68474025D01*
X80301752Y-68652358D01*
X80301756Y-68652363D01*
X80457636Y-68808243D01*
X80457641Y-68808247D01*
X80569727Y-68889682D01*
X80612393Y-68945011D01*
X80618372Y-69014625D01*
X80585767Y-69076420D01*
X80569727Y-69090318D01*
X80457641Y-69171752D01*
X80457636Y-69171756D01*
X80301756Y-69327636D01*
X80301752Y-69327641D01*
X80172187Y-69505974D01*
X80072104Y-69702393D01*
X80072103Y-69702396D01*
X80003985Y-69912047D01*
X79969500Y-70129778D01*
X79969500Y-70350221D01*
X80003985Y-70567952D01*
X80072103Y-70777603D01*
X80072104Y-70777606D01*
X80112837Y-70857547D01*
X80165885Y-70961658D01*
X80172187Y-70974025D01*
X80301752Y-71152358D01*
X80301756Y-71152363D01*
X80457636Y-71308243D01*
X80457641Y-71308247D01*
X80583866Y-71399954D01*
X80635978Y-71437815D01*
X80733572Y-71487542D01*
X80832393Y-71537895D01*
X80832396Y-71537896D01*
X80926983Y-71568628D01*
X81042049Y-71606015D01*
X81042065Y-71606017D01*
X81043431Y-71606346D01*
X81043906Y-71606618D01*
X81046683Y-71607521D01*
X81046493Y-71608103D01*
X81104027Y-71641129D01*
X81136200Y-71703151D01*
X81129733Y-71772720D01*
X81114818Y-71799809D01*
X81063242Y-71870797D01*
X80977454Y-72039163D01*
X80919059Y-72218881D01*
X80889500Y-72405513D01*
X80889500Y-72594486D01*
X80919059Y-72781118D01*
X80977454Y-72960836D01*
X81063240Y-73129199D01*
X81174310Y-73282073D01*
X81307927Y-73415690D01*
X81460801Y-73526760D01*
X81531526Y-73562796D01*
X81629163Y-73612545D01*
X81629165Y-73612545D01*
X81629168Y-73612547D01*
X81725497Y-73643846D01*
X81808881Y-73670940D01*
X81995514Y-73700500D01*
X81995519Y-73700500D01*
X82184486Y-73700500D01*
X82371118Y-73670940D01*
X82550832Y-73612547D01*
X82719199Y-73526760D01*
X82872073Y-73415690D01*
X83005690Y-73282073D01*
X83116760Y-73129199D01*
X83202547Y-72960832D01*
X83260940Y-72781118D01*
X83272455Y-72708414D01*
X83290500Y-72594486D01*
X83290500Y-72405513D01*
X83260940Y-72218881D01*
X83231386Y-72127924D01*
X83202547Y-72039168D01*
X83202545Y-72039165D01*
X83202545Y-72039163D01*
X83123098Y-71883240D01*
X83116760Y-71870801D01*
X83005690Y-71717927D01*
X82872073Y-71584310D01*
X82872070Y-71584308D01*
X82868368Y-71581146D01*
X82869785Y-71579485D01*
X82832657Y-71531372D01*
X82826653Y-71461761D01*
X82859236Y-71399954D01*
X82875301Y-71386027D01*
X82982365Y-71308242D01*
X83138242Y-71152365D01*
X83218705Y-71041615D01*
X83274035Y-70998949D01*
X83319024Y-70990500D01*
X85933920Y-70990500D01*
X86031462Y-70971096D01*
X86078913Y-70961658D01*
X86215495Y-70905084D01*
X86286641Y-70857546D01*
X86338416Y-70822952D01*
X90182952Y-66978416D01*
X90236898Y-66897678D01*
X90265084Y-66855495D01*
X90292420Y-66789500D01*
X90321659Y-66718912D01*
X90350500Y-66573917D01*
X90350500Y-66426082D01*
X90350500Y-55862230D01*
X90370185Y-55795191D01*
X90386819Y-55774549D01*
X90964549Y-55196819D01*
X91025872Y-55163334D01*
X91052230Y-55160500D01*
X92502779Y-55160500D01*
X92569818Y-55180185D01*
X92603097Y-55211615D01*
X92659892Y-55289788D01*
X92773818Y-55403714D01*
X92807303Y-55465037D01*
X92802319Y-55534729D01*
X92760447Y-55590662D01*
X92729471Y-55607577D01*
X92597912Y-55656646D01*
X92597906Y-55656649D01*
X92482812Y-55742809D01*
X92482809Y-55742812D01*
X92396649Y-55857906D01*
X92396645Y-55857913D01*
X92346403Y-55992620D01*
X92346401Y-55992627D01*
X92340000Y-56052155D01*
X92340000Y-56700000D01*
X93245440Y-56700000D01*
X93214755Y-56753147D01*
X93180000Y-56882857D01*
X93180000Y-57017143D01*
X93214755Y-57146853D01*
X93245440Y-57200000D01*
X92340000Y-57200000D01*
X92340000Y-57847844D01*
X92346401Y-57907372D01*
X92346403Y-57907379D01*
X92396645Y-58042086D01*
X92396649Y-58042093D01*
X92482809Y-58157187D01*
X92482812Y-58157190D01*
X92597906Y-58243350D01*
X92597913Y-58243354D01*
X92729470Y-58292422D01*
X92785404Y-58334293D01*
X92809821Y-58399758D01*
X92794969Y-58468031D01*
X92773819Y-58496285D01*
X92659889Y-58610215D01*
X92534951Y-58782179D01*
X92438444Y-58971585D01*
X92372753Y-59173760D01*
X92358834Y-59261645D01*
X92339500Y-59383713D01*
X92339500Y-59596287D01*
X92372754Y-59806243D01*
X92429959Y-59982302D01*
X92438444Y-60008414D01*
X92534951Y-60197820D01*
X92659890Y-60369786D01*
X92810213Y-60520109D01*
X92982182Y-60645050D01*
X92990946Y-60649516D01*
X93041742Y-60697491D01*
X93058536Y-60765312D01*
X93035998Y-60831447D01*
X92990946Y-60870484D01*
X92982182Y-60874949D01*
X92810213Y-60999890D01*
X92659890Y-61150213D01*
X92534951Y-61322179D01*
X92438444Y-61511585D01*
X92372753Y-61713760D01*
X92339500Y-61923713D01*
X92339500Y-62136287D01*
X92372754Y-62346243D01*
X92420102Y-62491966D01*
X92438444Y-62548414D01*
X92534951Y-62737820D01*
X92659890Y-62909786D01*
X92810213Y-63060109D01*
X92982182Y-63185050D01*
X92990946Y-63189516D01*
X93041742Y-63237491D01*
X93058536Y-63305312D01*
X93035998Y-63371447D01*
X92990946Y-63410484D01*
X92982182Y-63414949D01*
X92810213Y-63539890D01*
X92659890Y-63690213D01*
X92534951Y-63862179D01*
X92438444Y-64051585D01*
X92372753Y-64253760D01*
X92339500Y-64463713D01*
X92339500Y-64676286D01*
X92368950Y-64862229D01*
X92372754Y-64886243D01*
X92407107Y-64991971D01*
X92438444Y-65088414D01*
X92534951Y-65277820D01*
X92659890Y-65449786D01*
X92810213Y-65600109D01*
X92982182Y-65725050D01*
X92990946Y-65729516D01*
X93041742Y-65777491D01*
X93058536Y-65845312D01*
X93035998Y-65911447D01*
X92990946Y-65950484D01*
X92982182Y-65954949D01*
X92810213Y-66079890D01*
X92659890Y-66230213D01*
X92534951Y-66402179D01*
X92438444Y-66591585D01*
X92372753Y-66793760D01*
X92339500Y-67003713D01*
X92339500Y-67216286D01*
X92372753Y-67426239D01*
X92438444Y-67628414D01*
X92534951Y-67817820D01*
X92659890Y-67989786D01*
X92773430Y-68103326D01*
X92806915Y-68164649D01*
X92801931Y-68234341D01*
X92760059Y-68290274D01*
X92729083Y-68307189D01*
X92597669Y-68356203D01*
X92597664Y-68356206D01*
X92482455Y-68442452D01*
X92482452Y-68442455D01*
X92396206Y-68557664D01*
X92396202Y-68557671D01*
X92345908Y-68692517D01*
X92339501Y-68752116D01*
X92339501Y-68752123D01*
X92339500Y-68752135D01*
X92339500Y-70547870D01*
X92339501Y-70547876D01*
X92345908Y-70607483D01*
X92396202Y-70742328D01*
X92396206Y-70742335D01*
X92482452Y-70857544D01*
X92482455Y-70857547D01*
X92597664Y-70943793D01*
X92597671Y-70943797D01*
X92729082Y-70992810D01*
X92785016Y-71034681D01*
X92809433Y-71100145D01*
X92794582Y-71168418D01*
X92773431Y-71196673D01*
X92659889Y-71310215D01*
X92534951Y-71482179D01*
X92438444Y-71671585D01*
X92372753Y-71873760D01*
X92371252Y-71883240D01*
X92339500Y-72083713D01*
X92339500Y-72296287D01*
X92372754Y-72506243D01*
X92401424Y-72594481D01*
X92438444Y-72708414D01*
X92534951Y-72897820D01*
X92659890Y-73069786D01*
X92810213Y-73220109D01*
X92982182Y-73345050D01*
X92990946Y-73349516D01*
X93041742Y-73397491D01*
X93058536Y-73465312D01*
X93035998Y-73531447D01*
X92990946Y-73570484D01*
X92982182Y-73574949D01*
X92810213Y-73699890D01*
X92659890Y-73850213D01*
X92534951Y-74022179D01*
X92438444Y-74211585D01*
X92372753Y-74413760D01*
X92339500Y-74623713D01*
X92339500Y-74836286D01*
X92372753Y-75046239D01*
X92438444Y-75248414D01*
X92534951Y-75437820D01*
X92659890Y-75609786D01*
X92810213Y-75760109D01*
X92982182Y-75885050D01*
X92990946Y-75889516D01*
X93041742Y-75937491D01*
X93058536Y-76005312D01*
X93035998Y-76071447D01*
X92990946Y-76110484D01*
X92982182Y-76114949D01*
X92810213Y-76239890D01*
X92659890Y-76390213D01*
X92534951Y-76562179D01*
X92438444Y-76751585D01*
X92372753Y-76953760D01*
X92365306Y-77000781D01*
X92339500Y-77163713D01*
X92339500Y-77376287D01*
X92372754Y-77586243D01*
X92430304Y-77763364D01*
X92438444Y-77788414D01*
X92534951Y-77977820D01*
X92659890Y-78149786D01*
X92810213Y-78300109D01*
X92982182Y-78425050D01*
X92990946Y-78429516D01*
X93041742Y-78477491D01*
X93058536Y-78545312D01*
X93035998Y-78611447D01*
X92990946Y-78650484D01*
X92982182Y-78654949D01*
X92810213Y-78779890D01*
X92659890Y-78930213D01*
X92534951Y-79102179D01*
X92438444Y-79291585D01*
X92372753Y-79493760D01*
X92339500Y-79703713D01*
X92339500Y-79916286D01*
X92361099Y-80052661D01*
X92372754Y-80126243D01*
X92388747Y-80175465D01*
X92438444Y-80328414D01*
X92534951Y-80517820D01*
X92659890Y-80689786D01*
X92773818Y-80803714D01*
X92807303Y-80865037D01*
X92802319Y-80934729D01*
X92760447Y-80990662D01*
X92729471Y-81007577D01*
X92597912Y-81056646D01*
X92597906Y-81056649D01*
X92482812Y-81142809D01*
X92482809Y-81142812D01*
X92396649Y-81257906D01*
X92396645Y-81257913D01*
X92346403Y-81392620D01*
X92346401Y-81392627D01*
X92340000Y-81452155D01*
X92340000Y-82100000D01*
X93245440Y-82100000D01*
X93214755Y-82153147D01*
X93180000Y-82282857D01*
X93180000Y-82417143D01*
X93214755Y-82546853D01*
X93245440Y-82600000D01*
X92340000Y-82600000D01*
X92340000Y-83247844D01*
X92346401Y-83307372D01*
X92346403Y-83307379D01*
X92396645Y-83442086D01*
X92396649Y-83442093D01*
X92482809Y-83557187D01*
X92482812Y-83557190D01*
X92597906Y-83643350D01*
X92597913Y-83643354D01*
X92729470Y-83692422D01*
X92785404Y-83734293D01*
X92809821Y-83799758D01*
X92794969Y-83868031D01*
X92773819Y-83896285D01*
X92659889Y-84010215D01*
X92534951Y-84182179D01*
X92438444Y-84371585D01*
X92372753Y-84573760D01*
X92339500Y-84783713D01*
X92339500Y-84996286D01*
X92355825Y-85099362D01*
X92372754Y-85206243D01*
X92432298Y-85389501D01*
X92438444Y-85408414D01*
X92534951Y-85597820D01*
X92659890Y-85769786D01*
X92810213Y-85920109D01*
X92982182Y-86045050D01*
X92990946Y-86049516D01*
X93041742Y-86097491D01*
X93058536Y-86165312D01*
X93035998Y-86231447D01*
X92990946Y-86270484D01*
X92982182Y-86274949D01*
X92810213Y-86399890D01*
X92659890Y-86550213D01*
X92534951Y-86722179D01*
X92438444Y-86911585D01*
X92372753Y-87113760D01*
X92339500Y-87323713D01*
X92339500Y-87536286D01*
X92366800Y-87708656D01*
X92372754Y-87746243D01*
X92420238Y-87892384D01*
X92438444Y-87948414D01*
X92534951Y-88137820D01*
X92659890Y-88309786D01*
X92810213Y-88460109D01*
X92982182Y-88585050D01*
X92990946Y-88589516D01*
X93041742Y-88637491D01*
X93058536Y-88705312D01*
X93035998Y-88771447D01*
X92990946Y-88810484D01*
X92982182Y-88814949D01*
X92810213Y-88939890D01*
X92659890Y-89090213D01*
X92534951Y-89262179D01*
X92438444Y-89451585D01*
X92372753Y-89653760D01*
X92339500Y-89863713D01*
X92339500Y-90076286D01*
X92372139Y-90282365D01*
X92372754Y-90286243D01*
X92436537Y-90482547D01*
X92438444Y-90488414D01*
X92534951Y-90677820D01*
X92659890Y-90849786D01*
X92810213Y-91000109D01*
X92982182Y-91125050D01*
X92990946Y-91129516D01*
X93041742Y-91177491D01*
X93058536Y-91245312D01*
X93035998Y-91311447D01*
X92990946Y-91350484D01*
X92982182Y-91354949D01*
X92810213Y-91479890D01*
X92659890Y-91630213D01*
X92534951Y-91802179D01*
X92438444Y-91991585D01*
X92372753Y-92193760D01*
X92339500Y-92403713D01*
X92339500Y-92616286D01*
X92372753Y-92826239D01*
X92438444Y-93028414D01*
X92534951Y-93217820D01*
X92659890Y-93389786D01*
X92773430Y-93503326D01*
X92806915Y-93564649D01*
X92801931Y-93634341D01*
X92760059Y-93690274D01*
X92729083Y-93707189D01*
X92597669Y-93756203D01*
X92597664Y-93756206D01*
X92482455Y-93842452D01*
X92482452Y-93842455D01*
X92396206Y-93957664D01*
X92396202Y-93957671D01*
X92345908Y-94092517D01*
X92339501Y-94152116D01*
X92339501Y-94152123D01*
X92339500Y-94152135D01*
X92339500Y-95947870D01*
X92339501Y-95947876D01*
X92345908Y-96007483D01*
X92396202Y-96142328D01*
X92396206Y-96142335D01*
X92482452Y-96257544D01*
X92482455Y-96257547D01*
X92597664Y-96343793D01*
X92597671Y-96343797D01*
X92729082Y-96392810D01*
X92785016Y-96434681D01*
X92809433Y-96500145D01*
X92794582Y-96568418D01*
X92773431Y-96596673D01*
X92659889Y-96710215D01*
X92534951Y-96882179D01*
X92438444Y-97071585D01*
X92372753Y-97273760D01*
X92339500Y-97483713D01*
X92339500Y-97696286D01*
X92360606Y-97829548D01*
X92372754Y-97906243D01*
X92430612Y-98084312D01*
X92438444Y-98108414D01*
X92534951Y-98297820D01*
X92659890Y-98469786D01*
X92810213Y-98620109D01*
X92982182Y-98745050D01*
X92990946Y-98749516D01*
X93041742Y-98797491D01*
X93058536Y-98865312D01*
X93035998Y-98931447D01*
X92990946Y-98970484D01*
X92982182Y-98974949D01*
X92810213Y-99099890D01*
X92659890Y-99250213D01*
X92534951Y-99422179D01*
X92438444Y-99611585D01*
X92372753Y-99813760D01*
X92339500Y-100023713D01*
X92339500Y-100236286D01*
X92367013Y-100410000D01*
X92372754Y-100446243D01*
X92425252Y-100607816D01*
X92438444Y-100648414D01*
X92534951Y-100837820D01*
X92659890Y-101009786D01*
X92810213Y-101160109D01*
X92982179Y-101285048D01*
X92982181Y-101285049D01*
X92982184Y-101285051D01*
X93171588Y-101381557D01*
X93373757Y-101447246D01*
X93583713Y-101480500D01*
X93583714Y-101480500D01*
X93796286Y-101480500D01*
X93796287Y-101480500D01*
X94006243Y-101447246D01*
X94208412Y-101381557D01*
X94397816Y-101285051D01*
X94454872Y-101243598D01*
X94569786Y-101160109D01*
X94569788Y-101160106D01*
X94569792Y-101160104D01*
X94720104Y-101009792D01*
X94720106Y-101009788D01*
X94720109Y-101009786D01*
X94845048Y-100837820D01*
X94845047Y-100837820D01*
X94845051Y-100837816D01*
X94941557Y-100648412D01*
X95007246Y-100446243D01*
X95040500Y-100236287D01*
X95040500Y-100023713D01*
X95007246Y-99813757D01*
X95000733Y-99793713D01*
X98689500Y-99793713D01*
X98689500Y-100006287D01*
X98692743Y-100026760D01*
X98722263Y-100213147D01*
X98722754Y-100216243D01*
X98762140Y-100337461D01*
X98788444Y-100418414D01*
X98884951Y-100607820D01*
X99009890Y-100779786D01*
X99160213Y-100930109D01*
X99332179Y-101055048D01*
X99332181Y-101055049D01*
X99332184Y-101055051D01*
X99521588Y-101151557D01*
X99723757Y-101217246D01*
X99933713Y-101250500D01*
X99933714Y-101250500D01*
X100146286Y-101250500D01*
X100146287Y-101250500D01*
X100356243Y-101217246D01*
X100558412Y-101151557D01*
X100747816Y-101055051D01*
X100834478Y-100992088D01*
X100919784Y-100930110D01*
X100919784Y-100930109D01*
X100919792Y-100930104D01*
X101033717Y-100816178D01*
X101095036Y-100782696D01*
X101164728Y-100787680D01*
X101220662Y-100829551D01*
X101237577Y-100860528D01*
X101286646Y-100992088D01*
X101286649Y-100992093D01*
X101372809Y-101107187D01*
X101372812Y-101107190D01*
X101487906Y-101193350D01*
X101487913Y-101193354D01*
X101622620Y-101243596D01*
X101622627Y-101243598D01*
X101682155Y-101249999D01*
X101682172Y-101250000D01*
X102330000Y-101250000D01*
X102330000Y-100344560D01*
X102383147Y-100375245D01*
X102512857Y-100410000D01*
X102647143Y-100410000D01*
X102776853Y-100375245D01*
X102830000Y-100344560D01*
X102830000Y-101250000D01*
X103477828Y-101250000D01*
X103477844Y-101249999D01*
X103537372Y-101243598D01*
X103537379Y-101243596D01*
X103672086Y-101193354D01*
X103672093Y-101193350D01*
X103787187Y-101107190D01*
X103787190Y-101107187D01*
X103873350Y-100992093D01*
X103873354Y-100992086D01*
X103922422Y-100860529D01*
X103964293Y-100804595D01*
X104029757Y-100780178D01*
X104098030Y-100795030D01*
X104126285Y-100816181D01*
X104240213Y-100930109D01*
X104412179Y-101055048D01*
X104412181Y-101055049D01*
X104412184Y-101055051D01*
X104601588Y-101151557D01*
X104803757Y-101217246D01*
X105013713Y-101250500D01*
X105013714Y-101250500D01*
X105226286Y-101250500D01*
X105226287Y-101250500D01*
X105436243Y-101217246D01*
X105638412Y-101151557D01*
X105827816Y-101055051D01*
X105890110Y-101009792D01*
X105999786Y-100930109D01*
X105999788Y-100930106D01*
X105999792Y-100930104D01*
X106150104Y-100779792D01*
X106150106Y-100779788D01*
X106150109Y-100779786D01*
X106275048Y-100607820D01*
X106275047Y-100607820D01*
X106275051Y-100607816D01*
X106371557Y-100418412D01*
X106437246Y-100216243D01*
X106470500Y-100006287D01*
X106470500Y-99793713D01*
X106437246Y-99583757D01*
X106371557Y-99381588D01*
X106275051Y-99192184D01*
X106275049Y-99192181D01*
X106275048Y-99192179D01*
X106150109Y-99020213D01*
X105999786Y-98869890D01*
X105827820Y-98744951D01*
X105638414Y-98648444D01*
X105638413Y-98648443D01*
X105638412Y-98648443D01*
X105436243Y-98582754D01*
X105436241Y-98582753D01*
X105436240Y-98582753D01*
X105274957Y-98557208D01*
X105226287Y-98549500D01*
X105013713Y-98549500D01*
X104965042Y-98557208D01*
X104803760Y-98582753D01*
X104601585Y-98648444D01*
X104412179Y-98744951D01*
X104240215Y-98869889D01*
X104126285Y-98983819D01*
X104064962Y-99017303D01*
X103995270Y-99012319D01*
X103939337Y-98970447D01*
X103922422Y-98939470D01*
X103873354Y-98807913D01*
X103873350Y-98807906D01*
X103787190Y-98692812D01*
X103787187Y-98692809D01*
X103672093Y-98606649D01*
X103672086Y-98606645D01*
X103537379Y-98556403D01*
X103537372Y-98556401D01*
X103477844Y-98550000D01*
X102830000Y-98550000D01*
X102830000Y-99455439D01*
X102776853Y-99424755D01*
X102647143Y-99390000D01*
X102512857Y-99390000D01*
X102383147Y-99424755D01*
X102330000Y-99455439D01*
X102330000Y-98550000D01*
X101682155Y-98550000D01*
X101622627Y-98556401D01*
X101622620Y-98556403D01*
X101487913Y-98606645D01*
X101487906Y-98606649D01*
X101372812Y-98692809D01*
X101372809Y-98692812D01*
X101286649Y-98807906D01*
X101286646Y-98807912D01*
X101237577Y-98939471D01*
X101195705Y-98995404D01*
X101130241Y-99019821D01*
X101061968Y-99004969D01*
X101033714Y-98983818D01*
X100919786Y-98869890D01*
X100747820Y-98744951D01*
X100558414Y-98648444D01*
X100558413Y-98648443D01*
X100558412Y-98648443D01*
X100356243Y-98582754D01*
X100356241Y-98582753D01*
X100356240Y-98582753D01*
X100194957Y-98557208D01*
X100146287Y-98549500D01*
X99933713Y-98549500D01*
X99885042Y-98557208D01*
X99723760Y-98582753D01*
X99521585Y-98648444D01*
X99332179Y-98744951D01*
X99160213Y-98869890D01*
X99009890Y-99020213D01*
X98884951Y-99192179D01*
X98788444Y-99381585D01*
X98788443Y-99381587D01*
X98788443Y-99381588D01*
X98774417Y-99424755D01*
X98722753Y-99583760D01*
X98703844Y-99703147D01*
X98689500Y-99793713D01*
X95000733Y-99793713D01*
X94941557Y-99611588D01*
X94845051Y-99422184D01*
X94845049Y-99422181D01*
X94845048Y-99422179D01*
X94720109Y-99250213D01*
X94569786Y-99099890D01*
X94397820Y-98974951D01*
X94397115Y-98974591D01*
X94389054Y-98970485D01*
X94338259Y-98922512D01*
X94321463Y-98854692D01*
X94343999Y-98788556D01*
X94389054Y-98749515D01*
X94397816Y-98745051D01*
X94450174Y-98707011D01*
X94569786Y-98620109D01*
X94569788Y-98620106D01*
X94569792Y-98620104D01*
X94720104Y-98469792D01*
X94720106Y-98469788D01*
X94720109Y-98469786D01*
X94845048Y-98297820D01*
X94845047Y-98297820D01*
X94845051Y-98297816D01*
X94941557Y-98108412D01*
X95007246Y-97906243D01*
X95040500Y-97696287D01*
X95040500Y-97483713D01*
X95007246Y-97273757D01*
X94941557Y-97071588D01*
X94845051Y-96882184D01*
X94845049Y-96882181D01*
X94845048Y-96882179D01*
X94720109Y-96710213D01*
X94606569Y-96596673D01*
X94573084Y-96535350D01*
X94578068Y-96465658D01*
X94619940Y-96409725D01*
X94650915Y-96392810D01*
X94782331Y-96343796D01*
X94897546Y-96257546D01*
X94983796Y-96142331D01*
X95034091Y-96007483D01*
X95040500Y-95947873D01*
X95040499Y-94152128D01*
X95034091Y-94092517D01*
X95001666Y-94005582D01*
X94983797Y-93957671D01*
X94983793Y-93957664D01*
X94897547Y-93842455D01*
X94897544Y-93842452D01*
X94782335Y-93756206D01*
X94782328Y-93756202D01*
X94650917Y-93707189D01*
X94594983Y-93665318D01*
X94570566Y-93599853D01*
X94585418Y-93531580D01*
X94606563Y-93503332D01*
X94720104Y-93389792D01*
X94845051Y-93217816D01*
X94941557Y-93028412D01*
X95007246Y-92826243D01*
X95040500Y-92616287D01*
X95040500Y-92403713D01*
X95007246Y-92193757D01*
X94941557Y-91991588D01*
X94845051Y-91802184D01*
X94845049Y-91802181D01*
X94845048Y-91802179D01*
X94720109Y-91630213D01*
X94569786Y-91479890D01*
X94397820Y-91354951D01*
X94397115Y-91354591D01*
X94389054Y-91350485D01*
X94338259Y-91302512D01*
X94321463Y-91234692D01*
X94343999Y-91168556D01*
X94389054Y-91129515D01*
X94397816Y-91125051D01*
X94419789Y-91109086D01*
X94569786Y-91000109D01*
X94569788Y-91000106D01*
X94569792Y-91000104D01*
X94720104Y-90849792D01*
X94720106Y-90849788D01*
X94720109Y-90849786D01*
X94845048Y-90677820D01*
X94845047Y-90677820D01*
X94845051Y-90677816D01*
X94941557Y-90488412D01*
X95007246Y-90286243D01*
X95040500Y-90076287D01*
X95040500Y-89863713D01*
X95007246Y-89653757D01*
X94941557Y-89451588D01*
X94845051Y-89262184D01*
X94845049Y-89262181D01*
X94845048Y-89262179D01*
X94720109Y-89090213D01*
X94569786Y-88939890D01*
X94397820Y-88814951D01*
X94397115Y-88814591D01*
X94389054Y-88810485D01*
X94338259Y-88762512D01*
X94321463Y-88694692D01*
X94343999Y-88628556D01*
X94389054Y-88589515D01*
X94397816Y-88585051D01*
X94521390Y-88495270D01*
X94569786Y-88460109D01*
X94569788Y-88460106D01*
X94569792Y-88460104D01*
X94720104Y-88309792D01*
X94720106Y-88309788D01*
X94720109Y-88309786D01*
X94845048Y-88137820D01*
X94845047Y-88137820D01*
X94845051Y-88137816D01*
X94941557Y-87948412D01*
X95007246Y-87746243D01*
X95040500Y-87536287D01*
X95040500Y-87323713D01*
X95007246Y-87113757D01*
X94941557Y-86911588D01*
X94845051Y-86722184D01*
X94845049Y-86722181D01*
X94845048Y-86722179D01*
X94720109Y-86550213D01*
X94569786Y-86399890D01*
X94397820Y-86274951D01*
X94397115Y-86274591D01*
X94389054Y-86270485D01*
X94338259Y-86222512D01*
X94321463Y-86154692D01*
X94343999Y-86088556D01*
X94389054Y-86049515D01*
X94397816Y-86045051D01*
X94477438Y-85987203D01*
X94569786Y-85920109D01*
X94569788Y-85920106D01*
X94569792Y-85920104D01*
X94720104Y-85769792D01*
X94720106Y-85769788D01*
X94720109Y-85769786D01*
X94845048Y-85597820D01*
X94845047Y-85597820D01*
X94845051Y-85597816D01*
X94941557Y-85408412D01*
X95007246Y-85206243D01*
X95040500Y-84996287D01*
X95040500Y-84783713D01*
X95007246Y-84573757D01*
X94941557Y-84371588D01*
X94845051Y-84182184D01*
X94845049Y-84182181D01*
X94845048Y-84182179D01*
X94720109Y-84010213D01*
X94606181Y-83896285D01*
X94572696Y-83834962D01*
X94577680Y-83765270D01*
X94619552Y-83709337D01*
X94650529Y-83692422D01*
X94782086Y-83643354D01*
X94782093Y-83643350D01*
X94897187Y-83557190D01*
X94897190Y-83557187D01*
X94983350Y-83442093D01*
X94983354Y-83442086D01*
X95033596Y-83307379D01*
X95033598Y-83307372D01*
X95039999Y-83247844D01*
X95040000Y-83247827D01*
X95040000Y-82600000D01*
X94134560Y-82600000D01*
X94165245Y-82546853D01*
X94200000Y-82417143D01*
X94200000Y-82282857D01*
X94165245Y-82153147D01*
X94134560Y-82100000D01*
X95040000Y-82100000D01*
X95040000Y-81452172D01*
X95039999Y-81452155D01*
X95033598Y-81392627D01*
X95033596Y-81392620D01*
X94983354Y-81257913D01*
X94983350Y-81257906D01*
X94897190Y-81142812D01*
X94897187Y-81142809D01*
X94782093Y-81056649D01*
X94782088Y-81056646D01*
X94650528Y-81007577D01*
X94594595Y-80965705D01*
X94570178Y-80900241D01*
X94585030Y-80831968D01*
X94606175Y-80803720D01*
X94720104Y-80689792D01*
X94726238Y-80681350D01*
X94845048Y-80517820D01*
X94845047Y-80517820D01*
X94845051Y-80517816D01*
X94941557Y-80328412D01*
X95007246Y-80126243D01*
X95040500Y-79916287D01*
X95040500Y-79703713D01*
X95007246Y-79493757D01*
X94941557Y-79291588D01*
X94845051Y-79102184D01*
X94845049Y-79102181D01*
X94845048Y-79102179D01*
X94720109Y-78930213D01*
X94569786Y-78779890D01*
X94397820Y-78654951D01*
X94397115Y-78654591D01*
X94389054Y-78650485D01*
X94338259Y-78602512D01*
X94321463Y-78534692D01*
X94343999Y-78468556D01*
X94389054Y-78429515D01*
X94397816Y-78425051D01*
X94426141Y-78404472D01*
X94569786Y-78300109D01*
X94569788Y-78300106D01*
X94569792Y-78300104D01*
X94720104Y-78149792D01*
X94720106Y-78149788D01*
X94720109Y-78149786D01*
X94845048Y-77977820D01*
X94845049Y-77977819D01*
X94845051Y-77977816D01*
X94941557Y-77788412D01*
X95007246Y-77586243D01*
X95040500Y-77376287D01*
X95040500Y-77163713D01*
X95007246Y-76953757D01*
X94941557Y-76751588D01*
X94845051Y-76562184D01*
X94845049Y-76562181D01*
X94845048Y-76562179D01*
X94720109Y-76390213D01*
X94569786Y-76239890D01*
X94397820Y-76114951D01*
X94397115Y-76114591D01*
X94389054Y-76110485D01*
X94338259Y-76062512D01*
X94321463Y-75994692D01*
X94343999Y-75928556D01*
X94389054Y-75889515D01*
X94397816Y-75885051D01*
X94419789Y-75869086D01*
X94569786Y-75760109D01*
X94569788Y-75760106D01*
X94569792Y-75760104D01*
X94720104Y-75609792D01*
X94720106Y-75609788D01*
X94720109Y-75609786D01*
X94845048Y-75437820D01*
X94845047Y-75437820D01*
X94845051Y-75437816D01*
X94941557Y-75248412D01*
X95007246Y-75046243D01*
X95040500Y-74836287D01*
X95040500Y-74623713D01*
X95007246Y-74413757D01*
X94941557Y-74211588D01*
X94845051Y-74022184D01*
X94845049Y-74022181D01*
X94845048Y-74022179D01*
X94720109Y-73850213D01*
X94569786Y-73699890D01*
X94397820Y-73574951D01*
X94397115Y-73574591D01*
X94389054Y-73570485D01*
X94338259Y-73522512D01*
X94321463Y-73454692D01*
X94343999Y-73388556D01*
X94389054Y-73349515D01*
X94397816Y-73345051D01*
X94484497Y-73282074D01*
X94569786Y-73220109D01*
X94569788Y-73220106D01*
X94569792Y-73220104D01*
X94720104Y-73069792D01*
X94720106Y-73069788D01*
X94720109Y-73069786D01*
X94845048Y-72897820D01*
X94845049Y-72897819D01*
X94845051Y-72897816D01*
X94941557Y-72708412D01*
X95007246Y-72506243D01*
X95040500Y-72296287D01*
X95040500Y-72083713D01*
X95007246Y-71873757D01*
X94941557Y-71671588D01*
X94845051Y-71482184D01*
X94845049Y-71482181D01*
X94845048Y-71482179D01*
X94720109Y-71310213D01*
X94606569Y-71196673D01*
X94573084Y-71135350D01*
X94578068Y-71065658D01*
X94619940Y-71009725D01*
X94650915Y-70992810D01*
X94782331Y-70943796D01*
X94897546Y-70857546D01*
X94983796Y-70742331D01*
X95034091Y-70607483D01*
X95040500Y-70547873D01*
X95040499Y-68752128D01*
X95034091Y-68692517D01*
X95019115Y-68652365D01*
X94983797Y-68557671D01*
X94983793Y-68557664D01*
X94897547Y-68442455D01*
X94897544Y-68442452D01*
X94782335Y-68356206D01*
X94782328Y-68356202D01*
X94650917Y-68307189D01*
X94594983Y-68265318D01*
X94570566Y-68199853D01*
X94585418Y-68131580D01*
X94606563Y-68103332D01*
X94720104Y-67989792D01*
X94845051Y-67817816D01*
X94941557Y-67628412D01*
X95007246Y-67426243D01*
X95040500Y-67216287D01*
X95040500Y-67003713D01*
X95007246Y-66793757D01*
X94941557Y-66591588D01*
X94845051Y-66402184D01*
X94845049Y-66402181D01*
X94845048Y-66402179D01*
X94720109Y-66230213D01*
X94569786Y-66079890D01*
X94397820Y-65954951D01*
X94397115Y-65954591D01*
X94389054Y-65950485D01*
X94338259Y-65902512D01*
X94321463Y-65834692D01*
X94343999Y-65768556D01*
X94389054Y-65729515D01*
X94397816Y-65725051D01*
X94483984Y-65662447D01*
X94569786Y-65600109D01*
X94569788Y-65600106D01*
X94569792Y-65600104D01*
X94720104Y-65449792D01*
X94720106Y-65449788D01*
X94720109Y-65449786D01*
X94845048Y-65277820D01*
X94845047Y-65277820D01*
X94845051Y-65277816D01*
X94941557Y-65088412D01*
X95007246Y-64886243D01*
X95040500Y-64676287D01*
X95040500Y-64463713D01*
X95007246Y-64253757D01*
X94941557Y-64051588D01*
X94845051Y-63862184D01*
X94845049Y-63862181D01*
X94845048Y-63862179D01*
X94720109Y-63690213D01*
X94569786Y-63539890D01*
X94397820Y-63414951D01*
X94397115Y-63414591D01*
X94389054Y-63410485D01*
X94338259Y-63362512D01*
X94321463Y-63294692D01*
X94343999Y-63228556D01*
X94389054Y-63189515D01*
X94397816Y-63185051D01*
X94442232Y-63152781D01*
X94569786Y-63060109D01*
X94569788Y-63060106D01*
X94569792Y-63060104D01*
X94720104Y-62909792D01*
X94720106Y-62909788D01*
X94720109Y-62909786D01*
X94829086Y-62759789D01*
X94845051Y-62737816D01*
X94941557Y-62548412D01*
X95007246Y-62346243D01*
X95040500Y-62136287D01*
X95040500Y-61923713D01*
X95007246Y-61713757D01*
X94941557Y-61511588D01*
X94845051Y-61322184D01*
X94845049Y-61322181D01*
X94845048Y-61322179D01*
X94720109Y-61150213D01*
X94569786Y-60999890D01*
X94397820Y-60874951D01*
X94397115Y-60874591D01*
X94389054Y-60870485D01*
X94338259Y-60822512D01*
X94321463Y-60754692D01*
X94343999Y-60688556D01*
X94389054Y-60649515D01*
X94397816Y-60645051D01*
X94488117Y-60579444D01*
X94569786Y-60520109D01*
X94569788Y-60520106D01*
X94569792Y-60520104D01*
X94720104Y-60369792D01*
X94720106Y-60369788D01*
X94720109Y-60369786D01*
X94829086Y-60219789D01*
X94845051Y-60197816D01*
X94941557Y-60008412D01*
X95007246Y-59806243D01*
X95040500Y-59596287D01*
X95040500Y-59383713D01*
X95007246Y-59173757D01*
X94941557Y-58971588D01*
X94845051Y-58782184D01*
X94845049Y-58782181D01*
X94845048Y-58782179D01*
X94720109Y-58610213D01*
X94606181Y-58496285D01*
X94572696Y-58434962D01*
X94577680Y-58365270D01*
X94619552Y-58309337D01*
X94650529Y-58292422D01*
X94782086Y-58243354D01*
X94782093Y-58243350D01*
X94897187Y-58157190D01*
X94897190Y-58157187D01*
X94983350Y-58042093D01*
X94983354Y-58042086D01*
X95033596Y-57907379D01*
X95033598Y-57907372D01*
X95039999Y-57847844D01*
X95040000Y-57847827D01*
X95040000Y-57200000D01*
X94134560Y-57200000D01*
X94165245Y-57146853D01*
X94200000Y-57017143D01*
X94200000Y-56882857D01*
X94165245Y-56753147D01*
X94134560Y-56700000D01*
X95040000Y-56700000D01*
X95040000Y-56052172D01*
X95039999Y-56052155D01*
X95033598Y-55992627D01*
X95033596Y-55992620D01*
X94983354Y-55857913D01*
X94983350Y-55857906D01*
X94897190Y-55742812D01*
X94897187Y-55742809D01*
X94782093Y-55656649D01*
X94782088Y-55656646D01*
X94650528Y-55607577D01*
X94594595Y-55565705D01*
X94570178Y-55500241D01*
X94585030Y-55431968D01*
X94606175Y-55403720D01*
X94720104Y-55289792D01*
X94784406Y-55201288D01*
X94814039Y-55160500D01*
X94845051Y-55117816D01*
X94939944Y-54931577D01*
X98904500Y-54931577D01*
X98904500Y-55128422D01*
X98935290Y-55322826D01*
X98996117Y-55510029D01*
X99070824Y-55656649D01*
X99085476Y-55685405D01*
X99201172Y-55844646D01*
X99340354Y-55983828D01*
X99499595Y-56099524D01*
X99561182Y-56130904D01*
X99674970Y-56188882D01*
X99674972Y-56188882D01*
X99674975Y-56188884D01*
X99775317Y-56221487D01*
X99862173Y-56249709D01*
X100056578Y-56280500D01*
X100056583Y-56280500D01*
X100253422Y-56280500D01*
X100447826Y-56249709D01*
X100635025Y-56188884D01*
X100810405Y-56099524D01*
X100969646Y-55983828D01*
X101108828Y-55844646D01*
X101224524Y-55685405D01*
X101313884Y-55510025D01*
X101374709Y-55322826D01*
X101393959Y-55201288D01*
X101405500Y-55128422D01*
X101405500Y-54931577D01*
X103754500Y-54931577D01*
X103754500Y-55128422D01*
X103785290Y-55322826D01*
X103846117Y-55510029D01*
X103920824Y-55656649D01*
X103935476Y-55685405D01*
X104051172Y-55844646D01*
X104190354Y-55983828D01*
X104349595Y-56099524D01*
X104411182Y-56130904D01*
X104524970Y-56188882D01*
X104524972Y-56188882D01*
X104524975Y-56188884D01*
X104625317Y-56221487D01*
X104712173Y-56249709D01*
X104906578Y-56280500D01*
X104906583Y-56280500D01*
X105103422Y-56280500D01*
X105297826Y-56249709D01*
X105485025Y-56188884D01*
X105660405Y-56099524D01*
X105819646Y-55983828D01*
X105958828Y-55844646D01*
X106074524Y-55685405D01*
X106163884Y-55510025D01*
X106224709Y-55322826D01*
X106243959Y-55201288D01*
X106255500Y-55128422D01*
X106255500Y-54931577D01*
X106224709Y-54737173D01*
X106180915Y-54602390D01*
X106163884Y-54549975D01*
X106163882Y-54549972D01*
X106163882Y-54549970D01*
X106074523Y-54374594D01*
X105958828Y-54215354D01*
X105819646Y-54076172D01*
X105660405Y-53960476D01*
X105485029Y-53871117D01*
X105297826Y-53810290D01*
X105103422Y-53779500D01*
X105103417Y-53779500D01*
X104906583Y-53779500D01*
X104906578Y-53779500D01*
X104712173Y-53810290D01*
X104524970Y-53871117D01*
X104349594Y-53960476D01*
X104258741Y-54026485D01*
X104190354Y-54076172D01*
X104190352Y-54076174D01*
X104190351Y-54076174D01*
X104051174Y-54215351D01*
X104051174Y-54215352D01*
X104051172Y-54215354D01*
X104018891Y-54259785D01*
X103935476Y-54374594D01*
X103846117Y-54549970D01*
X103785290Y-54737173D01*
X103754500Y-54931577D01*
X101405500Y-54931577D01*
X101374709Y-54737173D01*
X101330915Y-54602390D01*
X101313884Y-54549975D01*
X101313882Y-54549972D01*
X101313882Y-54549970D01*
X101224523Y-54374594D01*
X101108828Y-54215354D01*
X100969646Y-54076172D01*
X100810405Y-53960476D01*
X100635029Y-53871117D01*
X100447826Y-53810290D01*
X100253422Y-53779500D01*
X100253417Y-53779500D01*
X100056583Y-53779500D01*
X100056578Y-53779500D01*
X99862173Y-53810290D01*
X99674970Y-53871117D01*
X99499594Y-53960476D01*
X99408741Y-54026485D01*
X99340354Y-54076172D01*
X99340352Y-54076174D01*
X99340351Y-54076174D01*
X99201174Y-54215351D01*
X99201174Y-54215352D01*
X99201172Y-54215354D01*
X99168891Y-54259785D01*
X99085476Y-54374594D01*
X98996117Y-54549970D01*
X98935290Y-54737173D01*
X98904500Y-54931577D01*
X94939944Y-54931577D01*
X94941557Y-54928412D01*
X95007246Y-54726243D01*
X95040500Y-54516287D01*
X95040500Y-54303713D01*
X95007246Y-54093757D01*
X94941557Y-53891588D01*
X94845051Y-53702184D01*
X94845049Y-53702181D01*
X94845048Y-53702179D01*
X94720109Y-53530213D01*
X94569786Y-53379890D01*
X94397820Y-53254951D01*
X94397115Y-53254591D01*
X94389054Y-53250485D01*
X94338259Y-53202512D01*
X94321463Y-53134692D01*
X94343999Y-53068556D01*
X94389054Y-53029515D01*
X94397816Y-53025051D01*
X94424141Y-53005925D01*
X94569786Y-52900109D01*
X94569788Y-52900106D01*
X94569792Y-52900104D01*
X94720104Y-52749792D01*
X94720106Y-52749788D01*
X94720109Y-52749786D01*
X94845048Y-52577820D01*
X94845047Y-52577820D01*
X94845051Y-52577816D01*
X94941557Y-52388412D01*
X95007246Y-52186243D01*
X95040500Y-51976287D01*
X95040500Y-51889778D01*
X98454500Y-51889778D01*
X98454500Y-52110222D01*
X98460744Y-52149644D01*
X98488985Y-52327952D01*
X98557103Y-52537603D01*
X98557104Y-52537606D01*
X98657187Y-52734025D01*
X98786752Y-52912358D01*
X98786756Y-52912363D01*
X98942636Y-53068243D01*
X98942641Y-53068247D01*
X99016017Y-53121557D01*
X99120978Y-53197815D01*
X99219514Y-53248022D01*
X99317393Y-53297895D01*
X99317396Y-53297896D01*
X99397572Y-53323946D01*
X99527049Y-53366015D01*
X99744778Y-53400500D01*
X99744779Y-53400500D01*
X99965221Y-53400500D01*
X99965222Y-53400500D01*
X100182951Y-53366015D01*
X100392606Y-53297895D01*
X100589022Y-53197815D01*
X100767365Y-53068242D01*
X100923242Y-52912365D01*
X101052815Y-52734022D01*
X101152895Y-52537606D01*
X101221015Y-52327951D01*
X101255500Y-52110222D01*
X101255500Y-51889778D01*
X103904500Y-51889778D01*
X103904500Y-52110222D01*
X103910744Y-52149644D01*
X103938985Y-52327952D01*
X104007103Y-52537603D01*
X104007104Y-52537606D01*
X104107187Y-52734025D01*
X104236752Y-52912358D01*
X104236756Y-52912363D01*
X104392636Y-53068243D01*
X104392641Y-53068247D01*
X104466017Y-53121557D01*
X104570978Y-53197815D01*
X104669514Y-53248022D01*
X104767393Y-53297895D01*
X104767396Y-53297896D01*
X104847572Y-53323946D01*
X104977049Y-53366015D01*
X105194778Y-53400500D01*
X105194779Y-53400500D01*
X105415221Y-53400500D01*
X105415222Y-53400500D01*
X105632951Y-53366015D01*
X105842606Y-53297895D01*
X106039022Y-53197815D01*
X106217365Y-53068242D01*
X106373242Y-52912365D01*
X106502815Y-52734022D01*
X106602895Y-52537606D01*
X106671015Y-52327951D01*
X106705500Y-52110222D01*
X106705500Y-51889778D01*
X106685533Y-51763713D01*
X110119500Y-51763713D01*
X110119500Y-51976287D01*
X110152754Y-52186243D01*
X110198798Y-52327952D01*
X110218444Y-52388414D01*
X110314951Y-52577820D01*
X110439890Y-52749786D01*
X110590213Y-52900109D01*
X110762182Y-53025050D01*
X110770946Y-53029516D01*
X110821742Y-53077491D01*
X110838536Y-53145312D01*
X110815998Y-53211447D01*
X110770946Y-53250484D01*
X110762182Y-53254949D01*
X110590213Y-53379890D01*
X110439890Y-53530213D01*
X110314951Y-53702179D01*
X110218444Y-53891585D01*
X110152753Y-54093760D01*
X110119500Y-54303713D01*
X110119500Y-54516286D01*
X110152753Y-54726239D01*
X110152753Y-54726241D01*
X110152754Y-54726243D01*
X110214518Y-54916333D01*
X110218444Y-54928414D01*
X110314951Y-55117820D01*
X110439890Y-55289786D01*
X110553818Y-55403714D01*
X110587303Y-55465037D01*
X110582319Y-55534729D01*
X110540447Y-55590662D01*
X110509471Y-55607577D01*
X110377912Y-55656646D01*
X110377906Y-55656649D01*
X110262812Y-55742809D01*
X110262809Y-55742812D01*
X110176649Y-55857906D01*
X110176645Y-55857913D01*
X110126403Y-55992620D01*
X110126401Y-55992627D01*
X110120000Y-56052155D01*
X110120000Y-56700000D01*
X111025440Y-56700000D01*
X110994755Y-56753147D01*
X110960000Y-56882857D01*
X110960000Y-57017143D01*
X110994755Y-57146853D01*
X111025440Y-57200000D01*
X110120000Y-57200000D01*
X110120000Y-57847844D01*
X110126401Y-57907372D01*
X110126403Y-57907379D01*
X110176645Y-58042086D01*
X110176649Y-58042093D01*
X110262809Y-58157187D01*
X110262812Y-58157190D01*
X110377906Y-58243350D01*
X110377913Y-58243354D01*
X110509470Y-58292422D01*
X110565404Y-58334293D01*
X110589821Y-58399758D01*
X110574969Y-58468031D01*
X110553819Y-58496285D01*
X110439889Y-58610215D01*
X110314951Y-58782179D01*
X110218444Y-58971585D01*
X110152753Y-59173760D01*
X110138834Y-59261645D01*
X110119500Y-59383713D01*
X110119500Y-59596287D01*
X110152754Y-59806243D01*
X110209959Y-59982302D01*
X110218444Y-60008414D01*
X110314951Y-60197820D01*
X110439890Y-60369786D01*
X110590213Y-60520109D01*
X110762182Y-60645050D01*
X110770946Y-60649516D01*
X110821742Y-60697491D01*
X110838536Y-60765312D01*
X110815998Y-60831447D01*
X110770946Y-60870484D01*
X110762182Y-60874949D01*
X110590213Y-60999890D01*
X110439890Y-61150213D01*
X110314951Y-61322179D01*
X110218444Y-61511585D01*
X110152753Y-61713760D01*
X110119500Y-61923713D01*
X110119500Y-62136287D01*
X110152754Y-62346243D01*
X110200102Y-62491966D01*
X110218444Y-62548414D01*
X110314951Y-62737820D01*
X110439890Y-62909786D01*
X110590213Y-63060109D01*
X110762182Y-63185050D01*
X110770946Y-63189516D01*
X110821742Y-63237491D01*
X110838536Y-63305312D01*
X110815998Y-63371447D01*
X110770946Y-63410484D01*
X110762182Y-63414949D01*
X110590213Y-63539890D01*
X110439890Y-63690213D01*
X110314951Y-63862179D01*
X110218444Y-64051585D01*
X110152753Y-64253760D01*
X110119500Y-64463713D01*
X110119500Y-64676286D01*
X110148950Y-64862229D01*
X110152754Y-64886243D01*
X110187107Y-64991971D01*
X110218444Y-65088414D01*
X110314951Y-65277820D01*
X110439890Y-65449786D01*
X110590213Y-65600109D01*
X110762182Y-65725050D01*
X110770946Y-65729516D01*
X110821742Y-65777491D01*
X110838536Y-65845312D01*
X110815998Y-65911447D01*
X110770946Y-65950484D01*
X110762182Y-65954949D01*
X110590213Y-66079890D01*
X110439890Y-66230213D01*
X110314951Y-66402179D01*
X110218444Y-66591585D01*
X110152753Y-66793760D01*
X110119500Y-67003713D01*
X110119500Y-67216286D01*
X110152753Y-67426239D01*
X110218444Y-67628414D01*
X110314951Y-67817820D01*
X110439890Y-67989786D01*
X110553430Y-68103326D01*
X110586915Y-68164649D01*
X110581931Y-68234341D01*
X110540059Y-68290274D01*
X110509083Y-68307189D01*
X110377669Y-68356203D01*
X110377664Y-68356206D01*
X110262455Y-68442452D01*
X110262452Y-68442455D01*
X110176206Y-68557664D01*
X110176202Y-68557671D01*
X110125908Y-68692517D01*
X110119501Y-68752116D01*
X110119501Y-68752123D01*
X110119500Y-68752135D01*
X110119500Y-70547870D01*
X110119501Y-70547876D01*
X110125908Y-70607483D01*
X110176202Y-70742328D01*
X110176206Y-70742335D01*
X110262452Y-70857544D01*
X110262455Y-70857547D01*
X110377664Y-70943793D01*
X110377671Y-70943797D01*
X110509082Y-70992810D01*
X110565016Y-71034681D01*
X110589433Y-71100145D01*
X110574582Y-71168418D01*
X110553431Y-71196673D01*
X110439889Y-71310215D01*
X110314951Y-71482179D01*
X110218444Y-71671585D01*
X110152753Y-71873760D01*
X110151252Y-71883240D01*
X110119500Y-72083713D01*
X110119500Y-72296287D01*
X110152754Y-72506243D01*
X110181424Y-72594481D01*
X110218444Y-72708414D01*
X110314951Y-72897820D01*
X110439890Y-73069786D01*
X110590213Y-73220109D01*
X110762182Y-73345050D01*
X110770946Y-73349516D01*
X110821742Y-73397491D01*
X110838536Y-73465312D01*
X110815998Y-73531447D01*
X110770946Y-73570484D01*
X110762182Y-73574949D01*
X110590213Y-73699890D01*
X110439890Y-73850213D01*
X110314951Y-74022179D01*
X110218444Y-74211585D01*
X110152753Y-74413760D01*
X110119500Y-74623713D01*
X110119500Y-74836286D01*
X110152753Y-75046239D01*
X110218444Y-75248414D01*
X110314951Y-75437820D01*
X110439890Y-75609786D01*
X110590213Y-75760109D01*
X110762182Y-75885050D01*
X110770946Y-75889516D01*
X110821742Y-75937491D01*
X110838536Y-76005312D01*
X110815998Y-76071447D01*
X110770946Y-76110484D01*
X110762182Y-76114949D01*
X110590213Y-76239890D01*
X110439890Y-76390213D01*
X110314951Y-76562179D01*
X110218444Y-76751585D01*
X110152753Y-76953760D01*
X110145306Y-77000781D01*
X110119500Y-77163713D01*
X110119500Y-77376287D01*
X110152754Y-77586243D01*
X110210304Y-77763364D01*
X110218444Y-77788414D01*
X110314951Y-77977820D01*
X110439890Y-78149786D01*
X110590213Y-78300109D01*
X110762182Y-78425050D01*
X110770946Y-78429516D01*
X110821742Y-78477491D01*
X110838536Y-78545312D01*
X110815998Y-78611447D01*
X110770946Y-78650484D01*
X110762182Y-78654949D01*
X110590213Y-78779890D01*
X110439890Y-78930213D01*
X110314951Y-79102179D01*
X110218444Y-79291585D01*
X110152753Y-79493760D01*
X110119500Y-79703713D01*
X110119500Y-79916286D01*
X110141099Y-80052661D01*
X110152754Y-80126243D01*
X110168747Y-80175465D01*
X110218444Y-80328414D01*
X110314951Y-80517820D01*
X110439890Y-80689786D01*
X110553818Y-80803714D01*
X110587303Y-80865037D01*
X110582319Y-80934729D01*
X110540447Y-80990662D01*
X110509471Y-81007577D01*
X110377912Y-81056646D01*
X110377906Y-81056649D01*
X110262812Y-81142809D01*
X110262809Y-81142812D01*
X110176649Y-81257906D01*
X110176645Y-81257913D01*
X110126403Y-81392620D01*
X110126401Y-81392627D01*
X110120000Y-81452155D01*
X110120000Y-82100000D01*
X111025440Y-82100000D01*
X110994755Y-82153147D01*
X110960000Y-82282857D01*
X110960000Y-82417143D01*
X110994755Y-82546853D01*
X111025440Y-82600000D01*
X110120000Y-82600000D01*
X110120000Y-83247844D01*
X110126401Y-83307372D01*
X110126403Y-83307379D01*
X110176645Y-83442086D01*
X110176649Y-83442093D01*
X110262809Y-83557187D01*
X110262812Y-83557190D01*
X110377906Y-83643350D01*
X110377913Y-83643354D01*
X110509470Y-83692422D01*
X110565404Y-83734293D01*
X110589821Y-83799758D01*
X110574969Y-83868031D01*
X110553819Y-83896285D01*
X110439889Y-84010215D01*
X110314951Y-84182179D01*
X110218444Y-84371585D01*
X110152753Y-84573760D01*
X110119500Y-84783713D01*
X110119500Y-84996286D01*
X110135825Y-85099362D01*
X110152754Y-85206243D01*
X110212298Y-85389501D01*
X110218444Y-85408414D01*
X110314951Y-85597820D01*
X110439890Y-85769786D01*
X110590213Y-85920109D01*
X110762182Y-86045050D01*
X110770946Y-86049516D01*
X110821742Y-86097491D01*
X110838536Y-86165312D01*
X110815998Y-86231447D01*
X110770946Y-86270484D01*
X110762182Y-86274949D01*
X110590213Y-86399890D01*
X110439890Y-86550213D01*
X110314951Y-86722179D01*
X110218444Y-86911585D01*
X110152753Y-87113760D01*
X110119500Y-87323713D01*
X110119500Y-87536286D01*
X110146800Y-87708656D01*
X110152754Y-87746243D01*
X110200238Y-87892384D01*
X110218444Y-87948414D01*
X110314951Y-88137820D01*
X110439890Y-88309786D01*
X110590213Y-88460109D01*
X110762182Y-88585050D01*
X110770946Y-88589516D01*
X110821742Y-88637491D01*
X110838536Y-88705312D01*
X110815998Y-88771447D01*
X110770946Y-88810484D01*
X110762182Y-88814949D01*
X110590213Y-88939890D01*
X110439890Y-89090213D01*
X110314951Y-89262179D01*
X110218444Y-89451585D01*
X110152753Y-89653760D01*
X110119500Y-89863713D01*
X110119500Y-90076286D01*
X110152139Y-90282365D01*
X110152754Y-90286243D01*
X110216537Y-90482547D01*
X110218444Y-90488414D01*
X110314951Y-90677820D01*
X110439890Y-90849786D01*
X110590213Y-91000109D01*
X110762182Y-91125050D01*
X110770946Y-91129516D01*
X110821742Y-91177491D01*
X110838536Y-91245312D01*
X110815998Y-91311447D01*
X110770946Y-91350484D01*
X110762182Y-91354949D01*
X110590213Y-91479890D01*
X110439890Y-91630213D01*
X110314951Y-91802179D01*
X110218444Y-91991585D01*
X110152753Y-92193760D01*
X110119500Y-92403713D01*
X110119500Y-92616286D01*
X110152753Y-92826239D01*
X110218444Y-93028414D01*
X110314951Y-93217820D01*
X110439890Y-93389786D01*
X110553818Y-93503714D01*
X110587303Y-93565037D01*
X110582319Y-93634729D01*
X110540447Y-93690662D01*
X110509471Y-93707577D01*
X110377912Y-93756646D01*
X110377906Y-93756649D01*
X110262812Y-93842809D01*
X110262809Y-93842812D01*
X110176649Y-93957906D01*
X110176645Y-93957913D01*
X110126403Y-94092620D01*
X110126401Y-94092627D01*
X110120000Y-94152155D01*
X110120000Y-94800000D01*
X111025440Y-94800000D01*
X110994755Y-94853147D01*
X110960000Y-94982857D01*
X110960000Y-95117143D01*
X110994755Y-95246853D01*
X111025440Y-95300000D01*
X110120000Y-95300000D01*
X110120000Y-95947844D01*
X110126401Y-96007372D01*
X110126403Y-96007379D01*
X110176645Y-96142086D01*
X110176649Y-96142093D01*
X110262809Y-96257187D01*
X110262812Y-96257190D01*
X110377906Y-96343350D01*
X110377913Y-96343354D01*
X110509470Y-96392422D01*
X110565404Y-96434293D01*
X110589821Y-96499758D01*
X110574969Y-96568031D01*
X110553819Y-96596285D01*
X110439889Y-96710215D01*
X110314951Y-96882179D01*
X110218444Y-97071585D01*
X110152753Y-97273760D01*
X110119500Y-97483713D01*
X110119500Y-97696286D01*
X110140606Y-97829548D01*
X110152754Y-97906243D01*
X110210612Y-98084312D01*
X110218444Y-98108414D01*
X110314951Y-98297820D01*
X110439890Y-98469786D01*
X110590213Y-98620109D01*
X110762182Y-98745050D01*
X110770946Y-98749516D01*
X110821742Y-98797491D01*
X110838536Y-98865312D01*
X110815998Y-98931447D01*
X110770946Y-98970484D01*
X110762182Y-98974949D01*
X110590213Y-99099890D01*
X110439890Y-99250213D01*
X110314951Y-99422179D01*
X110218444Y-99611585D01*
X110152753Y-99813760D01*
X110119500Y-100023713D01*
X110119500Y-100236286D01*
X110147013Y-100410000D01*
X110152754Y-100446243D01*
X110205252Y-100607816D01*
X110218444Y-100648414D01*
X110314951Y-100837820D01*
X110439890Y-101009786D01*
X110590213Y-101160109D01*
X110762179Y-101285048D01*
X110762181Y-101285049D01*
X110762184Y-101285051D01*
X110951588Y-101381557D01*
X111153757Y-101447246D01*
X111363713Y-101480500D01*
X111363714Y-101480500D01*
X111576286Y-101480500D01*
X111576287Y-101480500D01*
X111786243Y-101447246D01*
X111988412Y-101381557D01*
X112177816Y-101285051D01*
X112234872Y-101243598D01*
X112349786Y-101160109D01*
X112349788Y-101160106D01*
X112349792Y-101160104D01*
X112500104Y-101009792D01*
X112500106Y-101009788D01*
X112500109Y-101009786D01*
X112625048Y-100837820D01*
X112625047Y-100837820D01*
X112625051Y-100837816D01*
X112721557Y-100648412D01*
X112787246Y-100446243D01*
X112820500Y-100236287D01*
X112820500Y-100023713D01*
X112787246Y-99813757D01*
X112721557Y-99611588D01*
X112625051Y-99422184D01*
X112625049Y-99422181D01*
X112625048Y-99422179D01*
X112500109Y-99250213D01*
X112349786Y-99099890D01*
X112177820Y-98974951D01*
X112177115Y-98974591D01*
X112169054Y-98970485D01*
X112118259Y-98922512D01*
X112101463Y-98854692D01*
X112123999Y-98788556D01*
X112169054Y-98749515D01*
X112177816Y-98745051D01*
X112230174Y-98707011D01*
X112349786Y-98620109D01*
X112349788Y-98620106D01*
X112349792Y-98620104D01*
X112500104Y-98469792D01*
X112500106Y-98469788D01*
X112500109Y-98469786D01*
X112625048Y-98297820D01*
X112625047Y-98297820D01*
X112625051Y-98297816D01*
X112721557Y-98108412D01*
X112787246Y-97906243D01*
X112820500Y-97696287D01*
X112820500Y-97483713D01*
X112787246Y-97273757D01*
X112721557Y-97071588D01*
X112625051Y-96882184D01*
X112625049Y-96882181D01*
X112625048Y-96882179D01*
X112500109Y-96710213D01*
X112386181Y-96596285D01*
X112352696Y-96534962D01*
X112357680Y-96465270D01*
X112399552Y-96409337D01*
X112430529Y-96392422D01*
X112562086Y-96343354D01*
X112562093Y-96343350D01*
X112677187Y-96257190D01*
X112677190Y-96257187D01*
X112763350Y-96142093D01*
X112763354Y-96142086D01*
X112813596Y-96007379D01*
X112813598Y-96007372D01*
X112819999Y-95947844D01*
X112820000Y-95947827D01*
X112820000Y-95300000D01*
X111914560Y-95300000D01*
X111945245Y-95246853D01*
X111980000Y-95117143D01*
X111980000Y-94982857D01*
X111945245Y-94853147D01*
X111914560Y-94800000D01*
X112820000Y-94800000D01*
X112820000Y-94152172D01*
X112819999Y-94152155D01*
X112813598Y-94092627D01*
X112813596Y-94092620D01*
X112763354Y-93957913D01*
X112763350Y-93957906D01*
X112677190Y-93842812D01*
X112677187Y-93842809D01*
X112562093Y-93756649D01*
X112562088Y-93756646D01*
X112430528Y-93707577D01*
X112374595Y-93665705D01*
X112350178Y-93600241D01*
X112365030Y-93531968D01*
X112386175Y-93503720D01*
X112500104Y-93389792D01*
X112578365Y-93282075D01*
X112625049Y-93217819D01*
X112625051Y-93217816D01*
X112721557Y-93028412D01*
X112787246Y-92826243D01*
X112820500Y-92616287D01*
X112820500Y-92403713D01*
X112787246Y-92193757D01*
X112721557Y-91991588D01*
X112625051Y-91802184D01*
X112625049Y-91802181D01*
X112625048Y-91802179D01*
X112500109Y-91630213D01*
X112349786Y-91479890D01*
X112177820Y-91354951D01*
X112177115Y-91354591D01*
X112169054Y-91350485D01*
X112118259Y-91302512D01*
X112101463Y-91234692D01*
X112123999Y-91168556D01*
X112169054Y-91129515D01*
X112177816Y-91125051D01*
X112199789Y-91109086D01*
X112349786Y-91000109D01*
X112349788Y-91000106D01*
X112349792Y-91000104D01*
X112500104Y-90849792D01*
X112500106Y-90849788D01*
X112500109Y-90849786D01*
X112625048Y-90677820D01*
X112625047Y-90677820D01*
X112625051Y-90677816D01*
X112721557Y-90488412D01*
X112787246Y-90286243D01*
X112820500Y-90076287D01*
X112820500Y-89863713D01*
X112787246Y-89653757D01*
X112721557Y-89451588D01*
X112625051Y-89262184D01*
X112625049Y-89262181D01*
X112625048Y-89262179D01*
X112500109Y-89090213D01*
X112349786Y-88939890D01*
X112177820Y-88814951D01*
X112177115Y-88814591D01*
X112169054Y-88810485D01*
X112118259Y-88762512D01*
X112101463Y-88694692D01*
X112123999Y-88628556D01*
X112169054Y-88589515D01*
X112177816Y-88585051D01*
X112301390Y-88495270D01*
X112349786Y-88460109D01*
X112349788Y-88460106D01*
X112349792Y-88460104D01*
X112500104Y-88309792D01*
X112500106Y-88309788D01*
X112500109Y-88309786D01*
X112625048Y-88137820D01*
X112625047Y-88137820D01*
X112625051Y-88137816D01*
X112721557Y-87948412D01*
X112787246Y-87746243D01*
X112820500Y-87536287D01*
X112820500Y-87323713D01*
X112787246Y-87113757D01*
X112721557Y-86911588D01*
X112625051Y-86722184D01*
X112625049Y-86722181D01*
X112625048Y-86722179D01*
X112531564Y-86593508D01*
X112512946Y-86567882D01*
X118435669Y-86567882D01*
X118435670Y-86567883D01*
X118461059Y-86586329D01*
X118629362Y-86672085D01*
X118808997Y-86730451D01*
X118995553Y-86760000D01*
X119184447Y-86760000D01*
X119371002Y-86730451D01*
X119550637Y-86672085D01*
X119718937Y-86586331D01*
X119744328Y-86567883D01*
X119744328Y-86567882D01*
X119090001Y-85913554D01*
X119090000Y-85913554D01*
X118435669Y-86567882D01*
X112512946Y-86567882D01*
X112500109Y-86550213D01*
X112349786Y-86399890D01*
X112177820Y-86274951D01*
X112177115Y-86274591D01*
X112169054Y-86270485D01*
X112118259Y-86222512D01*
X112101463Y-86154692D01*
X112123999Y-86088556D01*
X112169054Y-86049515D01*
X112177816Y-86045051D01*
X112257438Y-85987203D01*
X112349786Y-85920109D01*
X112349788Y-85920106D01*
X112349792Y-85920104D01*
X112500104Y-85769792D01*
X112500106Y-85769788D01*
X112500109Y-85769786D01*
X112625048Y-85597820D01*
X112625047Y-85597820D01*
X112625051Y-85597816D01*
X112692443Y-85465552D01*
X117890000Y-85465552D01*
X117890000Y-85654447D01*
X117919548Y-85841002D01*
X117977914Y-86020637D01*
X118063666Y-86188933D01*
X118082116Y-86214328D01*
X118736446Y-85560000D01*
X118736446Y-85559999D01*
X118690369Y-85513922D01*
X118740000Y-85513922D01*
X118740000Y-85606078D01*
X118763852Y-85695095D01*
X118809930Y-85774905D01*
X118875095Y-85840070D01*
X118954905Y-85886148D01*
X119043922Y-85910000D01*
X119136078Y-85910000D01*
X119225095Y-85886148D01*
X119304905Y-85840070D01*
X119370070Y-85774905D01*
X119416148Y-85695095D01*
X119440000Y-85606078D01*
X119440000Y-85559999D01*
X119443554Y-85559999D01*
X119443554Y-85560000D01*
X120097882Y-86214328D01*
X120097883Y-86214328D01*
X120116331Y-86188937D01*
X120202085Y-86020637D01*
X120260451Y-85841002D01*
X120290000Y-85654447D01*
X120290000Y-85465552D01*
X120260451Y-85278997D01*
X120202085Y-85099362D01*
X120116329Y-84931059D01*
X120097883Y-84905670D01*
X120097882Y-84905669D01*
X119443554Y-85559999D01*
X119440000Y-85559999D01*
X119440000Y-85513922D01*
X119416148Y-85424905D01*
X119370070Y-85345095D01*
X119304905Y-85279930D01*
X119225095Y-85233852D01*
X119136078Y-85210000D01*
X119043922Y-85210000D01*
X118954905Y-85233852D01*
X118875095Y-85279930D01*
X118809930Y-85345095D01*
X118763852Y-85424905D01*
X118740000Y-85513922D01*
X118690369Y-85513922D01*
X118082116Y-84905669D01*
X118082116Y-84905670D01*
X118063669Y-84931060D01*
X117977914Y-85099362D01*
X117919548Y-85278997D01*
X117890000Y-85465552D01*
X112692443Y-85465552D01*
X112721557Y-85408412D01*
X112787246Y-85206243D01*
X112820500Y-84996287D01*
X112820500Y-84783713D01*
X112787246Y-84573757D01*
X112780214Y-84552116D01*
X118435669Y-84552116D01*
X119090000Y-85206446D01*
X119090001Y-85206446D01*
X119744328Y-84552116D01*
X119718933Y-84533666D01*
X119550637Y-84447914D01*
X119371002Y-84389548D01*
X119184447Y-84360000D01*
X118995553Y-84360000D01*
X118808997Y-84389548D01*
X118629362Y-84447914D01*
X118461060Y-84533669D01*
X118435670Y-84552116D01*
X118435669Y-84552116D01*
X112780214Y-84552116D01*
X112721557Y-84371588D01*
X112625051Y-84182184D01*
X112625049Y-84182181D01*
X112625048Y-84182179D01*
X112500109Y-84010213D01*
X112386181Y-83896285D01*
X112352696Y-83834962D01*
X112357680Y-83765270D01*
X112399552Y-83709337D01*
X112430529Y-83692422D01*
X112562086Y-83643354D01*
X112562093Y-83643350D01*
X112677187Y-83557190D01*
X112677190Y-83557187D01*
X112763350Y-83442093D01*
X112763354Y-83442086D01*
X112813596Y-83307379D01*
X112813598Y-83307372D01*
X112819999Y-83247844D01*
X112820000Y-83247827D01*
X112820000Y-82600000D01*
X111914560Y-82600000D01*
X111945245Y-82546853D01*
X111980000Y-82417143D01*
X111980000Y-82282857D01*
X111945245Y-82153147D01*
X111914560Y-82100000D01*
X112820000Y-82100000D01*
X112820000Y-81452172D01*
X112819999Y-81452155D01*
X112813598Y-81392627D01*
X112813596Y-81392620D01*
X112763354Y-81257913D01*
X112763350Y-81257906D01*
X112677190Y-81142812D01*
X112677187Y-81142809D01*
X112562093Y-81056649D01*
X112562088Y-81056646D01*
X112430528Y-81007577D01*
X112374595Y-80965705D01*
X112350178Y-80900241D01*
X112365030Y-80831968D01*
X112386175Y-80803720D01*
X112500104Y-80689792D01*
X112506238Y-80681350D01*
X112625048Y-80517820D01*
X112625047Y-80517820D01*
X112625051Y-80517816D01*
X112721557Y-80328412D01*
X112787246Y-80126243D01*
X112820500Y-79916287D01*
X112820500Y-79703713D01*
X112787246Y-79493757D01*
X112721557Y-79291588D01*
X112625051Y-79102184D01*
X112625049Y-79102181D01*
X112625048Y-79102179D01*
X112500109Y-78930213D01*
X112349786Y-78779890D01*
X112177820Y-78654951D01*
X112177115Y-78654591D01*
X112169054Y-78650485D01*
X112118259Y-78602512D01*
X112101463Y-78534692D01*
X112123999Y-78468556D01*
X112169054Y-78429515D01*
X112177816Y-78425051D01*
X112206141Y-78404472D01*
X112349786Y-78300109D01*
X112349788Y-78300106D01*
X112349792Y-78300104D01*
X112500104Y-78149792D01*
X112500106Y-78149788D01*
X112500109Y-78149786D01*
X112554899Y-78074371D01*
X112625051Y-77977816D01*
X112666987Y-77895513D01*
X117889500Y-77895513D01*
X117889500Y-78084486D01*
X117919059Y-78271118D01*
X117977454Y-78450836D01*
X118059290Y-78611447D01*
X118063240Y-78619199D01*
X118174310Y-78772073D01*
X118307927Y-78905690D01*
X118460801Y-79016760D01*
X118498309Y-79035871D01*
X118629163Y-79102545D01*
X118629165Y-79102545D01*
X118629168Y-79102547D01*
X118673864Y-79117069D01*
X118731538Y-79156507D01*
X118758736Y-79220866D01*
X118746821Y-79289712D01*
X118699577Y-79341188D01*
X118673865Y-79352929D01*
X118656934Y-79358431D01*
X118629163Y-79367454D01*
X118460800Y-79453240D01*
X118412911Y-79488034D01*
X118307927Y-79564310D01*
X118307925Y-79564312D01*
X118307924Y-79564312D01*
X118174312Y-79697924D01*
X118174312Y-79697925D01*
X118174310Y-79697927D01*
X118133284Y-79754394D01*
X118063240Y-79850800D01*
X117977454Y-80019163D01*
X117919059Y-80198881D01*
X117889500Y-80385513D01*
X117889500Y-80574486D01*
X117919059Y-80761118D01*
X117977454Y-80940836D01*
X118038965Y-81061557D01*
X118063240Y-81109199D01*
X118174310Y-81262073D01*
X118307927Y-81395690D01*
X118460801Y-81506760D01*
X118531852Y-81542962D01*
X118629163Y-81592545D01*
X118629165Y-81592545D01*
X118629168Y-81592547D01*
X118725497Y-81623846D01*
X118808881Y-81650940D01*
X118995514Y-81680500D01*
X118995519Y-81680500D01*
X119184486Y-81680500D01*
X119371118Y-81650940D01*
X119375365Y-81649560D01*
X119550832Y-81592547D01*
X119719199Y-81506760D01*
X119872073Y-81395690D01*
X120005690Y-81262073D01*
X120116760Y-81109199D01*
X120202547Y-80940832D01*
X120260940Y-80761118D01*
X120290500Y-80574486D01*
X120290500Y-80385513D01*
X120260940Y-80198881D01*
X120229564Y-80102317D01*
X120202547Y-80019168D01*
X120202545Y-80019165D01*
X120202545Y-80019163D01*
X120116759Y-79850800D01*
X120005690Y-79697927D01*
X119872073Y-79564310D01*
X119719199Y-79453240D01*
X119550832Y-79367453D01*
X119506135Y-79352930D01*
X119448461Y-79313493D01*
X119421263Y-79249135D01*
X119433178Y-79180289D01*
X119480422Y-79128813D01*
X119506134Y-79117070D01*
X119550832Y-79102547D01*
X119719199Y-79016760D01*
X119872073Y-78905690D01*
X120005690Y-78772073D01*
X120116760Y-78619199D01*
X120202547Y-78450832D01*
X120260940Y-78271118D01*
X120268785Y-78221585D01*
X120290500Y-78084486D01*
X120290500Y-77895513D01*
X120260940Y-77708881D01*
X120221092Y-77586243D01*
X120202547Y-77529168D01*
X120202545Y-77529165D01*
X120202545Y-77529163D01*
X120116759Y-77360800D01*
X120005690Y-77207927D01*
X119872073Y-77074310D01*
X119719199Y-76963240D01*
X119550836Y-76877454D01*
X119371118Y-76819059D01*
X119184486Y-76789500D01*
X119184481Y-76789500D01*
X118995519Y-76789500D01*
X118995514Y-76789500D01*
X118808881Y-76819059D01*
X118629163Y-76877454D01*
X118460800Y-76963240D01*
X118409137Y-77000776D01*
X118307927Y-77074310D01*
X118307925Y-77074312D01*
X118307924Y-77074312D01*
X118174312Y-77207924D01*
X118174312Y-77207925D01*
X118174310Y-77207927D01*
X118126610Y-77273579D01*
X118063240Y-77360800D01*
X117977454Y-77529163D01*
X117919059Y-77708881D01*
X117889500Y-77895513D01*
X112666987Y-77895513D01*
X112678529Y-77872860D01*
X112698150Y-77834352D01*
X112698151Y-77834350D01*
X112721554Y-77788417D01*
X112721557Y-77788412D01*
X112787246Y-77586243D01*
X112820500Y-77376287D01*
X112820500Y-77163713D01*
X112787246Y-76953757D01*
X112721557Y-76751588D01*
X112625051Y-76562184D01*
X112625049Y-76562181D01*
X112625048Y-76562179D01*
X112500109Y-76390213D01*
X112349786Y-76239890D01*
X112177820Y-76114951D01*
X112177115Y-76114591D01*
X112169054Y-76110485D01*
X112118259Y-76062512D01*
X112101463Y-75994692D01*
X112123999Y-75928556D01*
X112169054Y-75889515D01*
X112177816Y-75885051D01*
X112199789Y-75869086D01*
X112349786Y-75760109D01*
X112349788Y-75760106D01*
X112349792Y-75760104D01*
X112500104Y-75609792D01*
X112500106Y-75609788D01*
X112500109Y-75609786D01*
X112625048Y-75437820D01*
X112625047Y-75437820D01*
X112625051Y-75437816D01*
X112721557Y-75248412D01*
X112787246Y-75046243D01*
X112820500Y-74836287D01*
X112820500Y-74623713D01*
X112787246Y-74413757D01*
X112721557Y-74211588D01*
X112625051Y-74022184D01*
X112625049Y-74022181D01*
X112625048Y-74022179D01*
X112500109Y-73850213D01*
X112349786Y-73699890D01*
X112177820Y-73574951D01*
X112177115Y-73574591D01*
X112169054Y-73570485D01*
X112118259Y-73522512D01*
X112101463Y-73454692D01*
X112123999Y-73388556D01*
X112169054Y-73349515D01*
X112177816Y-73345051D01*
X112264497Y-73282074D01*
X112349786Y-73220109D01*
X112349788Y-73220106D01*
X112349792Y-73220104D01*
X112500104Y-73069792D01*
X112500106Y-73069788D01*
X112500109Y-73069786D01*
X112554899Y-72994371D01*
X112625051Y-72897816D01*
X112666987Y-72815513D01*
X117889500Y-72815513D01*
X117889500Y-73004486D01*
X117919059Y-73191118D01*
X117977454Y-73370836D01*
X118056902Y-73526760D01*
X118063240Y-73539199D01*
X118174310Y-73692073D01*
X118307927Y-73825690D01*
X118460801Y-73936760D01*
X118540347Y-73977290D01*
X118629163Y-74022545D01*
X118629165Y-74022545D01*
X118629168Y-74022547D01*
X118725497Y-74053846D01*
X118808881Y-74080940D01*
X118995514Y-74110500D01*
X118995519Y-74110500D01*
X119184486Y-74110500D01*
X119371118Y-74080940D01*
X119550832Y-74022547D01*
X119719199Y-73936760D01*
X119872073Y-73825690D01*
X120005690Y-73692073D01*
X120116760Y-73539199D01*
X120202547Y-73370832D01*
X120260940Y-73191118D01*
X120280157Y-73069786D01*
X120290500Y-73004486D01*
X120290500Y-72815513D01*
X120260940Y-72628881D01*
X120221092Y-72506243D01*
X120202547Y-72449168D01*
X120202545Y-72449165D01*
X120202545Y-72449163D01*
X120116759Y-72280800D01*
X120005690Y-72127927D01*
X119872073Y-71994310D01*
X119719199Y-71883240D01*
X119550836Y-71797454D01*
X119371118Y-71739059D01*
X119184486Y-71709500D01*
X119184481Y-71709500D01*
X118995519Y-71709500D01*
X118995514Y-71709500D01*
X118808881Y-71739059D01*
X118629163Y-71797454D01*
X118460800Y-71883240D01*
X118373579Y-71946610D01*
X118307927Y-71994310D01*
X118307925Y-71994312D01*
X118307924Y-71994312D01*
X118174312Y-72127924D01*
X118174312Y-72127925D01*
X118174310Y-72127927D01*
X118153040Y-72157203D01*
X118063240Y-72280800D01*
X117977454Y-72449163D01*
X117919059Y-72628881D01*
X117889500Y-72815513D01*
X112666987Y-72815513D01*
X112684512Y-72781118D01*
X112698150Y-72754352D01*
X112698151Y-72754350D01*
X112721554Y-72708417D01*
X112721557Y-72708412D01*
X112787246Y-72506243D01*
X112820500Y-72296287D01*
X112820500Y-72083713D01*
X112787246Y-71873757D01*
X112721557Y-71671588D01*
X112625051Y-71482184D01*
X112625049Y-71482181D01*
X112625048Y-71482179D01*
X112500109Y-71310213D01*
X112386569Y-71196673D01*
X112353084Y-71135350D01*
X112358068Y-71065658D01*
X112399940Y-71009725D01*
X112430915Y-70992810D01*
X112562331Y-70943796D01*
X112677546Y-70857546D01*
X112763796Y-70742331D01*
X112814091Y-70607483D01*
X112820500Y-70547873D01*
X112820499Y-68752128D01*
X112814091Y-68692517D01*
X112799115Y-68652365D01*
X112763797Y-68557671D01*
X112763793Y-68557664D01*
X112677547Y-68442455D01*
X112677544Y-68442452D01*
X112562335Y-68356206D01*
X112562328Y-68356202D01*
X112430917Y-68307189D01*
X112374983Y-68265318D01*
X112350566Y-68199853D01*
X112365418Y-68131580D01*
X112386563Y-68103332D01*
X112500104Y-67989792D01*
X112625051Y-67817816D01*
X112721557Y-67628412D01*
X112787246Y-67426243D01*
X112820500Y-67216287D01*
X112820500Y-67003713D01*
X112787246Y-66793757D01*
X112721557Y-66591588D01*
X112625051Y-66402184D01*
X112625049Y-66402181D01*
X112625048Y-66402179D01*
X112500109Y-66230213D01*
X112349786Y-66079890D01*
X112177820Y-65954951D01*
X112177115Y-65954591D01*
X112169054Y-65950485D01*
X112118259Y-65902512D01*
X112101463Y-65834692D01*
X112123999Y-65768556D01*
X112169054Y-65729515D01*
X112177816Y-65725051D01*
X112263984Y-65662447D01*
X112349786Y-65600109D01*
X112349788Y-65600106D01*
X112349792Y-65600104D01*
X112500104Y-65449792D01*
X112500106Y-65449788D01*
X112500109Y-65449786D01*
X112625048Y-65277820D01*
X112625047Y-65277820D01*
X112625051Y-65277816D01*
X112721557Y-65088412D01*
X112787246Y-64886243D01*
X112820500Y-64676287D01*
X112820500Y-64463713D01*
X112787246Y-64253757D01*
X112721557Y-64051588D01*
X112625051Y-63862184D01*
X112625049Y-63862181D01*
X112625048Y-63862179D01*
X112500109Y-63690213D01*
X112349786Y-63539890D01*
X112177820Y-63414951D01*
X112177115Y-63414591D01*
X112169054Y-63410485D01*
X112118259Y-63362512D01*
X112101463Y-63294692D01*
X112123999Y-63228556D01*
X112169054Y-63189515D01*
X112177816Y-63185051D01*
X112222232Y-63152781D01*
X112349786Y-63060109D01*
X112349788Y-63060106D01*
X112349792Y-63060104D01*
X112500104Y-62909792D01*
X112500106Y-62909788D01*
X112500109Y-62909786D01*
X112609086Y-62759789D01*
X112625051Y-62737816D01*
X112721557Y-62548412D01*
X112787246Y-62346243D01*
X112820500Y-62136287D01*
X112820500Y-61923713D01*
X112787246Y-61713757D01*
X112721557Y-61511588D01*
X112625051Y-61322184D01*
X112625049Y-61322181D01*
X112625048Y-61322179D01*
X112500109Y-61150213D01*
X112349786Y-60999890D01*
X112177820Y-60874951D01*
X112177115Y-60874591D01*
X112169054Y-60870485D01*
X112118259Y-60822512D01*
X112101463Y-60754692D01*
X112123999Y-60688556D01*
X112169054Y-60649515D01*
X112177816Y-60645051D01*
X112268117Y-60579444D01*
X112349786Y-60520109D01*
X112349788Y-60520106D01*
X112349792Y-60520104D01*
X112500104Y-60369792D01*
X112500106Y-60369788D01*
X112500109Y-60369786D01*
X112609086Y-60219789D01*
X112625051Y-60197816D01*
X112721557Y-60008412D01*
X112787246Y-59806243D01*
X112820500Y-59596287D01*
X112820500Y-59383713D01*
X112787246Y-59173757D01*
X112721557Y-58971588D01*
X112625051Y-58782184D01*
X112625049Y-58782181D01*
X112625048Y-58782179D01*
X112500109Y-58610213D01*
X112386181Y-58496285D01*
X112352696Y-58434962D01*
X112357680Y-58365270D01*
X112399552Y-58309337D01*
X112430529Y-58292422D01*
X112562086Y-58243354D01*
X112562093Y-58243350D01*
X112677187Y-58157190D01*
X112677190Y-58157187D01*
X112763350Y-58042093D01*
X112763354Y-58042086D01*
X112813596Y-57907379D01*
X112813598Y-57907372D01*
X112819999Y-57847844D01*
X112820000Y-57847827D01*
X112820000Y-57200000D01*
X111914560Y-57200000D01*
X111945245Y-57146853D01*
X111980000Y-57017143D01*
X111980000Y-56882857D01*
X111945245Y-56753147D01*
X111914560Y-56700000D01*
X112820000Y-56700000D01*
X112820000Y-56052172D01*
X112819999Y-56052155D01*
X112813598Y-55992627D01*
X112813596Y-55992620D01*
X112763354Y-55857913D01*
X112763350Y-55857906D01*
X112677190Y-55742812D01*
X112677187Y-55742809D01*
X112562093Y-55656649D01*
X112562088Y-55656646D01*
X112430528Y-55607577D01*
X112374595Y-55565705D01*
X112350178Y-55500241D01*
X112365030Y-55431968D01*
X112386175Y-55403720D01*
X112500104Y-55289792D01*
X112564406Y-55201288D01*
X112594039Y-55160500D01*
X112625051Y-55117816D01*
X112706119Y-54958711D01*
X118509500Y-54958711D01*
X118509500Y-55201288D01*
X118541161Y-55441785D01*
X118603947Y-55676104D01*
X118679252Y-55857906D01*
X118696776Y-55900212D01*
X118818064Y-56110289D01*
X118818066Y-56110292D01*
X118818067Y-56110293D01*
X118965733Y-56302736D01*
X118965739Y-56302743D01*
X119137256Y-56474260D01*
X119137263Y-56474266D01*
X119225403Y-56541898D01*
X119329711Y-56621936D01*
X119539788Y-56743224D01*
X119763900Y-56836054D01*
X119998211Y-56898838D01*
X120178586Y-56922584D01*
X120238711Y-56930500D01*
X120238712Y-56930500D01*
X120481289Y-56930500D01*
X120529388Y-56924167D01*
X120721789Y-56898838D01*
X120956100Y-56836054D01*
X121180212Y-56743224D01*
X121390289Y-56621936D01*
X121582738Y-56474265D01*
X121754265Y-56302738D01*
X121901936Y-56110289D01*
X122023224Y-55900212D01*
X122116054Y-55676100D01*
X122178838Y-55441789D01*
X122210500Y-55201288D01*
X122210500Y-54958712D01*
X122206928Y-54931583D01*
X122178838Y-54718214D01*
X122178838Y-54718211D01*
X122116054Y-54483900D01*
X122023224Y-54259788D01*
X121901936Y-54049711D01*
X121754792Y-53857949D01*
X121754266Y-53857263D01*
X121754260Y-53857256D01*
X121582743Y-53685739D01*
X121582736Y-53685733D01*
X121390293Y-53538067D01*
X121390292Y-53538066D01*
X121390289Y-53538064D01*
X121180212Y-53416776D01*
X121180205Y-53416773D01*
X120956104Y-53323947D01*
X120721785Y-53261161D01*
X120481289Y-53229500D01*
X120481288Y-53229500D01*
X120238712Y-53229500D01*
X120238711Y-53229500D01*
X119998214Y-53261161D01*
X119763895Y-53323947D01*
X119539794Y-53416773D01*
X119539785Y-53416777D01*
X119329706Y-53538067D01*
X119137263Y-53685733D01*
X119137256Y-53685739D01*
X118965739Y-53857256D01*
X118965733Y-53857263D01*
X118818067Y-54049706D01*
X118696777Y-54259785D01*
X118696773Y-54259794D01*
X118603947Y-54483895D01*
X118541161Y-54718214D01*
X118509500Y-54958711D01*
X112706119Y-54958711D01*
X112721557Y-54928412D01*
X112787246Y-54726243D01*
X112820500Y-54516287D01*
X112820500Y-54303713D01*
X112787246Y-54093757D01*
X112721557Y-53891588D01*
X112625051Y-53702184D01*
X112625049Y-53702181D01*
X112625048Y-53702179D01*
X112500109Y-53530213D01*
X112349786Y-53379890D01*
X112177820Y-53254951D01*
X112177115Y-53254591D01*
X112169054Y-53250485D01*
X112118259Y-53202512D01*
X112101463Y-53134692D01*
X112123999Y-53068556D01*
X112169054Y-53029515D01*
X112177816Y-53025051D01*
X112204141Y-53005925D01*
X112349786Y-52900109D01*
X112349788Y-52900106D01*
X112349792Y-52900104D01*
X112500104Y-52749792D01*
X112500106Y-52749788D01*
X112500109Y-52749786D01*
X112625048Y-52577820D01*
X112625047Y-52577820D01*
X112625051Y-52577816D01*
X112721557Y-52388412D01*
X112787246Y-52186243D01*
X112820500Y-51976287D01*
X112820500Y-51763713D01*
X112787246Y-51553757D01*
X112721557Y-51351588D01*
X112625051Y-51162184D01*
X112625049Y-51162181D01*
X112625048Y-51162179D01*
X112500109Y-50990213D01*
X112349786Y-50839890D01*
X112177820Y-50714951D01*
X111988414Y-50618444D01*
X111988413Y-50618443D01*
X111988412Y-50618443D01*
X111786243Y-50552754D01*
X111786241Y-50552753D01*
X111786240Y-50552753D01*
X111624957Y-50527208D01*
X111576287Y-50519500D01*
X111363713Y-50519500D01*
X111315042Y-50527208D01*
X111153760Y-50552753D01*
X110951585Y-50618444D01*
X110762179Y-50714951D01*
X110590213Y-50839890D01*
X110439890Y-50990213D01*
X110314951Y-51162179D01*
X110218444Y-51351585D01*
X110152753Y-51553760D01*
X110126878Y-51717128D01*
X110119500Y-51763713D01*
X106685533Y-51763713D01*
X106671015Y-51672049D01*
X106602895Y-51462394D01*
X106602895Y-51462393D01*
X106513551Y-51287049D01*
X106502815Y-51265978D01*
X106427401Y-51162179D01*
X106373247Y-51087641D01*
X106373243Y-51087636D01*
X106217363Y-50931756D01*
X106217358Y-50931752D01*
X106039025Y-50802187D01*
X106039024Y-50802186D01*
X106039022Y-50802185D01*
X105976096Y-50770122D01*
X105842606Y-50702104D01*
X105842603Y-50702103D01*
X105632952Y-50633985D01*
X105524086Y-50616742D01*
X105415222Y-50599500D01*
X105194778Y-50599500D01*
X105122201Y-50610995D01*
X104977047Y-50633985D01*
X104767396Y-50702103D01*
X104767393Y-50702104D01*
X104570974Y-50802187D01*
X104392641Y-50931752D01*
X104392636Y-50931756D01*
X104236756Y-51087636D01*
X104236752Y-51087641D01*
X104107187Y-51265974D01*
X104007104Y-51462393D01*
X104007103Y-51462396D01*
X103938985Y-51672047D01*
X103933392Y-51707362D01*
X103904500Y-51889778D01*
X101255500Y-51889778D01*
X101221015Y-51672049D01*
X101152895Y-51462394D01*
X101152895Y-51462393D01*
X101063551Y-51287049D01*
X101052815Y-51265978D01*
X100977401Y-51162179D01*
X100923247Y-51087641D01*
X100923243Y-51087636D01*
X100767363Y-50931756D01*
X100767358Y-50931752D01*
X100589025Y-50802187D01*
X100589024Y-50802186D01*
X100589022Y-50802185D01*
X100526096Y-50770122D01*
X100392606Y-50702104D01*
X100392603Y-50702103D01*
X100182952Y-50633985D01*
X100074086Y-50616742D01*
X99965222Y-50599500D01*
X99744778Y-50599500D01*
X99672201Y-50610995D01*
X99527047Y-50633985D01*
X99317396Y-50702103D01*
X99317393Y-50702104D01*
X99120974Y-50802187D01*
X98942641Y-50931752D01*
X98942636Y-50931756D01*
X98786756Y-51087636D01*
X98786752Y-51087641D01*
X98657187Y-51265974D01*
X98557104Y-51462393D01*
X98557103Y-51462396D01*
X98488985Y-51672047D01*
X98483392Y-51707362D01*
X98454500Y-51889778D01*
X95040500Y-51889778D01*
X95040500Y-51763713D01*
X95007246Y-51553757D01*
X94941557Y-51351588D01*
X94845051Y-51162184D01*
X94845049Y-51162181D01*
X94845048Y-51162179D01*
X94720109Y-50990213D01*
X94569786Y-50839890D01*
X94397820Y-50714951D01*
X94208414Y-50618444D01*
X94208413Y-50618443D01*
X94208412Y-50618443D01*
X94006243Y-50552754D01*
X94006241Y-50552753D01*
X94006240Y-50552753D01*
X93844957Y-50527208D01*
X93796287Y-50519500D01*
X93583713Y-50519500D01*
X93535042Y-50527208D01*
X93373760Y-50552753D01*
X93171585Y-50618444D01*
X92982179Y-50714951D01*
X92810213Y-50839890D01*
X92659892Y-50990211D01*
X92603097Y-51068385D01*
X92547767Y-51111051D01*
X92502779Y-51119500D01*
X91156082Y-51119500D01*
X91152261Y-51120259D01*
X91144246Y-51121854D01*
X91144237Y-51121856D01*
X91141267Y-51122447D01*
X91011088Y-51148341D01*
X90977669Y-51162184D01*
X90969218Y-51165684D01*
X90969212Y-51165686D01*
X90874508Y-51204914D01*
X90874498Y-51204919D01*
X90806286Y-51250498D01*
X90751582Y-51287049D01*
X89922472Y-52116159D01*
X89861149Y-52149644D01*
X89791457Y-52144660D01*
X89735524Y-52102788D01*
X89716859Y-52066792D01*
X89711588Y-52050568D01*
X89620478Y-51871754D01*
X89591576Y-51831976D01*
X89591576Y-51831975D01*
X89012962Y-52410590D01*
X88995925Y-52347007D01*
X88930099Y-52232993D01*
X88837007Y-52139901D01*
X88722993Y-52074075D01*
X88659409Y-52057037D01*
X89238023Y-51478423D01*
X89238022Y-51478422D01*
X89198246Y-51449522D01*
X89019432Y-51358412D01*
X88828559Y-51296393D01*
X88630350Y-51265000D01*
X88429650Y-51265000D01*
X88231440Y-51296393D01*
X88040567Y-51358412D01*
X87861755Y-51449521D01*
X87821976Y-51478422D01*
X88400591Y-52057037D01*
X88337007Y-52074075D01*
X88222993Y-52139901D01*
X88129901Y-52232993D01*
X88064075Y-52347007D01*
X88047037Y-52410591D01*
X87468422Y-51831976D01*
X87439521Y-51871755D01*
X87348412Y-52050567D01*
X87286393Y-52241440D01*
X87255000Y-52439649D01*
X87255000Y-52640350D01*
X87286393Y-52838559D01*
X87348412Y-53029432D01*
X87439522Y-53208246D01*
X87468422Y-53248022D01*
X87468423Y-53248023D01*
X88047037Y-52669408D01*
X88064075Y-52732993D01*
X88129901Y-52847007D01*
X88222993Y-52940099D01*
X88337007Y-53005925D01*
X88400590Y-53022962D01*
X87821975Y-53601576D01*
X87861754Y-53630478D01*
X88040564Y-53721586D01*
X88056793Y-53726859D01*
X88114469Y-53766295D01*
X88141668Y-53830653D01*
X88129756Y-53899500D01*
X88106158Y-53932472D01*
X87422869Y-54615761D01*
X87361546Y-54649246D01*
X87291854Y-54644262D01*
X87235921Y-54602390D01*
X87217258Y-54566401D01*
X87212052Y-54550378D01*
X87212050Y-54550375D01*
X87212050Y-54550373D01*
X87122486Y-54374595D01*
X87120905Y-54371492D01*
X87002897Y-54209068D01*
X86860932Y-54067103D01*
X86698508Y-53949095D01*
X86665884Y-53932472D01*
X86519626Y-53857949D01*
X86328680Y-53795907D01*
X86225090Y-53779500D01*
X86130384Y-53764500D01*
X85929616Y-53764500D01*
X85834910Y-53779500D01*
X85731319Y-53795907D01*
X85540373Y-53857949D01*
X85361491Y-53949095D01*
X85345827Y-53960476D01*
X85199068Y-54067103D01*
X85199066Y-54067105D01*
X85199065Y-54067105D01*
X85057105Y-54209065D01*
X85057105Y-54209066D01*
X85057103Y-54209068D01*
X85006423Y-54278822D01*
X84939095Y-54371491D01*
X84847949Y-54550373D01*
X84787254Y-54737173D01*
X84785907Y-54741320D01*
X84754500Y-54939616D01*
X84754500Y-55140384D01*
X84764146Y-55201288D01*
X84785907Y-55338680D01*
X84847949Y-55529626D01*
X84915172Y-55661557D01*
X84939095Y-55708508D01*
X85057103Y-55870932D01*
X85199068Y-56012897D01*
X85361492Y-56130905D01*
X85446007Y-56173967D01*
X85540373Y-56222050D01*
X85540375Y-56222050D01*
X85540378Y-56222052D01*
X85556400Y-56227258D01*
X85614074Y-56266695D01*
X85641272Y-56331054D01*
X85629357Y-56399900D01*
X85605761Y-56432869D01*
X82990359Y-59048271D01*
X82929036Y-59081756D01*
X82859344Y-59076772D01*
X82829793Y-59060908D01*
X82804025Y-59042187D01*
X82804024Y-59042186D01*
X82804022Y-59042185D01*
X82741096Y-59010122D01*
X82607606Y-58942104D01*
X82607603Y-58942103D01*
X82397952Y-58873985D01*
X82289086Y-58856742D01*
X82180222Y-58839500D01*
X81259778Y-58839500D01*
X81187201Y-58850995D01*
X81042047Y-58873985D01*
X80832396Y-58942103D01*
X80832393Y-58942104D01*
X80635974Y-59042187D01*
X80457641Y-59171752D01*
X80457636Y-59171756D01*
X80301756Y-59327636D01*
X80301752Y-59327641D01*
X80172187Y-59505974D01*
X80072104Y-59702393D01*
X80072103Y-59702396D01*
X80003985Y-59912047D01*
X79969500Y-60129778D01*
X77816760Y-60129778D01*
X77793402Y-59982299D01*
X77739873Y-59817555D01*
X77661232Y-59663212D01*
X77559414Y-59523072D01*
X77436928Y-59400586D01*
X77296788Y-59298768D01*
X77142445Y-59220127D01*
X76977701Y-59166598D01*
X76977699Y-59166597D01*
X76977698Y-59166597D01*
X76846271Y-59145781D01*
X76806611Y-59139500D01*
X76633389Y-59139500D01*
X76593728Y-59145781D01*
X76462302Y-59166597D01*
X76462299Y-59166598D01*
X76324405Y-59211403D01*
X76297552Y-59220128D01*
X76143211Y-59298768D01*
X76075713Y-59347809D01*
X76003072Y-59400586D01*
X76003070Y-59400588D01*
X76003069Y-59400588D01*
X75880588Y-59523069D01*
X75880588Y-59523070D01*
X75880586Y-59523072D01*
X75836859Y-59583256D01*
X75778768Y-59663211D01*
X75700128Y-59817552D01*
X75646597Y-59982302D01*
X75630291Y-60085255D01*
X75619500Y-60153389D01*
X75320500Y-60153389D01*
X75293402Y-59982299D01*
X75239873Y-59817555D01*
X75161232Y-59663212D01*
X75059414Y-59523072D01*
X74936928Y-59400586D01*
X74796788Y-59298768D01*
X74642445Y-59220127D01*
X74477701Y-59166598D01*
X74477699Y-59166597D01*
X74477698Y-59166597D01*
X74346271Y-59145781D01*
X74306611Y-59139500D01*
X74133389Y-59139500D01*
X74093728Y-59145781D01*
X73962302Y-59166597D01*
X73962299Y-59166598D01*
X73824405Y-59211403D01*
X73797552Y-59220128D01*
X73643211Y-59298768D01*
X73575713Y-59347809D01*
X73503072Y-59400586D01*
X73503070Y-59400588D01*
X73503069Y-59400588D01*
X73380588Y-59523069D01*
X73380588Y-59523070D01*
X73380586Y-59523072D01*
X73336859Y-59583256D01*
X73278768Y-59663211D01*
X73200128Y-59817552D01*
X73146597Y-59982302D01*
X73130291Y-60085255D01*
X73119500Y-60153389D01*
X72100500Y-60153389D01*
X72100500Y-54958711D01*
X75329500Y-54958711D01*
X75329500Y-55201288D01*
X75361161Y-55441785D01*
X75423947Y-55676104D01*
X75499252Y-55857906D01*
X75516776Y-55900212D01*
X75638064Y-56110289D01*
X75638066Y-56110292D01*
X75638067Y-56110293D01*
X75785733Y-56302736D01*
X75785739Y-56302743D01*
X75957256Y-56474260D01*
X75957263Y-56474266D01*
X76045403Y-56541898D01*
X76149711Y-56621936D01*
X76359788Y-56743224D01*
X76583900Y-56836054D01*
X76818211Y-56898838D01*
X76998586Y-56922584D01*
X77058711Y-56930500D01*
X77058712Y-56930500D01*
X77301289Y-56930500D01*
X77349388Y-56924167D01*
X77541789Y-56898838D01*
X77776100Y-56836054D01*
X78000212Y-56743224D01*
X78210289Y-56621936D01*
X78402738Y-56474265D01*
X78574265Y-56302738D01*
X78721936Y-56110289D01*
X78843224Y-55900212D01*
X78936054Y-55676100D01*
X78998838Y-55441789D01*
X79030500Y-55201288D01*
X79030500Y-54958712D01*
X79026928Y-54931583D01*
X78998838Y-54718214D01*
X78998838Y-54718211D01*
X78936054Y-54483900D01*
X78843224Y-54259788D01*
X78721936Y-54049711D01*
X78574792Y-53857949D01*
X78574266Y-53857263D01*
X78574260Y-53857256D01*
X78402743Y-53685739D01*
X78402736Y-53685733D01*
X78210293Y-53538067D01*
X78210292Y-53538066D01*
X78210289Y-53538064D01*
X78000212Y-53416776D01*
X78000205Y-53416773D01*
X77776104Y-53323947D01*
X77541785Y-53261161D01*
X77301289Y-53229500D01*
X77301288Y-53229500D01*
X77058712Y-53229500D01*
X77058711Y-53229500D01*
X76818214Y-53261161D01*
X76583895Y-53323947D01*
X76359794Y-53416773D01*
X76359785Y-53416777D01*
X76149706Y-53538067D01*
X75957263Y-53685733D01*
X75957256Y-53685739D01*
X75785739Y-53857256D01*
X75785733Y-53857263D01*
X75638067Y-54049706D01*
X75516777Y-54259785D01*
X75516773Y-54259794D01*
X75423947Y-54483895D01*
X75361161Y-54718214D01*
X75329500Y-54958711D01*
X72100500Y-54958711D01*
X72100500Y-52004066D01*
X72100765Y-51995957D01*
X72107724Y-51889778D01*
X72115681Y-51768378D01*
X72116670Y-51758911D01*
X72122677Y-51717135D01*
X82254500Y-51717135D01*
X82254500Y-53362870D01*
X82254501Y-53362876D01*
X82260908Y-53422483D01*
X82311202Y-53557328D01*
X82311206Y-53557335D01*
X82397452Y-53672544D01*
X82397455Y-53672547D01*
X82512664Y-53758793D01*
X82512671Y-53758797D01*
X82647517Y-53809091D01*
X82647516Y-53809091D01*
X82654444Y-53809835D01*
X82707127Y-53815500D01*
X84352872Y-53815499D01*
X84412483Y-53809091D01*
X84547331Y-53758796D01*
X84662546Y-53672546D01*
X84748796Y-53557331D01*
X84799091Y-53422483D01*
X84805500Y-53362873D01*
X84805499Y-51717128D01*
X84799091Y-51657517D01*
X84760392Y-51553760D01*
X84748797Y-51522671D01*
X84748793Y-51522664D01*
X84662547Y-51407455D01*
X84662544Y-51407452D01*
X84547335Y-51321206D01*
X84547328Y-51321202D01*
X84412482Y-51270908D01*
X84412483Y-51270908D01*
X84352883Y-51264501D01*
X84352881Y-51264500D01*
X84352873Y-51264500D01*
X84352864Y-51264500D01*
X82707129Y-51264500D01*
X82707123Y-51264501D01*
X82647516Y-51270908D01*
X82512671Y-51321202D01*
X82512664Y-51321206D01*
X82397455Y-51407452D01*
X82397452Y-51407455D01*
X82311206Y-51522664D01*
X82311202Y-51522671D01*
X82260908Y-51657517D01*
X82255550Y-51707362D01*
X82254501Y-51717123D01*
X82254500Y-51717135D01*
X72122677Y-51717135D01*
X72124090Y-51707307D01*
X72125191Y-51700880D01*
X72164312Y-51504200D01*
X72166938Y-51493513D01*
X72179361Y-51451205D01*
X72180877Y-51446412D01*
X72248231Y-51247996D01*
X72252834Y-51236397D01*
X72263477Y-51213093D01*
X72264987Y-51209913D01*
X72364790Y-51007533D01*
X72372893Y-50993498D01*
X72509182Y-50789527D01*
X72519039Y-50776681D01*
X72680786Y-50592244D01*
X72692244Y-50580786D01*
X72876681Y-50419039D01*
X72889527Y-50409182D01*
X73093498Y-50272893D01*
X73107533Y-50264790D01*
X73309913Y-50164987D01*
X73313093Y-50163477D01*
X73336397Y-50152834D01*
X73347996Y-50148231D01*
X73546412Y-50080877D01*
X73551205Y-50079361D01*
X73593513Y-50066938D01*
X73604200Y-50064312D01*
X73800868Y-50025193D01*
X73807308Y-50024090D01*
X73858911Y-50016670D01*
X73868378Y-50015681D01*
X74083057Y-50001610D01*
X74095958Y-50000765D01*
X74104067Y-50000500D01*
X123435933Y-50000500D01*
X123444042Y-50000765D01*
G37*
%TD.AperFunction*%
%TD*%
M02*
