  0
SECTION
  2
HEADER
  9
$ANGBASE
  50
0.0
  9
$ANGDIR
  70
1
  9
$MEASUREMENT
  70
0
  0
ENDSEC
  0
SECTION
  2
TABLES
  0
TABLE
  2
LTYPE
  70
4
  0
LTYPE
  5
40F
  2
CONTINUOUS
  70
0
  3
Solid line
  72
65
  73
0
  40
0.0
  0
LTYPE
  5
410
  2
DASHDOT
 70
0
  3
Dash Dot ____ _ ____ _
 72
65
 73
4
 40
2.0
 49
1.25
 49
-0.25
 49
0.25
 49
-0.25
  0
LTYPE
  5
411
  2
DASHED
 70
0
  3
Dashed __ __ __ __ __
 72
65
 73
2
 40
0.75
 49
0.5
 49
-0.25
  0
LTYPE
  5
43B
  2
DOTTED
 70
0
  3
Dotted .  .  .  .
 72
65
 73
2
 40
0.2
 49
0.0
 49
-0.2
  0
ENDTAB
  0
TABLE
  2
STYLE
  70
4
  0
STYLE
  2
KICAD
  70
0
  40
0
  41
1
  42
1
  50
0
  71
0
  3
isocp.shx
  0
STYLE
  2
KICADB
  70
0
  40
0
  41
1
  42
1
  50
0
  71
0
  3
isocp.shx
  0
STYLE
  2
KICADI
  70
0
  40
0
  41
1
  42
1
  50
15
  71
0
  3
isocp.shx
  0
STYLE
  2
KICADBI
  70
0
  40
0
  41
1
  42
1
  50
15
  71
0
  3
isocp.shx
  0
ENDTAB
  0
TABLE
  2
LAYER
  70
1
  0
LAYER
  2
BLACK
  70
0
  62
7
  6
CONTINUOUS
  0
ENDTAB
  0
ENDSEC
  0
SECTION
  2
ENTITIES
0
LINE
8
BLACK
6
CONTINUOUS
10
4.8598425196850394
20
-1.9665354330708662
11
4.8703771259842519
21
-1.9672259055118109
0
LINE
8
BLACK
6
CONTINUOUS
10
4.8703771259842519
20
-1.9672259055118109
11
4.8807314566929136
21
-1.9692855118110235
0
LINE
8
BLACK
6
CONTINUOUS
10
4.8807314566929136
20
-1.9692855118110235
11
4.8907283858267716
21
-1.9726790157480314
0
LINE
8
BLACK
6
CONTINUOUS
10
4.8907283858267716
20
-1.9726790157480314
11
4.9001968503937006
21
-1.9773483464566928
0
LINE
8
BLACK
6
CONTINUOUS
10
4.9001968503937006
20
-1.9773483464566928
11
4.9089748425196849
21
-1.9832136220472441
0
LINE
8
BLACK
6
CONTINUOUS
10
4.9089748425196849
20
-1.9832136220472441
11
4.9169121653543302
21
-1.9901744488188975
0
LINE
8
BLACK
6
CONTINUOUS
10
4.9169121653543302
20
-1.9901744488188975
11
4.9238729921259843
21
-1.9981117716535433
0
LINE
8
BLACK
6
CONTINUOUS
10
4.9238729921259843
20
-1.9981117716535433
11
4.9297382677165356
21
-2.0068897637795273
0
LINE
8
BLACK
6
CONTINUOUS
10
4.9297382677165356
20
-2.0068897637795273
11
4.9344075984251967
21
-2.0163582283464567
0
LINE
8
BLACK
6
CONTINUOUS
10
4.9344075984251967
20
-2.0163582283464567
11
4.9378011023622044
21
-2.0263551574803147
0
LINE
8
BLACK
6
CONTINUOUS
10
4.9378011023622044
20
-2.0263551574803147
11
4.939860708661417
21
-2.0367094881889765
0
LINE
8
BLACK
6
CONTINUOUS
10
4.939860708661417
20
-2.0367094881889765
11
4.9405511811023617
21
-2.0472440944881889
0
LINE
8
BLACK
6
CONTINUOUS
10
4.9405511811023617
20
-2.0472440944881889
11
4.9405511811023617
21
-4.6897637795275591
0
LINE
8
BLACK
6
CONTINUOUS
10
4.9405511811023617
20
-4.6897637795275591
11
4.939860708661417
21
-4.7002983858267715
0
LINE
8
BLACK
6
CONTINUOUS
10
4.939860708661417
20
-4.7002983858267715
11
4.9378011023622044
21
-4.7106527165354333
0
LINE
8
BLACK
6
CONTINUOUS
10
4.9378011023622044
20
-4.7106527165354333
11
4.9344075984251967
21
-4.7206496456692912
0
LINE
8
BLACK
6
CONTINUOUS
10
4.9344075984251967
20
-4.7206496456692912
11
4.9297382677165356
21
-4.7301181102362202
0
LINE
8
BLACK
6
CONTINUOUS
10
4.9297382677165356
20
-4.7301181102362202
11
4.9238729921259843
21
-4.7388961023622045
0
LINE
8
BLACK
6
CONTINUOUS
10
4.9238729921259843
20
-4.7388961023622045
11
4.9169121653543302
21
-4.7468334251968507
0
LINE
8
BLACK
6
CONTINUOUS
10
4.9169121653543302
20
-4.7468334251968507
11
4.9089748425196849
21
-4.7537942519685039
0
LINE
8
BLACK
6
CONTINUOUS
10
4.9089748425196849
20
-4.7537942519685039
11
4.9001968503937006
21
-4.7596595275590552
0
LINE
8
BLACK
6
CONTINUOUS
10
4.9001968503937006
20
-4.7596595275590552
11
4.8907283858267716
21
-4.7643288582677163
0
LINE
8
BLACK
6
CONTINUOUS
10
4.8907283858267716
20
-4.7643288582677163
11
4.8807314566929136
21
-4.767722362204724
0
LINE
8
BLACK
6
CONTINUOUS
10
4.8807314566929136
20
-4.767722362204724
11
4.8703771259842519
21
-4.7697819685039367
0
LINE
8
BLACK
6
CONTINUOUS
10
4.8703771259842519
20
-4.7697819685039367
11
4.8598425196850394
21
-4.7704724409448822
0
LINE
8
BLACK
6
CONTINUOUS
10
4.8598425196850394
20
-4.7704724409448822
11
2.9173228346456694
21
-4.7704724409448822
0
LINE
8
BLACK
6
CONTINUOUS
10
2.9173228346456694
20
-4.7704724409448822
11
2.9067882283464566
21
-4.7697819685039367
0
LINE
8
BLACK
6
CONTINUOUS
10
2.9067882283464566
20
-4.7697819685039367
11
2.8964338976377952
21
-4.767722362204724
0
LINE
8
BLACK
6
CONTINUOUS
10
2.8964338976377952
20
-4.767722362204724
11
2.8864369685039368
21
-4.7643288582677163
0
LINE
8
BLACK
6
CONTINUOUS
10
2.8864369685039368
20
-4.7643288582677163
11
2.8769685039370079
21
-4.7596595275590552
0
LINE
8
BLACK
6
CONTINUOUS
10
2.8769685039370079
20
-4.7596595275590552
11
2.8681905118110236
21
-4.7537942519685039
0
LINE
8
BLACK
6
CONTINUOUS
10
2.8681905118110236
20
-4.7537942519685039
11
2.8602531889763778
21
-4.7468334251968507
0
LINE
8
BLACK
6
CONTINUOUS
10
2.8602531889763778
20
-4.7468334251968507
11
2.8532923622047242
21
-4.7388961023622045
0
LINE
8
BLACK
6
CONTINUOUS
10
2.8532923622047242
20
-4.7388961023622045
11
2.8474270866141733
21
-4.7301181102362202
0
LINE
8
BLACK
6
CONTINUOUS
10
2.8474270866141733
20
-4.7301181102362202
11
2.8427577559055117
21
-4.7206496456692912
0
LINE
8
BLACK
6
CONTINUOUS
10
2.8427577559055117
20
-4.7206496456692912
11
2.8393642519685041
21
-4.7106527165354333
0
LINE
8
BLACK
6
CONTINUOUS
10
2.8393642519685041
20
-4.7106527165354333
11
2.8373046456692914
21
-4.7002983858267715
0
LINE
8
BLACK
6
CONTINUOUS
10
2.8373046456692914
20
-4.7002983858267715
11
2.8366141732283463
21
-4.6897637795275591
0
LINE
8
BLACK
6
CONTINUOUS
10
2.8366141732283463
20
-4.6897637795275591
11
2.8366141732283463
21
-2.0472440944881889
0
LINE
8
BLACK
6
CONTINUOUS
10
2.8366141732283463
20
-2.0472440944881889
11
2.8373046456692914
21
-2.0367094881889765
0
LINE
8
BLACK
6
CONTINUOUS
10
2.8373046456692914
20
-2.0367094881889765
11
2.8393642519685041
21
-2.0263551574803147
0
LINE
8
BLACK
6
CONTINUOUS
10
2.8393642519685041
20
-2.0263551574803147
11
2.8427577559055117
21
-2.0163582283464567
0
LINE
8
BLACK
6
CONTINUOUS
10
2.8427577559055117
20
-2.0163582283464567
11
2.8474270866141733
21
-2.0068897637795273
0
LINE
8
BLACK
6
CONTINUOUS
10
2.8474270866141733
20
-2.0068897637795273
11
2.8532923622047242
21
-1.9981117716535433
0
LINE
8
BLACK
6
CONTINUOUS
10
2.8532923622047242
20
-1.9981117716535433
11
2.8602531889763778
21
-1.9901744488188975
0
LINE
8
BLACK
6
CONTINUOUS
10
2.8602531889763778
20
-1.9901744488188975
11
2.8681905118110236
21
-1.9832136220472441
0
LINE
8
BLACK
6
CONTINUOUS
10
2.8681905118110236
20
-1.9832136220472441
11
2.8769685039370079
21
-1.9773483464566928
0
LINE
8
BLACK
6
CONTINUOUS
10
2.8769685039370079
20
-1.9773483464566928
11
2.8864369685039368
21
-1.9726790157480314
0
LINE
8
BLACK
6
CONTINUOUS
10
2.8864369685039368
20
-1.9726790157480314
11
2.8964338976377952
21
-1.9692855118110235
0
LINE
8
BLACK
6
CONTINUOUS
10
2.8964338976377952
20
-1.9692855118110235
11
2.9067882283464566
21
-1.9672259055118109
0
LINE
8
BLACK
6
CONTINUOUS
10
2.9067882283464566
20
-1.9672259055118109
11
2.9173228346456694
21
-1.9665354330708662
0
LINE
8
BLACK
6
CONTINUOUS
10
2.9173228346456694
20
-1.9665354330708662
11
4.8598425196850394
21
-1.9665354330708662
0
LINE
8
BLACK
6
CONTINUOUS
10
2.9173228346456694
20
-1.9704724409448819
11
2.9122909448818897
21
-1.9704724409448819
0
LINE
8
BLACK
6
CONTINUOUS
10
2.9122909448818897
20
-1.9704724409448819
11
2.9023133070866143
21
-1.9717860236220472
0
LINE
8
BLACK
6
CONTINUOUS
10
2.9023133070866143
20
-1.9717860236220472
11
2.892592440944882
21
-1.9743907086614172
0
LINE
8
BLACK
6
CONTINUOUS
10
2.892592440944882
20
-1.9743907086614172
11
2.8832947637795274
21
-1.978241968503937
0
LINE
8
BLACK
6
CONTINUOUS
10
2.8832947637795274
20
-1.978241968503937
11
2.8745792913385828
21
-1.9832738188976378
0
LINE
8
BLACK
6
CONTINUOUS
10
2.8745792913385828
20
-1.9832738188976378
11
2.8665951574803148
21
-1.9894002755905511
0
LINE
8
BLACK
6
CONTINUOUS
10
2.8665951574803148
20
-1.9894002755905511
11
2.8594790157480316
21
-1.9965164173228347
0
LINE
8
BLACK
6
CONTINUOUS
10
2.8594790157480316
20
-1.9965164173228347
11
2.8533525590551179
21
-2.0045005511811023
0
LINE
8
BLACK
6
CONTINUOUS
10
2.8533525590551179
20
-2.0045005511811023
11
2.8483207086614173
21
-2.0132160236220473
0
LINE
8
BLACK
6
CONTINUOUS
10
2.8483207086614173
20
-2.0132160236220473
11
2.8444694488188977
21
-2.0225137007874014
0
LINE
8
BLACK
6
CONTINUOUS
10
2.8444694488188977
20
-2.0225137007874014
11
2.8418647637795273
21
-2.0322345669291337
0
LINE
8
BLACK
6
CONTINUOUS
10
2.8418647637795273
20
-2.0322345669291337
11
2.840551181102362
21
-2.0422122047244096
0
LINE
8
BLACK
6
CONTINUOUS
10
2.840551181102362
20
-2.0422122047244096
11
2.840551181102362
21
-2.0472440944881889
0
LINE
8
BLACK
6
CONTINUOUS
10
2.840551181102362
20
-2.0472440944881889
11
2.840551181102362
21
-4.6897637795275591
0
LINE
8
BLACK
6
CONTINUOUS
10
2.840551181102362
20
-4.6897637795275591
11
2.840551181102362
21
-4.6947956692913388
0
LINE
8
BLACK
6
CONTINUOUS
10
2.840551181102362
20
-4.6947956692913388
11
2.8418647637795273
21
-4.7047733070866142
0
LINE
8
BLACK
6
CONTINUOUS
10
2.8418647637795273
20
-4.7047733070866142
11
2.8444694488188977
21
-4.7144941732283465
0
LINE
8
BLACK
6
CONTINUOUS
10
2.8444694488188977
20
-4.7144941732283465
11
2.8483207086614173
21
-4.7237918503937006
0
LINE
8
BLACK
6
CONTINUOUS
10
2.8483207086614173
20
-4.7237918503937006
11
2.8533525590551179
21
-4.7325073228346453
0
LINE
8
BLACK
6
CONTINUOUS
10
2.8533525590551179
20
-4.7325073228346453
11
2.8594790157480316
21
-4.7404914566929133
0
LINE
8
BLACK
6
CONTINUOUS
10
2.8594790157480316
20
-4.7404914566929133
11
2.8665951574803148
21
-4.7476075984251969
0
LINE
8
BLACK
6
CONTINUOUS
10
2.8665951574803148
20
-4.7476075984251969
11
2.8745792913385828
21
-4.7537340551181098
0
LINE
8
BLACK
6
CONTINUOUS
10
2.8745792913385828
20
-4.7537340551181098
11
2.8832947637795274
21
-4.7587659055118108
0
LINE
8
BLACK
6
CONTINUOUS
10
2.8832947637795274
20
-4.7587659055118108
11
2.892592440944882
21
-4.7626171653543308
0
LINE
8
BLACK
6
CONTINUOUS
10
2.892592440944882
20
-4.7626171653543308
11
2.9023133070866143
21
-4.7652218503937007
0
LINE
8
BLACK
6
CONTINUOUS
10
2.9023133070866143
20
-4.7652218503937007
11
2.9122909448818897
21
-4.7665354330708665
0
LINE
8
BLACK
6
CONTINUOUS
10
2.9122909448818897
20
-4.7665354330708665
11
2.9173228346456694
21
-4.7665354330708665
0
LINE
8
BLACK
6
CONTINUOUS
10
2.9173228346456694
20
-4.7665354330708665
11
4.8598425196850394
21
-4.7665354330708665
0
LINE
8
BLACK
6
CONTINUOUS
10
4.8598425196850394
20
-4.7665354330708665
11
4.8648744094488192
21
-4.7665354330708665
0
LINE
8
BLACK
6
CONTINUOUS
10
4.8648744094488192
20
-4.7665354330708665
11
4.8748520472440946
21
-4.7652218503937007
0
LINE
8
BLACK
6
CONTINUOUS
10
4.8748520472440946
20
-4.7652218503937007
11
4.8845729133858269
21
-4.7626171653543308
0
LINE
8
BLACK
6
CONTINUOUS
10
4.8845729133858269
20
-4.7626171653543308
11
4.893870590551181
21
-4.7587659055118108
0
LINE
8
BLACK
6
CONTINUOUS
10
4.893870590551181
20
-4.7587659055118108
11
4.9025860629921256
21
-4.7537340551181098
0
LINE
8
BLACK
6
CONTINUOUS
10
4.9025860629921256
20
-4.7537340551181098
11
4.9105701968503936
21
-4.7476075984251969
0
LINE
8
BLACK
6
CONTINUOUS
10
4.9105701968503936
20
-4.7476075984251969
11
4.9176863385826772
21
-4.7404914566929133
0
LINE
8
BLACK
6
CONTINUOUS
10
4.9176863385826772
20
-4.7404914566929133
11
4.9238127952755901
21
-4.7325073228346453
0
LINE
8
BLACK
6
CONTINUOUS
10
4.9238127952755901
20
-4.7325073228346453
11
4.9288446456692911
21
-4.7237918503937006
0
LINE
8
BLACK
6
CONTINUOUS
10
4.9288446456692911
20
-4.7237918503937006
11
4.9326959055118111
21
-4.7144941732283465
0
LINE
8
BLACK
6
CONTINUOUS
10
4.9326959055118111
20
-4.7144941732283465
11
4.9353005905511811
21
-4.7047733070866142
0
LINE
8
BLACK
6
CONTINUOUS
10
4.9353005905511811
20
-4.7047733070866142
11
4.9366141732283459
21
-4.6947956692913388
0
LINE
8
BLACK
6
CONTINUOUS
10
4.9366141732283459
20
-4.6947956692913388
11
4.9366141732283459
21
-4.6897637795275591
0
LINE
8
BLACK
6
CONTINUOUS
10
4.9366141732283459
20
-4.6897637795275591
11
4.9366141732283459
21
-2.0472440944881889
0
LINE
8
BLACK
6
CONTINUOUS
10
4.9366141732283459
20
-2.0472440944881889
11
4.9366141732283459
21
-2.0422122047244096
0
LINE
8
BLACK
6
CONTINUOUS
10
4.9366141732283459
20
-2.0422122047244096
11
4.9353005905511811
21
-2.0322345669291337
0
LINE
8
BLACK
6
CONTINUOUS
10
4.9353005905511811
20
-2.0322345669291337
11
4.9326959055118111
21
-2.0225137007874014
0
LINE
8
BLACK
6
CONTINUOUS
10
4.9326959055118111
20
-2.0225137007874014
11
4.9288446456692911
21
-2.0132160236220473
0
LINE
8
BLACK
6
CONTINUOUS
10
4.9288446456692911
20
-2.0132160236220473
11
4.9238127952755901
21
-2.0045005511811023
0
LINE
8
BLACK
6
CONTINUOUS
10
4.9238127952755901
20
-2.0045005511811023
11
4.9176863385826772
21
-1.9965164173228347
0
LINE
8
BLACK
6
CONTINUOUS
10
4.9176863385826772
20
-1.9965164173228347
11
4.9105701968503936
21
-1.9894002755905511
0
LINE
8
BLACK
6
CONTINUOUS
10
4.9105701968503936
20
-1.9894002755905511
11
4.9025860629921256
21
-1.9832738188976378
0
LINE
8
BLACK
6
CONTINUOUS
10
4.9025860629921256
20
-1.9832738188976378
11
4.893870590551181
21
-1.978241968503937
0
LINE
8
BLACK
6
CONTINUOUS
10
4.893870590551181
20
-1.978241968503937
11
4.8845729133858269
21
-1.9743907086614172
0
LINE
8
BLACK
6
CONTINUOUS
10
4.8845729133858269
20
-1.9743907086614172
11
4.8748520472440946
21
-1.9717860236220472
0
LINE
8
BLACK
6
CONTINUOUS
10
4.8748520472440946
20
-1.9717860236220472
11
4.8648744094488192
21
-1.9704724409448819
0
LINE
8
BLACK
6
CONTINUOUS
10
4.8648744094488192
20
-1.9704724409448819
11
4.8598425196850394
21
-1.9704724409448819
0
LINE
8
BLACK
6
CONTINUOUS
10
4.8598425196850394
20
-1.9704724409448819
11
2.9173228346456694
21
-1.9704724409448819
  0
ENDSEC
  0
EOF
