%TF.GenerationSoftware,KiCad,Pcbnew,9.0.3*%
%TF.CreationDate,2025-11-19T11:08:36-08:00*%
%TF.ProjectId,pcb,7063622e-6b69-4636-9164-5f7063625858,rev?*%
%TF.SameCoordinates,Original*%
%TF.FileFunction,Drillmap*%
%TF.FilePolarity,Positive*%
%FSLAX45Y45*%
G04 Gerber Fmt 4.5, Leading zero omitted, Abs format (unit mm)*
G04 Created by KiCad (PCBNEW 9.0.3) date 2025-11-19 11:08:36*
%MOMM*%
%LPD*%
G01*
G04 APERTURE LIST*
%ADD10C,0.100000*%
%ADD11C,0.200000*%
%ADD12C,0.150000*%
%ADD13C,0.180000*%
%ADD14C,0.320000*%
G04 APERTURE END LIST*
D10*
X7410000Y-12112000D02*
G75*
G02*
X7210000Y-11912000I0J200000D01*
G01*
X12544000Y-11912000D02*
G75*
G02*
X12344000Y-12112000I-200000J0D01*
G01*
X7210000Y-5200000D02*
G75*
G02*
X7410000Y-5000000I200000J0D01*
G01*
X7410000Y-5000000D02*
X12344000Y-5000000D01*
X12344000Y-5000000D02*
G75*
G02*
X12544000Y-5200000I0J-200000D01*
G01*
X12544000Y-5200000D02*
X12544000Y-11912000D01*
X12344000Y-12112000D02*
X7410000Y-12112000D01*
X7210000Y-11912000D02*
X7210000Y-5200000D01*
D11*
D10*
X7383900Y-5985900D02*
X7460100Y-6062100D01*
X7460100Y-5985900D02*
X7383900Y-6062100D01*
X7383900Y-6985900D02*
X7460100Y-7062100D01*
X7460100Y-6985900D02*
X7383900Y-7062100D01*
X7633900Y-5985900D02*
X7710100Y-6062100D01*
X7710100Y-5985900D02*
X7633900Y-6062100D01*
X7633900Y-6985900D02*
X7710100Y-7062100D01*
X7710100Y-6985900D02*
X7633900Y-7062100D01*
X8133900Y-6485900D02*
X8210100Y-6562100D01*
X8210100Y-6485900D02*
X8133900Y-6562100D01*
D12*
X7441000Y-7865000D02*
G75*
G02*
X7291000Y-7865000I-75000J0D01*
G01*
X7291000Y-7865000D02*
G75*
G02*
X7441000Y-7865000I75000J0D01*
G01*
X8141000Y-7865000D02*
G75*
G02*
X7991000Y-7865000I-75000J0D01*
G01*
X7991000Y-7865000D02*
G75*
G02*
X8141000Y-7865000I75000J0D01*
G01*
X10090500Y-5503000D02*
G75*
G02*
X9940500Y-5503000I-75000J0D01*
G01*
X9940500Y-5503000D02*
G75*
G02*
X10090500Y-5503000I75000J0D01*
G01*
X10575500Y-5503000D02*
G75*
G02*
X10425500Y-5503000I-75000J0D01*
G01*
X10425500Y-5503000D02*
G75*
G02*
X10575500Y-5503000I75000J0D01*
G01*
D13*
X9985500Y-5110000D02*
X9985500Y-5290000D01*
X9895500Y-5200000D02*
X10075500Y-5200000D01*
X10530500Y-5110000D02*
X10530500Y-5290000D01*
X10440500Y-5200000D02*
X10620500Y-5200000D01*
D14*
X7831138Y-5621138D02*
X7831138Y-5394862D01*
X7604862Y-5394862D01*
X7604862Y-5621138D01*
X7831138Y-5621138D01*
X7831138Y-11717138D02*
X7831138Y-11490862D01*
X7604862Y-11490862D01*
X7604862Y-11717138D01*
X7831138Y-11717138D01*
X12149138Y-5621138D02*
X12149138Y-5394862D01*
X11922862Y-5394862D01*
X11922862Y-5621138D01*
X12149138Y-5621138D01*
X12149138Y-11717138D02*
X12149138Y-11490862D01*
X11922862Y-11490862D01*
X11922862Y-11717138D01*
X12149138Y-11717138D01*
D11*
X7465777Y-12428484D02*
X7465777Y-12228484D01*
X7465777Y-12228484D02*
X7513396Y-12228484D01*
X7513396Y-12228484D02*
X7541967Y-12238008D01*
X7541967Y-12238008D02*
X7561015Y-12257055D01*
X7561015Y-12257055D02*
X7570539Y-12276103D01*
X7570539Y-12276103D02*
X7580062Y-12314198D01*
X7580062Y-12314198D02*
X7580062Y-12342769D01*
X7580062Y-12342769D02*
X7570539Y-12380865D01*
X7570539Y-12380865D02*
X7561015Y-12399912D01*
X7561015Y-12399912D02*
X7541967Y-12418960D01*
X7541967Y-12418960D02*
X7513396Y-12428484D01*
X7513396Y-12428484D02*
X7465777Y-12428484D01*
X7665777Y-12428484D02*
X7665777Y-12295150D01*
X7665777Y-12333246D02*
X7675301Y-12314198D01*
X7675301Y-12314198D02*
X7684824Y-12304674D01*
X7684824Y-12304674D02*
X7703872Y-12295150D01*
X7703872Y-12295150D02*
X7722920Y-12295150D01*
X7789586Y-12428484D02*
X7789586Y-12295150D01*
X7789586Y-12228484D02*
X7780062Y-12238008D01*
X7780062Y-12238008D02*
X7789586Y-12247531D01*
X7789586Y-12247531D02*
X7799110Y-12238008D01*
X7799110Y-12238008D02*
X7789586Y-12228484D01*
X7789586Y-12228484D02*
X7789586Y-12247531D01*
X7913396Y-12428484D02*
X7894348Y-12418960D01*
X7894348Y-12418960D02*
X7884824Y-12399912D01*
X7884824Y-12399912D02*
X7884824Y-12228484D01*
X8018158Y-12428484D02*
X7999110Y-12418960D01*
X7999110Y-12418960D02*
X7989586Y-12399912D01*
X7989586Y-12399912D02*
X7989586Y-12228484D01*
X8246729Y-12428484D02*
X8246729Y-12228484D01*
X8246729Y-12228484D02*
X8313396Y-12371341D01*
X8313396Y-12371341D02*
X8380062Y-12228484D01*
X8380062Y-12228484D02*
X8380062Y-12428484D01*
X8561015Y-12428484D02*
X8561015Y-12323722D01*
X8561015Y-12323722D02*
X8551491Y-12304674D01*
X8551491Y-12304674D02*
X8532444Y-12295150D01*
X8532444Y-12295150D02*
X8494348Y-12295150D01*
X8494348Y-12295150D02*
X8475301Y-12304674D01*
X8561015Y-12418960D02*
X8541967Y-12428484D01*
X8541967Y-12428484D02*
X8494348Y-12428484D01*
X8494348Y-12428484D02*
X8475301Y-12418960D01*
X8475301Y-12418960D02*
X8465777Y-12399912D01*
X8465777Y-12399912D02*
X8465777Y-12380865D01*
X8465777Y-12380865D02*
X8475301Y-12361817D01*
X8475301Y-12361817D02*
X8494348Y-12352293D01*
X8494348Y-12352293D02*
X8541967Y-12352293D01*
X8541967Y-12352293D02*
X8561015Y-12342769D01*
X8656253Y-12295150D02*
X8656253Y-12495150D01*
X8656253Y-12304674D02*
X8675301Y-12295150D01*
X8675301Y-12295150D02*
X8713396Y-12295150D01*
X8713396Y-12295150D02*
X8732444Y-12304674D01*
X8732444Y-12304674D02*
X8741967Y-12314198D01*
X8741967Y-12314198D02*
X8751491Y-12333246D01*
X8751491Y-12333246D02*
X8751491Y-12390388D01*
X8751491Y-12390388D02*
X8741967Y-12409436D01*
X8741967Y-12409436D02*
X8732444Y-12418960D01*
X8732444Y-12418960D02*
X8713396Y-12428484D01*
X8713396Y-12428484D02*
X8675301Y-12428484D01*
X8675301Y-12428484D02*
X8656253Y-12418960D01*
X8837205Y-12409436D02*
X8846729Y-12418960D01*
X8846729Y-12418960D02*
X8837205Y-12428484D01*
X8837205Y-12428484D02*
X8827682Y-12418960D01*
X8827682Y-12418960D02*
X8837205Y-12409436D01*
X8837205Y-12409436D02*
X8837205Y-12428484D01*
X8837205Y-12304674D02*
X8846729Y-12314198D01*
X8846729Y-12314198D02*
X8837205Y-12323722D01*
X8837205Y-12323722D02*
X8827682Y-12314198D01*
X8827682Y-12314198D02*
X8837205Y-12304674D01*
X8837205Y-12304674D02*
X8837205Y-12323722D01*
D10*
X7128800Y-12718900D02*
X7205000Y-12795100D01*
X7205000Y-12718900D02*
X7128800Y-12795100D01*
D11*
X7503872Y-12648484D02*
X7522920Y-12648484D01*
X7522920Y-12648484D02*
X7541967Y-12658008D01*
X7541967Y-12658008D02*
X7551491Y-12667531D01*
X7551491Y-12667531D02*
X7561015Y-12686579D01*
X7561015Y-12686579D02*
X7570539Y-12724674D01*
X7570539Y-12724674D02*
X7570539Y-12772293D01*
X7570539Y-12772293D02*
X7561015Y-12810388D01*
X7561015Y-12810388D02*
X7551491Y-12829436D01*
X7551491Y-12829436D02*
X7541967Y-12838960D01*
X7541967Y-12838960D02*
X7522920Y-12848484D01*
X7522920Y-12848484D02*
X7503872Y-12848484D01*
X7503872Y-12848484D02*
X7484824Y-12838960D01*
X7484824Y-12838960D02*
X7475301Y-12829436D01*
X7475301Y-12829436D02*
X7465777Y-12810388D01*
X7465777Y-12810388D02*
X7456253Y-12772293D01*
X7456253Y-12772293D02*
X7456253Y-12724674D01*
X7456253Y-12724674D02*
X7465777Y-12686579D01*
X7465777Y-12686579D02*
X7475301Y-12667531D01*
X7475301Y-12667531D02*
X7484824Y-12658008D01*
X7484824Y-12658008D02*
X7503872Y-12648484D01*
X7656253Y-12829436D02*
X7665777Y-12838960D01*
X7665777Y-12838960D02*
X7656253Y-12848484D01*
X7656253Y-12848484D02*
X7646729Y-12838960D01*
X7646729Y-12838960D02*
X7656253Y-12829436D01*
X7656253Y-12829436D02*
X7656253Y-12848484D01*
X7732443Y-12648484D02*
X7865777Y-12648484D01*
X7865777Y-12648484D02*
X7780062Y-12848484D01*
X8027682Y-12648484D02*
X7989586Y-12648484D01*
X7989586Y-12648484D02*
X7970539Y-12658008D01*
X7970539Y-12658008D02*
X7961015Y-12667531D01*
X7961015Y-12667531D02*
X7941967Y-12696103D01*
X7941967Y-12696103D02*
X7932443Y-12734198D01*
X7932443Y-12734198D02*
X7932443Y-12810388D01*
X7932443Y-12810388D02*
X7941967Y-12829436D01*
X7941967Y-12829436D02*
X7951491Y-12838960D01*
X7951491Y-12838960D02*
X7970539Y-12848484D01*
X7970539Y-12848484D02*
X8008634Y-12848484D01*
X8008634Y-12848484D02*
X8027682Y-12838960D01*
X8027682Y-12838960D02*
X8037205Y-12829436D01*
X8037205Y-12829436D02*
X8046729Y-12810388D01*
X8046729Y-12810388D02*
X8046729Y-12762769D01*
X8046729Y-12762769D02*
X8037205Y-12743722D01*
X8037205Y-12743722D02*
X8027682Y-12734198D01*
X8027682Y-12734198D02*
X8008634Y-12724674D01*
X8008634Y-12724674D02*
X7970539Y-12724674D01*
X7970539Y-12724674D02*
X7951491Y-12734198D01*
X7951491Y-12734198D02*
X7941967Y-12743722D01*
X7941967Y-12743722D02*
X7932443Y-12762769D01*
X8122920Y-12667531D02*
X8132443Y-12658008D01*
X8132443Y-12658008D02*
X8151491Y-12648484D01*
X8151491Y-12648484D02*
X8199110Y-12648484D01*
X8199110Y-12648484D02*
X8218158Y-12658008D01*
X8218158Y-12658008D02*
X8227682Y-12667531D01*
X8227682Y-12667531D02*
X8237205Y-12686579D01*
X8237205Y-12686579D02*
X8237205Y-12705627D01*
X8237205Y-12705627D02*
X8227682Y-12734198D01*
X8227682Y-12734198D02*
X8113396Y-12848484D01*
X8113396Y-12848484D02*
X8237205Y-12848484D01*
X8322920Y-12848484D02*
X8322920Y-12715150D01*
X8322920Y-12734198D02*
X8332443Y-12724674D01*
X8332443Y-12724674D02*
X8351491Y-12715150D01*
X8351491Y-12715150D02*
X8380063Y-12715150D01*
X8380063Y-12715150D02*
X8399110Y-12724674D01*
X8399110Y-12724674D02*
X8408634Y-12743722D01*
X8408634Y-12743722D02*
X8408634Y-12848484D01*
X8408634Y-12743722D02*
X8418158Y-12724674D01*
X8418158Y-12724674D02*
X8437205Y-12715150D01*
X8437205Y-12715150D02*
X8465777Y-12715150D01*
X8465777Y-12715150D02*
X8484825Y-12724674D01*
X8484825Y-12724674D02*
X8494348Y-12743722D01*
X8494348Y-12743722D02*
X8494348Y-12848484D01*
X8589586Y-12848484D02*
X8589586Y-12715150D01*
X8589586Y-12734198D02*
X8599110Y-12724674D01*
X8599110Y-12724674D02*
X8618158Y-12715150D01*
X8618158Y-12715150D02*
X8646729Y-12715150D01*
X8646729Y-12715150D02*
X8665777Y-12724674D01*
X8665777Y-12724674D02*
X8675301Y-12743722D01*
X8675301Y-12743722D02*
X8675301Y-12848484D01*
X8675301Y-12743722D02*
X8684825Y-12724674D01*
X8684825Y-12724674D02*
X8703872Y-12715150D01*
X8703872Y-12715150D02*
X8732444Y-12715150D01*
X8732444Y-12715150D02*
X8751491Y-12724674D01*
X8751491Y-12724674D02*
X8761015Y-12743722D01*
X8761015Y-12743722D02*
X8761015Y-12848484D01*
X9151491Y-12638960D02*
X8980063Y-12896103D01*
X9408634Y-12648484D02*
X9427682Y-12648484D01*
X9427682Y-12648484D02*
X9446729Y-12658008D01*
X9446729Y-12658008D02*
X9456253Y-12667531D01*
X9456253Y-12667531D02*
X9465777Y-12686579D01*
X9465777Y-12686579D02*
X9475301Y-12724674D01*
X9475301Y-12724674D02*
X9475301Y-12772293D01*
X9475301Y-12772293D02*
X9465777Y-12810388D01*
X9465777Y-12810388D02*
X9456253Y-12829436D01*
X9456253Y-12829436D02*
X9446729Y-12838960D01*
X9446729Y-12838960D02*
X9427682Y-12848484D01*
X9427682Y-12848484D02*
X9408634Y-12848484D01*
X9408634Y-12848484D02*
X9389587Y-12838960D01*
X9389587Y-12838960D02*
X9380063Y-12829436D01*
X9380063Y-12829436D02*
X9370539Y-12810388D01*
X9370539Y-12810388D02*
X9361015Y-12772293D01*
X9361015Y-12772293D02*
X9361015Y-12724674D01*
X9361015Y-12724674D02*
X9370539Y-12686579D01*
X9370539Y-12686579D02*
X9380063Y-12667531D01*
X9380063Y-12667531D02*
X9389587Y-12658008D01*
X9389587Y-12658008D02*
X9408634Y-12648484D01*
X9561015Y-12829436D02*
X9570539Y-12838960D01*
X9570539Y-12838960D02*
X9561015Y-12848484D01*
X9561015Y-12848484D02*
X9551491Y-12838960D01*
X9551491Y-12838960D02*
X9561015Y-12829436D01*
X9561015Y-12829436D02*
X9561015Y-12848484D01*
X9694348Y-12648484D02*
X9713396Y-12648484D01*
X9713396Y-12648484D02*
X9732444Y-12658008D01*
X9732444Y-12658008D02*
X9741968Y-12667531D01*
X9741968Y-12667531D02*
X9751491Y-12686579D01*
X9751491Y-12686579D02*
X9761015Y-12724674D01*
X9761015Y-12724674D02*
X9761015Y-12772293D01*
X9761015Y-12772293D02*
X9751491Y-12810388D01*
X9751491Y-12810388D02*
X9741968Y-12829436D01*
X9741968Y-12829436D02*
X9732444Y-12838960D01*
X9732444Y-12838960D02*
X9713396Y-12848484D01*
X9713396Y-12848484D02*
X9694348Y-12848484D01*
X9694348Y-12848484D02*
X9675301Y-12838960D01*
X9675301Y-12838960D02*
X9665777Y-12829436D01*
X9665777Y-12829436D02*
X9656253Y-12810388D01*
X9656253Y-12810388D02*
X9646729Y-12772293D01*
X9646729Y-12772293D02*
X9646729Y-12724674D01*
X9646729Y-12724674D02*
X9656253Y-12686579D01*
X9656253Y-12686579D02*
X9665777Y-12667531D01*
X9665777Y-12667531D02*
X9675301Y-12658008D01*
X9675301Y-12658008D02*
X9694348Y-12648484D01*
X9827682Y-12648484D02*
X9951491Y-12648484D01*
X9951491Y-12648484D02*
X9884825Y-12724674D01*
X9884825Y-12724674D02*
X9913396Y-12724674D01*
X9913396Y-12724674D02*
X9932444Y-12734198D01*
X9932444Y-12734198D02*
X9941968Y-12743722D01*
X9941968Y-12743722D02*
X9951491Y-12762769D01*
X9951491Y-12762769D02*
X9951491Y-12810388D01*
X9951491Y-12810388D02*
X9941968Y-12829436D01*
X9941968Y-12829436D02*
X9932444Y-12838960D01*
X9932444Y-12838960D02*
X9913396Y-12848484D01*
X9913396Y-12848484D02*
X9856253Y-12848484D01*
X9856253Y-12848484D02*
X9837206Y-12838960D01*
X9837206Y-12838960D02*
X9827682Y-12829436D01*
X10075301Y-12648484D02*
X10094349Y-12648484D01*
X10094349Y-12648484D02*
X10113396Y-12658008D01*
X10113396Y-12658008D02*
X10122920Y-12667531D01*
X10122920Y-12667531D02*
X10132444Y-12686579D01*
X10132444Y-12686579D02*
X10141968Y-12724674D01*
X10141968Y-12724674D02*
X10141968Y-12772293D01*
X10141968Y-12772293D02*
X10132444Y-12810388D01*
X10132444Y-12810388D02*
X10122920Y-12829436D01*
X10122920Y-12829436D02*
X10113396Y-12838960D01*
X10113396Y-12838960D02*
X10094349Y-12848484D01*
X10094349Y-12848484D02*
X10075301Y-12848484D01*
X10075301Y-12848484D02*
X10056253Y-12838960D01*
X10056253Y-12838960D02*
X10046729Y-12829436D01*
X10046729Y-12829436D02*
X10037206Y-12810388D01*
X10037206Y-12810388D02*
X10027682Y-12772293D01*
X10027682Y-12772293D02*
X10027682Y-12724674D01*
X10027682Y-12724674D02*
X10037206Y-12686579D01*
X10037206Y-12686579D02*
X10046729Y-12667531D01*
X10046729Y-12667531D02*
X10056253Y-12658008D01*
X10056253Y-12658008D02*
X10075301Y-12648484D01*
X10265777Y-12648484D02*
X10284825Y-12648484D01*
X10284825Y-12648484D02*
X10303872Y-12658008D01*
X10303872Y-12658008D02*
X10313396Y-12667531D01*
X10313396Y-12667531D02*
X10322920Y-12686579D01*
X10322920Y-12686579D02*
X10332444Y-12724674D01*
X10332444Y-12724674D02*
X10332444Y-12772293D01*
X10332444Y-12772293D02*
X10322920Y-12810388D01*
X10322920Y-12810388D02*
X10313396Y-12829436D01*
X10313396Y-12829436D02*
X10303872Y-12838960D01*
X10303872Y-12838960D02*
X10284825Y-12848484D01*
X10284825Y-12848484D02*
X10265777Y-12848484D01*
X10265777Y-12848484D02*
X10246729Y-12838960D01*
X10246729Y-12838960D02*
X10237206Y-12829436D01*
X10237206Y-12829436D02*
X10227682Y-12810388D01*
X10227682Y-12810388D02*
X10218158Y-12772293D01*
X10218158Y-12772293D02*
X10218158Y-12724674D01*
X10218158Y-12724674D02*
X10227682Y-12686579D01*
X10227682Y-12686579D02*
X10237206Y-12667531D01*
X10237206Y-12667531D02*
X10246729Y-12658008D01*
X10246729Y-12658008D02*
X10265777Y-12648484D01*
X10408634Y-12648484D02*
X10408634Y-12686579D01*
X10484825Y-12648484D02*
X10484825Y-12686579D01*
X10780063Y-12924674D02*
X10770539Y-12915150D01*
X10770539Y-12915150D02*
X10751491Y-12886579D01*
X10751491Y-12886579D02*
X10741968Y-12867531D01*
X10741968Y-12867531D02*
X10732444Y-12838960D01*
X10732444Y-12838960D02*
X10722920Y-12791341D01*
X10722920Y-12791341D02*
X10722920Y-12753246D01*
X10722920Y-12753246D02*
X10732444Y-12705627D01*
X10732444Y-12705627D02*
X10741968Y-12677055D01*
X10741968Y-12677055D02*
X10751491Y-12658008D01*
X10751491Y-12658008D02*
X10770539Y-12629436D01*
X10770539Y-12629436D02*
X10780063Y-12619912D01*
X10951491Y-12648484D02*
X10856253Y-12648484D01*
X10856253Y-12648484D02*
X10846730Y-12743722D01*
X10846730Y-12743722D02*
X10856253Y-12734198D01*
X10856253Y-12734198D02*
X10875301Y-12724674D01*
X10875301Y-12724674D02*
X10922920Y-12724674D01*
X10922920Y-12724674D02*
X10941968Y-12734198D01*
X10941968Y-12734198D02*
X10951491Y-12743722D01*
X10951491Y-12743722D02*
X10961015Y-12762769D01*
X10961015Y-12762769D02*
X10961015Y-12810388D01*
X10961015Y-12810388D02*
X10951491Y-12829436D01*
X10951491Y-12829436D02*
X10941968Y-12838960D01*
X10941968Y-12838960D02*
X10922920Y-12848484D01*
X10922920Y-12848484D02*
X10875301Y-12848484D01*
X10875301Y-12848484D02*
X10856253Y-12838960D01*
X10856253Y-12838960D02*
X10846730Y-12829436D01*
X11199110Y-12848484D02*
X11199110Y-12648484D01*
X11284825Y-12848484D02*
X11284825Y-12743722D01*
X11284825Y-12743722D02*
X11275301Y-12724674D01*
X11275301Y-12724674D02*
X11256253Y-12715150D01*
X11256253Y-12715150D02*
X11227682Y-12715150D01*
X11227682Y-12715150D02*
X11208634Y-12724674D01*
X11208634Y-12724674D02*
X11199110Y-12734198D01*
X11408634Y-12848484D02*
X11389587Y-12838960D01*
X11389587Y-12838960D02*
X11380063Y-12829436D01*
X11380063Y-12829436D02*
X11370539Y-12810388D01*
X11370539Y-12810388D02*
X11370539Y-12753246D01*
X11370539Y-12753246D02*
X11380063Y-12734198D01*
X11380063Y-12734198D02*
X11389587Y-12724674D01*
X11389587Y-12724674D02*
X11408634Y-12715150D01*
X11408634Y-12715150D02*
X11437206Y-12715150D01*
X11437206Y-12715150D02*
X11456253Y-12724674D01*
X11456253Y-12724674D02*
X11465777Y-12734198D01*
X11465777Y-12734198D02*
X11475301Y-12753246D01*
X11475301Y-12753246D02*
X11475301Y-12810388D01*
X11475301Y-12810388D02*
X11465777Y-12829436D01*
X11465777Y-12829436D02*
X11456253Y-12838960D01*
X11456253Y-12838960D02*
X11437206Y-12848484D01*
X11437206Y-12848484D02*
X11408634Y-12848484D01*
X11589587Y-12848484D02*
X11570539Y-12838960D01*
X11570539Y-12838960D02*
X11561015Y-12819912D01*
X11561015Y-12819912D02*
X11561015Y-12648484D01*
X11741968Y-12838960D02*
X11722920Y-12848484D01*
X11722920Y-12848484D02*
X11684825Y-12848484D01*
X11684825Y-12848484D02*
X11665777Y-12838960D01*
X11665777Y-12838960D02*
X11656253Y-12819912D01*
X11656253Y-12819912D02*
X11656253Y-12743722D01*
X11656253Y-12743722D02*
X11665777Y-12724674D01*
X11665777Y-12724674D02*
X11684825Y-12715150D01*
X11684825Y-12715150D02*
X11722920Y-12715150D01*
X11722920Y-12715150D02*
X11741968Y-12724674D01*
X11741968Y-12724674D02*
X11751491Y-12743722D01*
X11751491Y-12743722D02*
X11751491Y-12762769D01*
X11751491Y-12762769D02*
X11656253Y-12781817D01*
X11827682Y-12838960D02*
X11846730Y-12848484D01*
X11846730Y-12848484D02*
X11884825Y-12848484D01*
X11884825Y-12848484D02*
X11903872Y-12838960D01*
X11903872Y-12838960D02*
X11913396Y-12819912D01*
X11913396Y-12819912D02*
X11913396Y-12810388D01*
X11913396Y-12810388D02*
X11903872Y-12791341D01*
X11903872Y-12791341D02*
X11884825Y-12781817D01*
X11884825Y-12781817D02*
X11856253Y-12781817D01*
X11856253Y-12781817D02*
X11837206Y-12772293D01*
X11837206Y-12772293D02*
X11827682Y-12753246D01*
X11827682Y-12753246D02*
X11827682Y-12743722D01*
X11827682Y-12743722D02*
X11837206Y-12724674D01*
X11837206Y-12724674D02*
X11856253Y-12715150D01*
X11856253Y-12715150D02*
X11884825Y-12715150D01*
X11884825Y-12715150D02*
X11903872Y-12724674D01*
X11980063Y-12924674D02*
X11989587Y-12915150D01*
X11989587Y-12915150D02*
X12008634Y-12886579D01*
X12008634Y-12886579D02*
X12018158Y-12867531D01*
X12018158Y-12867531D02*
X12027682Y-12838960D01*
X12027682Y-12838960D02*
X12037206Y-12791341D01*
X12037206Y-12791341D02*
X12037206Y-12753246D01*
X12037206Y-12753246D02*
X12027682Y-12705627D01*
X12027682Y-12705627D02*
X12018158Y-12677055D01*
X12018158Y-12677055D02*
X12008634Y-12658008D01*
X12008634Y-12658008D02*
X11989587Y-12629436D01*
X11989587Y-12629436D02*
X11980063Y-12619912D01*
X12341968Y-12924674D02*
X12332444Y-12915150D01*
X12332444Y-12915150D02*
X12313396Y-12886579D01*
X12313396Y-12886579D02*
X12303872Y-12867531D01*
X12303872Y-12867531D02*
X12294349Y-12838960D01*
X12294349Y-12838960D02*
X12284825Y-12791341D01*
X12284825Y-12791341D02*
X12284825Y-12753246D01*
X12284825Y-12753246D02*
X12294349Y-12705627D01*
X12294349Y-12705627D02*
X12303872Y-12677055D01*
X12303872Y-12677055D02*
X12313396Y-12658008D01*
X12313396Y-12658008D02*
X12332444Y-12629436D01*
X12332444Y-12629436D02*
X12341968Y-12619912D01*
X12418158Y-12715150D02*
X12418158Y-12848484D01*
X12418158Y-12734198D02*
X12427682Y-12724674D01*
X12427682Y-12724674D02*
X12446730Y-12715150D01*
X12446730Y-12715150D02*
X12475301Y-12715150D01*
X12475301Y-12715150D02*
X12494349Y-12724674D01*
X12494349Y-12724674D02*
X12503872Y-12743722D01*
X12503872Y-12743722D02*
X12503872Y-12848484D01*
X12627682Y-12848484D02*
X12608634Y-12838960D01*
X12608634Y-12838960D02*
X12599111Y-12829436D01*
X12599111Y-12829436D02*
X12589587Y-12810388D01*
X12589587Y-12810388D02*
X12589587Y-12753246D01*
X12589587Y-12753246D02*
X12599111Y-12734198D01*
X12599111Y-12734198D02*
X12608634Y-12724674D01*
X12608634Y-12724674D02*
X12627682Y-12715150D01*
X12627682Y-12715150D02*
X12656253Y-12715150D01*
X12656253Y-12715150D02*
X12675301Y-12724674D01*
X12675301Y-12724674D02*
X12684825Y-12734198D01*
X12684825Y-12734198D02*
X12694349Y-12753246D01*
X12694349Y-12753246D02*
X12694349Y-12810388D01*
X12694349Y-12810388D02*
X12684825Y-12829436D01*
X12684825Y-12829436D02*
X12675301Y-12838960D01*
X12675301Y-12838960D02*
X12656253Y-12848484D01*
X12656253Y-12848484D02*
X12627682Y-12848484D01*
X12751492Y-12715150D02*
X12827682Y-12715150D01*
X12780063Y-12648484D02*
X12780063Y-12819912D01*
X12780063Y-12819912D02*
X12789587Y-12838960D01*
X12789587Y-12838960D02*
X12808634Y-12848484D01*
X12808634Y-12848484D02*
X12827682Y-12848484D01*
X13046730Y-12715150D02*
X13046730Y-12915150D01*
X13046730Y-12724674D02*
X13065777Y-12715150D01*
X13065777Y-12715150D02*
X13103873Y-12715150D01*
X13103873Y-12715150D02*
X13122920Y-12724674D01*
X13122920Y-12724674D02*
X13132444Y-12734198D01*
X13132444Y-12734198D02*
X13141968Y-12753246D01*
X13141968Y-12753246D02*
X13141968Y-12810388D01*
X13141968Y-12810388D02*
X13132444Y-12829436D01*
X13132444Y-12829436D02*
X13122920Y-12838960D01*
X13122920Y-12838960D02*
X13103873Y-12848484D01*
X13103873Y-12848484D02*
X13065777Y-12848484D01*
X13065777Y-12848484D02*
X13046730Y-12838960D01*
X13256253Y-12848484D02*
X13237206Y-12838960D01*
X13237206Y-12838960D02*
X13227682Y-12819912D01*
X13227682Y-12819912D02*
X13227682Y-12648484D01*
X13418158Y-12848484D02*
X13418158Y-12743722D01*
X13418158Y-12743722D02*
X13408634Y-12724674D01*
X13408634Y-12724674D02*
X13389587Y-12715150D01*
X13389587Y-12715150D02*
X13351492Y-12715150D01*
X13351492Y-12715150D02*
X13332444Y-12724674D01*
X13418158Y-12838960D02*
X13399111Y-12848484D01*
X13399111Y-12848484D02*
X13351492Y-12848484D01*
X13351492Y-12848484D02*
X13332444Y-12838960D01*
X13332444Y-12838960D02*
X13322920Y-12819912D01*
X13322920Y-12819912D02*
X13322920Y-12800865D01*
X13322920Y-12800865D02*
X13332444Y-12781817D01*
X13332444Y-12781817D02*
X13351492Y-12772293D01*
X13351492Y-12772293D02*
X13399111Y-12772293D01*
X13399111Y-12772293D02*
X13418158Y-12762769D01*
X13484825Y-12715150D02*
X13561015Y-12715150D01*
X13513396Y-12648484D02*
X13513396Y-12819912D01*
X13513396Y-12819912D02*
X13522920Y-12838960D01*
X13522920Y-12838960D02*
X13541968Y-12848484D01*
X13541968Y-12848484D02*
X13561015Y-12848484D01*
X13703873Y-12838960D02*
X13684825Y-12848484D01*
X13684825Y-12848484D02*
X13646730Y-12848484D01*
X13646730Y-12848484D02*
X13627682Y-12838960D01*
X13627682Y-12838960D02*
X13618158Y-12819912D01*
X13618158Y-12819912D02*
X13618158Y-12743722D01*
X13618158Y-12743722D02*
X13627682Y-12724674D01*
X13627682Y-12724674D02*
X13646730Y-12715150D01*
X13646730Y-12715150D02*
X13684825Y-12715150D01*
X13684825Y-12715150D02*
X13703873Y-12724674D01*
X13703873Y-12724674D02*
X13713396Y-12743722D01*
X13713396Y-12743722D02*
X13713396Y-12762769D01*
X13713396Y-12762769D02*
X13618158Y-12781817D01*
X13884825Y-12848484D02*
X13884825Y-12648484D01*
X13884825Y-12838960D02*
X13865777Y-12848484D01*
X13865777Y-12848484D02*
X13827682Y-12848484D01*
X13827682Y-12848484D02*
X13808634Y-12838960D01*
X13808634Y-12838960D02*
X13799111Y-12829436D01*
X13799111Y-12829436D02*
X13789587Y-12810388D01*
X13789587Y-12810388D02*
X13789587Y-12753246D01*
X13789587Y-12753246D02*
X13799111Y-12734198D01*
X13799111Y-12734198D02*
X13808634Y-12724674D01*
X13808634Y-12724674D02*
X13827682Y-12715150D01*
X13827682Y-12715150D02*
X13865777Y-12715150D01*
X13865777Y-12715150D02*
X13884825Y-12724674D01*
X13961015Y-12924674D02*
X13970539Y-12915150D01*
X13970539Y-12915150D02*
X13989587Y-12886579D01*
X13989587Y-12886579D02*
X13999111Y-12867531D01*
X13999111Y-12867531D02*
X14008634Y-12838960D01*
X14008634Y-12838960D02*
X14018158Y-12791341D01*
X14018158Y-12791341D02*
X14018158Y-12753246D01*
X14018158Y-12753246D02*
X14008634Y-12705627D01*
X14008634Y-12705627D02*
X13999111Y-12677055D01*
X13999111Y-12677055D02*
X13989587Y-12658008D01*
X13989587Y-12658008D02*
X13970539Y-12629436D01*
X13970539Y-12629436D02*
X13961015Y-12619912D01*
D12*
X7205000Y-13021000D02*
G75*
G02*
X7055000Y-13021000I-75000J0D01*
G01*
X7055000Y-13021000D02*
G75*
G02*
X7205000Y-13021000I75000J0D01*
G01*
D11*
X7570539Y-13112484D02*
X7456253Y-13112484D01*
X7513396Y-13112484D02*
X7513396Y-12912484D01*
X7513396Y-12912484D02*
X7494348Y-12941055D01*
X7494348Y-12941055D02*
X7475301Y-12960103D01*
X7475301Y-12960103D02*
X7456253Y-12969627D01*
X7656253Y-13093436D02*
X7665777Y-13102960D01*
X7665777Y-13102960D02*
X7656253Y-13112484D01*
X7656253Y-13112484D02*
X7646729Y-13102960D01*
X7646729Y-13102960D02*
X7656253Y-13093436D01*
X7656253Y-13093436D02*
X7656253Y-13112484D01*
X7846729Y-12912484D02*
X7751491Y-12912484D01*
X7751491Y-12912484D02*
X7741967Y-13007722D01*
X7741967Y-13007722D02*
X7751491Y-12998198D01*
X7751491Y-12998198D02*
X7770539Y-12988674D01*
X7770539Y-12988674D02*
X7818158Y-12988674D01*
X7818158Y-12988674D02*
X7837205Y-12998198D01*
X7837205Y-12998198D02*
X7846729Y-13007722D01*
X7846729Y-13007722D02*
X7856253Y-13026769D01*
X7856253Y-13026769D02*
X7856253Y-13074388D01*
X7856253Y-13074388D02*
X7846729Y-13093436D01*
X7846729Y-13093436D02*
X7837205Y-13102960D01*
X7837205Y-13102960D02*
X7818158Y-13112484D01*
X7818158Y-13112484D02*
X7770539Y-13112484D01*
X7770539Y-13112484D02*
X7751491Y-13102960D01*
X7751491Y-13102960D02*
X7741967Y-13093436D01*
X7980062Y-12912484D02*
X7999110Y-12912484D01*
X7999110Y-12912484D02*
X8018158Y-12922008D01*
X8018158Y-12922008D02*
X8027682Y-12931531D01*
X8027682Y-12931531D02*
X8037205Y-12950579D01*
X8037205Y-12950579D02*
X8046729Y-12988674D01*
X8046729Y-12988674D02*
X8046729Y-13036293D01*
X8046729Y-13036293D02*
X8037205Y-13074388D01*
X8037205Y-13074388D02*
X8027682Y-13093436D01*
X8027682Y-13093436D02*
X8018158Y-13102960D01*
X8018158Y-13102960D02*
X7999110Y-13112484D01*
X7999110Y-13112484D02*
X7980062Y-13112484D01*
X7980062Y-13112484D02*
X7961015Y-13102960D01*
X7961015Y-13102960D02*
X7951491Y-13093436D01*
X7951491Y-13093436D02*
X7941967Y-13074388D01*
X7941967Y-13074388D02*
X7932443Y-13036293D01*
X7932443Y-13036293D02*
X7932443Y-12988674D01*
X7932443Y-12988674D02*
X7941967Y-12950579D01*
X7941967Y-12950579D02*
X7951491Y-12931531D01*
X7951491Y-12931531D02*
X7961015Y-12922008D01*
X7961015Y-12922008D02*
X7980062Y-12912484D01*
X8170539Y-12912484D02*
X8189586Y-12912484D01*
X8189586Y-12912484D02*
X8208634Y-12922008D01*
X8208634Y-12922008D02*
X8218158Y-12931531D01*
X8218158Y-12931531D02*
X8227682Y-12950579D01*
X8227682Y-12950579D02*
X8237205Y-12988674D01*
X8237205Y-12988674D02*
X8237205Y-13036293D01*
X8237205Y-13036293D02*
X8227682Y-13074388D01*
X8227682Y-13074388D02*
X8218158Y-13093436D01*
X8218158Y-13093436D02*
X8208634Y-13102960D01*
X8208634Y-13102960D02*
X8189586Y-13112484D01*
X8189586Y-13112484D02*
X8170539Y-13112484D01*
X8170539Y-13112484D02*
X8151491Y-13102960D01*
X8151491Y-13102960D02*
X8141967Y-13093436D01*
X8141967Y-13093436D02*
X8132443Y-13074388D01*
X8132443Y-13074388D02*
X8122920Y-13036293D01*
X8122920Y-13036293D02*
X8122920Y-12988674D01*
X8122920Y-12988674D02*
X8132443Y-12950579D01*
X8132443Y-12950579D02*
X8141967Y-12931531D01*
X8141967Y-12931531D02*
X8151491Y-12922008D01*
X8151491Y-12922008D02*
X8170539Y-12912484D01*
X8322920Y-13112484D02*
X8322920Y-12979150D01*
X8322920Y-12998198D02*
X8332443Y-12988674D01*
X8332443Y-12988674D02*
X8351491Y-12979150D01*
X8351491Y-12979150D02*
X8380063Y-12979150D01*
X8380063Y-12979150D02*
X8399110Y-12988674D01*
X8399110Y-12988674D02*
X8408634Y-13007722D01*
X8408634Y-13007722D02*
X8408634Y-13112484D01*
X8408634Y-13007722D02*
X8418158Y-12988674D01*
X8418158Y-12988674D02*
X8437205Y-12979150D01*
X8437205Y-12979150D02*
X8465777Y-12979150D01*
X8465777Y-12979150D02*
X8484825Y-12988674D01*
X8484825Y-12988674D02*
X8494348Y-13007722D01*
X8494348Y-13007722D02*
X8494348Y-13112484D01*
X8589586Y-13112484D02*
X8589586Y-12979150D01*
X8589586Y-12998198D02*
X8599110Y-12988674D01*
X8599110Y-12988674D02*
X8618158Y-12979150D01*
X8618158Y-12979150D02*
X8646729Y-12979150D01*
X8646729Y-12979150D02*
X8665777Y-12988674D01*
X8665777Y-12988674D02*
X8675301Y-13007722D01*
X8675301Y-13007722D02*
X8675301Y-13112484D01*
X8675301Y-13007722D02*
X8684825Y-12988674D01*
X8684825Y-12988674D02*
X8703872Y-12979150D01*
X8703872Y-12979150D02*
X8732444Y-12979150D01*
X8732444Y-12979150D02*
X8751491Y-12988674D01*
X8751491Y-12988674D02*
X8761015Y-13007722D01*
X8761015Y-13007722D02*
X8761015Y-13112484D01*
X9151491Y-12902960D02*
X8980063Y-13160103D01*
X9408634Y-12912484D02*
X9427682Y-12912484D01*
X9427682Y-12912484D02*
X9446729Y-12922008D01*
X9446729Y-12922008D02*
X9456253Y-12931531D01*
X9456253Y-12931531D02*
X9465777Y-12950579D01*
X9465777Y-12950579D02*
X9475301Y-12988674D01*
X9475301Y-12988674D02*
X9475301Y-13036293D01*
X9475301Y-13036293D02*
X9465777Y-13074388D01*
X9465777Y-13074388D02*
X9456253Y-13093436D01*
X9456253Y-13093436D02*
X9446729Y-13102960D01*
X9446729Y-13102960D02*
X9427682Y-13112484D01*
X9427682Y-13112484D02*
X9408634Y-13112484D01*
X9408634Y-13112484D02*
X9389587Y-13102960D01*
X9389587Y-13102960D02*
X9380063Y-13093436D01*
X9380063Y-13093436D02*
X9370539Y-13074388D01*
X9370539Y-13074388D02*
X9361015Y-13036293D01*
X9361015Y-13036293D02*
X9361015Y-12988674D01*
X9361015Y-12988674D02*
X9370539Y-12950579D01*
X9370539Y-12950579D02*
X9380063Y-12931531D01*
X9380063Y-12931531D02*
X9389587Y-12922008D01*
X9389587Y-12922008D02*
X9408634Y-12912484D01*
X9561015Y-13093436D02*
X9570539Y-13102960D01*
X9570539Y-13102960D02*
X9561015Y-13112484D01*
X9561015Y-13112484D02*
X9551491Y-13102960D01*
X9551491Y-13102960D02*
X9561015Y-13093436D01*
X9561015Y-13093436D02*
X9561015Y-13112484D01*
X9694348Y-12912484D02*
X9713396Y-12912484D01*
X9713396Y-12912484D02*
X9732444Y-12922008D01*
X9732444Y-12922008D02*
X9741968Y-12931531D01*
X9741968Y-12931531D02*
X9751491Y-12950579D01*
X9751491Y-12950579D02*
X9761015Y-12988674D01*
X9761015Y-12988674D02*
X9761015Y-13036293D01*
X9761015Y-13036293D02*
X9751491Y-13074388D01*
X9751491Y-13074388D02*
X9741968Y-13093436D01*
X9741968Y-13093436D02*
X9732444Y-13102960D01*
X9732444Y-13102960D02*
X9713396Y-13112484D01*
X9713396Y-13112484D02*
X9694348Y-13112484D01*
X9694348Y-13112484D02*
X9675301Y-13102960D01*
X9675301Y-13102960D02*
X9665777Y-13093436D01*
X9665777Y-13093436D02*
X9656253Y-13074388D01*
X9656253Y-13074388D02*
X9646729Y-13036293D01*
X9646729Y-13036293D02*
X9646729Y-12988674D01*
X9646729Y-12988674D02*
X9656253Y-12950579D01*
X9656253Y-12950579D02*
X9665777Y-12931531D01*
X9665777Y-12931531D02*
X9675301Y-12922008D01*
X9675301Y-12922008D02*
X9694348Y-12912484D01*
X9941968Y-12912484D02*
X9846729Y-12912484D01*
X9846729Y-12912484D02*
X9837206Y-13007722D01*
X9837206Y-13007722D02*
X9846729Y-12998198D01*
X9846729Y-12998198D02*
X9865777Y-12988674D01*
X9865777Y-12988674D02*
X9913396Y-12988674D01*
X9913396Y-12988674D02*
X9932444Y-12998198D01*
X9932444Y-12998198D02*
X9941968Y-13007722D01*
X9941968Y-13007722D02*
X9951491Y-13026769D01*
X9951491Y-13026769D02*
X9951491Y-13074388D01*
X9951491Y-13074388D02*
X9941968Y-13093436D01*
X9941968Y-13093436D02*
X9932444Y-13102960D01*
X9932444Y-13102960D02*
X9913396Y-13112484D01*
X9913396Y-13112484D02*
X9865777Y-13112484D01*
X9865777Y-13112484D02*
X9846729Y-13102960D01*
X9846729Y-13102960D02*
X9837206Y-13093436D01*
X10046729Y-13112484D02*
X10084825Y-13112484D01*
X10084825Y-13112484D02*
X10103872Y-13102960D01*
X10103872Y-13102960D02*
X10113396Y-13093436D01*
X10113396Y-13093436D02*
X10132444Y-13064865D01*
X10132444Y-13064865D02*
X10141968Y-13026769D01*
X10141968Y-13026769D02*
X10141968Y-12950579D01*
X10141968Y-12950579D02*
X10132444Y-12931531D01*
X10132444Y-12931531D02*
X10122920Y-12922008D01*
X10122920Y-12922008D02*
X10103872Y-12912484D01*
X10103872Y-12912484D02*
X10065777Y-12912484D01*
X10065777Y-12912484D02*
X10046729Y-12922008D01*
X10046729Y-12922008D02*
X10037206Y-12931531D01*
X10037206Y-12931531D02*
X10027682Y-12950579D01*
X10027682Y-12950579D02*
X10027682Y-12998198D01*
X10027682Y-12998198D02*
X10037206Y-13017246D01*
X10037206Y-13017246D02*
X10046729Y-13026769D01*
X10046729Y-13026769D02*
X10065777Y-13036293D01*
X10065777Y-13036293D02*
X10103872Y-13036293D01*
X10103872Y-13036293D02*
X10122920Y-13026769D01*
X10122920Y-13026769D02*
X10132444Y-13017246D01*
X10132444Y-13017246D02*
X10141968Y-12998198D01*
X10332444Y-13112484D02*
X10218158Y-13112484D01*
X10275301Y-13112484D02*
X10275301Y-12912484D01*
X10275301Y-12912484D02*
X10256253Y-12941055D01*
X10256253Y-12941055D02*
X10237206Y-12960103D01*
X10237206Y-12960103D02*
X10218158Y-12969627D01*
X10408634Y-12912484D02*
X10408634Y-12950579D01*
X10484825Y-12912484D02*
X10484825Y-12950579D01*
X10780063Y-13188674D02*
X10770539Y-13179150D01*
X10770539Y-13179150D02*
X10751491Y-13150579D01*
X10751491Y-13150579D02*
X10741968Y-13131531D01*
X10741968Y-13131531D02*
X10732444Y-13102960D01*
X10732444Y-13102960D02*
X10722920Y-13055341D01*
X10722920Y-13055341D02*
X10722920Y-13017246D01*
X10722920Y-13017246D02*
X10732444Y-12969627D01*
X10732444Y-12969627D02*
X10741968Y-12941055D01*
X10741968Y-12941055D02*
X10751491Y-12922008D01*
X10751491Y-12922008D02*
X10770539Y-12893436D01*
X10770539Y-12893436D02*
X10780063Y-12883912D01*
X10941968Y-12979150D02*
X10941968Y-13112484D01*
X10894349Y-12902960D02*
X10846730Y-13045817D01*
X10846730Y-13045817D02*
X10970539Y-13045817D01*
X11199110Y-13112484D02*
X11199110Y-12912484D01*
X11284825Y-13112484D02*
X11284825Y-13007722D01*
X11284825Y-13007722D02*
X11275301Y-12988674D01*
X11275301Y-12988674D02*
X11256253Y-12979150D01*
X11256253Y-12979150D02*
X11227682Y-12979150D01*
X11227682Y-12979150D02*
X11208634Y-12988674D01*
X11208634Y-12988674D02*
X11199110Y-12998198D01*
X11408634Y-13112484D02*
X11389587Y-13102960D01*
X11389587Y-13102960D02*
X11380063Y-13093436D01*
X11380063Y-13093436D02*
X11370539Y-13074388D01*
X11370539Y-13074388D02*
X11370539Y-13017246D01*
X11370539Y-13017246D02*
X11380063Y-12998198D01*
X11380063Y-12998198D02*
X11389587Y-12988674D01*
X11389587Y-12988674D02*
X11408634Y-12979150D01*
X11408634Y-12979150D02*
X11437206Y-12979150D01*
X11437206Y-12979150D02*
X11456253Y-12988674D01*
X11456253Y-12988674D02*
X11465777Y-12998198D01*
X11465777Y-12998198D02*
X11475301Y-13017246D01*
X11475301Y-13017246D02*
X11475301Y-13074388D01*
X11475301Y-13074388D02*
X11465777Y-13093436D01*
X11465777Y-13093436D02*
X11456253Y-13102960D01*
X11456253Y-13102960D02*
X11437206Y-13112484D01*
X11437206Y-13112484D02*
X11408634Y-13112484D01*
X11589587Y-13112484D02*
X11570539Y-13102960D01*
X11570539Y-13102960D02*
X11561015Y-13083912D01*
X11561015Y-13083912D02*
X11561015Y-12912484D01*
X11741968Y-13102960D02*
X11722920Y-13112484D01*
X11722920Y-13112484D02*
X11684825Y-13112484D01*
X11684825Y-13112484D02*
X11665777Y-13102960D01*
X11665777Y-13102960D02*
X11656253Y-13083912D01*
X11656253Y-13083912D02*
X11656253Y-13007722D01*
X11656253Y-13007722D02*
X11665777Y-12988674D01*
X11665777Y-12988674D02*
X11684825Y-12979150D01*
X11684825Y-12979150D02*
X11722920Y-12979150D01*
X11722920Y-12979150D02*
X11741968Y-12988674D01*
X11741968Y-12988674D02*
X11751491Y-13007722D01*
X11751491Y-13007722D02*
X11751491Y-13026769D01*
X11751491Y-13026769D02*
X11656253Y-13045817D01*
X11827682Y-13102960D02*
X11846730Y-13112484D01*
X11846730Y-13112484D02*
X11884825Y-13112484D01*
X11884825Y-13112484D02*
X11903872Y-13102960D01*
X11903872Y-13102960D02*
X11913396Y-13083912D01*
X11913396Y-13083912D02*
X11913396Y-13074388D01*
X11913396Y-13074388D02*
X11903872Y-13055341D01*
X11903872Y-13055341D02*
X11884825Y-13045817D01*
X11884825Y-13045817D02*
X11856253Y-13045817D01*
X11856253Y-13045817D02*
X11837206Y-13036293D01*
X11837206Y-13036293D02*
X11827682Y-13017246D01*
X11827682Y-13017246D02*
X11827682Y-13007722D01*
X11827682Y-13007722D02*
X11837206Y-12988674D01*
X11837206Y-12988674D02*
X11856253Y-12979150D01*
X11856253Y-12979150D02*
X11884825Y-12979150D01*
X11884825Y-12979150D02*
X11903872Y-12988674D01*
X11980063Y-13188674D02*
X11989587Y-13179150D01*
X11989587Y-13179150D02*
X12008634Y-13150579D01*
X12008634Y-13150579D02*
X12018158Y-13131531D01*
X12018158Y-13131531D02*
X12027682Y-13102960D01*
X12027682Y-13102960D02*
X12037206Y-13055341D01*
X12037206Y-13055341D02*
X12037206Y-13017246D01*
X12037206Y-13017246D02*
X12027682Y-12969627D01*
X12027682Y-12969627D02*
X12018158Y-12941055D01*
X12018158Y-12941055D02*
X12008634Y-12922008D01*
X12008634Y-12922008D02*
X11989587Y-12893436D01*
X11989587Y-12893436D02*
X11980063Y-12883912D01*
X12341968Y-13188674D02*
X12332444Y-13179150D01*
X12332444Y-13179150D02*
X12313396Y-13150579D01*
X12313396Y-13150579D02*
X12303872Y-13131531D01*
X12303872Y-13131531D02*
X12294349Y-13102960D01*
X12294349Y-13102960D02*
X12284825Y-13055341D01*
X12284825Y-13055341D02*
X12284825Y-13017246D01*
X12284825Y-13017246D02*
X12294349Y-12969627D01*
X12294349Y-12969627D02*
X12303872Y-12941055D01*
X12303872Y-12941055D02*
X12313396Y-12922008D01*
X12313396Y-12922008D02*
X12332444Y-12893436D01*
X12332444Y-12893436D02*
X12341968Y-12883912D01*
X12418158Y-12979150D02*
X12418158Y-13112484D01*
X12418158Y-12998198D02*
X12427682Y-12988674D01*
X12427682Y-12988674D02*
X12446730Y-12979150D01*
X12446730Y-12979150D02*
X12475301Y-12979150D01*
X12475301Y-12979150D02*
X12494349Y-12988674D01*
X12494349Y-12988674D02*
X12503872Y-13007722D01*
X12503872Y-13007722D02*
X12503872Y-13112484D01*
X12627682Y-13112484D02*
X12608634Y-13102960D01*
X12608634Y-13102960D02*
X12599111Y-13093436D01*
X12599111Y-13093436D02*
X12589587Y-13074388D01*
X12589587Y-13074388D02*
X12589587Y-13017246D01*
X12589587Y-13017246D02*
X12599111Y-12998198D01*
X12599111Y-12998198D02*
X12608634Y-12988674D01*
X12608634Y-12988674D02*
X12627682Y-12979150D01*
X12627682Y-12979150D02*
X12656253Y-12979150D01*
X12656253Y-12979150D02*
X12675301Y-12988674D01*
X12675301Y-12988674D02*
X12684825Y-12998198D01*
X12684825Y-12998198D02*
X12694349Y-13017246D01*
X12694349Y-13017246D02*
X12694349Y-13074388D01*
X12694349Y-13074388D02*
X12684825Y-13093436D01*
X12684825Y-13093436D02*
X12675301Y-13102960D01*
X12675301Y-13102960D02*
X12656253Y-13112484D01*
X12656253Y-13112484D02*
X12627682Y-13112484D01*
X12751492Y-12979150D02*
X12827682Y-12979150D01*
X12780063Y-12912484D02*
X12780063Y-13083912D01*
X12780063Y-13083912D02*
X12789587Y-13102960D01*
X12789587Y-13102960D02*
X12808634Y-13112484D01*
X12808634Y-13112484D02*
X12827682Y-13112484D01*
X13046730Y-12979150D02*
X13046730Y-13179150D01*
X13046730Y-12988674D02*
X13065777Y-12979150D01*
X13065777Y-12979150D02*
X13103873Y-12979150D01*
X13103873Y-12979150D02*
X13122920Y-12988674D01*
X13122920Y-12988674D02*
X13132444Y-12998198D01*
X13132444Y-12998198D02*
X13141968Y-13017246D01*
X13141968Y-13017246D02*
X13141968Y-13074388D01*
X13141968Y-13074388D02*
X13132444Y-13093436D01*
X13132444Y-13093436D02*
X13122920Y-13102960D01*
X13122920Y-13102960D02*
X13103873Y-13112484D01*
X13103873Y-13112484D02*
X13065777Y-13112484D01*
X13065777Y-13112484D02*
X13046730Y-13102960D01*
X13256253Y-13112484D02*
X13237206Y-13102960D01*
X13237206Y-13102960D02*
X13227682Y-13083912D01*
X13227682Y-13083912D02*
X13227682Y-12912484D01*
X13418158Y-13112484D02*
X13418158Y-13007722D01*
X13418158Y-13007722D02*
X13408634Y-12988674D01*
X13408634Y-12988674D02*
X13389587Y-12979150D01*
X13389587Y-12979150D02*
X13351492Y-12979150D01*
X13351492Y-12979150D02*
X13332444Y-12988674D01*
X13418158Y-13102960D02*
X13399111Y-13112484D01*
X13399111Y-13112484D02*
X13351492Y-13112484D01*
X13351492Y-13112484D02*
X13332444Y-13102960D01*
X13332444Y-13102960D02*
X13322920Y-13083912D01*
X13322920Y-13083912D02*
X13322920Y-13064865D01*
X13322920Y-13064865D02*
X13332444Y-13045817D01*
X13332444Y-13045817D02*
X13351492Y-13036293D01*
X13351492Y-13036293D02*
X13399111Y-13036293D01*
X13399111Y-13036293D02*
X13418158Y-13026769D01*
X13484825Y-12979150D02*
X13561015Y-12979150D01*
X13513396Y-12912484D02*
X13513396Y-13083912D01*
X13513396Y-13083912D02*
X13522920Y-13102960D01*
X13522920Y-13102960D02*
X13541968Y-13112484D01*
X13541968Y-13112484D02*
X13561015Y-13112484D01*
X13703873Y-13102960D02*
X13684825Y-13112484D01*
X13684825Y-13112484D02*
X13646730Y-13112484D01*
X13646730Y-13112484D02*
X13627682Y-13102960D01*
X13627682Y-13102960D02*
X13618158Y-13083912D01*
X13618158Y-13083912D02*
X13618158Y-13007722D01*
X13618158Y-13007722D02*
X13627682Y-12988674D01*
X13627682Y-12988674D02*
X13646730Y-12979150D01*
X13646730Y-12979150D02*
X13684825Y-12979150D01*
X13684825Y-12979150D02*
X13703873Y-12988674D01*
X13703873Y-12988674D02*
X13713396Y-13007722D01*
X13713396Y-13007722D02*
X13713396Y-13026769D01*
X13713396Y-13026769D02*
X13618158Y-13045817D01*
X13884825Y-13112484D02*
X13884825Y-12912484D01*
X13884825Y-13102960D02*
X13865777Y-13112484D01*
X13865777Y-13112484D02*
X13827682Y-13112484D01*
X13827682Y-13112484D02*
X13808634Y-13102960D01*
X13808634Y-13102960D02*
X13799111Y-13093436D01*
X13799111Y-13093436D02*
X13789587Y-13074388D01*
X13789587Y-13074388D02*
X13789587Y-13017246D01*
X13789587Y-13017246D02*
X13799111Y-12998198D01*
X13799111Y-12998198D02*
X13808634Y-12988674D01*
X13808634Y-12988674D02*
X13827682Y-12979150D01*
X13827682Y-12979150D02*
X13865777Y-12979150D01*
X13865777Y-12979150D02*
X13884825Y-12988674D01*
X13961015Y-13188674D02*
X13970539Y-13179150D01*
X13970539Y-13179150D02*
X13989587Y-13150579D01*
X13989587Y-13150579D02*
X13999111Y-13131531D01*
X13999111Y-13131531D02*
X14008634Y-13102960D01*
X14008634Y-13102960D02*
X14018158Y-13055341D01*
X14018158Y-13055341D02*
X14018158Y-13017246D01*
X14018158Y-13017246D02*
X14008634Y-12969627D01*
X14008634Y-12969627D02*
X13999111Y-12941055D01*
X13999111Y-12941055D02*
X13989587Y-12922008D01*
X13989587Y-12922008D02*
X13970539Y-12893436D01*
X13970539Y-12893436D02*
X13961015Y-12883912D01*
D13*
X7115000Y-13201000D02*
X7115000Y-13381000D01*
X7025000Y-13291000D02*
X7205000Y-13291000D01*
D11*
X7570539Y-13382484D02*
X7456253Y-13382484D01*
X7513396Y-13382484D02*
X7513396Y-13182484D01*
X7513396Y-13182484D02*
X7494348Y-13211055D01*
X7494348Y-13211055D02*
X7475301Y-13230103D01*
X7475301Y-13230103D02*
X7456253Y-13239627D01*
X7656253Y-13363436D02*
X7665777Y-13372960D01*
X7665777Y-13372960D02*
X7656253Y-13382484D01*
X7656253Y-13382484D02*
X7646729Y-13372960D01*
X7646729Y-13372960D02*
X7656253Y-13363436D01*
X7656253Y-13363436D02*
X7656253Y-13382484D01*
X7780062Y-13268198D02*
X7761015Y-13258674D01*
X7761015Y-13258674D02*
X7751491Y-13249150D01*
X7751491Y-13249150D02*
X7741967Y-13230103D01*
X7741967Y-13230103D02*
X7741967Y-13220579D01*
X7741967Y-13220579D02*
X7751491Y-13201531D01*
X7751491Y-13201531D02*
X7761015Y-13192008D01*
X7761015Y-13192008D02*
X7780062Y-13182484D01*
X7780062Y-13182484D02*
X7818158Y-13182484D01*
X7818158Y-13182484D02*
X7837205Y-13192008D01*
X7837205Y-13192008D02*
X7846729Y-13201531D01*
X7846729Y-13201531D02*
X7856253Y-13220579D01*
X7856253Y-13220579D02*
X7856253Y-13230103D01*
X7856253Y-13230103D02*
X7846729Y-13249150D01*
X7846729Y-13249150D02*
X7837205Y-13258674D01*
X7837205Y-13258674D02*
X7818158Y-13268198D01*
X7818158Y-13268198D02*
X7780062Y-13268198D01*
X7780062Y-13268198D02*
X7761015Y-13277722D01*
X7761015Y-13277722D02*
X7751491Y-13287246D01*
X7751491Y-13287246D02*
X7741967Y-13306293D01*
X7741967Y-13306293D02*
X7741967Y-13344388D01*
X7741967Y-13344388D02*
X7751491Y-13363436D01*
X7751491Y-13363436D02*
X7761015Y-13372960D01*
X7761015Y-13372960D02*
X7780062Y-13382484D01*
X7780062Y-13382484D02*
X7818158Y-13382484D01*
X7818158Y-13382484D02*
X7837205Y-13372960D01*
X7837205Y-13372960D02*
X7846729Y-13363436D01*
X7846729Y-13363436D02*
X7856253Y-13344388D01*
X7856253Y-13344388D02*
X7856253Y-13306293D01*
X7856253Y-13306293D02*
X7846729Y-13287246D01*
X7846729Y-13287246D02*
X7837205Y-13277722D01*
X7837205Y-13277722D02*
X7818158Y-13268198D01*
X7980062Y-13182484D02*
X7999110Y-13182484D01*
X7999110Y-13182484D02*
X8018158Y-13192008D01*
X8018158Y-13192008D02*
X8027682Y-13201531D01*
X8027682Y-13201531D02*
X8037205Y-13220579D01*
X8037205Y-13220579D02*
X8046729Y-13258674D01*
X8046729Y-13258674D02*
X8046729Y-13306293D01*
X8046729Y-13306293D02*
X8037205Y-13344388D01*
X8037205Y-13344388D02*
X8027682Y-13363436D01*
X8027682Y-13363436D02*
X8018158Y-13372960D01*
X8018158Y-13372960D02*
X7999110Y-13382484D01*
X7999110Y-13382484D02*
X7980062Y-13382484D01*
X7980062Y-13382484D02*
X7961015Y-13372960D01*
X7961015Y-13372960D02*
X7951491Y-13363436D01*
X7951491Y-13363436D02*
X7941967Y-13344388D01*
X7941967Y-13344388D02*
X7932443Y-13306293D01*
X7932443Y-13306293D02*
X7932443Y-13258674D01*
X7932443Y-13258674D02*
X7941967Y-13220579D01*
X7941967Y-13220579D02*
X7951491Y-13201531D01*
X7951491Y-13201531D02*
X7961015Y-13192008D01*
X7961015Y-13192008D02*
X7980062Y-13182484D01*
X8170539Y-13182484D02*
X8189586Y-13182484D01*
X8189586Y-13182484D02*
X8208634Y-13192008D01*
X8208634Y-13192008D02*
X8218158Y-13201531D01*
X8218158Y-13201531D02*
X8227682Y-13220579D01*
X8227682Y-13220579D02*
X8237205Y-13258674D01*
X8237205Y-13258674D02*
X8237205Y-13306293D01*
X8237205Y-13306293D02*
X8227682Y-13344388D01*
X8227682Y-13344388D02*
X8218158Y-13363436D01*
X8218158Y-13363436D02*
X8208634Y-13372960D01*
X8208634Y-13372960D02*
X8189586Y-13382484D01*
X8189586Y-13382484D02*
X8170539Y-13382484D01*
X8170539Y-13382484D02*
X8151491Y-13372960D01*
X8151491Y-13372960D02*
X8141967Y-13363436D01*
X8141967Y-13363436D02*
X8132443Y-13344388D01*
X8132443Y-13344388D02*
X8122920Y-13306293D01*
X8122920Y-13306293D02*
X8122920Y-13258674D01*
X8122920Y-13258674D02*
X8132443Y-13220579D01*
X8132443Y-13220579D02*
X8141967Y-13201531D01*
X8141967Y-13201531D02*
X8151491Y-13192008D01*
X8151491Y-13192008D02*
X8170539Y-13182484D01*
X8322920Y-13382484D02*
X8322920Y-13249150D01*
X8322920Y-13268198D02*
X8332443Y-13258674D01*
X8332443Y-13258674D02*
X8351491Y-13249150D01*
X8351491Y-13249150D02*
X8380063Y-13249150D01*
X8380063Y-13249150D02*
X8399110Y-13258674D01*
X8399110Y-13258674D02*
X8408634Y-13277722D01*
X8408634Y-13277722D02*
X8408634Y-13382484D01*
X8408634Y-13277722D02*
X8418158Y-13258674D01*
X8418158Y-13258674D02*
X8437205Y-13249150D01*
X8437205Y-13249150D02*
X8465777Y-13249150D01*
X8465777Y-13249150D02*
X8484825Y-13258674D01*
X8484825Y-13258674D02*
X8494348Y-13277722D01*
X8494348Y-13277722D02*
X8494348Y-13382484D01*
X8589586Y-13382484D02*
X8589586Y-13249150D01*
X8589586Y-13268198D02*
X8599110Y-13258674D01*
X8599110Y-13258674D02*
X8618158Y-13249150D01*
X8618158Y-13249150D02*
X8646729Y-13249150D01*
X8646729Y-13249150D02*
X8665777Y-13258674D01*
X8665777Y-13258674D02*
X8675301Y-13277722D01*
X8675301Y-13277722D02*
X8675301Y-13382484D01*
X8675301Y-13277722D02*
X8684825Y-13258674D01*
X8684825Y-13258674D02*
X8703872Y-13249150D01*
X8703872Y-13249150D02*
X8732444Y-13249150D01*
X8732444Y-13249150D02*
X8751491Y-13258674D01*
X8751491Y-13258674D02*
X8761015Y-13277722D01*
X8761015Y-13277722D02*
X8761015Y-13382484D01*
X9151491Y-13172960D02*
X8980063Y-13430103D01*
X9408634Y-13182484D02*
X9427682Y-13182484D01*
X9427682Y-13182484D02*
X9446729Y-13192008D01*
X9446729Y-13192008D02*
X9456253Y-13201531D01*
X9456253Y-13201531D02*
X9465777Y-13220579D01*
X9465777Y-13220579D02*
X9475301Y-13258674D01*
X9475301Y-13258674D02*
X9475301Y-13306293D01*
X9475301Y-13306293D02*
X9465777Y-13344388D01*
X9465777Y-13344388D02*
X9456253Y-13363436D01*
X9456253Y-13363436D02*
X9446729Y-13372960D01*
X9446729Y-13372960D02*
X9427682Y-13382484D01*
X9427682Y-13382484D02*
X9408634Y-13382484D01*
X9408634Y-13382484D02*
X9389587Y-13372960D01*
X9389587Y-13372960D02*
X9380063Y-13363436D01*
X9380063Y-13363436D02*
X9370539Y-13344388D01*
X9370539Y-13344388D02*
X9361015Y-13306293D01*
X9361015Y-13306293D02*
X9361015Y-13258674D01*
X9361015Y-13258674D02*
X9370539Y-13220579D01*
X9370539Y-13220579D02*
X9380063Y-13201531D01*
X9380063Y-13201531D02*
X9389587Y-13192008D01*
X9389587Y-13192008D02*
X9408634Y-13182484D01*
X9561015Y-13363436D02*
X9570539Y-13372960D01*
X9570539Y-13372960D02*
X9561015Y-13382484D01*
X9561015Y-13382484D02*
X9551491Y-13372960D01*
X9551491Y-13372960D02*
X9561015Y-13363436D01*
X9561015Y-13363436D02*
X9561015Y-13382484D01*
X9694348Y-13182484D02*
X9713396Y-13182484D01*
X9713396Y-13182484D02*
X9732444Y-13192008D01*
X9732444Y-13192008D02*
X9741968Y-13201531D01*
X9741968Y-13201531D02*
X9751491Y-13220579D01*
X9751491Y-13220579D02*
X9761015Y-13258674D01*
X9761015Y-13258674D02*
X9761015Y-13306293D01*
X9761015Y-13306293D02*
X9751491Y-13344388D01*
X9751491Y-13344388D02*
X9741968Y-13363436D01*
X9741968Y-13363436D02*
X9732444Y-13372960D01*
X9732444Y-13372960D02*
X9713396Y-13382484D01*
X9713396Y-13382484D02*
X9694348Y-13382484D01*
X9694348Y-13382484D02*
X9675301Y-13372960D01*
X9675301Y-13372960D02*
X9665777Y-13363436D01*
X9665777Y-13363436D02*
X9656253Y-13344388D01*
X9656253Y-13344388D02*
X9646729Y-13306293D01*
X9646729Y-13306293D02*
X9646729Y-13258674D01*
X9646729Y-13258674D02*
X9656253Y-13220579D01*
X9656253Y-13220579D02*
X9665777Y-13201531D01*
X9665777Y-13201531D02*
X9675301Y-13192008D01*
X9675301Y-13192008D02*
X9694348Y-13182484D01*
X9827682Y-13182484D02*
X9961015Y-13182484D01*
X9961015Y-13182484D02*
X9875301Y-13382484D01*
X10075301Y-13182484D02*
X10094349Y-13182484D01*
X10094349Y-13182484D02*
X10113396Y-13192008D01*
X10113396Y-13192008D02*
X10122920Y-13201531D01*
X10122920Y-13201531D02*
X10132444Y-13220579D01*
X10132444Y-13220579D02*
X10141968Y-13258674D01*
X10141968Y-13258674D02*
X10141968Y-13306293D01*
X10141968Y-13306293D02*
X10132444Y-13344388D01*
X10132444Y-13344388D02*
X10122920Y-13363436D01*
X10122920Y-13363436D02*
X10113396Y-13372960D01*
X10113396Y-13372960D02*
X10094349Y-13382484D01*
X10094349Y-13382484D02*
X10075301Y-13382484D01*
X10075301Y-13382484D02*
X10056253Y-13372960D01*
X10056253Y-13372960D02*
X10046729Y-13363436D01*
X10046729Y-13363436D02*
X10037206Y-13344388D01*
X10037206Y-13344388D02*
X10027682Y-13306293D01*
X10027682Y-13306293D02*
X10027682Y-13258674D01*
X10027682Y-13258674D02*
X10037206Y-13220579D01*
X10037206Y-13220579D02*
X10046729Y-13201531D01*
X10046729Y-13201531D02*
X10056253Y-13192008D01*
X10056253Y-13192008D02*
X10075301Y-13182484D01*
X10237206Y-13382484D02*
X10275301Y-13382484D01*
X10275301Y-13382484D02*
X10294349Y-13372960D01*
X10294349Y-13372960D02*
X10303872Y-13363436D01*
X10303872Y-13363436D02*
X10322920Y-13334865D01*
X10322920Y-13334865D02*
X10332444Y-13296769D01*
X10332444Y-13296769D02*
X10332444Y-13220579D01*
X10332444Y-13220579D02*
X10322920Y-13201531D01*
X10322920Y-13201531D02*
X10313396Y-13192008D01*
X10313396Y-13192008D02*
X10294349Y-13182484D01*
X10294349Y-13182484D02*
X10256253Y-13182484D01*
X10256253Y-13182484D02*
X10237206Y-13192008D01*
X10237206Y-13192008D02*
X10227682Y-13201531D01*
X10227682Y-13201531D02*
X10218158Y-13220579D01*
X10218158Y-13220579D02*
X10218158Y-13268198D01*
X10218158Y-13268198D02*
X10227682Y-13287246D01*
X10227682Y-13287246D02*
X10237206Y-13296769D01*
X10237206Y-13296769D02*
X10256253Y-13306293D01*
X10256253Y-13306293D02*
X10294349Y-13306293D01*
X10294349Y-13306293D02*
X10313396Y-13296769D01*
X10313396Y-13296769D02*
X10322920Y-13287246D01*
X10322920Y-13287246D02*
X10332444Y-13268198D01*
X10408634Y-13182484D02*
X10408634Y-13220579D01*
X10484825Y-13182484D02*
X10484825Y-13220579D01*
X10780063Y-13458674D02*
X10770539Y-13449150D01*
X10770539Y-13449150D02*
X10751491Y-13420579D01*
X10751491Y-13420579D02*
X10741968Y-13401531D01*
X10741968Y-13401531D02*
X10732444Y-13372960D01*
X10732444Y-13372960D02*
X10722920Y-13325341D01*
X10722920Y-13325341D02*
X10722920Y-13287246D01*
X10722920Y-13287246D02*
X10732444Y-13239627D01*
X10732444Y-13239627D02*
X10741968Y-13211055D01*
X10741968Y-13211055D02*
X10751491Y-13192008D01*
X10751491Y-13192008D02*
X10770539Y-13163436D01*
X10770539Y-13163436D02*
X10780063Y-13153912D01*
X10846730Y-13201531D02*
X10856253Y-13192008D01*
X10856253Y-13192008D02*
X10875301Y-13182484D01*
X10875301Y-13182484D02*
X10922920Y-13182484D01*
X10922920Y-13182484D02*
X10941968Y-13192008D01*
X10941968Y-13192008D02*
X10951491Y-13201531D01*
X10951491Y-13201531D02*
X10961015Y-13220579D01*
X10961015Y-13220579D02*
X10961015Y-13239627D01*
X10961015Y-13239627D02*
X10951491Y-13268198D01*
X10951491Y-13268198D02*
X10837206Y-13382484D01*
X10837206Y-13382484D02*
X10961015Y-13382484D01*
X11199110Y-13382484D02*
X11199110Y-13182484D01*
X11284825Y-13382484D02*
X11284825Y-13277722D01*
X11284825Y-13277722D02*
X11275301Y-13258674D01*
X11275301Y-13258674D02*
X11256253Y-13249150D01*
X11256253Y-13249150D02*
X11227682Y-13249150D01*
X11227682Y-13249150D02*
X11208634Y-13258674D01*
X11208634Y-13258674D02*
X11199110Y-13268198D01*
X11408634Y-13382484D02*
X11389587Y-13372960D01*
X11389587Y-13372960D02*
X11380063Y-13363436D01*
X11380063Y-13363436D02*
X11370539Y-13344388D01*
X11370539Y-13344388D02*
X11370539Y-13287246D01*
X11370539Y-13287246D02*
X11380063Y-13268198D01*
X11380063Y-13268198D02*
X11389587Y-13258674D01*
X11389587Y-13258674D02*
X11408634Y-13249150D01*
X11408634Y-13249150D02*
X11437206Y-13249150D01*
X11437206Y-13249150D02*
X11456253Y-13258674D01*
X11456253Y-13258674D02*
X11465777Y-13268198D01*
X11465777Y-13268198D02*
X11475301Y-13287246D01*
X11475301Y-13287246D02*
X11475301Y-13344388D01*
X11475301Y-13344388D02*
X11465777Y-13363436D01*
X11465777Y-13363436D02*
X11456253Y-13372960D01*
X11456253Y-13372960D02*
X11437206Y-13382484D01*
X11437206Y-13382484D02*
X11408634Y-13382484D01*
X11589587Y-13382484D02*
X11570539Y-13372960D01*
X11570539Y-13372960D02*
X11561015Y-13353912D01*
X11561015Y-13353912D02*
X11561015Y-13182484D01*
X11741968Y-13372960D02*
X11722920Y-13382484D01*
X11722920Y-13382484D02*
X11684825Y-13382484D01*
X11684825Y-13382484D02*
X11665777Y-13372960D01*
X11665777Y-13372960D02*
X11656253Y-13353912D01*
X11656253Y-13353912D02*
X11656253Y-13277722D01*
X11656253Y-13277722D02*
X11665777Y-13258674D01*
X11665777Y-13258674D02*
X11684825Y-13249150D01*
X11684825Y-13249150D02*
X11722920Y-13249150D01*
X11722920Y-13249150D02*
X11741968Y-13258674D01*
X11741968Y-13258674D02*
X11751491Y-13277722D01*
X11751491Y-13277722D02*
X11751491Y-13296769D01*
X11751491Y-13296769D02*
X11656253Y-13315817D01*
X11827682Y-13372960D02*
X11846730Y-13382484D01*
X11846730Y-13382484D02*
X11884825Y-13382484D01*
X11884825Y-13382484D02*
X11903872Y-13372960D01*
X11903872Y-13372960D02*
X11913396Y-13353912D01*
X11913396Y-13353912D02*
X11913396Y-13344388D01*
X11913396Y-13344388D02*
X11903872Y-13325341D01*
X11903872Y-13325341D02*
X11884825Y-13315817D01*
X11884825Y-13315817D02*
X11856253Y-13315817D01*
X11856253Y-13315817D02*
X11837206Y-13306293D01*
X11837206Y-13306293D02*
X11827682Y-13287246D01*
X11827682Y-13287246D02*
X11827682Y-13277722D01*
X11827682Y-13277722D02*
X11837206Y-13258674D01*
X11837206Y-13258674D02*
X11856253Y-13249150D01*
X11856253Y-13249150D02*
X11884825Y-13249150D01*
X11884825Y-13249150D02*
X11903872Y-13258674D01*
X11980063Y-13458674D02*
X11989587Y-13449150D01*
X11989587Y-13449150D02*
X12008634Y-13420579D01*
X12008634Y-13420579D02*
X12018158Y-13401531D01*
X12018158Y-13401531D02*
X12027682Y-13372960D01*
X12027682Y-13372960D02*
X12037206Y-13325341D01*
X12037206Y-13325341D02*
X12037206Y-13287246D01*
X12037206Y-13287246D02*
X12027682Y-13239627D01*
X12027682Y-13239627D02*
X12018158Y-13211055D01*
X12018158Y-13211055D02*
X12008634Y-13192008D01*
X12008634Y-13192008D02*
X11989587Y-13163436D01*
X11989587Y-13163436D02*
X11980063Y-13153912D01*
X12341968Y-13458674D02*
X12332444Y-13449150D01*
X12332444Y-13449150D02*
X12313396Y-13420579D01*
X12313396Y-13420579D02*
X12303872Y-13401531D01*
X12303872Y-13401531D02*
X12294349Y-13372960D01*
X12294349Y-13372960D02*
X12284825Y-13325341D01*
X12284825Y-13325341D02*
X12284825Y-13287246D01*
X12284825Y-13287246D02*
X12294349Y-13239627D01*
X12294349Y-13239627D02*
X12303872Y-13211055D01*
X12303872Y-13211055D02*
X12313396Y-13192008D01*
X12313396Y-13192008D02*
X12332444Y-13163436D01*
X12332444Y-13163436D02*
X12341968Y-13153912D01*
X12418158Y-13249150D02*
X12418158Y-13382484D01*
X12418158Y-13268198D02*
X12427682Y-13258674D01*
X12427682Y-13258674D02*
X12446730Y-13249150D01*
X12446730Y-13249150D02*
X12475301Y-13249150D01*
X12475301Y-13249150D02*
X12494349Y-13258674D01*
X12494349Y-13258674D02*
X12503872Y-13277722D01*
X12503872Y-13277722D02*
X12503872Y-13382484D01*
X12627682Y-13382484D02*
X12608634Y-13372960D01*
X12608634Y-13372960D02*
X12599111Y-13363436D01*
X12599111Y-13363436D02*
X12589587Y-13344388D01*
X12589587Y-13344388D02*
X12589587Y-13287246D01*
X12589587Y-13287246D02*
X12599111Y-13268198D01*
X12599111Y-13268198D02*
X12608634Y-13258674D01*
X12608634Y-13258674D02*
X12627682Y-13249150D01*
X12627682Y-13249150D02*
X12656253Y-13249150D01*
X12656253Y-13249150D02*
X12675301Y-13258674D01*
X12675301Y-13258674D02*
X12684825Y-13268198D01*
X12684825Y-13268198D02*
X12694349Y-13287246D01*
X12694349Y-13287246D02*
X12694349Y-13344388D01*
X12694349Y-13344388D02*
X12684825Y-13363436D01*
X12684825Y-13363436D02*
X12675301Y-13372960D01*
X12675301Y-13372960D02*
X12656253Y-13382484D01*
X12656253Y-13382484D02*
X12627682Y-13382484D01*
X12751492Y-13249150D02*
X12827682Y-13249150D01*
X12780063Y-13182484D02*
X12780063Y-13353912D01*
X12780063Y-13353912D02*
X12789587Y-13372960D01*
X12789587Y-13372960D02*
X12808634Y-13382484D01*
X12808634Y-13382484D02*
X12827682Y-13382484D01*
X13046730Y-13249150D02*
X13046730Y-13449150D01*
X13046730Y-13258674D02*
X13065777Y-13249150D01*
X13065777Y-13249150D02*
X13103873Y-13249150D01*
X13103873Y-13249150D02*
X13122920Y-13258674D01*
X13122920Y-13258674D02*
X13132444Y-13268198D01*
X13132444Y-13268198D02*
X13141968Y-13287246D01*
X13141968Y-13287246D02*
X13141968Y-13344388D01*
X13141968Y-13344388D02*
X13132444Y-13363436D01*
X13132444Y-13363436D02*
X13122920Y-13372960D01*
X13122920Y-13372960D02*
X13103873Y-13382484D01*
X13103873Y-13382484D02*
X13065777Y-13382484D01*
X13065777Y-13382484D02*
X13046730Y-13372960D01*
X13256253Y-13382484D02*
X13237206Y-13372960D01*
X13237206Y-13372960D02*
X13227682Y-13353912D01*
X13227682Y-13353912D02*
X13227682Y-13182484D01*
X13418158Y-13382484D02*
X13418158Y-13277722D01*
X13418158Y-13277722D02*
X13408634Y-13258674D01*
X13408634Y-13258674D02*
X13389587Y-13249150D01*
X13389587Y-13249150D02*
X13351492Y-13249150D01*
X13351492Y-13249150D02*
X13332444Y-13258674D01*
X13418158Y-13372960D02*
X13399111Y-13382484D01*
X13399111Y-13382484D02*
X13351492Y-13382484D01*
X13351492Y-13382484D02*
X13332444Y-13372960D01*
X13332444Y-13372960D02*
X13322920Y-13353912D01*
X13322920Y-13353912D02*
X13322920Y-13334865D01*
X13322920Y-13334865D02*
X13332444Y-13315817D01*
X13332444Y-13315817D02*
X13351492Y-13306293D01*
X13351492Y-13306293D02*
X13399111Y-13306293D01*
X13399111Y-13306293D02*
X13418158Y-13296769D01*
X13484825Y-13249150D02*
X13561015Y-13249150D01*
X13513396Y-13182484D02*
X13513396Y-13353912D01*
X13513396Y-13353912D02*
X13522920Y-13372960D01*
X13522920Y-13372960D02*
X13541968Y-13382484D01*
X13541968Y-13382484D02*
X13561015Y-13382484D01*
X13703873Y-13372960D02*
X13684825Y-13382484D01*
X13684825Y-13382484D02*
X13646730Y-13382484D01*
X13646730Y-13382484D02*
X13627682Y-13372960D01*
X13627682Y-13372960D02*
X13618158Y-13353912D01*
X13618158Y-13353912D02*
X13618158Y-13277722D01*
X13618158Y-13277722D02*
X13627682Y-13258674D01*
X13627682Y-13258674D02*
X13646730Y-13249150D01*
X13646730Y-13249150D02*
X13684825Y-13249150D01*
X13684825Y-13249150D02*
X13703873Y-13258674D01*
X13703873Y-13258674D02*
X13713396Y-13277722D01*
X13713396Y-13277722D02*
X13713396Y-13296769D01*
X13713396Y-13296769D02*
X13618158Y-13315817D01*
X13884825Y-13382484D02*
X13884825Y-13182484D01*
X13884825Y-13372960D02*
X13865777Y-13382484D01*
X13865777Y-13382484D02*
X13827682Y-13382484D01*
X13827682Y-13382484D02*
X13808634Y-13372960D01*
X13808634Y-13372960D02*
X13799111Y-13363436D01*
X13799111Y-13363436D02*
X13789587Y-13344388D01*
X13789587Y-13344388D02*
X13789587Y-13287246D01*
X13789587Y-13287246D02*
X13799111Y-13268198D01*
X13799111Y-13268198D02*
X13808634Y-13258674D01*
X13808634Y-13258674D02*
X13827682Y-13249150D01*
X13827682Y-13249150D02*
X13865777Y-13249150D01*
X13865777Y-13249150D02*
X13884825Y-13258674D01*
X13961015Y-13458674D02*
X13970539Y-13449150D01*
X13970539Y-13449150D02*
X13989587Y-13420579D01*
X13989587Y-13420579D02*
X13999111Y-13401531D01*
X13999111Y-13401531D02*
X14008634Y-13372960D01*
X14008634Y-13372960D02*
X14018158Y-13325341D01*
X14018158Y-13325341D02*
X14018158Y-13287246D01*
X14018158Y-13287246D02*
X14008634Y-13239627D01*
X14008634Y-13239627D02*
X13999111Y-13211055D01*
X13999111Y-13211055D02*
X13989587Y-13192008D01*
X13989587Y-13192008D02*
X13970539Y-13163436D01*
X13970539Y-13163436D02*
X13961015Y-13153912D01*
X7175711Y-13661711D02*
X7175711Y-13520289D01*
X7034289Y-13520289D01*
X7034289Y-13661711D01*
X7175711Y-13661711D01*
X7446729Y-13482484D02*
X7570539Y-13482484D01*
X7570539Y-13482484D02*
X7503872Y-13558674D01*
X7503872Y-13558674D02*
X7532443Y-13558674D01*
X7532443Y-13558674D02*
X7551491Y-13568198D01*
X7551491Y-13568198D02*
X7561015Y-13577722D01*
X7561015Y-13577722D02*
X7570539Y-13596769D01*
X7570539Y-13596769D02*
X7570539Y-13644388D01*
X7570539Y-13644388D02*
X7561015Y-13663436D01*
X7561015Y-13663436D02*
X7551491Y-13672960D01*
X7551491Y-13672960D02*
X7532443Y-13682484D01*
X7532443Y-13682484D02*
X7475301Y-13682484D01*
X7475301Y-13682484D02*
X7456253Y-13672960D01*
X7456253Y-13672960D02*
X7446729Y-13663436D01*
X7656253Y-13663436D02*
X7665777Y-13672960D01*
X7665777Y-13672960D02*
X7656253Y-13682484D01*
X7656253Y-13682484D02*
X7646729Y-13672960D01*
X7646729Y-13672960D02*
X7656253Y-13663436D01*
X7656253Y-13663436D02*
X7656253Y-13682484D01*
X7741967Y-13501531D02*
X7751491Y-13492008D01*
X7751491Y-13492008D02*
X7770539Y-13482484D01*
X7770539Y-13482484D02*
X7818158Y-13482484D01*
X7818158Y-13482484D02*
X7837205Y-13492008D01*
X7837205Y-13492008D02*
X7846729Y-13501531D01*
X7846729Y-13501531D02*
X7856253Y-13520579D01*
X7856253Y-13520579D02*
X7856253Y-13539627D01*
X7856253Y-13539627D02*
X7846729Y-13568198D01*
X7846729Y-13568198D02*
X7732443Y-13682484D01*
X7732443Y-13682484D02*
X7856253Y-13682484D01*
X7980062Y-13482484D02*
X7999110Y-13482484D01*
X7999110Y-13482484D02*
X8018158Y-13492008D01*
X8018158Y-13492008D02*
X8027682Y-13501531D01*
X8027682Y-13501531D02*
X8037205Y-13520579D01*
X8037205Y-13520579D02*
X8046729Y-13558674D01*
X8046729Y-13558674D02*
X8046729Y-13606293D01*
X8046729Y-13606293D02*
X8037205Y-13644388D01*
X8037205Y-13644388D02*
X8027682Y-13663436D01*
X8027682Y-13663436D02*
X8018158Y-13672960D01*
X8018158Y-13672960D02*
X7999110Y-13682484D01*
X7999110Y-13682484D02*
X7980062Y-13682484D01*
X7980062Y-13682484D02*
X7961015Y-13672960D01*
X7961015Y-13672960D02*
X7951491Y-13663436D01*
X7951491Y-13663436D02*
X7941967Y-13644388D01*
X7941967Y-13644388D02*
X7932443Y-13606293D01*
X7932443Y-13606293D02*
X7932443Y-13558674D01*
X7932443Y-13558674D02*
X7941967Y-13520579D01*
X7941967Y-13520579D02*
X7951491Y-13501531D01*
X7951491Y-13501531D02*
X7961015Y-13492008D01*
X7961015Y-13492008D02*
X7980062Y-13482484D01*
X8170539Y-13482484D02*
X8189586Y-13482484D01*
X8189586Y-13482484D02*
X8208634Y-13492008D01*
X8208634Y-13492008D02*
X8218158Y-13501531D01*
X8218158Y-13501531D02*
X8227682Y-13520579D01*
X8227682Y-13520579D02*
X8237205Y-13558674D01*
X8237205Y-13558674D02*
X8237205Y-13606293D01*
X8237205Y-13606293D02*
X8227682Y-13644388D01*
X8227682Y-13644388D02*
X8218158Y-13663436D01*
X8218158Y-13663436D02*
X8208634Y-13672960D01*
X8208634Y-13672960D02*
X8189586Y-13682484D01*
X8189586Y-13682484D02*
X8170539Y-13682484D01*
X8170539Y-13682484D02*
X8151491Y-13672960D01*
X8151491Y-13672960D02*
X8141967Y-13663436D01*
X8141967Y-13663436D02*
X8132443Y-13644388D01*
X8132443Y-13644388D02*
X8122920Y-13606293D01*
X8122920Y-13606293D02*
X8122920Y-13558674D01*
X8122920Y-13558674D02*
X8132443Y-13520579D01*
X8132443Y-13520579D02*
X8141967Y-13501531D01*
X8141967Y-13501531D02*
X8151491Y-13492008D01*
X8151491Y-13492008D02*
X8170539Y-13482484D01*
X8322920Y-13682484D02*
X8322920Y-13549150D01*
X8322920Y-13568198D02*
X8332443Y-13558674D01*
X8332443Y-13558674D02*
X8351491Y-13549150D01*
X8351491Y-13549150D02*
X8380063Y-13549150D01*
X8380063Y-13549150D02*
X8399110Y-13558674D01*
X8399110Y-13558674D02*
X8408634Y-13577722D01*
X8408634Y-13577722D02*
X8408634Y-13682484D01*
X8408634Y-13577722D02*
X8418158Y-13558674D01*
X8418158Y-13558674D02*
X8437205Y-13549150D01*
X8437205Y-13549150D02*
X8465777Y-13549150D01*
X8465777Y-13549150D02*
X8484825Y-13558674D01*
X8484825Y-13558674D02*
X8494348Y-13577722D01*
X8494348Y-13577722D02*
X8494348Y-13682484D01*
X8589586Y-13682484D02*
X8589586Y-13549150D01*
X8589586Y-13568198D02*
X8599110Y-13558674D01*
X8599110Y-13558674D02*
X8618158Y-13549150D01*
X8618158Y-13549150D02*
X8646729Y-13549150D01*
X8646729Y-13549150D02*
X8665777Y-13558674D01*
X8665777Y-13558674D02*
X8675301Y-13577722D01*
X8675301Y-13577722D02*
X8675301Y-13682484D01*
X8675301Y-13577722D02*
X8684825Y-13558674D01*
X8684825Y-13558674D02*
X8703872Y-13549150D01*
X8703872Y-13549150D02*
X8732444Y-13549150D01*
X8732444Y-13549150D02*
X8751491Y-13558674D01*
X8751491Y-13558674D02*
X8761015Y-13577722D01*
X8761015Y-13577722D02*
X8761015Y-13682484D01*
X9151491Y-13472960D02*
X8980063Y-13730103D01*
X9408634Y-13482484D02*
X9427682Y-13482484D01*
X9427682Y-13482484D02*
X9446729Y-13492008D01*
X9446729Y-13492008D02*
X9456253Y-13501531D01*
X9456253Y-13501531D02*
X9465777Y-13520579D01*
X9465777Y-13520579D02*
X9475301Y-13558674D01*
X9475301Y-13558674D02*
X9475301Y-13606293D01*
X9475301Y-13606293D02*
X9465777Y-13644388D01*
X9465777Y-13644388D02*
X9456253Y-13663436D01*
X9456253Y-13663436D02*
X9446729Y-13672960D01*
X9446729Y-13672960D02*
X9427682Y-13682484D01*
X9427682Y-13682484D02*
X9408634Y-13682484D01*
X9408634Y-13682484D02*
X9389587Y-13672960D01*
X9389587Y-13672960D02*
X9380063Y-13663436D01*
X9380063Y-13663436D02*
X9370539Y-13644388D01*
X9370539Y-13644388D02*
X9361015Y-13606293D01*
X9361015Y-13606293D02*
X9361015Y-13558674D01*
X9361015Y-13558674D02*
X9370539Y-13520579D01*
X9370539Y-13520579D02*
X9380063Y-13501531D01*
X9380063Y-13501531D02*
X9389587Y-13492008D01*
X9389587Y-13492008D02*
X9408634Y-13482484D01*
X9561015Y-13663436D02*
X9570539Y-13672960D01*
X9570539Y-13672960D02*
X9561015Y-13682484D01*
X9561015Y-13682484D02*
X9551491Y-13672960D01*
X9551491Y-13672960D02*
X9561015Y-13663436D01*
X9561015Y-13663436D02*
X9561015Y-13682484D01*
X9761015Y-13682484D02*
X9646729Y-13682484D01*
X9703872Y-13682484D02*
X9703872Y-13482484D01*
X9703872Y-13482484D02*
X9684825Y-13511055D01*
X9684825Y-13511055D02*
X9665777Y-13530103D01*
X9665777Y-13530103D02*
X9646729Y-13539627D01*
X9837206Y-13501531D02*
X9846729Y-13492008D01*
X9846729Y-13492008D02*
X9865777Y-13482484D01*
X9865777Y-13482484D02*
X9913396Y-13482484D01*
X9913396Y-13482484D02*
X9932444Y-13492008D01*
X9932444Y-13492008D02*
X9941968Y-13501531D01*
X9941968Y-13501531D02*
X9951491Y-13520579D01*
X9951491Y-13520579D02*
X9951491Y-13539627D01*
X9951491Y-13539627D02*
X9941968Y-13568198D01*
X9941968Y-13568198D02*
X9827682Y-13682484D01*
X9827682Y-13682484D02*
X9951491Y-13682484D01*
X10122920Y-13482484D02*
X10084825Y-13482484D01*
X10084825Y-13482484D02*
X10065777Y-13492008D01*
X10065777Y-13492008D02*
X10056253Y-13501531D01*
X10056253Y-13501531D02*
X10037206Y-13530103D01*
X10037206Y-13530103D02*
X10027682Y-13568198D01*
X10027682Y-13568198D02*
X10027682Y-13644388D01*
X10027682Y-13644388D02*
X10037206Y-13663436D01*
X10037206Y-13663436D02*
X10046729Y-13672960D01*
X10046729Y-13672960D02*
X10065777Y-13682484D01*
X10065777Y-13682484D02*
X10103872Y-13682484D01*
X10103872Y-13682484D02*
X10122920Y-13672960D01*
X10122920Y-13672960D02*
X10132444Y-13663436D01*
X10132444Y-13663436D02*
X10141968Y-13644388D01*
X10141968Y-13644388D02*
X10141968Y-13596769D01*
X10141968Y-13596769D02*
X10132444Y-13577722D01*
X10132444Y-13577722D02*
X10122920Y-13568198D01*
X10122920Y-13568198D02*
X10103872Y-13558674D01*
X10103872Y-13558674D02*
X10065777Y-13558674D01*
X10065777Y-13558674D02*
X10046729Y-13568198D01*
X10046729Y-13568198D02*
X10037206Y-13577722D01*
X10037206Y-13577722D02*
X10027682Y-13596769D01*
X10265777Y-13482484D02*
X10284825Y-13482484D01*
X10284825Y-13482484D02*
X10303872Y-13492008D01*
X10303872Y-13492008D02*
X10313396Y-13501531D01*
X10313396Y-13501531D02*
X10322920Y-13520579D01*
X10322920Y-13520579D02*
X10332444Y-13558674D01*
X10332444Y-13558674D02*
X10332444Y-13606293D01*
X10332444Y-13606293D02*
X10322920Y-13644388D01*
X10322920Y-13644388D02*
X10313396Y-13663436D01*
X10313396Y-13663436D02*
X10303872Y-13672960D01*
X10303872Y-13672960D02*
X10284825Y-13682484D01*
X10284825Y-13682484D02*
X10265777Y-13682484D01*
X10265777Y-13682484D02*
X10246729Y-13672960D01*
X10246729Y-13672960D02*
X10237206Y-13663436D01*
X10237206Y-13663436D02*
X10227682Y-13644388D01*
X10227682Y-13644388D02*
X10218158Y-13606293D01*
X10218158Y-13606293D02*
X10218158Y-13558674D01*
X10218158Y-13558674D02*
X10227682Y-13520579D01*
X10227682Y-13520579D02*
X10237206Y-13501531D01*
X10237206Y-13501531D02*
X10246729Y-13492008D01*
X10246729Y-13492008D02*
X10265777Y-13482484D01*
X10408634Y-13482484D02*
X10408634Y-13520579D01*
X10484825Y-13482484D02*
X10484825Y-13520579D01*
X10780063Y-13758674D02*
X10770539Y-13749150D01*
X10770539Y-13749150D02*
X10751491Y-13720579D01*
X10751491Y-13720579D02*
X10741968Y-13701531D01*
X10741968Y-13701531D02*
X10732444Y-13672960D01*
X10732444Y-13672960D02*
X10722920Y-13625341D01*
X10722920Y-13625341D02*
X10722920Y-13587246D01*
X10722920Y-13587246D02*
X10732444Y-13539627D01*
X10732444Y-13539627D02*
X10741968Y-13511055D01*
X10741968Y-13511055D02*
X10751491Y-13492008D01*
X10751491Y-13492008D02*
X10770539Y-13463436D01*
X10770539Y-13463436D02*
X10780063Y-13453912D01*
X10941968Y-13549150D02*
X10941968Y-13682484D01*
X10894349Y-13472960D02*
X10846730Y-13615817D01*
X10846730Y-13615817D02*
X10970539Y-13615817D01*
X11199110Y-13682484D02*
X11199110Y-13482484D01*
X11284825Y-13682484D02*
X11284825Y-13577722D01*
X11284825Y-13577722D02*
X11275301Y-13558674D01*
X11275301Y-13558674D02*
X11256253Y-13549150D01*
X11256253Y-13549150D02*
X11227682Y-13549150D01*
X11227682Y-13549150D02*
X11208634Y-13558674D01*
X11208634Y-13558674D02*
X11199110Y-13568198D01*
X11408634Y-13682484D02*
X11389587Y-13672960D01*
X11389587Y-13672960D02*
X11380063Y-13663436D01*
X11380063Y-13663436D02*
X11370539Y-13644388D01*
X11370539Y-13644388D02*
X11370539Y-13587246D01*
X11370539Y-13587246D02*
X11380063Y-13568198D01*
X11380063Y-13568198D02*
X11389587Y-13558674D01*
X11389587Y-13558674D02*
X11408634Y-13549150D01*
X11408634Y-13549150D02*
X11437206Y-13549150D01*
X11437206Y-13549150D02*
X11456253Y-13558674D01*
X11456253Y-13558674D02*
X11465777Y-13568198D01*
X11465777Y-13568198D02*
X11475301Y-13587246D01*
X11475301Y-13587246D02*
X11475301Y-13644388D01*
X11475301Y-13644388D02*
X11465777Y-13663436D01*
X11465777Y-13663436D02*
X11456253Y-13672960D01*
X11456253Y-13672960D02*
X11437206Y-13682484D01*
X11437206Y-13682484D02*
X11408634Y-13682484D01*
X11589587Y-13682484D02*
X11570539Y-13672960D01*
X11570539Y-13672960D02*
X11561015Y-13653912D01*
X11561015Y-13653912D02*
X11561015Y-13482484D01*
X11741968Y-13672960D02*
X11722920Y-13682484D01*
X11722920Y-13682484D02*
X11684825Y-13682484D01*
X11684825Y-13682484D02*
X11665777Y-13672960D01*
X11665777Y-13672960D02*
X11656253Y-13653912D01*
X11656253Y-13653912D02*
X11656253Y-13577722D01*
X11656253Y-13577722D02*
X11665777Y-13558674D01*
X11665777Y-13558674D02*
X11684825Y-13549150D01*
X11684825Y-13549150D02*
X11722920Y-13549150D01*
X11722920Y-13549150D02*
X11741968Y-13558674D01*
X11741968Y-13558674D02*
X11751491Y-13577722D01*
X11751491Y-13577722D02*
X11751491Y-13596769D01*
X11751491Y-13596769D02*
X11656253Y-13615817D01*
X11827682Y-13672960D02*
X11846730Y-13682484D01*
X11846730Y-13682484D02*
X11884825Y-13682484D01*
X11884825Y-13682484D02*
X11903872Y-13672960D01*
X11903872Y-13672960D02*
X11913396Y-13653912D01*
X11913396Y-13653912D02*
X11913396Y-13644388D01*
X11913396Y-13644388D02*
X11903872Y-13625341D01*
X11903872Y-13625341D02*
X11884825Y-13615817D01*
X11884825Y-13615817D02*
X11856253Y-13615817D01*
X11856253Y-13615817D02*
X11837206Y-13606293D01*
X11837206Y-13606293D02*
X11827682Y-13587246D01*
X11827682Y-13587246D02*
X11827682Y-13577722D01*
X11827682Y-13577722D02*
X11837206Y-13558674D01*
X11837206Y-13558674D02*
X11856253Y-13549150D01*
X11856253Y-13549150D02*
X11884825Y-13549150D01*
X11884825Y-13549150D02*
X11903872Y-13558674D01*
X11980063Y-13758674D02*
X11989587Y-13749150D01*
X11989587Y-13749150D02*
X12008634Y-13720579D01*
X12008634Y-13720579D02*
X12018158Y-13701531D01*
X12018158Y-13701531D02*
X12027682Y-13672960D01*
X12027682Y-13672960D02*
X12037206Y-13625341D01*
X12037206Y-13625341D02*
X12037206Y-13587246D01*
X12037206Y-13587246D02*
X12027682Y-13539627D01*
X12027682Y-13539627D02*
X12018158Y-13511055D01*
X12018158Y-13511055D02*
X12008634Y-13492008D01*
X12008634Y-13492008D02*
X11989587Y-13463436D01*
X11989587Y-13463436D02*
X11980063Y-13453912D01*
X12341968Y-13758674D02*
X12332444Y-13749150D01*
X12332444Y-13749150D02*
X12313396Y-13720579D01*
X12313396Y-13720579D02*
X12303872Y-13701531D01*
X12303872Y-13701531D02*
X12294349Y-13672960D01*
X12294349Y-13672960D02*
X12284825Y-13625341D01*
X12284825Y-13625341D02*
X12284825Y-13587246D01*
X12284825Y-13587246D02*
X12294349Y-13539627D01*
X12294349Y-13539627D02*
X12303872Y-13511055D01*
X12303872Y-13511055D02*
X12313396Y-13492008D01*
X12313396Y-13492008D02*
X12332444Y-13463436D01*
X12332444Y-13463436D02*
X12341968Y-13453912D01*
X12418158Y-13549150D02*
X12418158Y-13682484D01*
X12418158Y-13568198D02*
X12427682Y-13558674D01*
X12427682Y-13558674D02*
X12446730Y-13549150D01*
X12446730Y-13549150D02*
X12475301Y-13549150D01*
X12475301Y-13549150D02*
X12494349Y-13558674D01*
X12494349Y-13558674D02*
X12503872Y-13577722D01*
X12503872Y-13577722D02*
X12503872Y-13682484D01*
X12627682Y-13682484D02*
X12608634Y-13672960D01*
X12608634Y-13672960D02*
X12599111Y-13663436D01*
X12599111Y-13663436D02*
X12589587Y-13644388D01*
X12589587Y-13644388D02*
X12589587Y-13587246D01*
X12589587Y-13587246D02*
X12599111Y-13568198D01*
X12599111Y-13568198D02*
X12608634Y-13558674D01*
X12608634Y-13558674D02*
X12627682Y-13549150D01*
X12627682Y-13549150D02*
X12656253Y-13549150D01*
X12656253Y-13549150D02*
X12675301Y-13558674D01*
X12675301Y-13558674D02*
X12684825Y-13568198D01*
X12684825Y-13568198D02*
X12694349Y-13587246D01*
X12694349Y-13587246D02*
X12694349Y-13644388D01*
X12694349Y-13644388D02*
X12684825Y-13663436D01*
X12684825Y-13663436D02*
X12675301Y-13672960D01*
X12675301Y-13672960D02*
X12656253Y-13682484D01*
X12656253Y-13682484D02*
X12627682Y-13682484D01*
X12751492Y-13549150D02*
X12827682Y-13549150D01*
X12780063Y-13482484D02*
X12780063Y-13653912D01*
X12780063Y-13653912D02*
X12789587Y-13672960D01*
X12789587Y-13672960D02*
X12808634Y-13682484D01*
X12808634Y-13682484D02*
X12827682Y-13682484D01*
X13046730Y-13549150D02*
X13046730Y-13749150D01*
X13046730Y-13558674D02*
X13065777Y-13549150D01*
X13065777Y-13549150D02*
X13103873Y-13549150D01*
X13103873Y-13549150D02*
X13122920Y-13558674D01*
X13122920Y-13558674D02*
X13132444Y-13568198D01*
X13132444Y-13568198D02*
X13141968Y-13587246D01*
X13141968Y-13587246D02*
X13141968Y-13644388D01*
X13141968Y-13644388D02*
X13132444Y-13663436D01*
X13132444Y-13663436D02*
X13122920Y-13672960D01*
X13122920Y-13672960D02*
X13103873Y-13682484D01*
X13103873Y-13682484D02*
X13065777Y-13682484D01*
X13065777Y-13682484D02*
X13046730Y-13672960D01*
X13256253Y-13682484D02*
X13237206Y-13672960D01*
X13237206Y-13672960D02*
X13227682Y-13653912D01*
X13227682Y-13653912D02*
X13227682Y-13482484D01*
X13418158Y-13682484D02*
X13418158Y-13577722D01*
X13418158Y-13577722D02*
X13408634Y-13558674D01*
X13408634Y-13558674D02*
X13389587Y-13549150D01*
X13389587Y-13549150D02*
X13351492Y-13549150D01*
X13351492Y-13549150D02*
X13332444Y-13558674D01*
X13418158Y-13672960D02*
X13399111Y-13682484D01*
X13399111Y-13682484D02*
X13351492Y-13682484D01*
X13351492Y-13682484D02*
X13332444Y-13672960D01*
X13332444Y-13672960D02*
X13322920Y-13653912D01*
X13322920Y-13653912D02*
X13322920Y-13634865D01*
X13322920Y-13634865D02*
X13332444Y-13615817D01*
X13332444Y-13615817D02*
X13351492Y-13606293D01*
X13351492Y-13606293D02*
X13399111Y-13606293D01*
X13399111Y-13606293D02*
X13418158Y-13596769D01*
X13484825Y-13549150D02*
X13561015Y-13549150D01*
X13513396Y-13482484D02*
X13513396Y-13653912D01*
X13513396Y-13653912D02*
X13522920Y-13672960D01*
X13522920Y-13672960D02*
X13541968Y-13682484D01*
X13541968Y-13682484D02*
X13561015Y-13682484D01*
X13703873Y-13672960D02*
X13684825Y-13682484D01*
X13684825Y-13682484D02*
X13646730Y-13682484D01*
X13646730Y-13682484D02*
X13627682Y-13672960D01*
X13627682Y-13672960D02*
X13618158Y-13653912D01*
X13618158Y-13653912D02*
X13618158Y-13577722D01*
X13618158Y-13577722D02*
X13627682Y-13558674D01*
X13627682Y-13558674D02*
X13646730Y-13549150D01*
X13646730Y-13549150D02*
X13684825Y-13549150D01*
X13684825Y-13549150D02*
X13703873Y-13558674D01*
X13703873Y-13558674D02*
X13713396Y-13577722D01*
X13713396Y-13577722D02*
X13713396Y-13596769D01*
X13713396Y-13596769D02*
X13618158Y-13615817D01*
X13884825Y-13682484D02*
X13884825Y-13482484D01*
X13884825Y-13672960D02*
X13865777Y-13682484D01*
X13865777Y-13682484D02*
X13827682Y-13682484D01*
X13827682Y-13682484D02*
X13808634Y-13672960D01*
X13808634Y-13672960D02*
X13799111Y-13663436D01*
X13799111Y-13663436D02*
X13789587Y-13644388D01*
X13789587Y-13644388D02*
X13789587Y-13587246D01*
X13789587Y-13587246D02*
X13799111Y-13568198D01*
X13799111Y-13568198D02*
X13808634Y-13558674D01*
X13808634Y-13558674D02*
X13827682Y-13549150D01*
X13827682Y-13549150D02*
X13865777Y-13549150D01*
X13865777Y-13549150D02*
X13884825Y-13558674D01*
X13961015Y-13758674D02*
X13970539Y-13749150D01*
X13970539Y-13749150D02*
X13989587Y-13720579D01*
X13989587Y-13720579D02*
X13999111Y-13701531D01*
X13999111Y-13701531D02*
X14008634Y-13672960D01*
X14008634Y-13672960D02*
X14018158Y-13625341D01*
X14018158Y-13625341D02*
X14018158Y-13587246D01*
X14018158Y-13587246D02*
X14008634Y-13539627D01*
X14008634Y-13539627D02*
X13999111Y-13511055D01*
X13999111Y-13511055D02*
X13989587Y-13492008D01*
X13989587Y-13492008D02*
X13970539Y-13463436D01*
X13970539Y-13463436D02*
X13961015Y-13453912D01*
M02*
